<svg width="124" height="171" viewBox="0 0 124 171" fill="none" xmlns="http://www.w3.org/2000/svg">
<path d="M14.9924 35.9392C15.569 42.8653 14.9924 49.7915 15.2807 56.7177C15.2807 57.2949 15.569 57.5834 16.1457 57.5834C22.4889 57.5834 29.1205 58.7378 35.1754 60.4694C38.9237 61.3351 42.3837 63.0667 46.132 64.221C49.0153 65.0868 53.3402 66.2412 55.9352 64.5096C58.5301 62.4895 57.9535 58.7378 57.3768 55.8519C56.5118 51.2345 54.2052 46.617 54.2052 41.9996C54.2052 40.8452 52.4752 40.8452 52.4752 41.9996C52.4752 45.7512 53.6285 49.2143 54.7819 52.6774C55.6468 55.2747 57.3768 60.4694 55.0702 62.7781C52.7635 65.0868 47.5736 63.0667 44.9787 62.2009C41.5187 61.0465 38.3471 59.8922 35.1754 59.0264C28.8322 57.2949 22.4889 56.1405 15.8574 56.1405C16.1457 56.4291 16.434 56.7177 16.7224 57.0063C16.434 50.0801 17.0107 43.1539 16.434 36.2277C16.434 34.7848 14.704 34.7848 14.9924 35.9392Z" fill="black"/>
<path d="M74.1002 34.2076C74.1002 34.4962 74.1002 35.0734 74.1002 35.3619C73.8119 35.9391 74.1002 35.6505 74.1002 35.3619C74.6769 35.3619 74.9652 35.3619 75.5418 35.3619C75.8302 35.6505 75.5418 35.3619 75.5418 35.0734C75.5418 34.7848 75.5418 34.4962 75.5418 34.2076C75.5418 33.919 75.5418 33.6304 75.5418 33.3418C75.5418 32.476 75.8302 33.0532 75.2535 33.6304C74.9652 33.3418 74.3885 33.3418 74.1002 33.0532C74.3885 33.6304 74.3885 35.0734 74.3885 35.9391C74.6769 37.9593 74.9652 39.6908 75.2535 41.7109C75.8302 45.174 76.4068 48.9257 73.8119 51.8116C71.2169 54.6975 67.7569 56.7177 64.5853 58.4492C61.4137 60.1807 57.9537 61.6237 54.7821 63.0667C53.9171 63.3552 54.7821 64.7982 55.6471 64.5096C61.4137 62.2009 67.1803 59.6036 72.0819 55.5633C74.1002 54.1203 76.1185 52.1002 76.9835 49.5029C77.8485 46.617 77.2718 43.4425 76.6952 40.5566C76.4068 38.825 76.1185 36.8049 75.8302 35.0734C75.8302 34.2076 75.8302 33.3418 75.5418 32.476C75.2535 31.8989 74.9652 31.6103 74.3885 31.8989C73.5235 32.476 73.8119 33.6304 74.1002 34.2076C74.1002 34.7848 73.8119 35.6505 74.1002 36.2277C74.3885 36.8049 75.2535 36.8049 75.5418 36.2277C75.8302 35.6505 75.8302 34.7848 75.8302 34.2076C75.5418 33.0532 74.1002 33.0532 74.1002 34.2076Z" fill="black"/>
<path d="M15.2811 40.5568C19.0294 40.5568 23.066 39.9796 26.8143 39.1138C27.391 39.1138 27.1026 38.248 26.526 38.248C22.7777 38.8252 19.0294 39.691 15.2811 39.691C14.7045 39.691 14.7045 40.5568 15.2811 40.5568Z" fill="black"/>
<path d="M15.2811 42.5768C20.1827 42.5768 24.796 41.711 29.6976 41.1338C30.2743 41.1338 29.9859 40.2681 29.4093 40.2681C24.796 40.8452 20.1827 41.711 15.2811 41.711C14.7045 41.711 14.7045 42.5768 15.2811 42.5768Z" fill="black"/>
<path d="M16.7225 45.463C21.0475 45.463 25.3724 44.5973 29.409 44.0201C29.9857 44.0201 29.9857 43.1543 29.409 43.1543C25.0841 43.4429 21.0475 44.5972 16.7225 44.5972C16.1459 44.5972 16.1459 45.463 16.7225 45.463Z" fill="black"/>
<path d="M16.4348 48.9259C20.7597 47.7716 25.373 47.483 29.9862 46.9058C30.5629 46.9058 30.2746 46.04 29.6979 46.04C25.0846 46.6172 20.7597 46.9058 16.1464 48.0602C15.8581 48.3488 15.8581 48.9259 16.4348 48.9259Z" fill="black"/>
<path d="M16.1461 51.2345C20.7593 52.1003 25.3726 51.2345 29.6976 49.503C30.2742 49.2144 29.6976 48.6372 29.4092 48.6372C25.3726 50.3688 20.7593 50.9459 16.7227 50.3687C15.8577 50.3687 15.8577 51.2345 16.1461 51.2345Z" fill="black"/>
<path d="M16.1459 54.1207C20.7592 54.9865 25.3725 53.5435 29.9857 52.9664C30.5624 52.9664 30.5624 52.1006 29.9857 52.1006C25.3725 52.3892 20.7592 54.1207 16.1459 53.2549C15.8576 53.2549 15.8576 54.1207 16.1459 54.1207Z" fill="black"/>
<path d="M8.64938 28.436C12.1093 22.9528 16.1459 18.0467 20.4709 13.1407C22.4892 10.832 24.5075 8.52325 26.5258 5.92593C27.6791 4.48298 30.2741 2.17425 30.2741 0.15412C29.9858 0.442711 29.4091 0.731301 29.1208 1.01989C46.7089 9.9662 67.4686 6.50311 86.4983 9.38902C86.21 9.10043 86.21 8.52325 85.9217 8.23466C81.5967 15.738 76.9835 23.2414 72.6585 30.7447C70.6402 34.4964 68.6219 39.4024 63.7203 40.5568C61.702 41.134 59.3954 40.8454 57.3771 40.5568C54.4938 40.2682 51.3221 39.691 48.4388 39.1139C41.5189 37.9595 34.599 36.8051 27.6791 35.6508C20.4709 34.4964 12.9743 33.342 5.47775 32.4763C5.76608 32.7649 6.05441 33.342 6.34274 33.6306C7.20773 31.8991 8.07272 30.1675 8.64938 28.436C8.93771 27.5702 7.49606 26.7045 7.20773 27.5702C6.34274 29.3018 5.76608 31.0333 4.90109 32.7649C4.61276 33.342 4.90109 33.9192 5.76608 33.9192C19.8942 35.3622 34.0224 38.2481 48.4388 40.5568C53.3404 41.4226 58.8187 42.8655 63.7203 42.2883C68.0453 41.7112 70.3519 38.2481 72.3702 34.785C77.2718 26.1273 82.1734 17.7581 87.3633 9.38902C87.6517 9.10043 87.3633 8.23466 86.7867 8.23466C77.2718 6.7917 67.7569 6.7917 58.2421 6.21452C48.4389 5.63734 38.6356 4.48298 29.6974 0.15412C29.1208 -0.134471 28.5441 0.15412 28.5441 1.01989C28.5441 2.17425 27.1025 3.32862 26.5258 4.19439C25.6608 5.34875 24.7958 6.50311 23.6425 7.65748C21.6242 9.9662 19.8942 12.2749 17.8759 14.5837C14.1276 18.0467 10.3794 22.6642 7.20773 27.5702C6.63107 28.436 8.07272 29.3018 8.64938 28.436Z" fill="black"/>
<path d="M82.4622 19.2013C86.7871 18.6241 85.3454 23.2415 86.2104 26.1274C87.3638 29.3019 90.247 31.8992 93.707 30.4563C96.5903 29.3019 100.339 24.6845 103.799 27.2818C104.664 27.859 105.24 28.7247 106.105 29.0133C107.258 29.3019 108.412 29.0133 109.277 28.1476C111.007 26.7046 111.295 24.9731 112.448 22.9529C113.89 19.4898 118.215 20.067 121.387 20.067C121.098 19.2013 121.098 18.9127 121.098 18.3355C119.08 18.6241 117.927 19.7784 116.485 20.9328C115.908 21.2214 116.197 22.0872 116.773 22.3758C118.503 22.6643 120.233 23.2415 121.963 23.8187C121.963 23.2415 121.963 22.6643 121.963 22.0872C120.81 22.3758 119.657 23.2415 118.503 23.5301C117.927 23.5301 117.35 24.6845 118.215 24.9731C119.657 25.5502 121.387 26.7046 122.828 26.9932C122.828 26.416 122.828 25.8388 122.54 25.5502C121.675 25.8388 120.81 26.1274 119.945 26.416C119.368 26.7046 119.08 27.2818 119.368 27.5704C119.657 28.1476 119.945 28.7247 120.522 29.3019C120.81 29.0133 120.81 28.4362 121.098 28.1476C117.062 29.5905 113.89 24.3959 114.467 20.9328C114.755 19.7784 113.025 19.4898 112.737 20.3556C112.16 24.9731 116.197 31.3221 121.387 29.5905C121.963 29.3019 122.252 28.7247 121.963 28.4362C121.675 27.859 121.387 27.2818 120.81 26.7046C120.522 26.9932 120.522 27.5704 120.233 27.859C121.098 27.5704 122.252 27.2818 123.117 26.7046C123.693 26.416 123.693 25.2617 122.828 25.2617C121.387 24.6845 119.945 23.8187 118.503 23.2415C118.503 23.8187 118.215 24.3959 118.215 24.6845C119.945 24.9731 121.098 24.1073 122.54 23.5301C123.405 23.2415 123.405 22.0872 122.54 21.7986C120.81 21.51 119.08 20.9328 117.35 20.3556C117.35 20.9328 117.638 21.2214 117.638 21.7986C118.792 20.9328 119.945 20.067 121.387 19.4898C122.252 19.2013 121.963 17.7583 121.098 17.7583C118.792 17.7583 115.908 17.7583 113.602 18.6241C111.583 19.4898 110.718 21.2214 110.142 22.9529C109.853 24.6845 108.412 27.859 106.682 27.5704C105.817 27.2818 104.952 26.1274 104.375 25.8388C101.204 23.8187 97.7436 26.1274 95.1487 27.859C93.4187 29.0133 91.4004 30.4563 89.6704 28.7247C87.9404 27.2818 87.6521 25.5502 87.3638 23.5301C87.3638 22.0872 87.3638 20.3556 86.4988 19.2013C85.3454 17.7583 83.6155 17.7583 81.8855 17.7583C80.7322 17.7583 81.3088 19.2013 82.4622 19.2013Z" fill="black"/>
<path d="M7.78479 67.6845C6.34314 76.6308 8.07311 86.1543 10.9564 94.5235C13.8397 103.181 18.453 112.127 26.2379 117.322C35.7528 123.96 48.1509 121.074 57.9541 116.745C66.604 112.993 72.6589 104.913 76.9839 96.8322C79.5788 91.9261 81.5972 86.7315 82.7505 81.2483C83.6155 76.9194 84.1921 72.0134 83.0388 67.6845C82.7505 66.5302 81.0205 67.1073 81.3088 68.2617C83.6155 76.3422 80.4438 85.5771 77.2722 92.7919C73.5239 100.872 68.334 109.242 60.5491 113.859C55.9358 116.456 50.1692 118.188 44.9793 119.054C39.501 119.919 34.0228 119.919 29.1212 117.034C21.6246 112.993 16.723 104.336 13.5514 96.5436C10.0914 87.5973 7.78478 77.4966 9.51476 67.9731C9.51476 67.1073 8.07311 66.5302 7.78479 67.6845Z" fill="black"/>
<path d="M81.5966 86.1542C81.885 84.4227 83.3266 82.9797 85.0566 82.114C85.6333 81.8254 86.4982 81.5368 87.3632 81.5368C87.9399 81.5368 88.8049 81.8254 89.3815 82.114C89.9582 82.6911 90.2465 83.2683 90.5349 84.1341C90.8232 85.2885 90.5349 86.4428 90.2465 87.5972C89.3815 89.9059 87.9399 91.6374 85.6333 92.7918C84.7683 93.369 83.615 93.369 82.75 93.0804C81.5966 92.5032 80.7317 91.3489 80.4433 90.1945C80.155 89.9059 79.8667 89.6173 79.29 89.6173C79.0017 89.6173 78.425 90.1945 78.7133 90.7717C79.29 92.2146 80.155 93.6576 81.5966 94.2348C82.75 94.8119 83.9033 95.1005 85.3449 94.8119C87.9399 94.2348 90.2465 91.926 91.3998 89.6173C92.5532 87.3086 93.1298 83.8455 91.3998 81.8254C89.9582 80.0938 87.6516 79.8052 85.6333 80.671C83.0383 81.5368 81.02 83.5569 80.4433 86.1542C79.5783 86.7314 81.3083 87.3086 81.5966 86.1542Z" fill="black"/>
<path d="M9.80293 86.1539C8.64961 84.4224 6.6313 82.6908 4.32467 83.268C2.59469 83.5566 1.44137 85.2881 0.864714 86.7311C-0.000274882 88.4626 -0.288604 90.4828 -0.000274859 92.5029C0.288055 94.2344 1.44137 95.966 3.17135 96.5432C4.32467 96.8318 5.47799 96.8318 6.34297 96.5432C7.78462 96.2546 9.22627 95.3888 10.6679 94.523C11.2446 94.2344 11.5329 93.9458 12.1096 93.6573C12.3979 93.3687 12.6862 92.7915 12.3979 92.5029C12.1096 92.2143 11.5329 91.9257 11.2446 92.2143C10.3796 92.7915 9.80293 93.0801 8.93794 93.6573C8.64961 93.9458 8.07295 94.2344 7.78462 94.2344C7.78462 94.2344 7.78462 94.2344 7.49629 94.2344C7.20796 94.2344 7.20796 94.2344 6.91963 94.523C6.34297 94.8116 5.76632 94.8116 5.18966 95.1002C4.90133 95.1002 5.47799 95.1002 5.18966 95.1002C5.18966 95.1002 5.18966 95.1002 4.90133 95.1002H4.613C4.32467 95.1002 4.03634 95.1002 4.03634 95.1002H3.74801H3.45968C3.17135 95.1002 3.17135 94.8116 2.88302 94.8116C2.59469 94.8116 3.17135 94.8116 2.88302 94.8116C2.88302 94.8116 2.88302 94.8116 2.59469 94.523C2.59469 94.523 2.59469 94.523 2.30636 94.2344C2.30636 93.9459 2.01803 93.9458 2.01803 93.6573V93.3687C2.01803 93.0801 2.01803 93.6573 2.01803 93.3687C2.01803 93.0801 2.01803 93.0801 1.7297 92.7915C1.7297 92.5029 1.7297 92.5029 1.7297 92.2143C1.7297 92.2143 1.7297 92.2143 1.7297 91.9257V91.6371C1.7297 91.3485 1.7297 90.7714 1.7297 90.4828V90.1942C1.7297 90.1942 1.7297 90.1942 1.7297 89.9056V89.617C1.7297 89.3284 2.01803 88.7512 2.01803 88.4626C2.01803 88.174 2.30636 88.174 2.30636 87.8854V87.5969C2.88302 86.7311 2.88302 86.4425 3.17135 86.1539C3.17135 86.1539 3.17135 85.8653 3.45968 85.8653L3.74801 85.5767C3.74801 85.5767 4.03634 85.5767 4.03634 85.2881C4.03634 85.2881 4.32467 84.9995 4.613 84.9995H4.90133H5.18966C5.18966 84.9995 5.18966 84.9995 5.47799 84.9995C5.76632 84.9995 5.76631 84.9995 6.05464 84.9995C5.76631 84.9995 5.76631 84.9995 6.05464 84.9995H6.34297H6.6313C6.6313 84.9995 6.6313 84.9995 6.91963 84.9995C7.20796 84.9995 7.20796 85.2881 7.49629 85.2881L7.78462 85.5767C8.07295 85.8653 8.07295 85.8653 8.36128 86.1539L8.64961 86.4425C8.64961 86.4425 8.64961 86.4425 8.64961 86.7311C8.93794 87.0197 9.5146 87.3083 9.80293 87.0197C9.80293 87.0197 10.0913 86.4425 9.80293 86.1539Z" fill="black"/>
<path d="M16.4343 88.1742C15.5693 90.7715 16.4343 93.0802 19.3176 93.0802C22.4892 92.7916 21.0475 84.1339 16.7226 87.3084L16.4343 88.1742Z" fill="black"/>
<path d="M62.8555 92.2146C62.5672 94.812 64.0089 97.1207 66.8922 95.3891C70.9288 92.7918 66.0272 89.3287 63.1439 90.7717L62.8555 92.2146Z" fill="black"/>
<path d="M33.4461 110.684C33.7344 112.704 34.8877 114.147 36.9061 114.436C38.9244 114.436 40.6543 112.993 41.5193 111.261C40.9427 111.261 40.366 110.973 40.0777 110.973C40.0777 112.127 40.366 113.281 41.5193 114.147C42.3843 114.724 43.2493 115.013 44.1143 114.724C46.1326 114.436 47.8626 112.416 48.4392 110.396C48.7276 109.241 46.9976 108.953 46.7093 109.818C46.4209 111.261 45.2676 112.416 44.1143 112.704C43.5376 112.993 43.2493 112.993 42.6726 112.704C42.096 112.416 41.8077 111.55 41.8077 110.973C41.8077 110.107 40.6543 109.818 40.366 110.684C39.7893 111.838 38.9244 112.993 37.4827 112.993C36.3294 112.993 35.4644 112.127 35.4644 110.973C35.4644 110.396 35.1761 110.107 34.5994 110.107C33.7344 109.818 33.1578 110.396 33.4461 110.684Z" fill="black"/>
<path d="M83.6149 73.7445C83.9032 73.4559 86.4982 56.7177 76.695 49.7915C72.6583 54.409 64.5851 57.2949 59.1069 60.1808C53.0519 63.0667 48.1503 61.6237 41.8071 59.0264C34.8872 56.1405 27.3906 55.2747 19.6057 56.7177C14.9924 57.5835 8.93752 62.2009 8.07253 67.3955C7.49587 72.013 13.5508 79.8049 17.5874 81.8251C18.7407 78.9392 20.759 76.919 23.0657 74.3217C25.084 76.919 26.8139 79.8049 28.8323 82.1137C29.6972 80.3821 31.4272 80.0935 32.0039 78.0734C34.5988 80.0935 36.0405 82.9794 38.0588 85.8653C40.0771 84.9996 41.8071 83.268 42.9604 81.8251C44.9787 83.8452 46.997 85.5767 49.592 86.4425C49.592 85.2882 51.322 83.5566 51.6103 82.4022C61.1252 88.1741 79.2899 84.4224 84.1915 74.0331" fill="black"/>
<path d="M23.9315 118.477C27.6797 126.268 32.5813 133.195 38.0596 139.832C38.3479 140.121 38.9246 140.121 39.2129 139.832C41.5196 137.235 43.2495 134.06 44.6912 130.886C44.1145 130.886 43.8262 130.886 43.2495 130.886C45.2678 134.06 47.8628 136.946 50.1694 140.121C50.4578 140.698 51.3228 140.698 51.6111 140.121C54.4944 134.638 56.801 128.866 60.8376 124.248C64.0093 120.497 66.8926 117.034 67.4692 111.839C67.4692 110.685 66.0276 110.685 65.7392 111.839C65.1626 117.034 61.4143 120.497 58.531 124.537C55.071 129.154 53.0527 134.349 50.1694 139.255C50.7461 139.255 51.0344 139.255 51.6111 139.255C49.3045 136.081 46.7095 133.195 44.6912 130.02C44.4029 129.443 43.5379 129.443 43.2495 130.02C41.8079 132.906 40.3662 136.081 38.0596 138.389C38.3479 138.389 38.9246 138.389 39.2129 138.389C34.023 131.752 29.1214 124.825 25.3731 117.322C24.7965 116.456 23.3548 117.322 23.9315 118.477Z" fill="black"/>
<path d="M42.9605 130.886C44.1138 137.235 44.4021 143.872 44.4021 150.51C44.4021 153.684 44.1138 156.859 43.8255 160.322C43.2488 163.496 42.6722 166.671 42.9605 169.845C42.9605 171 44.6905 171 44.6905 169.845C44.4021 166.382 45.2671 162.919 45.8438 159.456C46.1321 156.282 46.4204 153.107 46.4204 149.933C46.4204 143.295 46.4204 136.658 44.9788 130.309C44.4021 129.443 42.6722 129.731 42.9605 130.886Z" fill="black"/>
<path d="M48.7271 149.356C50.4571 149.644 52.1871 149.644 53.917 149.644C54.4937 149.644 54.782 149.356 54.782 148.778C54.782 148.201 54.4937 147.913 53.917 147.913C53.3404 147.913 52.4754 147.913 51.8987 147.913C51.3221 147.913 51.0337 147.913 50.4571 147.913C50.1687 147.913 49.8804 147.913 49.8804 147.913C49.5921 147.913 50.1687 147.913 49.8804 147.913H49.5921C49.3038 147.913 48.7271 147.913 48.4388 148.49C48.1504 148.778 48.4388 149.356 48.7271 149.356Z" fill="black"/>
<path d="M49.5924 160.899C50.7457 160.899 51.6107 160.899 52.764 160.61C53.9173 160.322 55.359 160.322 56.224 159.456C56.5123 159.167 56.8006 158.59 56.5123 158.302C56.224 158.013 55.6473 157.725 55.359 158.013C55.359 158.013 55.0707 158.013 55.0707 158.302C55.0707 158.302 55.0707 158.302 54.7823 158.302C54.494 158.302 54.2057 158.59 53.9173 158.59C53.3407 158.879 52.764 158.879 52.1874 158.879C51.899 158.879 51.899 158.879 51.6107 158.879C51.6107 158.879 51.6107 158.879 51.3224 158.879C51.034 158.879 50.7457 158.879 50.4574 158.879C50.1691 158.879 49.5924 158.879 49.3041 158.879C48.4391 159.167 48.4391 160.899 49.5924 160.899Z" fill="black"/>
<path d="M24.5074 115.59C16.7225 120.208 12.3975 128.865 9.51422 137.234C6.63092 145.892 4.90095 155.416 5.4776 164.651C6.05426 164.651 6.63092 164.362 7.20758 164.362C6.91925 163.785 6.91925 163.496 6.91925 162.919C6.34259 163.208 6.05426 163.496 5.4776 163.785C5.76593 165.228 6.05426 165.805 7.49591 166.382C9.80255 167.536 12.3975 168.402 14.9925 168.979C20.1824 170.134 25.3723 170.711 30.5623 170.711C41.2305 171 52.4753 170.711 63.1435 169.268C66.0268 168.979 69.1984 168.402 72.0817 167.825C73.5234 167.536 74.965 167.248 76.1183 166.671C77.2717 166.382 78.7133 166.093 79.5783 165.228C79.8666 164.939 79.8666 164.362 79.5783 164.073C79.29 163.785 79.0016 163.785 78.7133 163.785C78.7133 164.362 78.7133 164.651 78.425 165.228C80.155 164.362 79.8666 162.053 80.155 160.322C80.4433 157.724 80.7316 155.127 80.7316 152.241C81.0199 147.335 80.7316 142.429 79.8666 137.523C78.1367 127.422 74.1 117.899 67.1801 110.395C66.6035 109.53 65.1618 110.684 66.0268 111.55C72.3701 118.765 76.4067 127.422 78.1367 136.946C79.0016 141.563 79.29 146.181 79.29 150.798C79.29 153.107 79.0016 155.416 79.0016 157.724C79.0016 158.879 78.7133 160.322 78.425 161.476C78.425 162.342 78.425 163.785 77.8483 164.073C77.2717 164.362 77.2717 164.939 77.56 165.516C77.8483 165.805 79.0016 166.382 78.425 165.805C78.425 165.516 78.425 164.939 78.425 164.651C78.1367 165.228 76.9833 165.228 76.4067 165.516C75.5417 165.805 74.965 166.093 74.1 166.093C72.3701 166.382 70.9284 166.959 69.1984 167.248C66.0268 167.825 62.8552 168.402 59.3952 168.691C53.3403 169.268 46.9971 169.268 40.6538 169.557C34.3106 169.845 27.9673 169.845 21.6241 168.979C18.4524 168.691 15.2808 167.825 12.1092 166.959C11.2442 166.671 10.6675 166.382 9.80255 166.093C9.22589 165.805 7.78424 165.516 7.49591 165.228C7.20758 164.939 6.91925 164.073 6.63092 163.496C6.05426 162.63 4.61262 163.496 5.18927 164.362C5.18927 164.651 5.4776 165.228 5.4776 165.516C5.76593 166.382 7.20758 166.382 7.20758 165.228C6.91925 156.57 8.3609 147.624 10.9559 139.255C13.5508 131.174 17.8758 122.516 25.6607 117.61C26.2373 116.456 25.3723 115.013 24.5074 115.59Z" fill="black"/>
</svg>
