<svg width="148" height="170" viewBox="0 0 148 170" fill="none" xmlns="http://www.w3.org/2000/svg">
<g clip-path="url(#clip0_240_14398)">
<path d="M33.7878 5.81503C19.0354 10.9458 12.373 22.9176 12.8489 34.2054C12.8489 39.6782 14.7524 45.151 19.0354 49.9398C23.7942 55.7547 31.8842 60.2013 40.4502 62.9378C58.0579 69.0947 78.5209 70.1209 95.6527 77.646C112.309 85.1712 124.682 97.8271 121.826 112.535C118.019 129.296 97.0804 139.9 83.7556 152.555C84.2315 152.555 85.1833 152.555 85.6592 152.555C82.8039 151.529 80.4244 150.161 79.4727 147.767C78.9968 148.109 78.9968 148.793 78.5209 149.135C86.6109 146.741 93.2733 142.294 98.508 137.163C104.695 131.348 108.977 124.507 111.833 117.666C114.212 111.509 114.688 105.01 111.357 98.8532C108.026 93.0384 101.839 88.5917 94.2251 85.8553C86.135 82.7768 77.5691 81.0665 69.4791 79.0142C60.9132 76.6199 52.8232 73.8834 44.7331 70.805C29.5048 64.648 12.8489 56.4388 6.66238 43.7828C2.85531 36.2577 4.28296 28.3905 8.56592 21.5494C9.51768 17.1028 12.8489 12.9981 17.1318 9.91965C21.8907 6.49913 28.0772 4.10477 34.7396 2.3945C34.2637 2.05245 33.7878 1.7104 32.836 1.36835C33.3119 3.42066 34.2637 5.47298 34.7396 7.52529C34.7396 8.8935 38.0707 8.8935 37.5949 7.52529C37.5949 5.47298 36.1672 3.76271 36.1672 1.7104C36.1672 1.0263 35.2154 0.342191 34.2637 0.684243C23.7942 3.07861 14.7524 7.18324 9.0418 14.0243C3.80707 19.8392 0 27.0223 0 34.2054C0 46.8613 11.8971 57.1229 25.2219 64.648C39.4984 72.5152 56.6302 78.3301 73.7621 82.4347C82.328 84.4871 90.8939 86.5394 98.508 90.3019C106.122 94.4066 110.405 100.906 110.405 107.747C110.405 115.614 106.122 123.823 100.412 130.322C95.1768 136.821 87.5627 143.662 77.5691 146.741C76.6174 147.083 76.1415 147.425 76.6174 148.109C77.5691 150.845 80.4244 152.898 84.2315 154.266C84.7074 154.608 85.6592 154.608 86.135 154.266C98.0322 143.32 114.212 134.427 121.826 121.087C128.965 108.431 125.158 94.4066 112.309 84.4871C98.9839 73.8834 80.4244 69.7788 61.865 66.0162C43.7813 62.2537 24.2701 56.4388 18.5595 42.4146C12.373 29.7587 18.0836 13.6822 35.2154 7.86734C37.119 7.18324 35.6913 5.47298 33.7878 5.81503Z" fill="black"/>
<path d="M117.544 122.797C128.965 127.586 140.862 132.374 146.097 141.268C152.759 151.529 142.29 177.867 122.778 168.29C130.868 163.843 146.097 153.582 141.338 145.714C137.531 138.189 120.399 134.427 110.405 132.374L117.544 122.797Z" fill="black"/>
<path d="M100.412 129.296C79.4728 129.296 54.7269 128.612 42.8298 114.588C34.7397 105.01 23.7944 82.4348 33.788 67.0425L45.6851 72.5153C29.0291 100.564 70.9069 125.875 107.074 122.113L100.412 129.296Z" fill="black"/>
<path d="M39.0225 60.8856C52.3472 51.6502 62.3408 23.6019 41.4019 16.0767C42.3537 15.3926 43.7813 14.3665 45.209 14.0244H49.4919C68.0514 25.9962 71.8585 51.6502 50.4437 62.9379L39.0225 60.8856Z" fill="black"/>
<path d="M17.6078 19.8391C18.5596 21.2074 21.4149 21.5494 23.3184 21.8915C26.6496 22.2335 29.9808 22.5756 33.312 22.5756C39.0226 22.9176 44.7332 22.5756 50.4438 22.5756C52.3474 22.5756 52.3474 20.5232 50.4438 20.5232C45.2091 20.5232 39.9744 20.5232 34.7396 20.5232C31.4085 20.5232 28.5532 20.1812 25.222 19.8391C23.7943 19.4971 22.8425 19.4971 21.4149 19.155C20.939 19.155 20.939 19.155 20.4631 18.813C20.4631 18.813 19.9872 18.4709 19.9872 18.813C19.0355 17.4448 16.1802 18.813 17.6078 19.8391Z" fill="black"/>
<path d="M15.2284 31.8109C27.6014 31.8109 40.4503 32.837 53.2992 31.1267C55.2027 30.7847 54.2509 28.7324 52.3474 29.0744C39.9744 30.7847 27.1255 29.4165 15.2284 29.4165C13.3249 29.4165 13.3249 31.8109 15.2284 31.8109Z" fill="black"/>
<path d="M17.6075 42.4147C28.5529 41.0465 39.9741 40.7045 50.4435 38.6521C52.3471 38.3101 51.3953 36.2578 49.4918 36.5998C38.5464 38.6521 27.6011 38.9942 16.6558 40.3624C14.7522 40.7045 15.704 42.7568 17.6075 42.4147Z" fill="black"/>
<path d="M23.3183 52.6763C32.836 53.3604 43.3054 51.6501 51.8713 48.9137C53.7749 48.2296 51.8713 46.5193 50.4437 47.2034C42.3536 49.9398 32.3601 51.3081 23.3183 50.966C21.4147 50.2819 21.4147 52.6763 23.3183 52.6763Z" fill="black"/>
<path d="M46.1608 95.7747C51.8714 94.0644 57.1061 92.0121 62.3408 89.6177C66.6238 87.5654 70.9068 85.5131 75.6656 83.8028C77.5691 83.1187 75.6656 81.4085 74.2379 82.0926C64.2444 85.5131 55.6785 90.9859 45.209 93.7224C43.7814 94.0644 44.2572 96.1167 46.1608 95.7747Z" fill="black"/>
<path d="M51.8716 106.72C64.2446 99.1952 78.997 93.0382 92.3217 86.5392C93.7494 85.8551 92.3217 83.8028 90.8941 84.829C77.0934 91.328 62.341 97.4849 49.968 105.352C48.5404 106.036 50.4439 107.746 51.8716 106.72Z" fill="black"/>
<path d="M64.2442 114.93C79.4725 110.483 89.942 100.905 102.791 93.7223C104.219 93.0382 102.791 90.9859 101.363 92.0121C88.5143 98.8531 78.5208 108.431 63.2925 112.877C61.3889 113.561 62.3407 115.614 64.2442 114.93Z" fill="black"/>
<path d="M83.7555 120.745C88.9902 118.008 94.2249 115.614 99.4596 113.22C101.839 111.851 104.694 110.483 107.074 109.115C108.501 108.089 110.405 107.063 111.357 105.352C112.309 103.984 109.453 102.958 108.977 104.326C108.026 105.694 106.598 106.721 105.17 107.747C102.791 109.115 100.411 110.483 98.032 111.851C93.2732 114.246 88.0384 116.64 82.8037 119.377C80.9002 119.719 82.3278 121.771 83.7555 120.745Z" fill="black"/>
<path d="M101.839 140.584C115.164 141.268 128.013 143.662 141.338 143.662C143.241 143.662 143.241 141.61 141.338 141.61C128.013 141.61 115.164 138.874 101.839 138.531C99.9357 138.189 99.9357 140.242 101.839 140.584Z" fill="black"/>
<path d="M95.1767 146.399C111.357 147.767 124.682 155.292 140.862 155.976C142.765 155.976 142.765 153.924 140.862 153.924C124.682 153.24 111.357 145.373 95.1767 144.346C93.2731 144.004 93.2731 146.057 95.1767 146.399Z" fill="black"/>
<path d="M89.4663 150.503C103.267 153.924 115.64 159.055 128.965 162.817C130.868 163.159 131.344 161.107 129.916 160.765C116.592 157.002 103.743 151.871 90.4181 148.451C88.5145 148.109 87.5628 150.161 89.4663 150.503Z" fill="black"/>
</g>
<defs>
<clipPath id="clip0_240_14398">
<rect width="148" height="170" fill="white"/>
</clipPath>
</defs>
</svg>
