<svg width="164" height="170" viewBox="0 0 164 170" fill="none" xmlns="http://www.w3.org/2000/svg">
<g clip-path="url(#clip0_240_10859)">
<path d="M29.1314 50.57C31.2892 67.4266 25.8945 84.2831 29.8507 100.781C30.2103 100.422 30.57 99.7051 30.9296 99.3464C12.2278 98.2705 -0.719528 115.844 -0.359879 133.059C-0.000229418 142.743 4.67521 150.992 11.5085 158.165C15.4647 162.469 20.1401 166.055 25.5349 168.207C28.0524 169.283 30.57 169.283 33.0875 169.642C35.9647 170 39.2015 170.359 42.0787 170.359C47.4735 170.359 52.8682 169.283 57.5436 166.414C61.4998 163.903 65.4559 159.958 68.3331 156.372C74.4471 148.84 78.7629 139.515 79.1226 129.832C79.4822 119.789 74.4471 110.823 65.8156 105.443C61.1401 102.216 55.3857 101.498 49.6314 100.422C48.1928 100.064 47.1138 100.064 46.7542 98.2704C46.3945 95.7599 46.3945 93.2493 46.3945 90.7388C46.0349 83.2072 46.0349 75.6755 46.3945 68.1439C46.7542 64.1987 47.4735 59.8949 47.4735 55.9498C47.4735 53.4392 47.4735 48.7768 44.5963 48.0595C40.9998 46.9835 36.3243 47.7008 32.7278 48.0595C31.2892 48.0595 29.8507 48.4181 28.7717 48.4181C27.3331 48.7768 28.0524 50.9287 29.491 50.57C32.7278 49.8527 36.3243 49.8527 39.9208 49.8527C40.9998 49.8527 43.1577 49.4941 44.2366 50.2114C45.3156 50.57 45.3156 52.7219 45.3156 54.1565C45.3156 58.1017 44.9559 62.0468 44.5963 65.992C44.2366 71.7304 44.2366 77.4688 44.2366 83.2072C44.2366 86.435 44.2366 89.6629 44.5963 92.8907C44.5963 95.0426 44.5963 97.1945 44.9559 98.9878C45.6752 101.857 48.1928 102.216 51.07 102.933C56.8243 104.009 62.2191 105.085 66.8945 108.671C70.8507 111.54 73.7278 115.127 75.5261 119.789C78.7629 128.397 76.605 138.081 72.6489 145.971C68.3331 154.22 61.4998 162.827 52.8682 166.414C48.1928 168.566 42.798 168.207 37.7629 167.849C34.8857 167.49 32.0085 167.49 29.491 167.131C26.9735 166.773 24.4559 165.338 22.298 163.903C14.0261 158.165 6.11381 149.199 3.59626 139.874C-1.07918 121.941 11.5085 100.422 31.2892 101.498C32.0085 101.498 32.7278 100.781 32.3682 100.064C28.4121 83.5658 33.8068 66.3506 31.6489 49.8527C31.2892 48.4181 29.1314 48.7768 29.1314 50.57Z" fill="black"/>
<path d="M21.2193 41.245C20.1403 45.5488 24.0965 48.0594 27.6929 48.7767C32.3684 50.2113 37.7631 50.2113 42.7982 49.494C46.035 49.1353 50.7105 49.1353 52.8684 45.9075C53.9473 44.1142 54.307 41.6037 52.8684 40.1691C51.0701 38.7345 48.5526 38.0172 46.3947 38.0172C43.8772 37.6585 41.3596 37.6585 38.8421 37.6585C33.0877 37.6585 27.6929 36.9412 21.9386 38.0172C21.2193 38.0172 20.8596 38.7345 21.2193 39.4518C21.2193 40.1691 21.5789 40.8864 21.5789 41.9623C21.5789 43.3969 23.7368 43.0383 23.3772 41.245C23.3772 40.5277 23.0175 39.8104 23.0175 38.7345C22.6579 39.0931 22.2982 39.8104 22.2982 40.1691C26.614 39.4518 31.2894 39.4518 35.6052 39.8104C38.1228 39.8104 40.6403 39.8104 42.7982 39.8104C44.5965 39.8104 52.5087 40.1691 51.4298 43.3969C51.0701 44.8315 50.3508 45.1902 48.9122 45.5488C47.114 45.9075 45.6754 46.2661 43.8772 46.6248C39.5614 47.3421 35.2456 47.3421 30.9298 46.6248C28.4122 46.2661 22.6579 45.1902 23.7368 41.6037C23.7368 40.5277 21.5789 39.8104 21.2193 41.245Z" fill="black"/>
<path d="M8.27191 145.612C10.7895 142.743 14.0263 141.667 17.9824 142.743C19.0614 143.102 20.1403 144.178 21.5789 144.178C22.6579 144.536 24.0965 144.178 25.1754 143.46C27.693 142.384 30.5702 138.439 33.4474 141.308C34.886 142.743 35.2456 144.536 37.4035 144.895C39.921 145.254 41.3596 143.46 43.1579 142.026C44.5965 140.591 46.7544 139.156 48.5526 140.95C49.2719 141.667 49.6316 142.743 50.3509 143.46C51.7895 144.895 53.9474 144.536 55.386 143.46C56.1052 142.743 57.1842 142.026 57.9035 141.308C58.2631 140.95 58.9824 140.591 59.7017 140.232C60.0614 139.874 60.421 139.874 61.1403 139.874C62.5789 139.515 62.2193 139.874 62.2193 140.591C62.5789 142.384 62.5789 143.819 64.7368 144.178C66.8947 144.536 69.4123 142.743 71.5702 144.178C71.9298 144.536 72.2895 143.819 71.9298 143.46C70.4912 142.384 69.0526 142.743 67.614 143.102C66.8947 143.102 65.8158 143.46 64.7368 143.46C62.9386 143.102 63.2982 140.591 63.2982 139.156C63.2982 138.798 62.9386 138.798 62.9386 138.798C61.1403 138.798 59.3421 139.515 57.9035 140.591C56.1053 142.026 53.5877 145.254 51.0702 142.743C49.9912 141.667 49.6316 140.232 48.193 139.874C46.3947 139.515 44.5965 140.232 43.5175 141.667C41.7193 143.46 39.2017 146.329 36.6842 144.178C35.2456 143.102 34.886 141.308 33.4474 140.591C28.7719 138.439 25.8947 145.971 20.8596 143.46C18.7017 142.384 16.9035 142.026 14.3859 142.026C11.5088 142.026 9.71051 143.819 7.91226 145.612C7.19297 145.612 7.91226 145.971 8.27191 145.612Z" fill="black"/>
<path d="M24.4559 147.047C22.6576 148.481 21.219 150.274 20.8594 152.426C20.8594 152.785 20.8594 153.144 21.5787 153.502C21.9383 153.502 22.6576 153.502 22.6576 152.785C22.6576 152.426 22.6576 152.426 23.0173 152.068V151.709V151.35C23.0173 150.992 23.3769 150.992 23.3769 150.633C23.3769 150.633 23.3769 150.633 23.7366 150.274L24.0962 149.916L24.4559 149.557C24.4559 149.557 24.4559 149.557 24.8155 149.198C25.1752 148.84 25.5348 148.481 25.1752 148.123C25.1752 147.047 24.8155 146.688 24.4559 147.047Z" fill="black"/>
<path d="M20.8596 148.84C22.6578 150.633 24.4561 151.709 26.614 152.785C26.9736 152.785 27.6929 152.785 27.6929 152.068C27.6929 151.709 27.6929 151.351 26.9736 150.992C26.9736 150.992 26.614 150.992 26.2543 150.633C25.8947 150.633 25.8947 150.275 25.535 150.275C25.1754 149.916 24.8157 149.916 24.0964 149.557C23.7368 149.199 23.3771 149.199 23.0175 148.84C22.6578 148.481 22.2982 148.123 21.9385 147.764C21.5789 147.405 21.2192 147.405 20.8596 147.764C20.4999 147.764 20.4999 148.481 20.8596 148.84Z" fill="black"/>
<path d="M37.0435 147.047C36.3242 148.481 35.6049 150.275 34.5259 151.709C34.1663 152.068 34.5259 152.426 34.8856 152.785C35.2452 153.144 35.9645 152.785 35.9645 152.427C36.6838 150.992 37.4031 149.199 38.4821 147.764C38.8417 147.405 38.4821 147.047 38.1224 146.688C37.7628 146.329 37.0435 146.688 37.0435 147.047Z" fill="black"/>
<path d="M33.4471 148.84C33.8067 148.84 33.8067 148.84 33.4471 148.84C33.8067 149.199 33.8067 149.199 33.8067 149.199C34.1663 149.199 34.1664 149.557 34.526 149.557C34.8856 149.916 35.2453 150.275 35.6049 150.633C36.3242 151.351 37.0435 152.068 37.7628 152.785C38.1225 153.144 38.8418 152.785 38.8418 152.426C39.2014 152.068 38.8418 151.709 38.4821 151.351C38.4821 151.351 38.1225 151.351 38.1225 150.992C37.7628 150.992 37.7628 150.633 37.4032 150.633C37.0435 150.275 36.6839 149.916 36.3242 149.557C35.6049 148.84 34.8856 148.123 34.1664 147.405C33.8067 147.047 33.0874 147.405 33.0874 147.764C33.0874 148.123 33.0874 148.481 33.4471 148.84Z" fill="black"/>
<path d="M34.1664 153.861C32.7278 155.654 30.9295 157.447 29.4909 159.599C29.1313 159.958 29.1313 160.316 29.4909 160.675C29.8506 161.034 30.2102 161.034 30.5699 160.675C32.0085 158.882 33.8067 157.089 35.2453 154.937C35.605 154.578 35.605 154.219 35.2453 153.861C35.2453 153.502 34.526 153.502 34.1664 153.861Z" fill="black"/>
<path d="M29.8504 156.372C30.5697 156.73 31.289 156.73 32.0083 157.089C32.0083 157.089 32.0083 157.089 32.368 157.089C32.7276 157.089 32.7276 157.448 32.7276 157.448L33.0873 157.806C33.0873 157.806 33.0873 157.806 33.4469 158.165C33.8066 158.524 34.1662 158.524 34.5259 158.165C34.8855 157.806 34.8855 157.448 34.5259 157.089C33.0873 155.654 31.289 155.296 29.8504 154.937C29.4908 154.937 29.1311 154.937 28.7715 155.654C29.1311 155.654 29.4908 156.372 29.8504 156.372Z" fill="black"/>
<path d="M46.0348 145.612C45.3155 146.329 44.5962 147.405 43.5173 148.481C43.1576 148.84 43.1576 149.198 43.5173 149.557C43.8769 149.916 44.2366 149.916 44.5962 149.557C45.3155 148.84 46.0348 147.764 47.1138 146.688C47.4734 146.329 47.4734 145.97 47.1138 145.612C46.7541 145.253 46.3945 145.253 46.0348 145.612Z" fill="black"/>
<path d="M42.0787 146.329C44.2366 147.405 46.0348 148.84 48.1927 149.557C48.5524 149.557 48.912 149.557 49.2717 148.84C49.2717 148.481 49.2717 148.123 48.5524 147.764C46.3945 147.047 44.5962 145.612 42.798 144.536C42.0787 144.536 41.3594 145.971 42.0787 146.329Z" fill="black"/>
<path d="M58.982 146.688C57.5434 148.481 56.1048 150.274 54.6662 152.068C54.3066 152.426 54.3066 152.785 54.6662 153.144C55.0259 153.502 55.3855 153.502 55.7452 153.144C57.1838 151.35 58.6224 149.557 60.061 147.764C60.4206 147.405 60.4206 147.047 60.061 146.688C59.7013 146.329 58.982 146.329 58.982 146.688Z" fill="black"/>
<path d="M53.9473 149.199C54.307 149.557 54.6666 149.557 55.0263 149.916C55.0263 149.916 55.0263 149.916 55.3859 149.916L55.7456 150.275C56.1052 150.633 56.4649 150.633 56.4649 150.992L56.8245 151.351C56.8245 151.351 56.8245 151.351 56.8245 151.709C57.1842 152.068 57.5438 152.068 57.9035 152.068C58.2631 151.709 58.6228 151.351 58.2631 150.992C57.1842 149.557 55.7456 148.481 54.307 147.405C53.9473 147.047 53.228 147.405 53.228 147.764C53.228 148.481 53.228 148.84 53.9473 149.199Z" fill="black"/>
<path d="M47.1138 152.785C45.6752 154.578 44.5963 156.371 43.877 158.165C43.877 158.523 43.877 159.241 44.5963 159.241C44.9559 159.241 45.3155 159.241 45.6752 158.523C46.3945 156.73 47.4734 154.937 48.912 153.502C49.2717 153.144 48.912 152.426 48.5524 152.426C47.8331 152.426 47.4734 152.426 47.1138 152.785Z" fill="black"/>
<path d="M42.7979 155.295C44.9558 156.013 46.7541 157.089 48.5523 158.165C49.2716 158.523 50.3505 157.447 49.2716 156.73C47.4734 155.654 45.3155 154.578 43.1576 153.861C42.7979 153.861 42.4383 153.861 42.0786 154.578C42.0786 154.578 42.4383 154.937 42.7979 155.295Z" fill="black"/>
<path d="M110.412 48.7766C110.412 55.9496 110.772 63.1226 111.131 69.9369C111.491 73.1648 111.491 76.7513 111.851 79.9791C112.21 83.2069 112.93 86.7934 112.93 90.0213C113.289 95.7597 109.333 99.3462 106.456 104.009C104.658 106.878 103.219 109.747 101.781 112.616C98.5437 119.789 95.6665 126.962 93.5086 134.853C92.07 141.308 90.6314 149.199 93.8682 155.654C95.3068 158.165 97.4647 159.958 99.9823 161.034C105.017 162.827 110.412 163.545 115.807 163.903C121.921 164.262 128.035 164.62 134.149 164.262C140.263 163.903 146.737 163.545 152.491 161.393C156.447 159.958 161.482 157.447 163.281 153.144C164.719 149.916 163.64 146.688 162.561 143.819C161.123 140.232 159.324 137.004 157.526 133.418C155.009 128.038 153.21 122.658 150.693 117.279C148.175 111.899 144.938 106.161 140.623 101.857C138.824 100.063 136.307 98.6289 134.149 96.8356C131.631 94.6837 129.473 92.5318 128.395 89.304C125.877 82.8483 125.877 75.6753 125.877 68.861C125.517 61.688 125.517 54.1563 124.798 46.9833C124.798 46.6247 124.438 45.9074 124.079 45.9074C119.403 44.8314 114.728 46.266 110.052 46.6247C108.614 46.6247 108.614 49.1352 110.052 49.1352C114.368 48.7766 119.044 46.9833 123.359 48.4179C123 48.0593 122.64 47.7006 122.64 47.342C123 53.439 123.359 59.8947 123.359 65.9918C123.359 71.3715 123.359 77.1099 124.079 82.8483C124.798 87.5107 126.237 92.8905 129.473 96.477C133.07 100.063 137.386 102.215 140.623 106.161C147.456 114.409 151.052 125.528 155.368 135.57C156.807 139.156 158.965 142.384 160.403 145.971C161.842 149.199 161.842 152.426 158.965 154.937C154.649 159.241 147.816 160.675 142.061 161.393C135.947 162.11 130.193 162.11 124.079 162.11C118.324 162.11 112.21 161.751 106.456 160.675C103.219 159.958 99.263 159.241 96.7454 156.371C92.4296 151.35 93.8682 143.101 95.3068 137.004C97.1051 129.473 99.6226 122.3 102.859 115.127C104.298 111.899 105.737 109.03 107.535 105.802C110.412 101.139 114.009 97.9116 114.728 92.1732C115.088 88.9454 114.368 85.3588 114.009 82.131C113.649 78.5445 113.289 74.958 113.289 71.3715C112.93 63.8399 112.57 55.9496 112.57 48.4179C112.93 47.342 110.412 47.342 110.412 48.7766Z" fill="black"/>
<path d="M103.579 41.9623C104.298 54.515 121.561 48.7766 128.754 47.7006C129.473 47.7006 129.833 46.6247 129.473 45.9074C128.035 44.1142 127.315 41.9623 127.675 39.4517C127.675 38.7344 127.675 38.0171 126.956 38.0171C123.359 36.9412 119.403 37.2998 115.807 37.6585C112.21 38.0171 108.614 38.7344 105.377 40.169C103.938 40.8863 104.658 43.0382 106.096 42.3209C109.333 40.8863 112.57 40.5277 115.807 40.169C119.403 39.8104 123 39.4517 126.237 40.5277C125.877 39.8104 125.877 39.4517 125.517 38.7344C125.158 41.6036 125.877 44.4728 127.675 46.9833C128.035 46.266 128.035 45.9074 128.394 45.1901C123.719 45.9074 119.403 47.342 114.728 47.342C112.929 47.342 110.772 47.342 108.973 46.6247C107.175 45.5487 106.456 44.1141 106.456 41.9623C106.096 40.5277 103.579 40.5277 103.579 41.9623Z" fill="black"/>
<path d="M99.2627 137.363C101.061 142.743 101.78 148.481 106.815 151.709C111.131 154.578 116.526 155.654 121.921 156.372C127.675 156.73 133.789 156.73 139.543 155.654C143.859 154.937 148.535 154.22 151.412 150.633C156.447 144.178 155.008 131.625 146.736 128.756C144.579 128.038 142.421 128.756 140.622 129.473C139.184 130.19 137.386 130.908 135.947 130.908C134.149 130.908 133.429 129.473 131.991 128.756C130.552 127.68 128.394 127.68 126.956 128.756C126.236 129.473 125.517 130.549 124.438 130.908C122.28 132.342 121.201 130.549 119.763 129.473C118.324 128.397 116.166 127.68 114.728 129.114C114.008 129.832 114.008 130.908 113.289 131.625C111.85 133.418 109.693 133.418 107.894 133.059C106.456 132.701 104.657 131.625 103.219 133.059C102.14 133.777 102.5 134.853 101.78 135.57C101.421 135.929 99.982 136.287 99.2627 136.646C98.9031 137.005 99.2627 137.722 99.6224 137.363C100.342 137.005 101.78 136.646 102.14 135.929C102.859 134.853 102.5 133.059 104.657 133.059C105.736 133.059 106.456 133.418 107.535 133.777C109.333 134.135 111.131 134.494 112.57 133.418C114.368 132.342 114.368 129.473 116.526 129.114C119.043 128.756 119.763 131.625 121.921 131.984C123.719 132.701 124.798 131.625 125.877 130.549C126.956 129.473 127.675 128.756 129.114 128.756C130.552 128.756 131.631 129.832 132.71 130.549C134.149 131.625 135.947 131.984 137.745 131.266C140.263 130.549 142.421 128.756 145.298 129.114C147.815 129.473 149.973 131.625 151.052 133.418C153.57 137.005 153.929 142.026 152.491 146.33C151.052 150.992 147.456 153.144 142.78 153.861C137.745 154.937 132.35 155.654 127.315 155.654C121.201 155.654 115.087 154.937 109.693 152.427C107.175 150.992 104.657 149.557 103.219 146.688C101.421 143.819 101.061 140.232 99.982 137.005C99.982 136.646 99.2627 137.005 99.2627 137.363Z" fill="black"/>
<path d="M117.605 138.439C116.886 139.156 116.167 139.874 115.447 140.591C115.088 140.949 114.728 141.308 114.368 141.667C114.368 141.667 114.009 141.667 114.009 142.025C113.649 142.025 113.649 142.384 113.289 142.384C112.93 142.743 112.93 143.101 112.93 143.46C113.289 143.819 113.649 143.819 114.009 143.819C115.807 142.743 117.245 140.949 118.684 139.515C119.044 139.156 119.044 138.798 118.684 138.439C118.324 138.08 117.965 138.08 117.605 138.439Z" fill="black"/>
<path d="M111.491 141.308C114.008 141.667 116.166 142.384 118.684 143.819C119.043 144.177 119.403 143.819 119.763 143.46C120.122 143.101 119.763 142.384 119.403 142.384C116.886 141.308 114.728 140.232 111.85 139.874C111.491 139.874 111.131 139.874 110.771 140.591C110.771 140.591 111.131 141.308 111.491 141.308Z" fill="black"/>
<path d="M132.35 135.211C131.631 135.57 131.272 135.57 130.912 135.928C130.193 136.287 129.473 136.646 128.754 137.363C127.675 138.08 126.596 138.797 125.157 139.873C124.798 140.232 124.798 140.591 124.798 140.949C125.158 141.308 125.517 141.308 125.877 141.308C126.956 140.591 128.035 139.873 129.114 138.797C129.833 138.439 130.552 138.08 131.272 137.363C131.631 137.363 131.991 137.004 131.991 137.004H132.35C132.71 137.004 133.07 136.287 133.07 135.928C133.429 135.57 133.07 135.211 132.35 135.211Z" fill="black"/>
<path d="M126.596 137.722C126.956 138.081 126.956 138.081 127.315 138.439C127.315 138.439 127.315 138.439 127.315 138.798L127.675 139.156C127.675 139.156 127.675 139.515 128.035 139.515C128.035 139.515 128.035 139.515 128.035 139.874C128.035 140.232 128.394 140.591 128.394 140.95C128.394 141.308 129.114 141.667 129.473 141.667C129.833 141.667 130.193 140.95 130.193 140.591C129.833 139.156 129.114 137.722 128.035 136.646C127.675 136.287 127.315 136.287 126.956 136.646C126.236 137.005 126.236 137.722 126.596 137.722Z" fill="black"/>
<path d="M124.079 143.819C122.281 145.254 120.842 147.047 119.403 148.84C119.044 149.199 119.403 149.916 119.763 149.916C120.123 150.275 120.482 149.916 120.842 149.557C120.842 149.199 121.202 149.199 121.202 148.84C121.202 148.84 121.202 148.481 121.561 148.481C121.921 148.123 122.281 147.764 122.64 147.405C123 147.047 123.36 146.688 123.719 146.33C124.079 145.971 124.079 145.971 124.438 145.612C124.438 145.612 124.438 145.612 124.798 145.254C125.158 144.895 125.517 144.536 125.158 144.178C125.158 143.819 124.438 143.46 124.079 143.819Z" fill="black"/>
<path d="M119.763 146.33C121.561 147.764 123.719 148.481 125.517 149.199C125.877 149.199 126.237 149.199 126.596 148.481C126.596 148.123 126.596 147.764 125.877 147.405C124.079 146.688 121.921 145.971 120.482 144.536C120.123 144.178 119.403 144.536 119.403 144.895C119.403 145.612 119.403 146.33 119.763 146.33Z" fill="black"/>
<path d="M140.623 140.232C138.465 142.743 136.667 145.253 134.509 147.405C133.789 148.122 134.868 149.198 135.588 148.481C137.746 146.329 139.544 143.819 141.702 141.308C142.061 140.949 142.061 140.591 141.702 140.232C141.342 140.232 140.982 139.874 140.623 140.232Z" fill="black"/>
<path d="M134.149 143.101C135.228 143.819 135.947 144.177 137.026 144.895C138.105 145.253 139.184 145.971 140.263 145.971C140.622 145.971 140.982 145.971 141.342 145.253C141.342 144.895 141.342 144.177 140.622 144.177C138.464 143.819 136.666 142.743 134.868 141.308C134.508 140.95 133.789 141.308 133.789 141.667C133.789 142.384 133.789 143.101 134.149 143.101Z" fill="black"/>
<path d="M144.579 133.776C143.5 134.852 142.061 136.287 140.982 137.363C140.622 137.722 140.622 138.08 140.982 138.439C141.342 138.797 141.701 138.797 142.061 138.439C143.14 137.363 144.579 135.928 145.658 134.852C146.017 134.494 146.017 134.135 145.658 133.776C145.298 133.776 144.938 133.776 144.579 133.776Z" fill="black"/>
<path d="M141.702 135.928C143.14 137.363 144.579 138.08 146.377 138.798C146.737 139.156 147.096 138.798 147.456 138.439C147.816 138.08 147.456 137.363 147.096 137.363C146.377 137.004 145.658 136.646 144.938 136.287C144.579 135.928 144.219 135.928 143.859 135.57C143.859 135.57 143.859 135.57 143.5 135.211L143.14 134.852C142.781 134.494 142.421 134.494 142.061 134.852C141.342 135.211 141.342 135.57 141.702 135.928Z" fill="black"/>
<path d="M7.91216 146.33C12.5876 149.557 15.1051 155.296 19.4209 158.524C24.0964 162.11 29.4911 162.827 35.2455 163.186C44.5964 163.545 54.6665 162.827 62.2192 156.73C66.535 153.503 69.7718 148.84 71.57 143.46C71.9297 143.102 70.8508 142.743 70.8508 143.102C68.6929 148.84 64.7367 154.22 59.342 157.448C54.3069 160.676 48.5525 161.751 42.7981 162.11C35.9648 162.469 28.0525 162.469 22.2981 158.882C16.5437 155.654 14.0262 148.84 8.2718 145.254C7.91215 145.254 7.55251 145.971 7.91216 146.33Z" fill="black"/>
<path d="M31.2893 27.9747C30.9296 28.692 30.9296 29.7679 31.2893 30.4852C31.6489 31.2025 32.3682 31.5611 33.0875 31.9198C34.8858 32.6371 36.684 32.2785 38.1226 31.2025C38.8419 30.8439 39.2015 30.1266 39.2015 29.4093C39.2015 28.692 38.8419 27.9747 38.4823 27.616C37.763 26.5401 35.9647 26.1814 34.8858 25.8228C33.8068 25.8228 33.0875 25.8228 32.3682 26.1814C32.0086 26.1814 32.0086 26.5401 31.6489 26.8987V27.2574C31.2893 27.2574 31.2893 27.616 31.2893 27.9747C31.2893 28.3333 31.2893 28.692 32.0086 29.0506C32.3682 29.0506 32.7279 29.0506 33.0875 28.3333C33.0875 27.9747 33.0875 27.616 33.4472 27.2574L33.0875 27.616C33.0875 27.616 33.0875 27.616 33.4472 27.616H33.8068H34.1665C34.5261 27.616 34.8858 27.616 34.8858 27.616H35.2454H35.6051C35.6051 27.616 35.6051 27.616 35.9647 27.616C36.3244 27.616 36.3244 27.9747 36.684 27.9747C36.684 27.9747 37.0437 27.9747 37.0437 28.3333C37.0437 28.3333 37.0437 28.3333 36.684 28.692C36.684 28.692 36.3244 28.692 36.3244 29.0506C36.3244 29.0506 36.3244 29.0506 35.9647 29.0506H35.6051H35.2454C35.2454 29.0506 35.2454 29.0506 34.8858 29.0506H34.5261H34.1665H33.8068L33.4472 28.692C33.4472 28.692 33.4472 28.692 33.4472 28.3333V27.9747V27.616C33.4472 27.2574 33.4472 26.8987 32.7279 26.5401C31.6489 27.2574 31.2893 27.616 31.2893 27.9747Z" fill="black"/>
<path d="M39.5613 14.3461C38.842 15.422 38.4824 16.8566 39.2016 18.2912C39.5613 19.3672 40.6402 20.4431 41.7192 20.8018C43.8771 21.8777 46.7543 21.8777 48.9122 20.8018C49.9911 20.0845 50.7104 19.3672 51.0701 17.9326C51.4297 16.8566 51.0701 15.7807 50.7104 14.7047C49.6315 12.5528 47.4736 11.4769 45.3157 11.1182C43.8771 10.7596 42.4385 11.1182 41.3595 11.8355C40.9999 11.8355 40.6402 12.1942 40.2806 12.5528C39.9209 12.5528 39.5613 12.9115 39.5613 13.2701C39.5613 13.6288 39.5613 13.9874 39.5613 14.7047C39.5613 15.7807 40.9999 15.7807 40.9999 14.7047C40.9999 14.3461 40.9999 13.9874 40.9999 13.2701C40.9999 13.6288 40.9999 13.6288 40.6402 13.9874C41.3595 13.2701 42.0788 12.9115 43.1578 12.5528H43.5174C43.8771 12.5528 43.8771 12.5528 44.2367 12.5528H44.5964C44.5964 12.5528 44.5964 12.5528 44.956 12.5528C45.3157 12.5528 45.3157 12.5528 45.6753 12.5528C47.1139 12.9115 48.5525 13.9874 49.2718 15.422C49.2718 15.422 49.2718 15.422 49.2718 15.7807V16.1393C49.2718 16.498 49.2718 16.498 49.2718 16.8566V17.2153C49.2718 17.2153 49.2718 17.2153 49.2718 17.5739V17.9326C48.9122 18.2912 48.5525 18.6499 48.1929 18.6499C47.8332 19.0085 47.4736 19.0085 47.1139 19.3672C46.7543 19.3672 46.7543 19.3672 46.3946 19.3672H46.035C44.956 19.3672 44.2367 19.3672 43.1578 19.0085C42.4385 18.6499 41.7192 17.9326 40.9999 17.2153V16.8566V16.498C40.9999 16.1393 40.9999 16.1393 40.9999 15.7807C40.9999 15.422 41.3595 15.422 41.3595 15.0634C41.3595 14.3461 40.2806 13.2701 39.5613 14.3461Z" fill="black"/>
<path d="M25.1754 2.15208C24.0965 2.86938 23.0175 3.58668 23.3772 5.02128C23.3772 6.09723 24.4561 7.17318 25.1754 7.89048C27.3333 9.68372 30.9298 10.7597 33.807 10.401C35.2456 10.401 36.6842 9.68372 37.7632 8.60778C38.8421 7.89048 39.921 6.45588 39.5614 5.02128C39.5614 2.15208 35.9649 0.717481 33.807 0.358831C32.3684 0.000181317 30.5702 0.000181317 28.7719 0.358831C28.0526 0.358831 27.3333 0.717481 26.614 1.07613C25.8947 1.43478 25.5351 1.79343 25.1754 2.15208C24.0965 3.22803 25.5351 4.30398 26.2544 3.58668L26.614 3.22803C26.614 3.22803 26.614 3.22803 26.9737 2.86938C27.3333 2.51073 28.0526 2.15208 28.4123 2.15208C29.8509 1.43478 31.2895 1.43478 32.3684 1.79343C33.4474 1.79343 34.886 2.15208 35.9649 2.86938C36.3246 3.22803 37.0439 3.58668 37.4035 3.58668C37.7632 3.94533 38.1228 4.30398 38.1228 4.66263V5.02128V5.37993C38.1228 5.73858 37.7632 6.09723 37.4035 6.45588C37.0439 7.53183 35.9649 8.24913 34.5263 8.60778C32.3684 8.96642 29.4912 8.24913 27.3333 7.17318C26.2544 6.81453 25.5351 6.09723 24.8158 5.02128C25.1754 4.30398 25.1754 4.30398 25.1754 3.94533C25.5351 3.94533 25.5351 3.58668 25.8947 3.58668C26.9737 3.22803 25.8947 1.79343 25.1754 2.15208Z" fill="black"/>
<path d="M115.807 32.9958C115.087 30.8439 115.447 29.4093 117.245 27.9747C119.044 26.8987 120.842 26.1814 122.64 25.1055C124.438 24.0296 125.517 22.2363 125.517 20.4431C125.517 17.9325 123.359 16.8566 121.561 15.422C120.122 14.346 119.044 13.2701 118.684 11.4768C118.324 9.32491 119.763 7.53166 120.842 5.73841C121.201 5.02111 120.842 4.66246 120.122 4.66246C117.245 4.30381 114.008 5.37976 112.929 7.89031C111.851 10.4009 112.929 13.2701 115.087 15.0633C116.886 16.4979 120.482 19.3671 117.605 21.519C115.807 22.9536 113.289 23.6709 112.57 26.1814C111.851 27.9747 112.21 33.3544 115.087 33.3544C114.728 32.9958 114.728 32.9958 114.368 32.6371C114.368 32.9958 114.368 33.3544 114.368 33.7131C114.008 34.4304 115.807 34.4304 115.807 32.9958C115.807 32.9958 115.807 32.6371 115.807 32.2785C115.807 31.9198 115.447 31.5612 115.087 31.5612C113.649 31.5612 113.649 27.9747 113.649 27.2574C114.008 25.8228 115.087 25.1055 116.166 24.3882C118.324 23.3123 120.482 21.8777 119.763 19.3671C119.403 17.9325 118.684 16.8566 117.605 15.7806C116.526 14.346 115.087 13.6287 114.368 12.5528C113.289 11.1182 113.649 8.96626 114.728 7.53166C116.166 6.09706 117.965 6.09706 119.763 6.09706C119.403 5.73841 119.403 5.37976 119.044 5.02111C117.605 8.24896 115.807 10.7595 117.605 14.346C118.684 16.4979 121.561 17.2152 123 19.3671C125.877 23.6709 117.605 26.1814 115.447 27.9747C113.649 29.4093 113.289 31.9198 114.008 34.0717C114.728 34.4304 116.166 34.0717 115.807 32.9958Z" fill="black"/>
<path d="M112.21 32.2787C110.412 30.1268 108.973 27.2576 110.052 24.3884C110.412 23.3125 111.491 22.2365 112.21 21.5192C112.929 20.8019 113.649 20.4433 114.368 19.3673C115.447 17.5741 114.368 15.7808 112.57 15.0635C110.772 14.3462 108.614 14.7049 106.456 14.7049C105.736 14.7049 105.377 15.7808 106.096 16.1395C107.535 17.2154 107.175 17.9327 106.096 19.0087C105.017 20.0846 103.579 21.1606 102.5 22.5952C101.421 24.0298 100.701 25.823 101.78 27.2576C102.859 29.0509 105.017 30.1268 106.456 31.2028C107.894 32.2787 109.333 32.996 110.772 33.7133C111.85 34.072 112.21 32.6374 111.131 32.2787C109.693 31.9201 108.614 31.2028 107.535 30.4855C106.456 30.1268 105.377 29.4095 104.658 28.6922C103.938 28.3336 103.219 27.6163 102.859 26.899C102.14 25.4644 103.579 24.0298 104.298 22.9538C105.377 21.8779 106.815 20.8019 107.894 19.726C108.973 17.9327 108.254 16.4981 106.815 15.4222C106.815 15.7808 106.456 16.4981 106.456 16.8568C108.254 16.8568 110.412 16.4981 112.21 17.2154C112.929 17.5741 113.649 18.2914 113.289 19.0087C112.929 19.726 112.21 20.4433 111.491 20.8019C109.693 22.2365 108.254 24.0298 108.254 26.5403C107.894 29.0509 109.333 31.5614 111.131 33.7133C111.131 34.072 112.57 33.3547 112.21 32.2787Z" fill="black"/>
<path d="M11.1491 110.464C14.7455 110.464 18.7017 110.464 22.2982 109.747C23.3771 109.388 23.0175 107.954 21.9385 108.312C18.342 109.03 14.7455 109.03 11.1491 109.03C10.0701 108.671 10.0701 110.464 11.1491 110.464Z" fill="black"/>
<path d="M7.19251 114.051C11.5083 114.051 15.4644 113.334 19.7802 112.258C20.8592 111.899 20.4995 110.465 19.4206 110.823C15.4644 111.54 11.5083 112.258 7.19251 112.258C6.11356 112.616 6.11356 114.051 7.19251 114.051Z" fill="black"/>
<path d="M6.47327 116.203C10.4294 116.203 14.7452 115.486 18.3417 114.41C19.4206 114.051 19.061 112.616 17.982 112.975C14.3856 114.051 10.4294 114.768 6.47327 114.768C5.39433 114.768 5.39433 116.203 6.47327 116.203Z" fill="black"/>
<path d="M6.11365 120.148C9.71014 119.43 13.6663 118.713 17.2628 117.637C18.3417 117.279 17.9821 115.844 16.9031 116.203C13.3066 117.279 9.35049 117.637 5.754 118.713C4.67506 118.713 5.03471 120.148 6.11365 120.148Z" fill="black"/>
<path d="M2.87708 122.3C7.55252 121.941 11.8683 120.865 16.5437 120.148C17.6227 119.789 17.263 118.355 16.1841 118.713C11.8683 119.431 7.55252 120.507 2.87708 120.865C1.79813 120.865 1.79813 122.658 2.87708 122.3Z" fill="black"/>
<path d="M2.87708 126.604C6.47357 126.604 9.71041 125.886 12.9473 125.169C14.0262 124.81 13.6666 123.376 12.5876 123.734C9.35077 124.452 6.11392 125.169 2.87708 125.169C1.79813 125.169 1.79813 126.604 2.87708 126.604Z" fill="black"/>
<path d="M109.333 104.009C112.21 104.009 114.728 103.65 117.245 103.292C117.605 103.292 117.965 102.933 117.965 102.574C117.965 102.216 117.605 101.857 117.245 101.857C114.728 102.216 111.851 102.574 109.333 102.574C108.254 102.574 108.254 104.009 109.333 104.009Z" fill="black"/>
<path d="M111.85 106.519C112.57 106.16 113.649 106.16 114.368 106.16C114.728 106.16 115.087 105.443 115.087 105.084C115.087 104.726 114.368 104.367 114.008 104.367C113.289 104.726 112.21 104.726 111.491 104.726C111.131 104.726 110.771 105.443 110.771 105.802C111.131 106.16 111.491 106.519 111.85 106.519Z" fill="black"/>
<path d="M107.895 108.671C111.851 108.671 115.447 107.954 119.044 107.237C119.403 107.237 119.763 106.519 119.763 106.161C119.763 105.802 119.044 105.443 118.684 105.443C115.088 106.161 111.491 106.878 107.895 106.878C106.816 106.878 106.816 108.671 107.895 108.671Z" fill="black"/>
<path d="M104.298 111.899C109.333 111.181 114.368 111.181 119.044 110.105C120.123 109.747 119.763 108.312 118.684 108.671C113.649 109.747 108.974 109.747 103.939 110.464C102.86 110.464 103.219 111.899 104.298 111.899Z" fill="black"/>
<path d="M105.377 114.409C110.412 113.692 115.088 112.975 120.123 112.257C121.202 112.257 120.842 110.464 119.763 110.823C114.728 111.54 110.053 112.257 105.017 112.975C103.939 112.975 104.658 114.768 105.377 114.409Z" fill="black"/>
<path d="M105.736 116.203C110.052 116.203 114.368 115.844 118.684 114.41C119.763 114.051 119.403 112.616 118.324 112.975C114.368 114.051 110.052 114.41 105.736 114.41C104.658 114.41 104.658 116.203 105.736 116.203Z" fill="black"/>
<path d="M104.298 117.996C110.052 118.355 115.807 117.637 120.842 115.485C121.921 115.127 121.561 113.692 120.482 114.051C115.447 115.844 109.693 116.92 104.298 116.561C103.219 116.203 103.219 117.996 104.298 117.996Z" fill="black"/>
<path d="M106.456 107.237C109.693 107.237 112.929 107.237 116.166 106.519C116.526 106.519 116.886 105.802 116.886 105.443C116.886 105.085 116.166 104.726 115.807 104.726C112.57 105.085 109.333 105.085 106.456 105.085C105.377 105.802 105.377 107.237 106.456 107.237Z" fill="black"/>
<path d="M107.535 106.519C110.772 105.443 114.368 105.802 117.605 105.084C118.684 104.726 118.325 103.291 117.246 103.65C114.009 104.367 110.412 104.009 107.175 105.084C106.096 105.084 106.456 106.878 107.535 106.519Z" fill="black"/>
<path d="M100.342 122.658C106.456 119.789 113.289 120.507 119.403 119.431C120.482 119.072 120.123 117.637 119.044 117.996C112.57 119.431 105.737 118.713 99.6226 121.583C98.5436 121.941 99.2629 123.017 100.342 122.658Z" fill="black"/>
</g>
<defs>
<clipPath id="clip0_240_10859">
<rect width="164" height="170" fill="white"/>
</clipPath>
</defs>
</svg>
