<svg width="170" height="173" viewBox="0 0 170 173" fill="none" xmlns="http://www.w3.org/2000/svg">
<path d="M66.2841 136.374C58.8759 120.788 49.5181 105.982 43.2795 90.0067C38.2107 76.759 34.7016 60.3941 44.8392 48.7049C51.0777 41.6914 60.4355 37.4054 69.7933 35.0675C79.541 32.34 89.6786 30.0022 99.8162 31.5608C107.614 32.7297 114.633 36.2364 119.312 42.8603C124.77 50.6531 125.94 60.7837 125.94 70.1351C125.55 82.9932 120.481 93.9031 113.463 104.423C107.225 114.164 100.206 123.516 97.0869 135.205C97.4768 134.815 97.8667 134.426 98.2566 134.036C87.3392 135.595 76.4217 137.932 65.5043 135.595C63.9447 135.205 63.1649 137.932 64.7245 138.322C76.0318 141.049 86.9493 138.322 98.2566 137.153C99.0364 137.153 99.4263 136.763 99.4263 135.984C102.546 125.074 108.784 115.723 115.023 106.372C121.261 97.0202 126.33 87.2792 127.89 75.9797C130.229 58.0563 125.55 36.2364 106.445 30.0022C97.4768 27.2747 87.3392 28.054 78.3713 30.0022C67.8438 32.34 56.5364 35.4572 47.9584 42.4707C42.1098 47.1463 37.4309 53.3806 35.8713 60.7837C34.3116 68.1869 35.4814 75.9797 37.8208 82.9932C42.8896 100.137 52.6373 115.723 60.8254 132.088C61.9951 134.036 62.775 135.984 63.5548 137.932C64.7245 139.491 67.0639 137.932 66.2841 136.374Z" fill="black"/>
<path d="M67.8433 138.712C73.3021 132.088 75.6415 122.736 75.2516 114.164C74.8617 106.372 72.1323 97.7995 64.7241 94.6824C64.3342 94.6824 63.9443 94.6824 63.9443 95.0721C63.1644 99.3581 62.7745 105.203 66.6736 108.32C69.403 110.658 73.692 110.268 76.8112 109.489C80.7103 108.32 84.6094 105.982 87.7287 103.254C89.6782 101.306 92.4076 98.5788 91.6277 95.4617C90.458 91.1757 83.4397 91.5653 80.3204 91.9549C79.9305 91.9549 79.9305 92.3446 79.5406 92.3446C77.2011 98.5788 79.1507 105.982 85.3892 109.099C91.6277 111.827 97.8663 108.709 100.986 102.865C100.986 102.475 100.986 102.086 100.986 102.086C99.8158 100.527 99.4259 98.5788 97.4764 98.5788C95.9167 98.5788 94.3571 99.3581 93.1874 100.137C90.458 102.086 89.6782 105.203 89.6782 108.32C89.2883 117.671 92.7975 126.633 92.7975 135.595C93.1874 135.205 93.1874 135.205 93.5773 134.815C90.8479 134.815 88.1186 135.595 85.3892 135.984C81.88 136.764 78.7608 137.153 75.2516 136.763C72.5222 136.374 69.7929 137.153 67.4534 137.153C66.6736 137.153 66.6736 138.712 67.4534 138.712C70.1828 138.322 73.3021 137.932 76.0314 138.322C81.88 139.101 87.7287 135.984 93.1874 135.984C93.5773 135.984 93.9672 135.595 93.9672 135.205C93.9672 127.412 91.6277 120.009 91.2378 112.216C90.8479 109.099 90.8479 105.592 92.4076 102.865C93.1874 101.696 94.3571 100.527 95.5268 100.137C96.6965 99.7477 97.8663 99.3581 98.6461 100.527C99.036 101.306 99.4259 102.086 100.206 102.475C100.206 102.086 100.206 102.086 100.206 101.696C97.4764 106.761 92.0177 109.878 86.169 107.151C80.3204 104.423 79.1507 97.7995 81.1002 92.3446C80.7103 92.3446 80.7103 92.7342 80.3204 92.7342C82.6599 92.7342 88.8984 91.9549 90.0681 94.6824C90.8479 97.0203 88.5085 99.7477 86.9488 100.917C82.6598 104.813 74.4718 110.268 68.6232 107.541C64.3342 105.592 64.7241 98.9684 65.114 95.0721C64.7241 95.0721 64.7241 95.4617 64.3342 95.4617C71.7424 98.5788 74.0819 107.151 74.0819 114.554C74.0819 122.347 72.1323 130.919 66.6736 137.153C66.2837 138.712 67.0635 139.491 67.8433 138.712Z" fill="black"/>
<path d="M63.9443 138.712C65.504 149.232 69.0131 159.752 69.0131 170.662C69.0131 171.052 69.4031 171.831 70.1829 171.831C76.8113 173 85.7792 174.169 90.848 168.324C95.137 163.649 95.5269 156.245 96.3067 150.401C96.6966 145.725 97.0865 141.049 98.2563 136.763C98.6462 135.595 97.4764 134.815 96.6966 135.205C90.848 135.984 84.6095 135.595 78.7609 135.984C75.6416 136.374 72.5223 136.374 69.793 137.153C68.2333 137.543 67.0636 137.153 65.8939 137.153C63.9443 136.763 64.3342 139.881 65.8939 139.881C67.0636 139.881 68.2333 140.27 69.4031 140.27C70.9627 140.27 72.9122 139.491 74.4719 139.101C76.0315 138.712 77.981 138.712 79.5407 138.712C85.3893 138.322 91.6278 138.712 97.4765 137.543C97.0865 137.153 96.3067 136.374 95.9168 135.984C94.3572 142.998 94.3572 150.401 93.1875 157.414C92.4076 162.48 90.4581 167.935 84.9994 169.883C80.7104 171.052 76.0315 170.662 71.7425 169.493C72.1324 169.883 72.5223 170.272 72.9122 170.662C72.9122 159.363 69.4031 148.842 67.8434 137.932C66.6737 136.374 63.9443 137.153 63.9443 138.712Z" fill="black"/>
<path d="M69.4036 160.532C77.5916 162.09 86.1696 160.532 93.9678 157.804C95.5274 157.414 94.7476 154.687 93.188 155.077C85.7797 157.804 77.9815 158.973 69.7935 157.804C68.2338 157.804 67.454 160.142 69.4036 160.532Z" fill="black"/>
<path d="M69.4036 151.57C77.9815 151.57 86.9494 150.401 95.1375 147.284C96.6971 146.505 96.3072 143.777 94.3577 144.557C86.1696 147.284 77.5916 148.453 69.4036 148.453C67.454 148.843 67.454 151.57 69.4036 151.57Z" fill="black"/>
<path d="M44.8388 51.043C46.0086 50.2637 47.5682 50.2637 48.7379 49.8741C49.9077 49.4844 51.0774 49.0948 51.8572 48.3155C52.637 47.5362 51.4673 46.757 50.6875 47.1466C49.9077 47.9259 48.7379 48.3155 47.9581 48.3155C46.7884 48.7052 45.2288 49.0948 44.059 49.8741C43.2792 50.2637 43.6691 51.4326 44.8388 51.043Z" fill="black"/>
<path d="M40.1607 59.2253C44.0598 58.0564 47.9588 56.8874 51.468 54.9392C52.2478 54.5496 51.468 53.3807 50.6882 53.7703C47.179 55.3289 43.6699 56.4978 39.7708 57.6667C38.991 58.0564 39.3809 59.6149 40.1607 59.2253Z" fill="black"/>
<path d="M40.1607 63.5114C44.4497 61.9528 48.7387 60.3943 52.6377 58.0564C53.4176 57.6668 52.6377 56.4979 51.8579 56.8875C47.9588 59.2253 44.0598 60.7839 39.7708 62.3425C38.991 62.3425 39.3809 63.5114 40.1607 63.5114Z" fill="black"/>
<path d="M36.2613 70.1352C38.2108 69.3559 40.1603 68.9662 42.1099 68.187C43.6695 67.7973 45.2292 67.4077 47.1787 67.4077C47.9585 67.4077 47.9585 65.8491 47.1787 65.8491C45.6191 65.8491 43.6695 66.2388 42.1099 66.6284C40.1603 67.018 37.8209 67.7973 35.8714 68.5766C35.0915 69.3559 35.4814 70.5248 36.2613 70.1352Z" fill="black"/>
<path d="M38.2105 73.2525C44.8389 71.694 51.0775 68.9665 57.7059 66.239C58.4857 65.8494 58.0958 64.6805 57.316 65.0701C51.0775 67.408 44.449 70.1354 37.8206 72.0836C37.0408 72.4733 37.4307 73.6422 38.2105 73.2525Z" fill="black"/>
<path d="M38.6005 79.8762C42.4996 79.8762 46.3987 78.7073 49.9078 77.1487C50.6876 76.7591 49.9078 75.5901 49.128 75.9798C46.0087 77.5383 42.1097 78.7073 38.6005 78.7073C37.8207 78.7073 37.8207 79.8762 38.6005 79.8762Z" fill="black"/>
<path d="M41.7199 84.1623C43.6694 83.383 45.619 82.9934 47.1786 82.6037C49.1281 81.8244 51.0777 81.0452 52.6373 79.8762C53.4171 79.4866 52.6373 78.3177 51.8575 78.7073C50.2979 79.8762 48.3483 80.6555 46.3988 81.4348C44.4492 81.8244 42.8896 82.2141 40.9401 82.9934C40.5502 82.9934 40.9401 84.1623 41.7199 84.1623Z" fill="black"/>
<path d="M40.1607 88.0588C44.8396 86.5002 49.5185 85.3313 53.8075 83.7727C54.5873 83.3831 54.1974 82.2142 53.4176 82.6038C48.7387 84.1624 44.0598 85.3313 39.7708 86.8898C38.991 87.2795 39.3809 88.4484 40.1607 88.0588Z" fill="black"/>
<path d="M45.619 92.3449C49.5181 92.3449 53.4172 91.176 56.9264 89.6175C57.7062 89.2278 56.9264 88.0589 56.1466 88.4485C53.0273 90.0071 49.1282 91.176 45.619 91.176C44.8392 91.176 44.8392 92.3449 45.619 92.3449Z" fill="black"/>
<path d="M43.2798 49.4845C48.3486 48.3156 53.4174 46.7571 58.4862 45.1985C59.266 44.8089 58.8761 43.64 58.0963 44.0296C53.0275 45.1985 47.9587 46.7571 42.8899 48.3156C41.7201 48.3156 42.1101 49.8742 43.2798 49.4845Z" fill="black"/>
<path d="M40.1607 56.498C46.7891 55.329 53.0277 53.7705 59.6561 52.2119C60.4359 52.2119 60.046 50.6534 59.2662 51.043C52.6377 52.2119 46.3992 53.7705 39.7708 55.329C38.991 55.329 39.3809 56.498 40.1607 56.498Z" fill="black"/>
<path d="M40.1607 61.9528C45.2295 60.3942 50.2983 59.2253 55.3671 57.6668C56.1469 57.2771 55.757 56.1082 54.9772 56.4979C49.9084 57.6668 44.8396 58.8357 39.7708 60.7839C38.991 60.7839 39.3809 62.3424 40.1607 61.9528Z" fill="black"/>
<path d="M65.114 19.4821C65.8939 17.5339 66.6737 15.5857 67.0636 13.6375C67.4535 11.6893 68.2333 9.35146 67.8434 7.01362C67.8434 5.06542 67.0636 3.89651 65.504 2.33795C63.9443 1.16903 61.9948 0.000109971 60.0452 -0.38953C58.0957 -0.779169 56.1462 -0.38953 54.5865 0.779389C53.0269 1.94831 52.2471 3.50687 52.2471 5.06542C52.2471 8.57218 54.9764 11.2997 56.926 13.6375C58.0957 14.8064 59.6553 16.365 61.215 17.5339C61.6049 17.9235 62.3847 18.3132 62.7746 18.7028L63.1645 19.0925C63.1645 19.4821 63.5544 19.8717 63.9443 19.8717C64.3342 19.8717 64.3342 19.8717 64.7241 19.8717C65.504 19.8717 65.504 18.3132 64.7241 18.3132C64.3342 18.3132 64.3342 18.3132 63.9443 18.3132C64.3342 18.7028 64.3342 18.7028 64.7241 19.0925C64.7241 18.3132 63.9443 17.9235 63.5544 17.5339C62.3847 16.7546 61.6049 15.9753 60.4351 14.8064C58.0957 12.8582 55.3663 10.1307 54.1966 7.40326C53.8067 6.23434 53.4168 5.06543 54.1966 3.89651C54.9764 2.33795 56.5361 1.16903 58.4856 1.16903C60.4351 1.16903 62.3847 1.55867 63.9443 2.72759C65.114 3.50687 66.6737 4.67579 67.0636 6.62398C67.4535 8.57218 67.0636 10.91 66.2838 13.2479C65.8939 15.1961 65.114 17.1443 64.3342 19.4821C63.1645 19.8717 64.7241 20.2614 65.114 19.4821Z" fill="black"/>
<path d="M112.683 19.8715C112.293 16.3647 113.073 12.4683 114.243 9.35122C115.412 6.23411 117.752 2.33771 121.261 1.94807C122.821 1.94807 124.77 2.33771 125.94 3.50663C126.72 4.28591 126.72 5.45483 126.33 6.62375C125.16 9.74086 122.431 12.4683 119.701 14.8062C118.142 15.9751 116.582 17.144 115.023 18.3129C114.633 18.7026 113.853 19.0922 113.073 19.4819C113.463 19.4819 113.463 19.4819 113.073 19.4819C112.683 19.4819 112.293 19.4819 111.903 19.4819C111.123 19.4819 111.123 21.0404 111.903 21.0404C112.683 21.0404 113.463 21.0404 113.853 21.0404C114.633 21.0404 115.023 20.2611 115.802 19.8715C117.362 18.7026 118.922 17.5337 120.091 16.3647C122.821 14.0269 126.33 10.9098 127.5 7.40303C127.889 6.23411 128.279 4.67555 127.5 3.11699C126.72 1.55843 124.77 0.779152 122.821 0.389513C118.532 -0.389767 115.412 3.11699 113.853 6.62375C112.683 8.96159 111.903 11.2994 111.513 13.6373C111.123 15.5855 110.734 17.9233 111.123 19.8715C111.123 21.0404 112.683 21.0404 112.683 19.8715Z" fill="black"/>
<path d="M23.0044 49.4843C20.6649 45.9775 16.7658 44.419 12.8667 44.0293C9.35757 43.6397 5.45849 44.0293 2.33922 45.9775C-0.000229215 47.5361 -1.16995 50.6532 1.5594 52.991C4.28876 54.9392 8.57775 54.5496 11.697 54.16C14.0365 53.7703 16.3759 53.3807 18.3255 52.6014C19.8851 52.2118 21.4447 51.4325 22.6145 50.2636C23.3943 49.4843 22.2245 48.705 21.4447 49.0946C20.6649 49.8739 19.4952 50.2636 18.3255 50.6532C16.7658 51.4325 15.2062 51.8221 13.2567 52.2118C10.1374 52.991 6.2383 53.3807 3.11904 52.6014C1.94931 52.2118 0.779587 51.4325 0.779587 50.2636C0.779587 49.0946 1.1695 48.3154 1.94931 47.5361C4.28876 45.5879 7.79794 45.1983 10.9172 45.1983C14.8163 45.1983 18.7154 46.7568 21.0548 49.8739C22.2245 50.6532 23.3943 49.8739 23.0044 49.4843Z" fill="black"/>
<path d="M143.486 49.4842C143.876 45.5878 147.385 42.4707 150.115 40.1329C153.234 37.4054 157.523 34.6779 161.812 33.8986C163.761 33.509 165.711 34.2883 167.271 35.4572C168.83 36.6261 168.83 38.1847 168.05 39.7432C166.881 41.3018 165.321 42.8603 163.761 44.0293C162.202 45.1982 160.252 45.9775 158.303 46.7567C155.573 47.536 152.844 47.9257 150.115 47.9257C147.775 47.9257 145.046 47.9257 142.706 48.3153C142.316 48.3153 142.316 48.7049 142.316 49.0946C142.316 49.4842 142.316 49.4842 142.316 49.8739C142.316 50.6531 143.486 50.6531 143.486 49.4842C143.486 49.0946 143.486 49.0946 143.486 48.7049C143.486 49.0946 143.096 49.0946 143.096 49.4842C145.436 49.0946 148.555 49.0946 150.894 49.0946C153.624 49.0946 155.963 48.7049 158.693 47.9257C161.032 47.1464 162.982 45.9775 164.931 44.8085C166.491 43.6396 168.44 42.0811 169.61 40.5225C171.949 36.6261 167.66 33.1194 163.761 32.7297C159.082 32.3401 154.404 35.0675 151.284 37.795C148.945 39.3536 146.995 41.6914 145.436 43.6396C144.266 45.1982 143.096 47.536 142.706 49.4842C141.926 50.6531 143.486 50.6531 143.486 49.4842Z" fill="black"/>
<path d="M41.7202 75.59C46.3991 75.59 51.4679 74.4211 55.367 72.0833C56.1468 71.6936 55.367 70.5247 54.5872 70.9144C50.6881 72.8626 46.0092 74.0315 41.3303 74.0315C40.9404 74.4211 40.9404 75.59 41.7202 75.59Z" fill="black"/>
<path d="M43.2796 79.0969C47.1787 77.5383 51.8576 77.5383 56.1466 76.3694C56.9264 75.9798 56.5365 74.8109 55.7567 75.2005C51.4677 76.3694 46.7888 76.3694 42.4998 78.3176C41.72 78.3176 42.4998 79.4865 43.2796 79.0969Z" fill="black"/>
<path d="M43.2798 81.8244C46.789 80.6555 50.688 80.2659 54.5871 79.0969C55.3669 78.7073 54.977 77.5384 54.1972 77.928C50.2981 78.7073 46.789 79.4866 42.8899 80.6555C41.7201 81.0452 42.1101 82.2141 43.2798 81.8244Z" fill="black"/>
<path d="M44.4489 83.7727C44.8388 84.552 45.6186 84.552 46.3984 84.552C47.5681 84.552 48.7379 84.552 49.9076 84.1623C51.0773 83.7727 52.247 83.7727 53.4168 83.3831C54.1966 82.9934 54.9764 82.9934 55.7562 82.6038C56.536 82.2141 55.7562 81.0452 54.9764 81.4349H54.5865C54.1966 81.4349 53.8067 81.8245 53.4168 81.8245C52.247 82.2141 51.4672 82.2141 50.2975 82.6038C49.1278 82.6038 48.3479 82.9934 47.1782 82.9934C46.7883 82.9934 46.3984 82.9934 46.0085 82.9934C45.2287 82.2141 43.669 82.9934 44.4489 83.7727Z" fill="black"/>
<path d="M46.7887 88.4482C49.908 88.0585 53.4172 87.2792 56.1465 86.1103C56.5364 86.1103 56.5364 85.331 56.5364 85.331C56.1465 84.9414 55.7566 84.9414 55.7566 84.9414C53.0273 86.1103 49.5181 86.5 46.7887 87.2792C46.3988 87.2792 46.3988 87.6689 46.3988 88.0585C46.0089 88.4482 46.3988 88.4482 46.7887 88.4482Z" fill="black"/>
<path d="M42.1103 64.2908C46.3992 63.9011 50.6882 63.9011 54.9772 62.7322C55.757 62.3426 55.3671 61.1736 54.5873 61.5633C50.6882 62.7322 46.3992 62.7322 42.1103 63.1218C41.3304 63.1218 41.3304 64.6804 42.1103 64.2908Z" fill="black"/>
<path d="M41.3296 68.1872C45.6186 67.4079 50.2975 67.0183 54.1966 64.6804C54.9764 64.2908 54.1966 63.1219 53.4167 63.5115C49.5177 65.4597 45.2287 65.8494 40.9397 66.6286C39.7699 67.0183 40.1599 68.1872 41.3296 68.1872Z" fill="black"/>
<path d="M45.229 52.2116C49.1281 51.822 52.6373 50.2634 56.5364 49.0945C57.3162 48.7049 56.9263 47.5359 56.1465 47.9256C52.2474 48.7049 48.7382 50.2634 44.8391 51.0427C44.4492 51.0427 44.4492 51.4323 44.4492 51.822C44.4492 51.822 44.8391 52.2116 45.229 52.2116Z" fill="black"/>
<path d="M49.5181 46.7568C52.2475 45.5878 54.9768 45.5878 58.0961 45.1982C58.486 45.1982 58.8759 44.8086 58.8759 44.4189C58.8759 44.0293 58.486 43.6396 58.0961 43.6396C54.9768 44.0293 51.8575 43.6397 49.1282 45.1982C48.3484 45.9775 48.7383 47.1464 49.5181 46.7568Z" fill="black"/>
<path d="M51.0774 44.4192C53.4169 42.8606 56.5362 43.6399 58.8756 43.2503C59.6554 43.2503 59.6554 41.6917 58.8756 41.6917C56.1462 41.6917 52.6371 41.3021 50.2976 42.8607C49.5178 44.0296 50.2976 45.1985 51.0774 44.4192Z" fill="black"/>
<path d="M43.6695 53.7705C47.1786 52.6015 50.6878 52.2119 54.197 51.4326C54.9768 51.4326 54.5869 49.8741 53.8071 50.2637C50.2979 51.043 46.3988 51.4326 43.2796 52.6015C42.4997 52.6015 42.8896 54.1601 43.6695 53.7705Z" fill="black"/>
<path d="M39.3808 60.7841C43.6698 60.3945 47.5688 59.6152 51.8578 59.2255C52.6376 59.2255 52.6376 57.667 51.8578 57.667C47.5688 58.0566 43.6698 58.8359 39.3808 59.2255C38.6009 59.6152 38.6009 60.7841 39.3808 60.7841Z" fill="black"/>
<path d="M38.6011 67.7973C40.5506 67.018 42.5002 67.018 44.4497 67.018C44.8396 67.018 45.2295 66.6284 45.2295 66.2388C45.2295 65.8491 44.8396 65.4595 44.4497 65.4595C42.1103 65.4595 40.1607 65.8491 38.2112 66.6284C37.8213 66.6284 37.8213 67.4077 37.8213 67.4077C37.8213 68.187 38.2112 68.187 38.6011 67.7973Z" fill="black"/>
<path d="M39.3804 73.642C45.229 71.6938 51.4676 70.9145 57.3162 70.1353C58.096 70.1353 57.7061 68.5767 56.9263 68.9663C50.6877 69.7456 44.8391 70.5249 38.9905 72.4731C38.2107 72.4731 38.6006 74.0317 39.3804 73.642Z" fill="black"/>
<path d="M38.9908 78.7075C44.0596 77.5385 49.1284 77.1489 54.1972 75.98C54.977 75.98 54.5871 74.4214 53.8073 74.8111C48.7385 75.5903 43.6697 76.3696 38.6008 77.5385C37.821 77.5385 38.2109 78.7075 38.9908 78.7075Z" fill="black"/>
<path d="M40.94 82.2143C45.6189 80.6557 50.6877 79.8765 55.3666 79.0972C56.1464 79.0972 55.7565 77.5386 54.9767 77.9283C50.2978 78.7075 45.229 79.0972 40.5501 81.0454C39.7702 81.435 40.1602 82.6039 40.94 82.2143Z" fill="black"/>
<path d="M44.8393 84.9413C48.3485 84.1621 51.8577 83.3828 55.3669 82.9931C55.7568 82.9931 55.7568 82.6035 55.7568 82.2139C55.7568 81.8242 55.3669 81.8242 54.977 81.8242C51.4678 82.2139 47.9586 82.9931 44.4494 83.7724C43.2797 84.1621 43.6696 85.331 44.8393 84.9413Z" fill="black"/>
<path d="M44.8394 89.6172C47.9587 88.8379 51.4678 88.4482 54.5871 88.0586C55.3669 88.0586 54.977 86.5 54.1972 86.8897C51.0779 87.669 47.5687 87.669 44.4495 88.4482C43.6697 88.4482 44.0596 90.0068 44.8394 89.6172Z" fill="black"/>
<path d="M47.1783 92.3447C49.9076 91.955 52.637 91.5654 54.9764 90.7861C55.3663 90.7861 55.3663 90.3965 55.3663 90.0068C55.3663 89.6172 54.9764 89.6172 54.5865 89.6172C51.8572 90.0068 49.1278 90.3965 46.7883 91.1757C46.0085 91.1757 46.3984 92.3447 47.1783 92.3447Z" fill="black"/>
<path d="M45.619 94.2929C49.908 93.9032 53.8071 92.7343 58.0961 91.955C58.8759 91.955 58.8759 90.3965 58.0961 90.3965C53.8071 90.7861 49.908 92.3447 45.619 92.7343C44.8392 93.124 44.8392 94.2929 45.619 94.2929Z" fill="black"/>
<path d="M47.9583 97.0202C51.0776 95.8513 54.5867 95.4617 57.706 94.6824C58.4858 94.2928 58.0959 93.1238 57.3161 93.5135C53.8069 94.2928 50.6877 94.6824 47.1785 96.241C46.3987 96.241 47.1785 97.4099 47.9583 97.0202Z" fill="black"/>
<path d="M48.3482 99.3581C50.6876 98.5789 53.417 98.1892 55.7564 97.4099C56.5363 97.0203 56.1463 95.8514 55.3665 96.241C53.0271 97.0203 50.2977 97.4099 47.9583 98.1892C47.1785 98.1892 47.5684 99.3581 48.3482 99.3581Z" fill="black"/>
<path d="M50.2984 99.748C51.858 99.3584 53.4176 98.9687 54.5874 98.5791C54.9773 98.5791 54.9773 98.1894 54.9773 97.7998C54.9773 97.4102 54.5874 97.4102 54.1975 97.4102C52.6378 97.7998 51.0782 98.1894 49.9085 98.5791C49.5186 98.5791 49.5186 98.9687 49.5186 99.3584C49.5186 99.748 49.9085 100.138 50.2984 99.748Z" fill="black"/>
</svg>
