<svg width="182" height="156" viewBox="0 0 182 156" fill="none" xmlns="http://www.w3.org/2000/svg">
<g clip-path="url(#clip0_240_14444)">
<path d="M11.284 31.1275C11.648 31.1275 12.012 31.1275 12.376 31.1275C13.468 31.1275 13.468 29.6797 12.376 29.6797C8.73605 29.6797 5.09605 29.6797 1.09205 29.6797C0.728046 29.6797 0.364046 30.0416 0.364046 30.4036C-0.363954 37.6426 0.728046 44.8815 2.18405 51.7586C3.64005 59.7215 5.46005 67.3224 6.91605 75.2853C9.82805 92.2969 10.556 109.67 12.376 126.682C13.468 136.093 14.56 145.503 16.38 154.552C16.38 154.914 17.108 155.276 17.472 154.914C24.024 150.571 32.76 153.828 40.0401 152.742C49.868 150.933 59.696 148.399 69.524 147.675C79.3521 146.951 89.544 146.951 99.372 146.951C109.2 146.951 119.028 145.865 128.856 145.141C138.32 144.418 147.784 143.694 157.248 142.608C161.98 141.884 166.348 141.16 170.716 140.074C172.9 139.712 175.812 138.988 177.632 137.54C181.272 134.283 180.18 128.13 180.544 123.786C181.272 114.738 182.364 106.413 182 97.3641C180.908 78.1809 176.904 58.9976 172.536 40.5382C172.172 39.4523 170.716 39.8143 171.08 40.9001C175.084 57.5498 178.36 74.1994 180.18 91.211C180.908 99.1739 181.272 107.499 180.18 115.462C179.816 119.805 179.088 124.148 179.088 128.492C179.088 130.663 179.088 133.197 177.996 135.369C176.54 137.54 173.992 138.264 171.444 138.626C167.076 139.35 162.708 140.436 157.976 141.16C148.512 142.608 139.048 142.97 129.584 143.694C120.12 144.418 110.656 145.141 100.828 145.503C91 145.503 81.1721 145.503 71.344 145.865C61.152 146.589 50.96 149.123 40.768 150.933C33.124 152.38 23.66 149.123 16.744 153.466C17.108 153.466 17.472 153.828 17.836 153.828C14.924 137.54 13.104 120.529 11.648 103.517C10.92 95.1925 10.192 87.2296 8.73605 79.2667C7.64405 71.6658 5.82405 63.7029 4.36805 56.102C2.54805 47.7771 0.728046 39.0904 1.82005 30.7655C1.45605 30.7655 1.09205 31.1275 1.09205 31.1275C4.73205 31.1275 8.37205 31.1275 12.376 31.1275C13.468 31.1275 13.468 29.6797 12.376 29.6797C12.012 29.6797 11.648 29.6797 11.284 29.6797C10.192 29.6797 10.192 31.1275 11.284 31.1275Z" fill="black"/>
<path d="M81.1719 19.5449C92.8199 8.32452 101.556 3.25724 117.572 1.44749C128.128 0.361647 150.696 0.361647 159.796 6.87673C175.084 17.0113 172.536 53.2062 172.536 68.77C172.536 84.6957 174.72 102.793 171.444 118.719C171.08 120.891 171.444 123.424 171.444 125.596C146.328 119.081 124.124 123.424 100.1 131.387" fill="white"/>
<path d="M81.5361 19.907C86.6321 14.8398 92.0921 10.1344 98.6441 6.87687C104.832 3.98128 111.748 2.53349 118.664 1.80959C124.852 1.44764 131.04 1.08569 137.592 1.80959C144.144 2.17154 150.696 2.89544 156.52 5.79103C166.712 10.8583 169.624 23.5265 170.716 33.6611C172.172 44.8815 171.444 56.1019 171.444 67.3224C171.444 76.733 172.172 86.1437 172.172 95.5544C172.172 100.622 172.172 105.327 171.444 110.394C171.08 113.29 170.716 115.824 170.352 118.357C169.988 120.529 170.352 122.701 170.352 125.234C170.716 124.872 171.08 124.872 171.444 124.51C159.432 121.615 147.42 120.891 135.044 121.977C123.032 123.424 111.02 126.32 99.3721 130.301C98.2801 130.663 98.6441 132.111 99.7361 131.749C111.02 128.13 123.032 124.872 135.044 123.424C147.056 121.977 159.068 123.062 171.08 125.958C171.444 125.958 172.172 125.596 172.172 125.234C172.172 122.701 171.808 120.529 172.172 117.995C172.536 115.824 172.9 114.014 173.264 111.842C173.992 107.137 173.992 102.069 173.992 97.3641C173.992 87.9534 173.264 78.5428 173.264 69.1321C173.264 57.5497 173.992 45.6054 172.536 34.023C171.444 23.8885 168.896 11.2203 159.796 5.42908C154.7 2.17154 148.512 1.08569 142.688 0.361794C135.408 -0.000155203 128.492 -0.000155203 121.576 0.361794C114.296 0.723743 106.652 1.80959 99.7361 4.70518C92.0921 7.96272 85.9041 13.392 80.0801 18.8212C79.7161 19.5451 80.8081 20.6309 81.5361 19.907Z" fill="black"/>
<path d="M115.024 46.3294C117.572 47.4153 120.12 47.7772 123.032 48.1392C126.672 48.5011 130.312 48.1392 133.952 48.1392C137.228 47.7772 140.868 47.4153 144.144 46.6914C146.328 46.3294 148.876 45.6055 151.06 44.5197C151.788 43.7958 151.06 42.7099 150.332 43.0719C148.512 44.1577 145.964 44.8816 144.144 45.2436C140.868 45.9675 137.592 46.3294 133.952 46.6914C130.676 47.0533 127.4 47.0533 123.76 47.0533C121.212 47.0533 118.3 46.6914 115.752 45.6055C115.024 44.5197 114.296 45.9675 115.024 46.3294Z" fill="black"/>
<path d="M117.208 52.8446C127.764 52.8446 138.32 52.4826 148.876 50.6729C149.968 50.3109 149.604 48.8631 148.512 49.2251C138.32 51.0348 127.764 51.3968 117.208 51.3968C116.116 51.0348 116.116 52.8446 117.208 52.8446Z" fill="black"/>
<path d="M108.836 23.5268C123.396 20.9931 138.32 22.4409 153.244 19.9073C153.972 19.9073 153.972 18.4595 152.88 18.4595C152.152 18.4595 151.06 18.4595 150.332 18.4595C149.24 18.4595 149.24 19.9073 150.332 19.9073C151.06 19.9073 152.152 19.9073 152.88 19.9073C152.88 19.5453 152.88 18.8214 152.516 18.4595C137.956 20.9931 123.032 19.5453 108.108 22.079C107.38 22.079 107.744 23.8887 108.836 23.5268Z" fill="black"/>
<path d="M111.748 28.9558C122.668 27.1461 133.952 27.508 144.872 25.6983C145.964 25.6983 145.6 23.8885 144.508 24.2505C133.588 26.0602 122.304 25.6983 111.384 27.508C110.656 27.508 111.02 28.9558 111.748 28.9558Z" fill="black"/>
<path d="M111.748 33.2994C124.124 34.3852 136.864 34.7472 149.24 31.8516C150.332 31.4896 149.968 30.0418 148.876 30.4038C136.864 32.9374 124.124 32.5755 111.748 31.4896C110.656 31.4896 110.656 32.9374 111.748 33.2994Z" fill="black"/>
<path d="M115.752 69.1321C115.388 75.6471 117.208 81.8003 117.208 88.3154C117.208 88.6773 117.572 89.0393 117.936 89.0393C124.852 89.4012 131.768 88.6773 138.32 87.9534C138.684 87.9534 139.048 87.5915 139.048 87.2295C139.776 83.61 138.684 79.6286 137.956 76.0091C137.592 74.1993 137.592 72.7516 137.592 70.9418C137.592 70.2179 137.956 69.1321 137.592 68.4082C137.228 66.2365 135.044 66.2365 133.224 65.8745C130.312 65.5126 127.764 66.2365 124.852 66.5984C121.576 66.9604 118.664 67.6843 115.388 68.0462C114.296 68.4082 114.66 69.856 115.752 69.494C120.848 68.4082 125.944 67.3223 131.04 67.3223C132.132 67.3223 133.224 67.3223 134.316 67.6843C134.68 67.6843 135.408 67.6843 135.772 68.4082C136.136 69.1321 135.772 70.2179 135.772 70.5799C135.772 72.0277 135.772 73.4755 135.772 74.9233C136.136 78.9047 137.956 82.8861 136.864 86.8676C137.228 86.5056 137.228 86.5056 137.592 86.1437C130.676 86.8676 123.76 87.5915 117.208 87.2295C117.572 87.5915 117.572 87.5915 117.936 87.9534C117.572 81.4383 116.116 75.2852 116.48 68.7701C117.208 68.0462 115.752 68.0462 115.752 69.1321Z" fill="black"/>
<path d="M140.868 91.9351C140.504 98.0882 143.78 103.879 144.144 110.394C144.144 110.756 144.508 111.118 144.872 111.118C148.876 110.756 152.88 111.48 156.884 111.118C158.34 111.118 160.16 110.756 161.252 109.309C162.344 107.861 162.708 106.051 162.708 104.603C162.708 100.622 161.252 97.0023 160.888 93.0209C160.888 91.9351 160.524 90.1253 159.796 89.0395C159.068 87.9536 157.976 87.9536 156.884 87.9536C151.788 87.9536 146.328 90.1253 141.596 91.5731C140.504 91.9351 140.868 93.3829 141.96 93.0209C146.328 91.9351 150.332 90.1253 155.064 89.7634C156.156 89.7634 157.612 89.4014 158.704 89.7634C159.432 90.1253 159.432 91.5731 159.432 92.659C159.796 94.1067 159.796 95.9165 160.16 97.3643C160.524 99.174 160.888 100.984 161.252 102.794C161.252 104.603 161.616 106.413 160.524 107.861C159.796 109.309 158.34 109.309 156.884 109.671C152.88 110.032 148.876 109.309 144.872 109.671C145.236 110.032 145.236 110.033 145.6 110.394C145.236 104.241 142.324 98.4501 142.324 91.9351C142.324 90.8492 140.868 90.8492 140.868 91.9351Z" fill="black"/>
<path d="M123.032 95.5545C127.764 95.5545 132.132 94.1067 136.5 93.3828C137.592 93.0209 137.228 91.5731 136.136 91.935C131.768 92.6589 127.4 94.1067 123.032 94.1067C121.94 93.7448 121.94 95.5545 123.032 95.5545Z" fill="black"/>
<path d="M123.76 100.26C127.764 99.5359 132.132 99.5359 136.136 98.812C137.228 98.4501 136.864 97.0023 135.772 97.3642C131.768 98.0881 127.764 98.4501 123.76 98.812C123.396 98.812 123.032 99.174 123.032 99.5359C123.032 99.8979 123.396 100.26 123.76 100.26Z" fill="black"/>
<path d="M125.216 107.499C128.856 108.585 132.496 107.137 135.772 105.689C136.136 105.689 136.136 104.965 136.136 104.603C135.772 104.241 135.408 104.241 135.044 104.241C132.132 105.689 128.856 106.775 125.944 105.689C124.852 105.689 124.488 107.499 125.216 107.499Z" fill="black"/>
<path d="M142.688 71.6656C146.692 72.0275 150.332 70.9417 153.972 70.2178C155.064 69.8559 154.7 68.4081 153.608 68.77C149.968 69.4939 146.328 70.5798 142.688 70.2178C141.596 69.8559 141.596 71.6656 142.688 71.6656Z" fill="black"/>
<path d="M145.964 78.1808C149.968 77.4569 153.972 77.4569 157.612 75.6471C157.976 75.6471 158.34 75.2852 158.34 74.5613C158.34 74.1994 157.612 73.8374 157.248 73.8374C153.608 75.2852 149.604 75.2852 145.6 76.371C144.508 76.733 145.236 78.5427 145.964 78.1808Z" fill="black"/>
<path d="M147.056 83.9719C150.332 83.9719 153.244 83.61 156.156 82.1622C156.52 82.1622 156.52 81.4383 156.52 81.0763C156.156 80.7144 155.792 80.7144 155.428 80.7144C152.88 81.8002 149.968 82.1622 147.056 82.1622C146.328 82.1622 146.328 83.9719 147.056 83.9719Z" fill="black"/>
<path d="M133.952 66.5986C131.04 69.4942 128.492 73.4756 126.308 77.0951C124.124 80.7146 121.94 84.3341 119.028 87.9536C118.3 88.6775 119.756 89.4014 120.484 88.6775C123.032 85.4199 125.216 81.4385 127.4 78.181C129.584 74.5615 132.132 70.58 135.044 67.6844C135.772 66.9605 134.68 65.8747 133.952 66.5986Z" fill="black"/>
<path d="M116.116 69.8561C118.664 72.0278 121.94 73.4756 124.488 75.2853C128.128 77.457 131.768 79.6287 135.408 82.1624C136.136 82.5243 136.5 82.8863 137.228 83.2482C137.592 83.2482 137.592 83.6102 137.956 83.6102C137.956 84.696 139.412 84.696 139.412 83.6102C139.412 82.8863 137.956 81.8004 137.592 81.4385C136.136 80.3526 134.68 79.2668 132.86 78.5429C128.856 76.0093 124.852 73.8376 120.848 71.3039C119.392 70.58 117.936 69.4942 116.844 68.4083C116.116 68.0464 115.024 69.1322 116.116 69.8561Z" fill="black"/>
<path d="M156.884 87.9537C155.064 91.5731 153.608 95.1926 152.152 99.1741C150.696 102.794 149.24 106.775 146.328 109.309C145.6 110.033 146.692 111.118 147.42 110.394C150.332 107.861 151.788 103.879 153.244 100.26C154.7 96.2785 156.156 92.297 157.976 88.6776C158.704 87.9537 157.248 87.2298 156.884 87.9537Z" fill="black"/>
<path d="M143.78 91.9347C146.692 94.4684 150.332 96.2781 153.244 98.8118C154.7 99.8976 156.156 101.345 157.612 102.793C158.34 103.517 158.704 104.241 159.432 104.965C159.796 105.689 160.16 106.775 160.888 106.775C161.252 106.775 161.616 106.413 161.616 106.051C161.616 105.689 161.616 105.327 161.252 104.965L160.888 104.603C160.524 103.517 159.068 103.879 159.432 104.965C159.432 105.327 160.16 105.689 160.16 106.051C160.16 105.689 160.16 105.689 160.16 105.327C160.524 104.965 160.524 104.965 160.888 104.603L161.252 104.965C157.976 98.0879 150.332 94.4684 144.872 90.125C144.144 90.4869 143.052 91.5728 143.78 91.9347Z" fill="black"/>
<path d="M82.264 20.2691C63.336 15.2018 60.788 17.7355 53.872 17.7355C39.312 17.7355 25.48 19.9072 12.376 24.2505C15.652 43.7958 20.748 64.0649 22.568 84.3341C24.024 102.432 24.752 119.805 25.116 137.903C43.316 124.51 80.444 120.529 100.464 131.025C105.196 95.1925 91.728 53.9304 82.264 20.2691Z" fill="white"/>
<path d="M82.2642 19.5451C76.8042 18.0973 70.9802 16.6495 65.1562 16.2876C62.2442 16.2876 58.9682 16.6495 56.0562 16.6495C49.1402 17.3734 42.2242 17.3734 35.6722 18.0973C27.6642 19.1832 19.6562 20.9929 12.0122 23.5266C11.6482 23.5266 11.2842 23.8885 11.2842 24.6124C13.8322 39.0904 17.1082 53.2064 19.2922 67.6844C21.8402 82.1623 22.5682 97.3642 23.2962 112.204C23.6602 120.529 24.0242 129.216 24.0242 137.541C24.0242 138.264 24.7522 138.626 25.1162 138.264C35.6722 130.663 49.1402 127.406 61.8802 125.958C74.2562 124.872 88.4522 125.234 99.7362 131.387C100.464 131.749 100.828 131.387 100.828 130.663C104.832 101.346 97.1882 71.6658 89.5442 43.7957C87.3602 35.8328 85.1762 28.2319 82.6282 20.269C82.2642 19.1832 80.8082 19.5451 81.1722 20.631C89.1802 48.863 98.2802 77.095 100.1 106.413C100.464 114.376 100.464 122.701 99.3722 130.663C99.7362 130.302 100.1 130.302 100.464 129.94C91.7282 125.234 81.5362 123.786 71.3442 123.786C60.4242 123.786 49.1402 125.596 38.9482 129.216C33.8522 131.025 28.7562 133.559 24.3882 136.817C25.1162 137.179 25.4802 137.541 25.8442 137.541C25.4802 122.701 24.7522 107.499 23.6602 92.6588C22.5682 77.8189 20.3842 63.7029 17.4722 49.225C15.6522 40.9001 14.1962 32.5753 12.7402 24.2505C12.7402 24.2505 12.7402 24.6124 12.3762 24.9744C20.0202 22.4407 28.0282 20.631 36.0362 19.9071C42.5882 19.1832 49.5042 19.1832 56.0562 18.8212C58.9682 18.4593 61.8802 18.0973 64.4282 18.0973C70.2522 18.4593 76.0762 19.9071 81.9002 21.3549C82.9922 21.3549 83.3562 19.9071 82.2642 19.5451Z" fill="black"/>
<path d="M29.1199 37.2808C29.4839 41.6242 29.8479 45.9676 30.9399 49.949C31.6679 53.5685 33.1239 57.9119 36.3999 60.0836C39.3119 62.2553 43.6799 61.1694 46.9559 60.4455C51.6879 59.3597 56.4199 57.55 61.5159 56.1022C64.4279 55.3783 67.7039 55.3783 70.6159 55.3783C74.6199 55.3783 78.9879 55.3783 82.9919 55.0163C83.3559 55.0163 84.0839 54.6544 83.7199 53.9305C81.5359 47.4154 82.9919 40.5384 81.5359 34.0233C80.8079 30.7657 79.3519 29.3179 76.0759 28.594C71.7079 27.8701 66.9759 28.2321 62.6079 28.2321C56.7839 28.2321 51.3239 28.594 45.4999 29.3179C40.0399 30.0418 34.5799 31.4896 30.2119 35.1091C29.1199 35.833 30.2119 36.9189 30.9399 36.5569C34.5799 33.6613 39.3119 32.2135 43.6799 31.4896C48.7759 30.7657 54.2359 30.4038 59.3319 30.4038C63.6999 30.4038 68.4319 30.4038 72.7999 30.4038C76.0759 30.7657 78.6239 30.7657 79.7159 34.3852C81.1719 40.9003 80.0799 48.1393 82.2639 54.6544C82.6279 54.2924 82.6279 53.9305 82.9919 53.5685C78.9879 53.9305 74.6199 53.9305 70.6159 53.9305C67.7039 53.9305 64.7919 53.9305 61.8799 54.6544C56.0559 56.1022 50.9599 58.2738 45.1359 59.3597C42.9519 59.7216 40.0399 60.4455 37.8559 58.9977C35.6719 57.9119 34.5799 55.0163 33.8519 52.8446C32.0319 47.7773 31.6679 42.3481 31.3039 37.2808C30.5759 36.5569 28.7559 36.5569 29.1199 37.2808Z" fill="black"/>
<path d="M31.3039 33.2993C30.2119 39.0905 31.3039 44.8817 31.6679 50.6729C31.6679 52.1207 33.8519 52.1207 33.8519 50.6729C33.8519 44.8817 35.3079 39.0905 37.8559 33.6613C37.1279 33.6613 36.3999 33.2993 36.0359 33.2993C35.3079 40.9003 33.4879 49.2251 36.0359 56.826C36.3999 57.9119 37.8559 57.9119 38.2199 56.826C40.0399 48.8631 38.2199 40.9003 40.4039 32.9374C39.6759 32.9374 38.9479 32.9374 38.2199 32.9374C39.6759 37.2808 39.3119 42.3481 40.0399 47.0534C40.7679 51.0348 41.4959 55.7402 45.8639 57.5499C46.2279 57.9119 46.9559 57.9119 47.3199 57.188C51.3239 48.8631 46.9559 39.8144 46.9559 31.1276C46.2279 31.1276 45.4999 31.4896 44.7719 31.4896C45.8639 39.0905 46.2279 48.8631 52.0519 54.6543C52.4159 55.0163 53.5079 55.0163 53.8719 54.2924C57.5119 47.4153 54.2359 39.0905 52.4159 32.2135C52.0519 31.1276 50.2319 31.1276 50.2319 32.5754C50.2319 39.0905 51.3239 47.4153 56.7839 51.7587C57.5119 52.1207 58.2399 52.1207 58.6039 51.3968C60.7879 44.5198 58.2399 36.9188 56.0559 30.0418C55.6919 28.956 53.5079 29.3179 53.8719 30.7657C55.6919 38.0047 55.6919 46.3295 61.1519 51.7587C61.8799 52.4826 62.6079 52.1207 62.9719 51.3968C65.1559 44.8817 62.9719 38.0047 61.8799 31.8515C61.5159 30.7657 59.6959 30.7657 59.6959 32.2135C60.4239 39.4525 61.5159 47.0534 65.8839 52.8446C66.2479 53.5685 67.3399 53.5685 67.7039 52.4826C69.8879 46.3295 68.7959 39.4525 68.4319 32.9374C67.7039 32.9374 66.9759 32.9374 66.2479 32.9374C66.9759 40.1764 68.0679 47.7773 72.4359 53.5685C72.7999 54.2924 73.8919 54.2924 74.2559 53.2065C76.8039 45.6056 73.5279 37.2808 70.9799 29.6798C70.2519 30.0418 69.5239 30.0418 69.1599 30.4037C72.0719 37.2808 73.5279 44.5198 76.0759 51.3968C76.4399 52.1207 77.8959 52.4826 78.2599 51.3968C79.3519 45.2437 78.2599 39.0905 77.1679 32.9374C76.4399 33.2993 75.7119 33.2993 75.3479 33.6613C77.5319 36.5569 78.2599 40.1764 77.8959 43.7959C77.8959 45.2437 79.7159 45.2437 80.0799 43.7959C80.4439 39.8144 79.7159 35.833 77.1679 32.5754C76.4399 31.4896 74.9839 32.2135 75.3479 33.2993C76.4399 39.0905 77.5319 44.8817 76.4399 50.6729C77.1679 50.6729 77.8959 50.6729 78.6239 50.6729C76.0759 43.4339 74.6199 36.1949 71.7079 29.3179C71.3439 28.2321 69.5239 28.956 69.8879 30.0418C72.0719 36.9188 75.7119 44.8817 73.1639 52.1207C73.8919 52.1207 74.6199 52.1207 74.9839 51.7587C70.9799 45.9676 69.8879 38.7286 69.1599 32.2135C69.1599 30.7657 66.9759 30.7657 66.9759 32.2135C67.3399 38.3666 68.7959 45.2437 66.6119 51.0348C67.3399 51.0348 68.0679 51.0348 68.4319 50.6729C64.4279 44.8817 63.3359 37.6427 62.6079 31.1276C61.8799 31.1276 61.1519 31.4896 60.4239 31.4896C61.5159 37.6427 63.6999 43.7959 61.5159 49.949C62.2439 49.949 62.6079 49.587 63.3359 49.587C58.2399 44.5198 58.2399 35.833 56.7839 29.3179C56.0559 29.6799 55.3279 29.6798 54.5999 30.0418C56.7839 36.1949 59.3319 43.4339 57.1479 50.3109C57.8759 50.3109 58.2399 49.949 58.9679 49.949C53.8719 45.9676 52.7799 38.3666 52.7799 32.2135C52.0519 32.2135 51.3239 32.5754 50.5959 32.5754C52.0519 38.7286 55.3279 46.6915 52.4159 52.8446C53.1439 52.8446 53.5079 52.8446 54.2359 52.4826C51.3239 49.587 50.2319 45.6056 49.5039 41.6242C48.7759 37.6427 48.0479 34.0232 47.6839 30.0418C47.6839 28.956 45.4999 29.3179 45.4999 30.4037C45.4999 38.3666 49.8679 47.4153 46.2279 55.3782C46.5919 55.3782 47.3199 55.0163 47.6839 55.0163C43.6799 53.2065 43.3159 47.7773 42.9519 44.1578C42.5879 40.1764 42.5879 35.833 41.4959 31.8515C41.1319 30.7657 39.6759 30.7657 39.3119 31.8515C37.4919 39.8144 39.3119 47.7773 37.1279 55.7402C37.8559 55.7402 38.5839 55.7402 39.3119 55.7402C36.7639 48.5012 38.5839 40.1764 39.3119 32.5754C39.3119 31.4896 37.8559 31.1276 37.4919 32.2135C34.5799 38.0047 33.1239 43.7959 33.1239 50.3109C33.8519 50.3109 34.5799 50.3109 35.3079 50.3109C34.9439 44.8817 33.8519 39.0905 34.5799 33.6613C33.8519 32.5754 31.6679 32.2135 31.3039 33.2993Z" fill="black"/>
<path d="M45.1358 74.9233C58.2398 73.8375 70.9798 70.58 83.7198 66.9605C84.4478 66.5985 84.4478 65.8746 84.0838 65.5127C82.9918 65.1507 82.2638 65.1507 81.1718 65.5127C80.0798 65.5127 80.4438 67.3224 81.5358 66.9605C81.8998 66.9605 82.6278 66.5985 82.9918 66.9605C82.9918 66.5985 82.9918 65.8746 83.3558 65.5127C70.9798 69.1322 58.2398 72.3897 45.1358 73.4755C44.4078 73.4755 44.4078 74.9233 45.1358 74.9233Z" fill="black"/>
<path d="M50.2318 79.9903C62.9718 77.8187 76.0758 75.647 88.8158 73.1133C89.9078 72.7514 89.5438 71.3036 88.4518 71.6655C75.7118 74.1992 62.9718 76.3709 49.8678 78.5425C48.7758 78.5425 49.1398 80.3523 50.2318 79.9903Z" fill="black"/>
<path d="M53.5082 86.8677C63.3362 83.6101 73.5282 82.5243 83.3562 80.3526C84.4482 79.9906 84.0842 78.5428 82.9922 78.9048C73.1642 81.0765 62.9722 82.1623 53.1442 85.4199C52.0522 85.7818 52.4162 87.2296 53.5082 86.8677Z" fill="black"/>
<path d="M50.5963 94.4686C61.1523 93.7447 71.7083 93.0208 81.9003 89.7632C82.9923 89.4013 82.6283 87.9535 81.5363 88.3154C71.7083 91.573 61.1523 92.6588 50.9603 93.0208C49.5043 93.0208 49.5043 94.4686 50.5963 94.4686Z" fill="black"/>
<path d="M53.1441 102.793C58.6041 103.517 64.0641 102.431 69.5241 101.346C74.9841 100.26 80.0801 98.4499 85.5401 96.6402C86.6321 96.2782 85.9041 94.8304 85.1761 95.1924C80.0801 97.0021 74.9841 98.8119 69.8881 99.8977C64.4281 100.984 58.9681 102.069 53.5081 101.346C52.4161 101.346 52.4161 102.793 53.1441 102.793Z" fill="black"/>
<path d="M29.1201 136.455C39.3121 128.13 52.0521 124.51 64.7921 124.148C75.3481 123.786 90.6361 123.062 98.2801 131.025L99.7361 132.111C81.1721 138.988 49.5041 140.436 29.4841 136.817" fill="white"/>
<path d="M29.8481 136.817C41.1321 127.768 54.9641 124.872 69.1601 124.51C74.9841 124.148 81.1721 124.51 86.9961 125.596C89.9081 126.32 92.8201 127.406 95.3681 128.854C97.1881 129.94 98.2801 131.387 100.1 132.473C100.1 132.111 100.1 131.387 100.464 131.025C89.5441 135.007 77.5321 136.817 65.8841 137.54C53.8721 138.264 41.8601 137.902 30.2121 136.093C29.1201 136.093 28.7561 137.54 29.8481 137.54C41.8601 139.712 53.8721 140.074 65.8841 138.988C77.5321 138.264 89.5441 136.455 100.828 132.473C101.556 132.111 101.556 131.387 101.192 131.025C99.372 129.94 97.9161 128.13 96.0961 127.044C93.548 125.596 90.6361 124.51 88.0881 123.786C81.9001 122.339 75.7121 122.339 69.5241 122.701C54.9641 123.424 41.1321 126.32 29.8481 135.731C28.0281 136.455 29.1201 137.54 29.8481 136.817Z" fill="black"/>
<path d="M99.7358 131.387C113.932 126.682 129.584 123.062 144.872 121.977C149.968 121.615 155.428 121.615 160.524 122.338C163.072 122.7 169.26 124.51 172.9 125.234L172.536 126.32C152.88 131.025 122.304 135.007 100.1 132.473L99.7358 131.387Z" fill="white"/>
<path d="M100.1 132.111C112.476 128.13 125.216 124.872 138.32 123.424C144.872 122.701 151.424 122.339 157.976 122.701C163.072 123.062 167.804 124.872 172.536 125.596C172.172 125.234 172.172 124.872 171.808 124.51C171.444 125.958 171.808 125.234 170.352 125.596C169.26 125.958 167.804 126.32 166.712 126.32C163.8 127.044 160.888 127.406 157.976 128.13C151.424 129.216 144.872 130.301 137.956 131.025C125.216 132.473 112.112 132.835 99.372 131.387C99.736 131.749 99.736 131.749 100.1 132.111C100.1 131.749 100.1 131.749 100.1 131.387C100.1 130.301 98.644 130.301 98.644 131.387C98.644 131.749 98.644 131.749 98.644 132.111C98.644 132.473 99.008 132.835 99.372 132.835C111.748 134.283 124.488 133.921 136.864 132.473C148.512 131.387 160.524 129.578 171.808 126.682C172.172 126.682 172.172 126.32 172.536 125.958C172.536 125.596 172.536 125.234 172.9 124.872C172.9 124.51 172.9 124.148 172.172 123.786C167.44 123.062 162.708 121.253 157.976 120.891C151.06 120.167 144.144 120.529 137.592 121.615C124.488 123.062 111.384 126.32 99.008 130.301C98.644 131.025 99.008 132.473 100.1 132.111Z" fill="black"/>
</g>
<defs>
<clipPath id="clip0_240_14444">
<rect width="182" height="156" fill="white"/>
</clipPath>
</defs>
</svg>
