<svg width="138" height="174" viewBox="0 0 138 174" fill="none" xmlns="http://www.w3.org/2000/svg">
<g clip-path="url(#clip0_240_10750)">
<path d="M8.42439 156.109C5.61625 150.145 5.61625 143.83 5.61625 137.516C5.61625 131.201 6.01741 124.887 5.61625 118.572C4.81393 111.907 3.61044 105.242 3.61044 98.2256C3.61044 92.6127 4.41276 87.3506 6.41858 82.0885C9.62788 72.9675 14.843 63.1449 24.0697 56.8304C31.6918 51.5683 42.5232 49.4635 51.3488 54.024C58.9709 58.2336 63.7848 65.9514 66.9941 73.3183C70.2035 81.0361 71.4069 88.7538 71.4069 96.8223C71.8081 107.347 73.0116 117.871 73.0116 128.746C73.0116 138.919 71.8081 150.145 64.186 158.564C60.1744 163.125 54.5581 166.984 48.5407 169.439C42.5232 171.895 36.5058 171.895 29.686 170.843C25.6744 170.141 21.2616 169.79 18.0523 167.685C14.4418 165.58 12.0349 162.072 10.029 159.266C9.22672 158.213 8.82555 156.81 8.42439 156.109C7.62207 154.355 5.21509 155.758 6.01741 157.161C9.22672 163.476 13.6395 169.79 21.6628 171.895C26.8779 173.298 33.2965 174.701 38.9128 174.351C45.3314 174 51.75 171.895 56.9651 168.387C62.1802 165.23 66.9941 161.02 70.2034 156.109C73.0116 151.548 74.6162 145.935 75.4186 140.673C77.4244 129.097 76.2209 117.169 75.4186 105.593C75.0174 96.4715 75.0174 87.7014 72.6104 78.9312C70.2034 70.5119 66.1918 62.0925 58.9709 56.1288C52.1511 50.1651 42.5232 48.0602 32.8953 50.8667C21.6628 54.024 14.0407 62.7941 9.22672 71.9151C6.81974 76.8264 4.81393 81.7377 3.61044 86.9998C2.00579 93.3143 2.00579 99.6288 2.40695 106.294C2.80811 113.31 4.0116 120.677 4.0116 127.693C4.0116 134.709 3.20928 141.375 4.0116 148.391C4.41276 151.548 5.21509 154.705 6.41858 157.512C6.41858 158.213 8.82555 157.512 8.42439 156.109Z" fill="black"/>
<path d="M4.41247 87.3505C14.8427 94.3666 29.6857 94.3666 42.1218 94.0158C47.738 94.0158 53.7555 93.665 58.9706 92.2618C63.3834 91.2094 68.5985 89.8061 71.0055 86.2981C71.8078 84.8948 69.4008 83.8424 68.5985 85.2456C66.1915 88.7537 60.5753 89.8061 56.1625 90.5077C50.9474 91.5602 45.7322 91.5602 40.5171 91.911C28.8834 91.911 14.8427 91.911 5.21479 85.2456C4.41247 84.544 3.20898 86.6489 4.41247 87.3505Z" fill="black"/>
<path d="M38.1103 50.5162C38.1103 57.8831 35.7033 65.2501 34.901 72.617C34.0987 79.6332 35.7033 86.2985 36.9068 93.3146C37.308 94.7178 39.715 94.7178 39.715 93.3146C38.5115 86.2985 37.308 79.6332 37.7092 72.617C38.5115 65.2501 40.9185 57.8831 40.9185 50.5162C40.9185 48.7622 38.1103 48.7622 38.1103 50.5162Z" fill="black"/>
<path d="M31.2903 84.1937C31.2903 87.3509 30.8892 90.1574 30.8892 93.3146C30.8892 95.4195 30.8892 97.5243 31.6915 99.2783C33.2961 102.085 37.7089 102.085 40.9182 102.436C41.3194 102.436 42.1217 102.436 42.5229 101.734C44.5287 98.9275 44.5287 95.7703 44.5287 92.613C44.5287 89.4558 44.1275 85.9477 44.1275 82.7904C44.1275 82.0888 43.3252 81.738 42.924 81.738C40.1159 81.738 37.3078 81.3872 34.9008 81.3872C33.6973 81.3872 33.2961 81.3872 32.4938 82.0888C32.0927 82.4396 32.0926 82.7904 31.6915 83.1412C30.488 84.5445 32.895 85.5969 34.0985 84.1937C34.4996 83.8428 34.9008 83.492 35.302 83.1412C34.4996 83.8429 34.0985 84.1937 33.6973 84.1937C36.9066 84.1937 39.7147 84.5445 42.924 84.5445C42.5229 84.1937 42.1217 83.8428 41.7206 83.492C41.7206 86.6493 42.1217 89.8066 42.1217 92.613C42.1217 95.4195 42.1217 98.5767 40.1159 101.032C40.5171 100.682 41.3194 100.682 41.7206 100.331C40.1159 99.9799 38.1101 99.9799 36.5054 99.6291C35.302 99.2783 34.4996 99.2783 34.0985 98.2259C33.2961 96.4719 33.6973 94.367 33.6973 92.613C33.6973 89.8066 34.0985 87.0001 34.0985 84.1937C34.0985 82.7904 31.2903 82.7904 31.2903 84.1937Z" fill="black"/>
<path d="M34.0984 83.1408C33.2961 84.544 32.0926 85.5964 30.8891 86.6489C31.2903 86.9997 32.0926 87.7013 32.4938 88.0521C34.9008 85.9473 38.1101 84.8948 41.3194 83.8424C40.9182 83.1408 40.1159 82.4392 39.7147 82.0884C36.9066 84.1932 34.4996 86.6489 32.0926 89.1045C30.8891 90.1569 32.895 91.911 34.0984 90.8585C36.5054 88.7537 39.3136 87.3505 42.5229 86.2981C42.1217 85.5964 41.3194 84.8948 40.9182 84.544C38.1101 87.3505 35.3019 89.4553 32.4938 92.2618C31.2903 93.3142 32.895 95.0682 34.4996 94.0158C36.5054 92.6126 38.9124 90.8585 41.3194 90.1569C40.9182 89.4553 40.5171 88.7537 40.1159 88.0521C37.3077 90.5077 34.4996 92.9634 31.6915 95.419C30.488 96.4714 32.0926 97.8747 33.2961 97.1731C36.1043 96.1206 38.9124 94.7174 41.7205 93.665C41.3194 92.9634 40.9182 92.2618 40.5171 91.5602C38.1101 93.3142 35.7031 95.0682 33.6973 97.5239C32.895 98.5763 34.4996 99.9795 35.7031 99.2779C37.7089 98.2255 40.1159 97.1731 42.1217 96.8223C41.7205 96.1206 40.9182 95.7698 40.5171 95.0682C39.3136 96.1206 38.1101 97.5239 36.9066 98.5763C36.1043 99.2779 36.9066 101.032 38.1101 100.681C38.5112 100.681 38.9124 100.33 39.3136 100.33C39.7147 100.33 40.1159 101.032 40.1159 101.383C41.3194 102.435 43.3252 100.681 42.1217 99.6287C41.7205 99.2779 41.3194 98.5763 40.5171 98.2255C39.3136 97.8747 38.5112 97.8747 37.3077 98.2255C37.7089 98.9271 38.1101 99.6287 38.5112 100.33C39.7147 98.9271 41.3194 97.8747 42.5229 96.4714C43.3252 95.7698 42.1217 94.3666 40.9182 94.7174C38.5112 95.419 36.1043 96.1206 33.6973 97.5239C34.4996 98.2255 34.9008 98.5763 35.7031 99.2779C37.3077 97.1731 39.7147 95.419 42.1217 93.665C43.3252 92.9634 42.1217 91.2093 40.9182 91.5602C37.7089 92.6126 34.9008 94.0158 31.6915 95.419C32.0926 96.1206 32.895 96.8223 33.2961 97.1731C36.1043 94.7174 38.9124 92.2618 41.7205 89.8061C42.5229 89.1045 41.7205 87.3505 40.5171 87.7013C37.3078 88.7537 34.9008 90.5077 32.4938 92.2618C33.2961 92.9634 33.6973 93.3142 34.4996 94.0158C36.9066 91.2093 40.1159 88.7537 42.924 86.2981C44.1275 85.2456 42.5229 83.8424 41.3194 84.544C38.1101 85.9473 34.9008 87.3505 32.4938 89.4553C33.2961 90.1569 33.6973 90.5077 34.4996 91.2093C36.9066 88.7537 39.3136 86.2981 42.1217 84.1932C43.3252 83.1408 41.7205 81.7376 40.5171 82.4392C37.3078 83.8424 34.0984 84.8948 31.2903 86.9997C30.0868 88.0521 31.6915 89.4553 33.2961 88.7537C34.9008 87.7013 36.1043 86.2981 36.9066 84.8948C37.3077 83.1408 34.9008 81.7376 34.0984 83.1408Z" fill="black"/>
<path d="M3.61053 108.048C7.221 108.399 11.2326 108.399 14.8431 108.048C15.6454 108.048 15.6454 106.645 14.8431 106.996C11.2326 107.347 7.221 107.347 3.61053 106.996C2.80821 106.645 2.80821 108.048 3.61053 108.048Z" fill="black"/>
<path d="M3.20908 112.258C7.62187 112.959 12.0347 112.258 16.4475 111.907C17.2498 111.907 17.2498 110.504 16.4475 110.855C12.0347 111.205 8.02304 111.907 3.61025 111.205C2.40676 110.855 2.0056 112.258 3.20908 112.258Z" fill="black"/>
<path d="M2.00564 114.363C6.01727 114.363 10.4301 114.363 14.4417 114.012C15.244 114.012 15.244 112.609 14.4417 112.96C10.4301 113.31 6.01727 113.31 2.00564 113.31C0.802155 113.31 0.802155 114.363 2.00564 114.363Z" fill="black"/>
<path d="M3.61019 116.468C7.22065 117.169 10.43 116.468 14.0404 116.117C14.8427 116.117 14.8427 114.714 14.0404 115.065C10.8311 115.415 7.62181 115.766 4.01135 115.415C3.20902 115.065 2.80786 116.117 3.61019 116.468Z" fill="black"/>
<path d="M3.61053 119.274C7.221 119.274 10.4303 119.274 14.0408 119.274C14.8431 119.274 14.8431 118.222 14.0408 118.222C10.4303 118.222 7.221 118.222 3.61053 118.222C2.80821 117.871 2.80821 119.274 3.61053 119.274Z" fill="black"/>
<path d="M7.22054 121.379C8.42403 121.73 10.0287 121.73 11.6333 121.73C13.238 121.73 14.8426 121.73 16.4473 121.379C17.2496 121.028 16.8484 119.976 16.0461 120.326C14.4415 120.677 13.238 120.677 11.6333 120.677C10.4298 120.677 8.82519 120.677 7.6217 120.326C6.81938 119.976 6.41821 121.028 7.22054 121.379Z" fill="black"/>
<path d="M4.41278 125.588C7.62208 125.238 11.2325 124.887 14.4418 124.536C15.2442 124.536 15.2442 123.133 14.4418 123.484C11.2325 123.834 7.62208 124.185 4.41278 124.536C3.61045 124.185 3.61045 125.588 4.41278 125.588Z" fill="black"/>
<path d="M4.81366 128.044C10.0288 128.044 15.2439 126.992 20.459 126.641C21.2613 126.641 21.2613 125.238 20.459 125.589C15.2439 125.939 10.0288 126.992 4.81366 126.992C4.01133 126.992 4.01133 128.044 4.81366 128.044Z" fill="black"/>
<path d="M4.41278 132.254C8.82557 131.903 13.2384 131.202 17.25 130.5C18.0523 130.149 17.6512 129.097 16.8488 129.448C12.8372 130.5 8.42441 130.851 4.41278 131.202C3.61045 131.202 3.61045 132.254 4.41278 132.254Z" fill="black"/>
<path d="M3.61023 132.956C3.61023 133.306 4.81372 133.306 5.21488 133.306C6.41837 133.306 7.62186 133.306 8.42418 132.956C11.6335 132.605 14.4416 132.605 17.6509 132.254C18.8544 132.254 20.0579 131.903 21.2614 131.903C22.0637 131.903 21.6626 130.5 20.8602 130.851C18.0521 131.552 14.8428 131.552 11.6335 131.903C10.0288 131.903 8.42419 132.254 6.81953 132.254C6.41837 132.254 5.61605 132.254 5.21488 132.254H4.81372C4.41256 132.254 4.81372 132.254 5.21488 132.605C4.81372 131.903 3.20907 132.254 3.61023 132.956Z" fill="black"/>
<path d="M4.81366 131.552C9.22645 131.552 13.2381 130.5 17.6509 130.5C18.4532 130.5 18.4532 129.097 17.6509 129.447C13.2381 129.798 9.22645 130.5 4.81366 130.5C4.01133 130.149 4.01133 131.552 4.81366 131.552Z" fill="black"/>
<path d="M6.01704 130.149C7.22053 130.149 8.82518 129.798 10.0287 129.448C11.2322 129.097 12.4356 128.395 13.6391 128.044C14.0403 128.044 14.0403 127.694 14.0403 127.343C14.0403 126.992 13.6391 126.641 13.238 126.992C12.0345 127.343 10.831 128.044 9.6275 128.395C9.6275 128.395 9.22634 128.395 9.22634 128.746C8.82518 128.746 8.82518 128.746 8.42401 129.097C7.62169 129.097 6.81936 129.448 6.4182 129.448C6.01704 129.448 5.61587 129.798 5.61587 130.149C5.21471 129.798 5.61587 130.149 6.01704 130.149Z" fill="black"/>
<path d="M4.8136 127.342C8.42406 126.29 12.8369 126.641 15.645 124.185C16.4473 123.834 15.2438 122.782 14.8427 123.484C13.238 124.536 11.6334 124.887 9.62755 125.238C8.0229 125.588 6.01708 125.939 4.41243 126.29C3.61011 126.29 4.01127 127.342 4.8136 127.342Z" fill="black"/>
<path d="M4.41272 123.133C7.62202 122.431 11.2325 121.73 14.0406 120.677C14.4418 120.677 14.4418 119.976 14.4418 119.976C14.4418 119.625 13.6395 119.625 13.6395 119.625C10.8313 120.677 7.22086 121.028 4.01155 122.081C3.20923 122.081 3.61039 123.133 4.41272 123.133Z" fill="black"/>
<path d="M4.8136 120.326C7.62174 119.625 10.831 119.625 13.6392 118.572C14.4415 118.221 14.0403 117.169 13.238 117.52C10.4299 118.572 7.22057 118.572 4.41243 119.274C3.61011 119.274 4.01127 120.677 4.8136 120.326Z" fill="black"/>
<path d="M4.01151 118.572C7.22081 117.871 10.4301 117.52 13.6394 117.52C14.0406 117.52 14.4417 117.169 14.4417 116.818C14.4417 116.468 14.0406 116.117 13.6394 116.117C10.4301 116.468 6.81965 116.468 4.01151 117.169C2.80802 117.52 3.20919 118.923 4.01151 118.572Z" fill="black"/>
<path d="M5.61616 119.274C8.02313 119.274 10.4301 119.274 13.2383 119.274C14.0406 119.274 14.0406 118.222 13.2383 118.222C10.8313 118.222 8.4243 118.222 6.01732 117.871C5.61616 117.871 5.215 117.871 5.215 118.222C4.81383 118.573 5.215 118.924 5.61616 119.274Z" fill="black"/>
<path d="M4.41278 121.73C7.62208 122.081 11.2325 122.081 14.4418 121.73C15.2442 121.73 15.2442 120.327 14.4418 120.677C11.2325 121.028 7.62208 121.028 4.41278 120.677C3.61045 120.677 3.61045 121.73 4.41278 121.73Z" fill="black"/>
<path d="M6.41825 123.834C9.62755 123.834 12.4357 123.484 15.645 123.133C16.0462 123.133 16.4473 122.782 16.4473 122.431C16.4473 122.08 16.0462 121.729 15.645 121.729C12.4357 122.431 9.22639 122.782 6.41825 122.782C5.61592 122.782 5.21476 123.834 6.41825 123.834Z" fill="black"/>
<path d="M6.41825 127.343C8.0229 127.693 9.62755 127.693 11.2322 127.343C12.8369 126.992 14.0403 126.992 15.645 126.992C16.4473 126.992 16.4473 125.939 15.645 125.939C14.0403 125.939 12.8369 125.939 11.2322 126.29C10.0287 126.641 8.42407 126.29 6.81942 126.29C6.41825 126.29 6.01709 126.29 6.01709 126.641C6.01709 126.641 6.01709 127.343 6.41825 127.343Z" fill="black"/>
<path d="M4.8138 130.149C8.42427 130.851 12.0347 130.5 15.6452 130.149C16.4475 130.149 16.4475 128.746 15.6452 129.097C12.0347 129.448 8.82543 129.798 5.21496 129.097C4.41264 129.097 4.01148 130.149 4.8138 130.149Z" fill="black"/>
<path d="M5.21503 134.008C9.22665 134.008 12.8371 133.657 16.8487 133.306C17.6511 133.306 17.6511 131.903 16.8487 132.254C12.8371 132.605 9.22665 132.956 5.21503 132.956C4.4127 132.956 4.4127 134.008 5.21503 134.008Z" fill="black"/>
<path d="M5.6159 136.814C8.82521 136.814 12.4357 136.814 15.645 136.113C16.4473 136.113 16.0461 134.709 15.2438 135.06C12.0345 135.762 8.82521 135.762 5.6159 135.762C4.81358 135.762 4.81358 136.814 5.6159 136.814Z" fill="black"/>
<path d="M7.22065 138.218C8.8253 138.569 10.43 138.569 12.0346 138.569C13.6393 138.569 15.2439 137.867 16.8486 137.867C17.6509 137.867 17.2497 136.464 16.4474 136.815C14.8427 136.815 13.6393 137.165 12.0346 137.516C10.43 137.516 8.8253 137.516 7.62181 137.165C7.22065 137.165 6.81949 137.165 6.81949 137.516C6.41832 137.867 6.81949 138.218 7.22065 138.218Z" fill="black"/>
<path d="M4.81366 139.27C8.42412 139.621 12.4358 139.621 16.0462 139.27C16.8485 139.27 16.8485 137.867 16.0462 138.217C12.4358 138.568 8.42412 138.568 4.81366 138.217C4.01133 137.867 4.01133 139.27 4.81366 139.27Z" fill="black"/>
<path d="M3.61019 141.024C7.62181 141.726 11.6334 141.024 15.2439 140.323C16.0462 140.323 15.6451 138.919 14.8427 139.27C11.6334 139.972 7.62181 140.323 4.01135 139.972C3.20902 139.621 2.80786 141.024 3.61019 141.024Z" fill="black"/>
<path d="M4.41278 142.778C7.62208 142.778 11.2325 142.778 14.4418 142.076C15.2442 142.076 14.843 140.673 14.0407 141.024C10.8314 141.726 7.62208 141.726 4.41278 141.726C3.61045 141.726 3.61045 142.778 4.41278 142.778Z" fill="black"/>
<path d="M5.6159 143.83C9.22637 144.181 12.8368 143.83 16.4473 143.129C17.2496 143.129 16.8485 141.726 16.0461 142.076C12.4357 142.778 9.22637 142.778 5.6159 142.778C4.81358 142.427 4.81358 143.83 5.6159 143.83Z" fill="black"/>
<path d="M4.81402 144.883C8.42449 145.585 12.035 144.532 15.2443 144.182C16.0466 144.182 16.0466 142.778 15.2443 143.129C11.2326 143.48 7.62216 144.532 3.61053 145.936C2.80821 146.286 2.80821 146.988 3.61053 146.988C8.02332 146.988 12.4361 146.286 16.8489 145.234C16.8489 144.883 16.4477 144.532 16.4477 144.182C13.2384 145.234 10.4303 145.936 7.221 146.988C6.41867 147.339 6.41867 148.04 7.221 148.04C9.62798 148.04 11.6338 147.69 14.0408 147.339C14.0408 146.988 13.6396 146.637 13.6396 146.286C10.4303 147.339 7.62216 148.742 4.41286 149.794C4.0117 150.145 4.41286 150.847 4.81402 150.847C8.02332 150.847 11.2326 149.794 14.4419 149.444C15.2443 149.444 14.8431 148.04 14.4419 148.391C11.6338 148.742 8.82565 149.444 6.01751 150.496C5.21518 150.847 5.61635 151.548 6.41867 151.548C8.02332 151.548 9.22681 151.899 10.8315 151.899C10.8315 151.548 10.8315 151.198 10.8315 150.847C10.0291 150.847 8.82565 151.198 8.02332 151.548C7.62216 151.548 7.221 152.601 8.02332 152.601C10.0291 152.952 12.035 152.952 14.0408 152.25C14.8431 151.899 14.4419 150.847 13.6396 151.198C12.4361 151.548 11.2326 151.899 10.0291 152.25C9.22681 152.601 9.62797 153.653 10.4303 153.303C11.6338 152.952 12.8373 152.601 14.0408 152.25C14.0408 151.899 13.6396 151.548 13.6396 151.198C12.035 151.899 10.0291 151.899 8.42449 151.548C8.42449 151.899 8.42449 152.25 8.42449 152.601C9.62797 152.25 10.4303 151.899 11.6338 151.548C12.4361 151.198 12.4361 150.496 11.6338 150.496C10.0291 150.496 8.82565 150.145 7.221 150.145C7.221 150.496 7.62216 150.847 7.62216 151.198C10.0291 150.145 12.4361 149.444 15.2443 149.093C15.2443 148.742 15.2443 148.391 15.2443 148.04C12.035 148.742 9.22681 149.444 5.61635 149.444C5.61635 149.794 6.01751 150.145 6.01751 150.496C9.22681 149.444 12.035 148.04 15.2443 146.988C16.0466 146.637 15.2443 145.936 14.8431 145.936C12.8373 146.286 10.8315 146.637 8.42449 146.637C8.42449 146.988 8.42449 147.339 8.42449 147.69C11.6338 146.637 14.4419 145.936 17.6512 144.883C18.4536 144.532 18.0524 143.48 17.2501 143.831C13.2384 144.883 8.82565 145.585 4.41286 145.585C4.41286 145.936 4.41286 146.286 4.41286 146.637C8.02332 145.585 11.6338 144.182 15.6454 143.831C15.6454 143.48 15.6454 143.129 15.6454 142.778C14.0408 142.778 12.035 143.129 10.4303 143.48C8.82565 143.48 7.221 143.831 5.61635 143.48C4.41286 143.48 4.0117 144.883 4.81402 144.883Z" fill="black"/>
<path d="M40.5172 49.4636C39.3137 45.6047 44.1277 42.0966 47.337 39.9918C50.9475 37.5362 55.7614 35.4313 60.5754 35.7821C65.7905 35.7821 70.2033 38.9394 73.8137 42.4475C77.023 45.6047 81.0347 48.4112 85.8486 50.1652C94.6742 53.3225 104.703 51.5684 110.721 44.9031C116.738 37.887 116.337 29.4676 118.343 21.3991C119.546 16.4878 121.552 10.1733 125.965 6.6652C129.174 4.20955 134.389 4.20955 138 2.45552C139.604 1.75391 138 -0.35093 136.796 0.350683C132.383 1.75391 128.372 1.75391 125.163 3.50794C121.151 5.96359 118.744 10.5241 117.139 14.3829C113.529 23.1531 115.133 32.9757 109.918 41.0442C107.11 45.2539 102.697 48.4112 97.4823 49.1128C91.8661 49.8144 86.2498 48.0604 81.4358 45.2539C77.023 42.4475 73.8137 38.2378 69.4009 35.7821C65.3893 33.6773 60.9765 32.9757 56.5637 33.6773C51.7498 34.7297 46.9358 37.1854 43.3254 39.9918C40.1161 42.4475 36.9068 46.3063 38.1103 50.1652C38.5114 51.5684 40.9184 50.8668 40.5172 49.4636Z" fill="black"/>
</g>
<defs>
<clipPath id="clip0_240_10750">
<rect width="138" height="174" fill="white"/>
</clipPath>
</defs>
</svg>
