<svg width="186" height="173" viewBox="0 0 186 173" fill="none" xmlns="http://www.w3.org/2000/svg">
<g clip-path="url(#clip0_240_10665)">
<path d="M25.5066 82.1352C25.5066 102.371 25.5066 122.608 28.6458 142.844C28.6458 143.638 29.4306 144.034 30.2154 144.034C54.1521 144.034 77.6964 140.86 101.633 143.241C102.418 143.241 103.203 142.447 103.203 141.654C103.988 120.624 103.203 99.9907 101.241 78.9609C101.241 78.1673 100.456 77.3737 99.6711 77.3737C85.5445 76.9769 71.8104 78.1673 58.0762 78.9609C51.4053 79.3577 44.342 79.3577 37.6711 78.9609C36.1015 78.9609 34.5319 78.5641 32.9623 78.5641C31.7851 78.5641 29.823 77.7705 28.6458 78.1673C27.4686 78.5641 26.6838 79.7545 25.899 80.548C24.3294 82.1352 26.6838 84.5159 28.2534 82.9288C29.0382 82.1352 29.823 81.3416 30.6078 80.548C30.2154 80.548 29.4306 80.9448 29.0382 80.9448C52.5825 84.1191 76.1268 78.9609 99.6711 79.7545C99.2787 79.3577 98.4939 78.5641 98.1015 78.1673C100.064 99.1971 101.241 119.83 100.064 140.86C100.456 140.463 101.241 139.67 101.633 139.273C77.6964 136.892 54.1521 140.066 30.2154 140.066C30.6078 140.463 31.3927 140.86 31.7851 141.257C28.6458 121.417 28.6458 101.578 28.6458 81.3416C28.6458 80.1513 25.5066 80.1513 25.5066 82.1352Z" fill="black"/>
<path d="M28.2531 83.3254C40.0253 73.4057 51.405 62.6924 61.6076 51.1855C62.7848 49.9951 63.5696 48.8047 64.7468 47.6144C65.5316 46.424 66.7088 46.424 68.2785 46.424C71.4177 46.0272 74.5569 46.0272 77.6962 46.424C85.1519 46.424 92.6076 47.2176 100.063 48.0112C107.911 48.8047 115.759 49.5983 123.215 50.3919C122.823 49.5983 122.43 48.8047 121.646 48.0112C116.152 60.3116 104.38 67.8506 96.924 78.5639C95.7468 80.1511 98.4936 81.7382 99.6709 80.1511C107.519 69.4378 118.899 61.8988 124.392 49.5983C124.785 48.408 124.392 47.2176 122.823 47.2176C107.911 46.0272 93.3924 44.0433 78.481 43.6465C75.3417 43.6465 71.8101 43.6465 68.6709 43.6465C67.4936 43.6465 65.924 44.0433 64.7468 44.0433C62.7848 44.4401 62.3924 45.2336 61.2152 46.424C56.1139 52.3758 50.6202 57.9309 45.1266 63.4859C38.8481 69.8346 32.1772 75.7864 25.1139 81.7382C24.3291 82.135 26.6835 84.5158 28.2531 83.3254Z" fill="black"/>
<path d="M122.038 48.8048C124.785 63.0892 126.355 77.3736 128.709 91.2612C129.102 94.4355 129.887 97.6098 130.671 100.784C131.064 103.165 132.633 105.546 132.633 107.926C132.633 109.91 128.709 113.085 127.14 114.672C124.393 117.052 121.646 119.83 118.899 122.211C112.621 127.766 105.95 133.321 101.633 140.463C100.456 142.05 103.203 144.034 104.38 142.05C108.697 135.305 114.583 130.147 120.469 125.385C123.608 122.608 126.355 120.227 129.102 117.449C130.279 116.259 131.456 115.069 132.633 113.878C133.418 112.688 134.988 111.497 135.773 109.91C136.557 107.926 135.38 105.546 134.988 103.562C134.203 100.784 133.418 97.6098 133.026 94.8323C131.456 87.2933 130.279 80.1511 129.102 72.6121C127.924 64.2796 126.747 56.3438 125.178 48.0112C124.785 45.6305 121.646 46.4241 122.038 48.8048Z" fill="black"/>
<path d="M66.3169 46.4244C66.3169 47.6148 66.3169 48.4084 66.3169 49.5987C66.3169 49.9955 66.7093 50.3923 67.1017 50.3923C67.4941 50.3923 67.8865 49.9955 67.8865 49.5987C67.8865 48.4084 67.8865 47.6148 67.8865 46.4244C67.8865 46.0276 67.4941 45.6309 67.1017 45.6309C66.7093 45.6309 66.3169 45.6309 66.3169 46.4244Z" fill="black"/>
<path d="M65.5317 55.9472C65.5317 56.344 65.5317 56.7408 65.5317 57.1376C65.5317 57.5343 65.5317 57.9311 65.5317 58.3279C65.5317 59.1215 65.5317 59.9151 65.5317 60.7087C65.5317 61.1055 65.9241 61.5022 66.3165 61.5022C66.7089 61.5022 67.1014 61.1055 67.1014 60.7087C67.1014 59.1215 67.1014 57.1376 66.709 55.5504C66.709 55.1536 65.9241 54.7568 65.5317 55.1536C65.5317 54.7568 65.5317 55.1536 65.5317 55.9472Z" fill="black"/>
<path d="M65.5317 67.454C65.5317 68.2476 65.5317 69.0412 65.9241 69.438C65.9241 70.2316 65.9241 71.0251 65.9241 71.8187C65.9241 72.2155 66.3165 72.6123 66.709 72.6123C67.1014 72.6123 67.4938 72.2155 67.4938 71.8187C67.4938 70.2316 67.4938 68.6444 67.1014 67.0572C67.1014 66.6605 66.3165 66.2637 65.9241 66.6604C65.5317 66.2637 65.5317 66.6605 65.5317 67.454Z" fill="black"/>
<path d="M65.1395 87.6901C64.7471 89.2772 64.7471 91.2612 64.7471 92.8483C64.7471 93.2451 65.1395 93.6419 65.5319 93.6419C65.9243 93.6419 66.3167 93.2451 66.3167 92.8483C66.3167 92.0547 66.3167 91.2612 66.3167 90.4676C66.3167 89.674 66.3167 88.8804 66.7091 88.0869C66.7091 87.6901 66.7091 87.2933 66.3167 86.8965C65.9243 86.8965 65.1395 87.2933 65.1395 87.6901Z" fill="black"/>
<path d="M65.5317 100.388C65.5317 101.975 65.5317 103.165 65.5317 104.752C65.5317 105.149 65.9241 105.546 66.3165 105.546C66.7089 105.546 67.1014 105.149 67.1014 104.752C67.1014 103.165 67.1014 101.975 67.1014 100.388C67.1014 99.9909 66.7089 99.5941 66.3165 99.5941C65.9241 99.1974 65.5317 99.5941 65.5317 100.388Z" fill="black"/>
<path d="M66.7093 110.704C66.7093 111.101 66.7093 111.101 66.3169 111.101H65.9245C65.9245 111.101 65.9245 111.101 65.5321 111.101V111.498C65.5321 111.895 65.5321 111.895 65.5321 112.291C65.5321 112.291 65.5321 112.291 65.5321 111.895C65.5321 111.895 65.5321 111.895 65.5321 112.291C65.5321 112.688 65.532 112.688 65.9245 112.688L66.3169 113.085C66.7093 113.085 66.7093 113.085 66.7093 112.688L67.1017 112.291V111.895V111.498C67.1017 111.101 67.1017 110.704 66.7093 110.704C66.7093 110.307 66.7093 110.307 66.7093 110.307C66.7093 110.307 66.7093 110.307 66.3169 109.911H65.9245C65.9245 109.911 65.5321 109.911 65.5321 110.307C65.5321 110.307 65.5321 110.704 65.1396 110.704C65.1396 110.704 65.1396 110.704 65.1396 111.101C65.1396 111.498 65.1396 111.498 65.5321 111.498L65.9245 111.895C66.3169 111.895 66.3169 111.895 66.3169 111.498C66.7093 111.101 66.7093 111.101 66.7093 110.704Z" fill="black"/>
<path d="M73.3798 115.069C74.557 114.672 75.7342 114.672 77.3038 114.275C77.6963 114.275 78.0887 113.481 77.6962 113.085C77.6962 112.688 77.3038 112.291 76.519 112.688C75.3418 113.085 74.1646 113.085 72.595 113.481C72.2026 113.481 71.8102 114.275 72.2026 114.672C72.595 114.672 72.9874 115.069 73.3798 115.069Z" fill="black"/>
<path d="M89.4687 113.481C91.4307 113.481 93.7851 113.481 95.7471 113.085C96.1395 113.085 96.532 112.291 96.1396 111.894C96.1396 111.497 95.7471 111.101 94.9623 111.497C93.0003 111.894 91.0383 111.894 89.0763 111.894C88.2915 111.497 88.2914 113.481 89.4687 113.481Z" fill="black"/>
<path d="M105.95 112.291C107.519 111.894 109.481 111.497 111.443 111.101C111.836 111.101 112.228 110.307 111.836 109.91C111.836 109.513 111.443 109.117 110.658 109.513C108.696 109.91 107.127 109.91 105.165 110.704C104.772 110.704 104.38 111.101 104.772 111.894C105.165 112.291 105.557 112.688 105.95 112.291Z" fill="black"/>
<path d="M122.431 109.911C124 109.911 125.57 109.514 127.14 109.514C127.532 109.514 127.924 108.72 127.532 108.323C127.532 107.927 127.139 107.53 126.355 107.927C125.57 107.927 124.785 108.323 124 108.323C124 108.323 124 108.323 123.608 108.323H123.215C122.823 108.323 122.431 108.323 122.038 108.323C121.646 108.323 121.253 108.72 121.253 109.117C121.646 109.514 122.038 109.911 122.431 109.911Z" fill="black"/>
<path d="M63.5697 115.862C61.6076 116.656 60.038 117.846 58.076 119.037C57.6836 119.433 57.6836 119.83 57.6836 120.227C58.076 120.624 58.4684 120.624 58.8608 120.624C60.8228 119.433 62.3925 118.243 64.3545 117.449C64.7469 117.449 64.7469 116.656 64.7469 116.259C64.3545 115.862 63.9621 115.862 63.5697 115.862Z" fill="black"/>
<path d="M52.975 123.401C51.013 124.195 49.0509 126.179 47.4813 127.766C47.0889 128.163 47.0889 128.56 47.4813 128.956C47.8737 129.353 48.2661 129.353 48.6585 128.956C50.2281 127.369 51.7978 125.782 53.7598 124.988C54.1522 124.988 54.1522 124.195 54.1522 123.798C53.7598 123.004 53.3674 123.004 52.975 123.401Z" fill="black"/>
<path d="M43.1649 130.544C42.7725 130.94 42.3801 130.94 42.3801 131.337C42.3801 131.337 42.3801 131.337 41.9877 131.337L41.5953 131.734C41.2029 132.131 40.4181 132.528 40.0257 132.924L39.6333 133.321C39.6333 133.321 39.6333 133.718 39.6333 134.115C40.0257 134.512 40.4181 134.512 40.8105 134.512C41.9877 133.718 43.1649 132.528 44.3422 131.734C44.7346 131.337 44.7346 130.94 44.3422 130.544C43.9498 130.147 43.1649 130.147 43.1649 130.544Z" fill="black"/>
<path d="M34.9242 136.892C34.5318 137.289 33.747 137.686 33.3546 137.686C32.9622 137.686 32.9622 138.083 32.5698 138.083C32.5698 138.083 32.1774 138.083 32.1774 138.479C32.1774 138.479 32.1774 138.479 31.785 138.479C31.3926 138.479 31.3926 138.876 31.3926 138.876C31.3926 138.876 31.3926 139.273 31.3926 139.67C31.3926 140.067 31.785 140.463 32.5698 140.067C33.3546 139.67 34.1394 139.273 34.5318 138.876C34.9242 138.876 35.3166 138.479 35.709 138.083C36.1014 138.083 36.1014 137.289 36.1014 136.892C35.709 136.496 35.3166 136.496 34.9242 136.892Z" fill="black"/>
<path d="M66.7091 40.0758C67.1015 36.5047 66.7091 32.9336 66.7091 29.3625C66.7091 28.1721 65.1395 28.1721 65.1395 29.3625C65.1395 32.9336 65.5319 36.1079 64.7471 39.679C64.7471 40.0758 64.7471 40.4726 65.1395 40.8694C65.9243 40.4726 66.3167 40.4726 66.7091 40.0758Z" fill="black"/>
<path d="M62.785 30.9494C63.9623 28.9654 65.1395 26.5847 66.3167 24.204C65.9243 24.204 65.5319 24.204 64.7471 24.204C65.9243 26.1879 67.1015 28.1719 68.2787 29.759C68.2787 29.3622 68.6711 28.9654 68.6711 28.5686C66.3167 29.3622 63.9623 29.3622 62.0002 29.759C62.3926 30.1558 62.785 30.5526 62.785 30.9494C63.9623 29.3622 65.1395 27.7751 65.5319 25.7911C65.5319 25.3943 65.5319 24.9975 65.1395 24.6008C64.7471 24.6008 64.3547 24.6008 63.9623 24.9975C63.5699 26.1879 63.9623 27.3783 63.5699 28.5686C63.1775 29.759 64.7471 30.1558 65.1395 28.9654C65.1395 28.5686 65.5319 27.7751 65.5319 27.3783C65.9243 26.5847 65.9243 26.1879 65.9243 25.3943C65.9243 24.6008 64.3547 24.204 64.3547 24.9975C63.9623 26.1879 64.3547 27.7751 64.7471 28.9654C65.1395 29.759 65.9243 29.759 66.3167 28.9654C66.7091 27.7751 67.1015 26.9815 67.1015 25.7911C66.7091 25.7911 65.9243 26.1879 65.5319 26.1879C65.9243 26.9815 65.9243 27.3783 66.3167 28.1719C66.7091 28.9654 67.4939 28.5686 67.8863 28.1719C67.8863 27.7751 68.2787 27.3783 68.2787 26.9815C67.8863 26.9815 67.1015 26.9815 66.7091 27.3783C66.7091 27.7751 67.1015 28.1719 67.1015 28.5686C67.1015 28.5686 67.1015 28.9654 67.4939 28.9654V28.5686C67.4939 28.5686 67.4939 28.1719 67.8863 28.1719C67.8863 28.1719 68.2787 28.1719 68.2787 27.7751C67.8863 27.7751 67.4939 28.1719 67.4939 28.5686C67.4939 28.9654 67.8863 29.3622 68.2787 29.3622C69.0635 29.3622 69.4559 28.5686 69.0635 27.7751C68.6711 27.3783 68.6711 26.9815 68.2787 26.5847C68.2787 25.7911 66.7091 26.1879 66.7091 26.9815V27.3783V27.7751C67.1015 27.7751 67.8863 27.7751 68.2787 27.7751C67.8863 26.9815 67.8863 26.5847 67.4939 25.7911C67.1015 24.9975 65.9243 25.3943 65.9243 26.1879C65.9243 26.9815 65.5319 28.1719 65.1395 28.9654C65.5319 28.9654 66.3167 28.9654 66.7091 28.9654C66.3167 27.7751 66.3167 26.9815 66.3167 25.7911C65.9243 25.7911 65.1395 25.7911 64.7471 25.3943C64.7471 26.5847 64.3547 27.3783 63.9623 28.5686C64.3547 28.5686 65.1395 28.9654 65.5319 28.9654C65.9243 27.7751 65.5319 26.5847 65.9243 25.3943C65.5319 25.3943 64.7471 24.9975 64.3547 24.9975C63.9623 26.5847 62.785 28.1719 62.0002 29.759C61.6078 30.1558 61.6078 30.1558 62.0002 30.5526C62.0002 30.9494 62.3926 30.9494 62.785 30.9494C65.1395 30.5526 67.8863 30.5526 69.8483 29.759C70.6331 29.3622 70.6331 28.9654 70.2407 28.5686C69.0635 26.9815 67.8863 24.9975 66.7091 23.4104C66.3167 23.0136 65.5319 23.0136 65.1395 23.4104C63.9623 25.7911 62.785 27.7751 61.6078 30.1558C60.823 30.9494 62.3926 31.743 62.785 30.9494Z" fill="black"/>
<path d="M26.6836 145.225C25.1139 146.415 23.5443 147.606 21.9747 148.796C20.4051 149.59 18.8355 150.78 17.2658 151.177C16.0886 151.574 16.8734 153.161 17.6582 152.764C19.6203 151.97 21.1899 151.177 22.7595 149.986C24.7215 148.796 26.2912 147.606 27.8608 146.018C28.2532 145.622 28.2532 145.225 27.8608 144.828C27.4684 144.828 27.076 144.828 26.6836 145.225Z" fill="black"/>
<path d="M16.0887 149.986C16.4811 151.573 17.2659 153.557 18.0507 155.145C18.4431 154.748 18.4431 154.351 18.8356 153.954C17.6583 153.954 16.8735 154.351 15.6963 154.748C14.9115 155.145 14.1267 155.938 13.3419 156.335C13.7343 156.335 14.1267 156.732 14.5191 156.732C13.7343 154.748 14.5191 151.97 16.0887 149.986C16.0887 149.986 15.6963 149.589 15.3039 149.193C13.3419 151.177 13.3419 154.351 13.3419 156.732C13.3419 157.525 14.5191 157.922 14.9115 157.128C15.6963 154.748 16.0887 151.97 16.4811 149.589C16.4811 149.193 16.0887 148.796 15.6963 148.796C15.3039 148.796 14.9115 148.796 14.9115 149.193C14.5191 151.177 14.1267 153.161 14.9115 155.145C15.3039 155.938 16.0887 155.541 16.4811 155.145C16.8735 153.557 16.8735 151.97 16.8735 150.383C16.8735 149.986 16.4811 149.589 16.0887 149.589C15.6963 149.589 15.3039 149.589 15.3039 149.986C14.5191 151.573 14.9115 153.161 15.6963 154.748C16.0887 155.541 17.2659 155.145 17.2659 154.351C17.2659 153.557 17.6583 152.367 17.6583 151.573C17.2659 151.573 16.4811 151.573 16.0887 151.573C16.0887 152.764 16.4811 153.557 16.4811 154.351C16.4811 154.748 16.8735 155.145 17.2659 155.145C17.6583 155.145 18.0507 154.748 18.4431 154.351V153.954C18.4431 153.954 18.4431 153.954 18.4431 153.557V153.954C18.4431 153.954 18.4431 153.954 18.0507 154.351C18.4431 154.351 18.8356 153.557 18.4431 153.161C18.4431 152.764 18.0507 152.367 17.2659 152.764C16.8735 152.764 16.4811 153.161 16.4811 153.557V153.954C16.4811 154.351 16.4811 153.954 16.8735 153.557C17.2659 153.954 17.2659 153.954 17.6583 154.351C17.2659 153.557 17.2659 152.764 17.2659 151.97C17.2659 150.78 15.6963 150.78 15.6963 151.573C15.6963 152.367 15.3039 153.557 15.3039 154.351C15.6963 154.351 16.4811 153.954 16.8735 153.954C16.4811 152.764 16.0887 151.573 16.8735 150.383C16.4811 150.383 15.6963 150.383 15.3039 149.986C15.3039 151.573 14.9115 152.764 14.9115 154.351C15.3039 154.351 16.0887 154.351 16.4811 154.351C15.3039 153.161 15.6963 151.177 16.0887 149.986C15.6963 149.589 15.3039 149.589 14.5191 149.589C14.1267 151.97 13.7343 154.351 12.9495 156.732C13.3419 156.732 14.1267 156.732 14.5191 157.128C14.5191 154.748 14.9115 151.97 16.0887 149.986C16.4811 149.986 16.8735 149.589 16.4811 149.193C16.0887 148.796 15.6963 148.796 15.3039 149.193C12.9495 151.177 11.7723 154.748 12.5571 157.525C12.5571 157.922 13.3419 158.319 13.7343 157.922C15.3039 156.732 16.4811 155.541 18.4431 155.541C19.228 155.938 19.6204 155.145 19.6204 154.748C18.8356 153.161 18.4431 151.177 17.6583 149.589C17.2659 148.399 15.6963 148.796 16.0887 149.986Z" fill="black"/>
<path d="M139.697 107.133C142.051 107.927 144.405 107.927 146.367 107.53C149.114 107.53 151.469 107.133 154.216 107.133C154.608 107.133 155 106.736 155 106.34C155 104.752 155.393 102.768 155.393 101.181C155.393 99.9909 153.823 99.9909 153.823 101.181C153.431 103.959 153.431 106.736 153.431 109.514C153.431 109.911 153.823 110.307 154.216 110.307C157.355 110.704 160.494 110.704 164.026 110.704C164.811 110.704 165.203 109.911 164.418 109.117C161.671 105.546 158.924 101.975 155.393 99.5941C155 99.1974 154.216 99.5941 154.216 100.388C154.216 103.165 154.216 105.943 154.216 108.72C154.216 109.911 155.785 109.911 155.785 108.72C155.785 106.736 155.785 104.752 155.785 102.768C155.393 102.768 154.608 102.768 154.216 102.768C154.608 105.149 154.608 107.133 155.785 109.117C156.178 109.911 156.962 109.514 157.355 109.117C157.747 106.736 157.355 104.356 157.355 101.975C156.962 101.975 156.178 101.975 155.785 101.975C156.178 104.356 156.178 107.133 157.747 109.117C158.14 109.911 158.924 109.117 159.317 108.72C159.709 106.34 158.532 104.356 157.747 102.372C157.355 101.578 156.178 101.975 156.178 103.165C156.57 105.546 157.747 107.133 159.317 109.117C159.709 109.911 160.886 109.117 160.494 108.323C160.102 107.133 159.709 106.34 159.317 105.149C158.924 105.546 158.532 105.546 157.747 105.943C158.14 106.736 158.924 107.53 159.709 108.323C160.102 108.72 160.494 109.514 161.279 109.514C161.671 109.514 162.456 109.117 162.456 108.323V107.927C162.064 107.53 161.671 107.53 161.279 107.927C160.886 108.323 160.886 109.117 161.279 109.911C161.671 109.514 162.064 109.117 162.456 108.72C161.279 108.323 160.102 108.72 158.924 108.323C158.14 107.927 157.747 109.117 158.14 109.514C159.317 111.101 161.671 111.101 163.241 111.498C164.418 111.498 164.811 110.307 163.633 109.911C162.456 109.514 161.671 109.514 160.494 109.117C159.317 108.72 158.924 110.307 160.102 110.704C161.279 111.101 162.064 111.101 163.241 111.498C163.241 111.101 163.633 110.307 163.633 109.911C162.064 109.514 160.102 109.911 158.924 108.323C158.532 108.72 158.532 109.117 158.14 109.514C159.317 109.911 160.494 109.514 161.671 109.911C162.456 109.911 162.849 109.514 162.849 108.72V108.323C162.849 107.927 163.241 107.927 162.456 108.323C162.064 108.323 161.671 108.323 161.279 108.323C161.671 107.927 162.064 107.53 162.456 107.133C162.064 107.133 160.886 105.149 160.102 104.356C159.317 103.562 158.14 104.356 158.532 105.149C158.924 105.943 159.317 107.133 159.709 107.927C160.102 107.53 160.494 107.53 160.886 107.133C159.709 105.546 158.532 103.959 158.14 101.975C157.747 102.372 156.962 102.372 156.57 102.768C157.355 104.356 158.14 106.34 157.747 107.927C158.14 107.927 158.532 107.53 159.317 107.53C158.14 105.943 157.747 103.562 157.747 101.578C157.747 100.388 156.178 100.388 156.178 101.578C156.178 103.959 156.57 105.943 156.178 108.323C156.57 108.323 157.355 108.323 157.747 108.323C156.962 106.736 156.57 104.752 156.57 102.768C156.57 101.578 155 101.578 155 102.768C155 104.752 155 106.736 155 108.72C155 109.911 156.57 109.911 156.57 108.72C156.57 105.943 156.57 103.165 156.57 100.388C156.178 100.785 155.785 100.785 155.393 101.181C158.924 103.562 161.671 107.133 164.026 110.307C164.026 109.911 164.418 109.514 164.418 108.72C161.279 108.72 158.14 108.72 155 108.323C155.393 108.72 155.393 108.72 155.785 109.117C155.785 106.34 155.785 103.562 156.178 100.785C155.785 100.785 155 100.785 154.608 100.785C154.608 102.372 154.216 104.356 154.216 105.943C154.608 105.546 154.608 105.546 155 105.149C152.646 105.149 149.899 105.546 147.545 105.546C145.19 105.546 142.836 105.546 140.874 105.149C139.304 105.546 138.912 107.133 139.697 107.133Z" fill="black"/>
<path d="M57.6836 1.58708C58.8608 2.38066 59.6456 3.57103 60.8228 4.3646C61.6076 5.15818 62.7849 5.95176 63.9621 6.34855C64.3545 6.34855 64.7469 6.34855 65.1393 5.95176C65.5317 5.55497 65.1393 5.15818 64.7469 4.76139C63.5697 4.76139 62.7849 3.96781 62.0001 3.17424C60.8228 2.38066 60.038 1.58708 59.2532 0.396713C58.8608 -7.61524e-05 58.4684 -7.61524e-05 58.076 0.396713C57.6836 0.793502 57.6836 1.58708 57.6836 1.58708Z" fill="black"/>
<path d="M65.5316 0.396683C64.7468 1.98384 63.962 3.571 63.5696 5.15815C63.1772 5.95173 62.7848 7.1421 62.3924 7.93567C62 8.72925 62 9.52283 62 9.91962C62 10.7132 62.7848 11.5068 63.5696 11.11C63.962 10.7132 63.962 10.3164 63.962 9.91962C63.5696 9.52283 63.1772 9.52283 62.7848 9.52283C62.7848 9.52283 62.7848 9.52283 63.1772 9.52283C63.5696 9.52283 63.962 9.91962 63.962 9.91962V9.52283C63.962 8.72925 64.3544 8.33246 64.7468 7.53889C65.5316 5.95173 65.924 4.36457 66.7089 2.77742C67.1013 1.98384 67.1013 1.58705 67.4937 0.793472C67.4937 0.396683 65.9241 -0.396895 65.5316 0.396683Z" fill="black"/>
<path d="M185.216 102.768C184.431 102.768 183.646 103.165 183.254 103.562C182.469 103.958 181.684 104.752 180.899 105.546C179.329 106.736 178.152 108.323 176.975 109.91C176.583 110.307 176.19 111.101 175.798 111.497C175.798 111.894 175.798 112.291 176.19 112.688C176.583 112.688 176.975 112.688 177.367 112.291V111.894C177.367 111.497 177.76 111.497 177.76 111.101C178.152 110.704 178.152 110.704 178.545 110.307C178.937 109.91 178.937 109.513 179.33 109.117C180.507 107.926 182.076 106.339 183.254 105.149C183.646 104.752 184.038 104.752 184.431 104.355C184.431 104.355 184.431 104.355 184.823 104.355C184.823 104.355 184.823 104.355 185.216 104.355C186 104.355 186 102.768 185.216 102.768Z" fill="black"/>
<path d="M176.583 103.562C176.975 105.149 178.152 107.133 179.329 108.323C180.507 109.91 182.076 111.498 183.253 113.085C184.038 113.878 185.215 112.688 184.431 111.894C182.861 110.307 181.684 109.117 180.507 107.53C179.722 106.339 178.545 104.752 178.152 103.165C178.152 101.975 176.583 102.371 176.583 103.562Z" fill="black"/>
<path d="M1.17742 163.874C2.74704 163.477 4.31666 163.08 5.88628 163.08H6.27869C6.27869 163.08 6.27869 163.08 6.67109 163.08C6.67109 162.683 6.67109 163.08 6.67109 163.477C6.67109 163.477 6.67109 163.477 6.67109 163.874C6.27869 164.27 6.27869 164.667 5.88628 165.064C5.10147 165.858 4.31666 167.048 3.92426 167.841C3.13945 169.032 2.35464 170.619 1.96223 171.809C1.96223 172.206 2.35464 173 2.74704 173C4.31666 173 6.27869 172.603 7.84831 172.206C8.63312 172.206 10.5951 171.809 11.7724 170.619C12.1648 170.222 12.1648 169.825 11.7724 169.429C11.38 169.032 10.9875 169.032 10.5951 169.429C9.41793 170.222 7.84831 170.619 6.67109 171.016C5.10147 171.413 3.53185 171.413 2.35464 171.413C2.74704 171.809 2.74704 172.206 3.13945 172.603C3.92426 170.222 5.88628 167.841 7.4559 165.858C7.84831 165.064 8.63312 164.27 8.63312 163.477C8.63312 162.286 7.84831 161.89 6.67109 161.89C5.88628 161.89 5.10147 161.89 4.31666 161.89C3.13945 161.89 1.96223 162.286 0.785017 162.683C-0.392199 162.683 0.000206552 164.27 1.17742 163.874Z" fill="black"/>
</g>
<defs>
<clipPath id="clip0_240_10665">
<rect width="186" height="173" fill="white"/>
</clipPath>
</defs>
</svg>
