<svg width="137" height="157" viewBox="0 0 137 157" fill="none" xmlns="http://www.w3.org/2000/svg">
<g clip-path="url(#clip0_240_10598)">
<path d="M58.9664 10.2778C45.1958 9.92338 31.7783 17.3658 21.8917 26.5803C10.9458 36.8579 2.82466 50.3252 0.353008 65.2101C-1.76555 79.0317 2.47156 92.8534 12.0051 103.485C21.5386 113.763 34.603 119.788 48.0205 122.269C71.3247 126.522 100.278 121.914 114.755 101.005C126.407 84.3478 124.642 62.3748 115.814 45.0092C106.281 26.2259 87.5669 12.4042 66.0283 10.6322C63.5566 10.2778 61.4381 10.2778 58.9664 10.2778C58.6133 10.2778 58.6133 10.9866 58.9664 10.9866C63.9097 10.9866 68.853 11.341 73.7963 12.4042C79.0927 13.4674 84.036 15.2394 88.6262 18.0746C97.4535 23.0362 105.222 30.1243 110.871 38.2755C121.464 54.2236 126.054 75.4877 117.933 93.5622C108.046 115.535 82.6236 123.686 60.0257 122.978C33.8968 121.914 3.17775 106.321 1.05919 76.5509C-8.50409e-05 61.666 6.00249 47.1356 14.8298 35.7947C23.6571 24.8083 35.6623 15.2394 49.4329 12.0498C52.6107 11.341 55.7886 10.9866 58.9664 10.9866C59.6726 10.9866 59.6726 10.2778 58.9664 10.2778Z" fill="black"/>
<path d="M71.3244 13.1129C72.0305 11.3409 72.7367 9.92325 73.4429 8.15124C74.1491 5.67043 74.8553 3.18962 75.5615 0.708804L75.2084 1.06321C78.0331 1.06321 81.2109 2.12641 83.6826 3.18962C83.6826 2.83521 83.6826 2.83521 83.6826 2.48081C81.9171 6.37923 80.8579 10.6321 79.7986 14.8849C80.1517 14.8849 80.1517 14.5305 80.5048 14.5305C77.68 13.8217 74.8553 13.1129 72.0305 12.0497C71.3243 12.0497 71.3243 12.7585 71.6774 12.7585C74.5022 13.4673 77.3269 14.1761 80.1517 15.2393C80.5048 15.2393 80.5048 15.2393 80.8579 14.8849C81.2109 10.9865 82.2702 7.08804 84.0357 3.18962C84.0357 2.83521 84.0357 2.83521 84.0357 2.48081C81.2109 1.06321 78.0331 0 75.2084 0C74.8553 0 74.8553 0 74.8553 0.354402C74.1491 2.83521 73.796 5.31603 72.7367 7.79684C72.0305 9.56885 71.3243 10.9865 70.6182 12.7585C70.6182 13.1129 71.3244 13.4673 71.3244 13.1129Z" fill="black"/>
<path d="M21.8913 144.95C48.3733 145.659 74.8552 147.786 101.337 144.95C100.984 144.596 100.984 144.242 100.631 144.242C99.9248 147.786 99.2186 150.975 99.2186 154.519C99.5717 154.165 99.5717 154.165 99.9248 153.81C73.7959 156.646 47.6671 155.228 21.5382 154.519C21.8913 154.874 21.8913 154.874 22.2444 155.228C22.2444 151.684 22.2444 148.14 22.2444 144.242C22.2444 143.533 20.832 143.533 20.832 144.242C20.832 147.786 20.832 151.33 20.832 155.228C21.1851 155.582 21.5382 155.937 21.8913 155.937C48.0202 156.646 74.149 158.063 100.278 155.228C100.631 155.228 100.984 154.874 100.984 154.519C100.984 150.975 101.69 147.786 102.396 144.596C102.396 144.242 102.043 143.533 101.69 143.887C75.2083 146.722 48.7264 144.596 22.2444 143.887C20.832 143.533 20.832 144.95 21.8913 144.95Z" fill="black"/>
<path d="M54.3758 124.395C54.7289 127.939 54.7289 131.837 53.3165 135.381C51.9042 138.925 49.7856 141.761 47.314 144.241C46.9609 144.596 46.9609 145.305 47.6671 145.305C56.4944 147.431 65.3217 146.013 74.149 145.659C74.8552 145.659 75.2083 144.95 74.5021 144.596C69.2057 139.28 67.4403 131.483 67.0872 124.395C67.0872 124.04 66.7341 123.686 66.7341 123.686C62.85 122.977 58.966 123.332 55.082 123.686C54.3758 123.686 54.3758 125.104 55.082 125.104C58.6129 124.749 62.497 124.395 66.381 125.104C66.381 124.749 66.0279 124.749 66.0279 124.395C66.381 132.192 68.4995 139.989 73.7959 145.659C73.7959 145.305 74.149 144.95 74.149 144.596C65.3217 144.95 56.4944 146.722 48.0201 144.241C48.0201 144.596 48.3732 144.95 48.3732 145.305C51.198 142.469 53.3165 139.28 54.7289 135.736C56.1413 131.837 56.4944 127.939 55.7882 124.04C55.7882 123.332 54.3758 123.686 54.3758 124.395Z" fill="black"/>
<path d="M55.4357 127.939C56.848 127.939 58.2604 127.585 60.0259 127.585C60.379 127.585 60.7321 127.23 60.7321 126.876C60.7321 126.521 60.379 126.167 60.0259 126.167C58.6135 126.167 57.2011 126.521 55.4357 126.521C55.0826 126.521 54.7295 126.876 54.7295 127.23C54.7295 127.585 55.0826 127.939 55.4357 127.939Z" fill="black"/>
<path d="M55.789 130.42C57.2013 130.065 58.6137 130.065 60.3792 129.711C60.7323 129.711 61.0854 129.357 60.7323 129.002C60.7323 128.648 60.3792 128.293 60.0261 128.648C58.6137 129.002 57.2013 129.002 55.4359 129.357C55.0828 129.357 54.7297 129.711 55.0828 130.065C55.0828 130.42 55.4359 130.42 55.789 130.42Z" fill="black"/>
<path d="M56.4945 131.837C57.5537 132.192 58.2599 132.192 59.3192 131.837C59.6723 131.837 60.0254 131.483 60.3785 131.483H60.7316C61.0847 131.483 61.0847 131.483 61.4378 131.128C61.7909 131.128 62.144 130.774 61.7909 130.42C61.7909 130.065 61.4378 129.711 61.0847 130.065C60.7316 130.065 60.0254 130.42 59.6723 130.42C59.3192 130.42 59.3192 130.42 58.9661 130.774C58.9661 130.774 58.9661 130.774 58.613 130.774H58.2599C58.2599 130.774 58.2599 130.774 57.9068 130.774C57.5537 130.774 57.5537 130.774 57.2007 130.774H56.8476C56.4945 130.774 56.1414 130.774 56.1414 131.128C55.7883 131.483 56.1414 131.837 56.4945 131.837Z" fill="black"/>
<path d="M55.4354 133.964C57.2009 133.609 58.9664 133.255 60.7318 132.901C61.0849 132.901 61.438 132.546 61.0849 132.192C61.0849 131.837 60.7318 131.837 60.3787 131.837C58.6133 132.192 56.8478 132.546 55.0824 132.901C54.7293 132.901 54.3762 133.255 54.7293 133.609C54.7293 133.609 55.0824 133.964 55.4354 133.964Z" fill="black"/>
<path d="M54.0236 135.027C56.1421 134.673 57.9076 134.673 60.0261 134.318C60.3792 134.318 60.7323 133.964 60.7323 133.61C60.7323 133.255 60.3792 132.901 60.0261 132.901C57.9076 133.255 56.1421 133.255 54.0236 133.61C53.6705 133.61 53.3174 133.964 53.3174 134.318C53.3174 134.673 53.3174 135.027 54.0236 135.027Z" fill="black"/>
<path d="M54.0236 137.508C55.789 137.153 57.9076 137.153 59.6731 136.799C60.0261 136.799 60.3792 136.445 60.3792 136.09C60.3792 135.736 60.0261 135.381 59.6731 135.381C57.9076 135.736 55.789 135.736 54.0236 136.09C53.6705 136.09 53.3174 136.445 53.3174 136.799C53.3174 137.153 53.3174 137.508 54.0236 137.508Z" fill="black"/>
<path d="M53.3165 138.926C55.7882 138.571 57.9067 138.217 60.3784 137.862C60.7315 137.862 61.0846 137.508 61.0846 137.154C61.0846 136.799 60.7315 136.445 60.3784 136.445C57.9067 136.799 55.7882 137.154 53.3165 137.508C52.9634 137.508 52.6104 137.862 52.6104 138.217C52.6104 138.571 52.9634 138.926 53.3165 138.926Z" fill="black"/>
<path d="M51.9048 141.406C54.7295 140.698 57.5543 140.343 60.379 139.634C61.0852 139.634 60.7321 138.217 60.0259 138.217C57.2012 138.571 54.3764 139.28 51.5517 139.989C50.4924 140.343 50.8455 141.761 51.9048 141.406Z" fill="black"/>
<path d="M50.1388 143.178C52.9635 142.824 55.4352 142.115 58.2599 142.115C58.613 142.115 58.9661 141.76 58.9661 141.406C58.9661 141.052 58.613 140.697 58.2599 140.697C55.4352 141.052 52.9635 141.76 50.1388 141.76C49.7857 141.76 49.4326 142.115 49.4326 142.469C49.4326 142.824 49.7857 143.178 50.1388 143.178Z" fill="black"/>
<path d="M51.1988 144.596C54.0235 144.596 56.4951 143.887 58.9668 143.178C59.673 143.178 59.3199 141.761 58.6137 141.761C56.1421 142.115 53.6704 142.824 51.1988 142.824C50.1395 143.178 50.1395 144.596 51.1988 144.596Z" fill="black"/>
<path d="M80.8584 9.569C90.0388 14.5306 99.9254 19.1378 108.4 25.8715C116.874 32.9595 121.464 42.5284 124.995 52.806C128.879 63.7925 130.998 75.4877 127.467 86.8286C126.407 90.3726 124.995 93.5622 123.583 96.7518C122.17 99.5871 121.111 102.422 119.346 105.257C116.168 109.865 111.577 113.054 106.634 115.535C94.2759 121.914 80.8584 129.357 66.7347 131.129C66.3816 131.129 66.0285 131.483 66.3816 131.838C66.7347 133.255 66.7347 136.09 68.1471 137.508C69.2063 138.571 71.3249 138.217 72.7373 137.862C75.562 137.154 78.7399 135.736 81.2115 134.673C84.7424 132.901 88.6265 131.838 92.5105 130.066C104.869 125.104 117.58 119.788 125.701 108.447C129.232 103.84 131.704 98.5239 133.822 92.8534C136.294 85.7654 138.059 78.6774 137.706 71.2349C137.353 56.35 130.291 43.5916 122.876 31.1875C121.111 27.9979 118.992 25.1627 116.521 22.3275C113.696 19.4922 110.165 17.3658 106.987 15.2394C103.103 12.7586 99.2192 10.2778 95.3352 8.50579C93.5698 7.79699 91.8043 6.73378 90.0388 6.02498C87.9203 5.31617 85.8017 4.96177 84.0362 4.25297C83.3301 3.89857 83.3301 4.96177 83.6832 5.31617C86.861 6.37938 90.3919 7.08818 93.5698 8.50579C96.7476 10.2778 99.9254 12.0498 103.103 13.8218C109.106 17.3658 115.108 21.2643 118.992 26.9347C122.523 31.8963 124.995 37.2123 127.82 42.5284C131.351 48.9076 134.175 55.6412 135.235 62.7293C137.706 76.1965 134.529 90.0182 128.173 102.068C122.523 112.7 113.696 119.434 102.75 124.395C94.9821 127.939 87.2141 130.42 79.7991 133.964C76.6213 135.382 73.4435 136.799 70.2656 137.154C69.2064 137.154 68.5002 136.799 68.1471 135.736C67.794 134.318 67.4409 132.901 67.0878 131.483C67.0878 131.838 66.7347 131.838 66.7347 132.192C80.1522 130.774 91.8043 124.041 103.809 118.016C108.753 115.535 113.343 113.409 117.227 109.51C121.464 105.257 123.936 99.2327 126.407 93.9166C128.879 88.2462 130.645 82.2214 130.645 76.1965C130.645 70.1717 129.585 64.5013 128.173 58.8309C125.348 48.5532 121.111 37.2123 113.343 29.4155C104.516 20.5555 92.8636 15.2394 81.9177 9.569C80.8584 8.15139 80.5053 9.2146 80.8584 9.569Z" fill="black"/>
<path d="M3.17797 55.2868C27.8945 77.9686 63.2037 83.2846 95.3352 77.2597C104.516 75.4877 113.696 72.6525 122.523 69.1085C123.23 68.7541 122.876 68.0453 122.17 68.0453C92.1573 80.095 56.8481 83.2846 26.8352 69.8173C18.361 65.9189 10.5929 60.6029 3.53106 54.578C3.53106 54.2236 2.82487 54.9324 3.17797 55.2868Z" fill="black"/>
<path d="M18.3612 31.5417C24.0107 34.0225 28.6009 38.6298 34.2504 41.1106C39.8998 43.5914 46.2555 44.3002 52.2581 45.009C64.9694 46.4266 78.0339 47.1354 90.7452 45.3634C97.8071 44.3002 104.869 42.1738 111.225 38.9842C111.931 38.6298 111.225 37.921 110.871 38.2754C96.0416 45.7178 79.4462 46.0722 63.204 45.009C55.4359 44.3002 47.3148 43.9458 39.8998 42.1738C36.0158 41.1106 32.4849 39.693 28.954 37.2121C25.7761 34.7313 22.5983 32.2505 19.0674 30.4785C18.3612 30.4785 18.0081 31.1873 18.3612 31.5417Z" fill="black"/>
<path d="M7.76775 97.8147C25.4224 99.9411 42.3708 105.257 59.6724 107.384C70.6183 108.801 81.5641 110.219 92.8631 110.219C98.1595 110.219 103.809 110.219 108.752 108.092C109.458 107.738 108.752 107.029 108.399 107.384C103.809 109.51 98.1595 109.51 93.5693 109.156C87.5667 109.156 81.5641 108.447 75.5616 108.092C62.144 106.675 48.7265 104.548 35.6621 101.713C26.4817 99.5867 17.3013 97.8147 7.76775 96.7515C7.41466 96.7515 7.41466 97.8147 7.76775 97.8147Z" fill="black"/>
<path d="M57.2011 10.632C48.7269 24.4536 40.2527 37.9209 34.9563 53.1602C30.3661 66.2731 27.1882 80.4491 25.7759 94.2708C25.0697 101.004 24.7166 108.447 26.482 115.181C26.482 115.889 27.5413 115.535 27.5413 114.826C25.7759 108.801 26.1289 102.422 26.482 96.3972C27.1882 89.3092 28.2475 82.2211 29.6599 75.4875C32.8377 60.957 37.4279 47.1354 44.1367 34.0225C48.3738 26.2256 52.964 18.7832 57.5542 10.9864C58.2604 10.2776 57.5542 9.92316 57.2011 10.632Z" fill="black"/>
<path d="M74.856 14.1761C75.5622 29.061 76.9745 43.9459 75.9152 58.8308C74.856 73.7156 70.972 87.5373 66.0287 101.359C63.557 108.801 60.7323 115.889 58.9668 123.332C58.9668 124.041 59.673 124.041 60.0261 123.686C63.2039 109.865 69.2065 97.1062 72.7374 83.6389C76.6214 69.4628 77.3276 54.9323 76.9745 40.0475C76.6214 31.5418 75.9152 22.6818 75.5622 14.1761C75.9152 13.4673 74.856 13.4673 74.856 14.1761Z" fill="black"/>
<path d="M87.2137 18.0745C89.6853 24.0993 93.2162 29.7698 95.6879 35.7946C98.5126 42.8826 99.2188 50.3251 99.925 57.7675C100.631 64.8555 101.337 72.298 100.631 79.386C99.925 86.1196 97.8064 92.8533 95.6879 99.5869C93.5693 105.966 91.0977 112.345 90.0384 119.079C90.0384 119.788 90.7446 119.788 91.0977 119.433C93.2162 106.675 99.5719 94.9797 101.69 81.8668C102.75 74.7788 102.044 67.6908 101.69 60.6027C100.984 53.5147 100.631 46.0722 98.1595 38.9842C95.3348 31.1874 91.0977 24.8081 87.9198 17.7201C87.9198 17.3657 86.8606 17.3657 87.2137 18.0745Z" fill="black"/>
</g>
<defs>
<clipPath id="clip0_240_10598">
<rect width="137" height="157" fill="white"/>
</clipPath>
</defs>
</svg>
