<svg width="210" height="109" viewBox="0 0 210 109" fill="none" xmlns="http://www.w3.org/2000/svg">
<g clip-path="url(#clip0_240_10491)">
<path d="M15.6458 9.32257C17.7319 36.9311 11.4736 64.1811 11.4736 91.7897C11.4736 92.1482 11.8213 92.8653 12.169 92.5068C45.5465 91.0726 78.5763 91.4311 111.954 91.4311C134.553 91.4311 157.5 91.4311 180.099 91.4311C186.01 91.4311 191.573 91.4311 197.484 91.4311C197.831 91.4311 198.179 91.0726 198.179 90.714C199.57 68.1252 200.265 44.8193 198.527 22.2305C198.179 15.418 197.484 8.60547 195.745 1.79297C195.745 1.43441 195.397 1.07586 195.05 1.07586C148.113 1.07586 101.176 -0.716902 54.5862 -0.35835C41.722 0.000202864 28.5101 0.358756 15.6458 0.717308C15.2981 0.717308 14.6028 1.07586 14.9505 1.43441C14.9505 4.30283 15.2981 6.8127 15.6458 9.32257C15.6458 10.3982 17.3842 10.3982 17.3842 9.32257C17.0365 6.8127 16.6889 4.30283 16.3412 1.79297C16.3412 2.15152 15.9935 2.15152 15.6458 2.51007C62.5829 0.717308 109.52 2.15152 156.109 2.86862C169.321 3.22718 182.186 3.22718 195.397 3.22718C195.05 2.86862 194.702 2.86862 194.702 2.51007C197.831 15.7765 197.831 29.7601 198.179 43.0265C198.179 56.293 197.831 69.2009 197.484 82.4673C197.484 85.3357 197.136 87.8456 197.136 90.714C197.484 90.3555 197.831 89.9969 197.831 89.9969C182.533 89.9969 167.235 89.9969 151.59 89.9969C128.643 89.9969 105.348 89.6384 82.4008 89.9969C59.1061 89.9969 35.8114 90.3555 12.5167 91.0726C12.8644 91.4311 13.212 91.7897 13.212 91.7897C13.212 64.1811 19.4703 36.9311 17.3842 9.32257C17.0365 8.24691 15.2981 8.24691 15.6458 9.32257Z" fill="black"/>
<path d="M20.1655 0.717461C18.0794 2.15167 16.6886 4.30299 15.6456 6.4543C14.6025 8.24707 17.0363 10.0398 18.427 8.60562C19.8178 6.81286 22.2515 5.7372 24.3376 4.66154C23.6423 3.58588 22.9469 2.51022 22.2515 1.79312C19.8178 3.94443 17.384 6.09575 15.6456 9.32272C14.9502 10.7569 16.6886 12.5497 18.0794 11.474C20.8608 9.68128 23.6423 7.17141 26.7714 6.09575C26.4237 5.02009 25.7284 4.30299 25.033 3.22733C21.9039 6.4543 18.7747 10.0398 16.6886 13.9839C15.9933 15.0596 17.384 16.8523 18.7747 16.4938C22.2515 15.4181 25.033 13.6254 28.5098 12.1911C28.1621 11.1155 27.8145 10.0398 27.4668 8.96417C22.5992 10.7569 19.4701 15.7767 16.6886 19.7208C15.2979 21.5135 17.384 22.9477 18.7747 22.2306C21.2085 21.155 22.9469 19.3622 25.3807 19.0036C25.033 17.928 24.6853 16.8523 23.99 15.7767C21.2085 18.2865 19.1224 21.8721 16.6886 24.7405C15.2979 26.1747 17.0363 28.6846 18.7747 27.6089C21.2085 25.8161 23.99 24.3819 26.7714 22.9477C26.076 21.8721 25.7284 20.7964 25.033 19.7208C20.1655 22.9477 16.3409 28.326 14.2549 34.0629C13.9072 35.4971 15.6456 36.9313 17.0363 36.2142C20.1655 34.0629 22.9469 31.553 26.076 29.0431C25.3807 27.9675 24.6853 27.2504 23.99 26.1747C19.1224 30.4773 17.0363 35.8556 14.2549 41.5925C13.5595 43.3852 15.6456 45.5365 17.0363 43.7438C19.1224 40.8754 21.5562 38.3655 24.3376 36.5727C23.6423 35.8556 22.9469 35.1385 21.9039 34.4214C18.427 39.4411 14.9502 44.4609 13.5595 50.5563C13.2118 51.6319 14.2549 53.4247 15.6456 52.7076C19.4701 51.2734 22.5992 48.0464 26.076 45.8951C28.1621 44.8194 26.4237 41.5925 24.3376 42.6681C19.1224 45.5365 15.6456 50.9148 13.2118 56.2931C12.5164 57.3688 13.5595 59.5201 15.2979 58.803C18.7747 57.3688 21.2085 54.5004 24.3376 53.0661C23.6423 51.9905 23.2946 50.9148 22.5992 49.8392C18.0794 52.7076 13.9072 57.7273 13.5595 63.4642C13.5595 64.5398 14.6025 65.6155 15.6456 65.2569C18.7747 64.5398 21.2085 62.3885 23.6423 60.2372C25.033 58.803 23.2946 56.2931 21.5562 57.3688C19.8178 58.803 18.427 60.2372 17.384 62.3885C16.3409 64.5398 15.6456 66.6911 14.6025 68.8425C13.5595 70.2767 15.6456 72.0694 17.0363 71.3523C19.8178 69.9181 22.2515 67.4082 24.6853 65.6155C23.99 64.5398 23.2946 63.8227 22.5992 62.7471C18.427 66.3326 14.9502 70.9938 12.1688 76.0135C11.4734 77.8063 12.8641 79.2405 14.6025 78.5234C18.0794 77.0892 21.2085 74.9379 24.3376 73.1451C23.6423 72.0694 23.2946 70.9938 22.5992 69.9181C18.427 72.7865 13.2118 76.7306 11.4734 82.1089C11.1257 83.5431 12.5164 84.6188 13.5595 84.2602C18.0794 82.826 21.5562 79.9576 25.7284 78.5234C25.3807 77.4477 24.6853 76.3721 24.3376 75.2964C20.8608 77.8063 16.6886 80.3161 15.2979 84.6188C14.9502 86.053 16.3409 87.1286 17.384 86.7701C19.8178 86.4115 21.5562 85.3359 23.6423 84.6188C22.9469 83.5431 22.5992 82.4675 21.9039 81.3918C19.1224 83.1846 15.9933 84.9773 13.9072 87.8457C12.8641 89.28 13.9072 91.0727 15.6456 90.7142C17.7317 90.3556 19.4701 89.6385 21.5562 88.9214C20.8608 88.2043 20.5131 87.1286 19.8178 86.053C17.7317 87.1286 15.6456 88.5629 13.5595 90.3556C11.8211 91.4313 12.8641 93.9411 14.9502 93.5826C17.0363 93.224 18.7747 92.1484 20.5131 91.4313C22.5992 90.3556 20.8608 87.4872 18.7747 88.2043C17.0363 88.9214 15.6456 89.6385 13.9072 89.9971C14.2549 91.0727 14.9502 92.1484 15.2979 93.224C17.384 91.7898 19.4701 90.3556 21.5562 88.9214C23.6423 87.8457 21.9039 84.9773 19.8178 85.6944C18.0794 86.4115 16.6886 87.1286 14.9502 87.1286C15.6456 88.2043 15.9933 89.28 16.6886 89.9971C18.7747 87.4872 21.2085 85.6944 23.99 83.9017C26.076 82.826 24.3376 79.9576 22.2515 80.6747C20.5131 81.3918 18.7747 82.1089 16.6886 82.4675C17.384 83.1846 18.0794 83.9017 18.7747 84.6188C19.8178 81.0332 23.6423 79.2405 26.4237 77.4477C27.8145 76.3721 27.1191 73.5036 25.033 74.2208C20.8608 75.655 17.0363 78.8819 12.8641 79.9576C13.5595 80.6747 14.2549 81.3918 14.9502 82.1089C16.3409 77.8063 20.8608 74.2207 24.3376 72.0694C26.076 70.6352 24.6853 67.7668 22.5992 68.8425C19.4701 70.6352 16.3409 72.7865 12.8641 74.2208C13.5595 74.9379 14.6025 76.0135 15.2979 76.7306C17.384 73.1451 20.8608 68.8425 24.6853 65.2569C26.076 63.8227 23.99 61.3129 22.5992 62.3885C20.1655 64.5398 17.7317 66.6911 14.9502 68.1254C15.6456 68.8425 16.6886 69.9181 17.384 70.6352C19.4701 67.4083 20.1655 63.1056 23.2946 60.5957C22.5992 59.5201 21.9039 58.803 21.2085 57.7273C19.1224 59.5201 17.384 60.9543 14.9502 61.6714C15.6456 62.3885 16.3409 62.7471 17.0363 63.4642C17.384 59.5201 20.8608 55.576 24.3376 53.0661C26.076 51.9905 24.6853 49.1221 22.5992 49.8392C19.8178 51.2734 17.384 54.1418 14.2549 55.2175C14.9502 55.9346 15.6456 57.0102 16.3409 57.7273C18.7747 53.0662 21.5562 48.0464 26.4237 45.5365C25.7284 44.4609 25.3807 43.3852 24.6853 42.3096C21.5562 44.1023 18.7747 47.3293 14.9502 48.7635C15.6456 49.4806 16.3409 50.1977 17.0363 50.9148C18.0794 45.178 21.5562 40.1583 25.033 35.8556C26.076 34.4214 23.99 32.6286 22.5992 33.3458C19.4701 35.1385 16.6886 38.0069 14.6025 40.8754C15.6456 41.5925 16.3409 42.3096 17.384 43.0267C19.8178 37.6484 22.2515 32.2701 26.4237 28.326C27.8145 27.6089 26.076 24.7405 24.3376 25.8161C21.2085 28.326 18.427 30.8359 15.2979 32.9872C15.9933 33.7043 17.0363 34.4214 17.7317 35.1385C19.4701 30.4773 22.9469 25.8161 27.1191 22.9477C28.5098 21.8721 27.8145 19.0036 25.7284 19.7208C22.5992 20.7964 19.8178 22.5892 17.0363 24.3819C17.7317 25.4576 18.427 26.1747 19.1224 27.2504C21.5562 24.3819 23.6423 20.7964 26.4237 18.2865C27.8145 17.2109 26.4237 15.0596 24.6853 15.4181C21.9039 16.1352 19.8178 17.928 17.0363 19.0036C18.0794 20.0793 18.7747 20.7964 19.4701 21.5135C21.9039 18.2865 24.6853 13.6254 28.5098 12.1911C30.5959 11.474 29.5529 7.88851 27.4668 8.60562C24.3376 10.0398 21.2085 12.1911 17.7317 12.9082C18.427 13.6254 19.1224 14.701 19.8178 15.4181C21.9039 11.8326 24.6853 8.60562 27.4668 5.37865C28.5098 4.30299 27.4668 1.79312 25.7284 2.51022C22.2515 3.58588 19.1224 6.09575 15.9933 8.24707C16.6886 8.96417 17.7317 10.0398 18.427 10.7569C19.8178 8.24707 22.2515 6.09575 24.3376 3.94443C26.076 2.51022 23.99 0.358908 22.2515 1.07601C19.8178 2.51022 17.384 3.94443 15.2979 5.7372C16.6886 6.81286 17.384 7.52996 18.427 8.24707C19.4701 6.4543 20.1655 5.02009 21.9039 3.94443C23.6423 2.51022 21.9039 -0.358197 20.1655 0.717461Z" fill="black"/>
<path d="M12.5166 89.2796C8.69205 89.2796 4.86755 89.6382 1.39073 89.2796C1.04305 89.2796 0.695364 89.6382 0.695364 89.9967C-0.347682 95.375 0 101.112 0.347682 106.49C0.347682 106.849 0.695364 107.207 1.04305 107.207C16.6887 110.076 32.6821 108.641 48.3278 107.924C65.3642 107.207 82.4007 106.132 99.4371 105.414C116.126 105.056 133.162 105.414 149.851 106.132C160.629 106.49 171.755 107.207 182.533 107.566C190.182 107.566 198.179 107.566 205.828 107.207C206.175 107.207 206.523 106.849 206.523 106.49C208.609 100.395 210 93.9408 209.652 87.8454C209.652 87.4869 209.305 87.1283 208.957 87.1283C205.48 86.4112 202.351 88.204 198.874 88.204C197.831 88.204 197.831 89.9967 198.874 89.6382C202.351 89.2796 205.132 87.8454 208.609 88.5625C208.262 88.204 208.262 88.204 207.914 87.8454C207.914 93.9408 206.871 100.395 204.785 106.132C205.132 105.773 205.132 105.773 205.48 105.414C189.139 105.773 172.798 105.414 156.805 104.697C140.116 103.98 123.427 103.263 106.738 103.622C89.702 103.98 72.6656 105.056 55.6291 105.773C37.5497 106.49 18.7748 108.641 0.695364 105.414C1.04305 105.773 1.04305 105.773 1.39073 106.132C1.04305 100.753 0.695364 95.0165 1.73841 89.9967C1.39073 90.3553 1.39073 90.3553 1.04305 90.7138C4.86755 91.0724 8.69205 91.0724 12.1689 90.7138C13.5596 91.0724 13.5596 89.2796 12.5166 89.2796Z" fill="black"/>
<path d="M141.854 104.339C142.55 102.546 143.245 100.395 143.245 98.602C150.199 96.8092 158.891 98.602 165.845 98.602C166.54 100.753 166.54 103.263 166.888 105.414C158.891 105.414 149.851 106.132 141.854 104.339Z" fill="black"/>
<path d="M151.589 99.3192C151.589 98.2436 151.242 97.1679 151.937 96.4508C152.285 95.7337 153.328 95.7337 154.023 95.3752C156.109 95.0166 158.195 95.3752 160.282 95.3752C159.934 95.0166 159.934 95.0166 159.586 94.658C159.586 96.4508 159.934 98.6021 160.629 100.036C160.977 99.6778 160.977 99.3192 161.325 98.9607C157.848 98.9607 154.719 98.9607 151.589 99.3192C150.546 98.9607 150.546 100.753 151.242 100.753C154.719 100.753 157.848 100.753 161.325 100.753C162.02 100.753 162.368 100.036 162.02 99.6778C161.325 98.2436 160.977 96.4508 160.977 95.0166C160.977 94.658 160.629 94.2995 160.282 94.2995C158.543 94.2995 156.457 93.9409 154.719 94.2995C152.98 94.2995 151.242 95.0166 150.546 96.4508C149.851 97.5265 150.199 98.9607 150.199 100.036C150.199 100.753 151.589 100.395 151.589 99.3192Z" fill="black"/>
<path d="M56.3243 62.3882C59.8011 52.3487 61.5395 41.2336 65.7117 31.5527C64.6686 31.5527 63.2779 31.5527 62.2349 31.5527C64.6686 36.2139 66.4071 41.2336 67.7978 46.6119C69.1885 51.6316 71.6223 57.0099 71.6223 62.3882C71.6223 64.8981 75.7945 65.2566 75.7945 62.3882C75.7945 56.6514 73.013 51.2731 71.6223 45.5362C70.2316 40.1579 68.4931 34.4211 65.7117 29.7599C65.0163 28.6843 62.9302 28.3257 62.2349 29.7599C57.715 40.1579 55.9766 51.2731 52.4998 61.6711C51.4567 63.8224 55.2812 64.8981 56.3243 62.3882Z" fill="black"/>
<path d="M58.4103 49.8391C60.1487 49.8391 61.8871 49.8391 63.9732 49.4805C65.7116 49.122 67.7977 49.122 69.5361 48.7634C70.5792 48.4049 71.2745 47.3292 70.9269 46.2536C70.5792 45.1779 69.5361 44.4608 68.4931 44.8193C67.7977 44.8193 67.1024 45.1779 66.0593 45.1779H65.7116C65.3639 45.1779 66.0593 45.1779 65.7116 45.1779C65.3639 45.1779 65.364 45.1779 65.0163 45.1779C64.6686 45.1779 63.9732 45.1779 63.6255 45.1779C61.8871 45.1779 60.1487 45.5364 58.4103 45.5364C57.3673 45.5364 56.3242 46.6121 56.3242 47.6878C56.3242 48.7634 57.3673 49.8391 58.4103 49.8391Z" fill="black"/>
<path d="M87.2681 30.8356C88.6588 40.1579 89.7018 49.4803 89.3542 58.8027C90.7449 58.8027 92.1356 58.8027 93.5263 58.8027C93.5263 56.2928 89.3542 55.9342 89.3542 58.8027C89.3542 58.8027 89.3542 58.8027 89.3542 59.1612C89.3542 61.6711 93.5263 62.0296 93.5263 59.1612C93.5263 56.6514 89.3542 56.2928 89.3542 59.1612C89.3542 61.6711 93.5263 62.0296 93.5263 59.1612C93.5263 59.1612 93.5263 59.1612 93.5263 58.8027C93.5263 56.2928 89.3542 55.9342 89.3542 58.8027C89.3542 61.6711 93.5263 61.6711 93.5263 58.8027C93.874 49.1217 92.831 39.4408 91.4402 29.7599C91.4402 28.6842 90.0495 27.9671 89.0065 28.3257C87.6157 28.3257 87.2681 29.4014 87.2681 30.8356Z" fill="black"/>
<path d="M91.0924 31.9114C91.0924 31.9114 91.0924 31.5528 91.4401 31.5528C91.0924 31.5528 91.7877 31.1943 91.4401 31.5528C91.7877 31.5528 91.7877 31.1943 92.1354 31.1943C91.7877 31.1943 92.4831 31.1943 92.1354 31.1943H92.4831C92.8308 31.1943 92.8308 31.1943 93.1785 30.8357C93.5261 30.8357 93.5261 30.8357 93.8738 30.8357C94.2215 30.8357 94.2215 30.8357 94.5692 30.8357C97.003 30.4772 99.4367 30.8357 101.871 31.1943C103.957 31.5528 105.695 32.2699 107.086 33.7041C106.738 33.3456 107.086 33.7041 107.086 34.0627C107.086 34.4212 107.086 33.7041 107.086 34.4212C107.086 35.1383 107.086 34.4212 107.086 34.7798C107.086 35.4969 107.086 34.7798 107.086 35.1383V35.4969C107.086 35.1383 107.086 35.8554 107.086 35.4969C107.086 35.8554 106.738 35.8554 106.738 36.214C106.39 36.5725 105.695 37.2897 105 38.0068C101.523 40.8752 95.9599 41.2337 91.4401 42.3094C89.354 42.6679 89.7016 46.612 92.1354 46.2535C94.5692 46.2535 96.6553 45.8949 99.0891 45.5364C101.523 45.1778 104.652 45.1778 106.738 45.5364C107.433 45.5364 107.781 45.8949 108.476 45.8949C108.129 45.8949 108.824 45.8949 108.476 45.8949C108.476 45.8949 108.476 45.8949 108.824 45.8949C108.824 45.8949 109.52 46.2535 109.172 46.2535C109.867 46.612 109.867 47.3291 109.867 48.0462C109.52 51.2732 107.433 54.1416 105 55.9344C101.523 58.4443 97.003 59.8785 93.1785 58.0857C92.1354 57.7272 91.0924 58.4443 90.7447 59.5199C90.397 60.5956 91.0924 61.6712 92.1354 62.0298C100.48 65.6153 111.953 59.1614 114.039 50.1975C114.735 46.9706 114.039 43.7436 111.258 42.3094C108.476 40.8752 105.347 40.8752 102.566 41.2337C99.4367 41.5923 96.3076 41.9508 93.1785 42.3094C93.5261 43.7436 93.5261 45.1778 93.8738 46.2535C98.7414 45.5364 104.304 44.8193 108.476 41.5923C110.91 39.7995 113.344 36.5725 112.301 33.3456C111.258 30.4772 108.476 29.0429 105.695 28.3258C102.914 27.2502 99.7844 26.8916 96.6553 27.2502C93.8738 27.6087 90.0493 27.9673 89.0063 30.8357C88.6586 31.9114 88.6586 32.987 89.7016 33.7041C89.354 32.987 90.7447 32.987 91.0924 31.9114Z" fill="black"/>
<path d="M144.983 28.3257C134.901 28.3257 125.513 36.2138 125.861 46.9704C125.861 52.3487 128.295 57.3685 133.162 59.8783C137.334 61.6711 141.159 61.6711 145.331 60.5954C148.808 59.5198 155.066 58.0856 155.414 53.7829C155.414 52.7073 154.371 51.6316 153.328 51.6316C152.285 51.6316 151.589 52.7073 151.242 53.7829C151.242 53.0658 151.242 53.4244 151.242 53.7829C151.589 53.7829 150.894 54.1415 150.894 54.1415C150.546 54.5 149.851 54.8586 149.156 55.2171C147.765 55.9342 146.026 56.2928 144.636 56.6513C141.507 57.3684 139.073 58.0856 135.944 57.0099C127.947 54.1415 128.642 43.3849 133.51 38.0066C136.639 34.7796 140.811 33.3454 144.983 33.3454C147.417 32.6283 147.417 28.3257 144.983 28.3257Z" fill="black"/>
</g>
<defs>
<clipPath id="clip0_240_10491">
<rect width="210" height="109" fill="white"/>
</clipPath>
</defs>
</svg>
