<svg width="141" height="147" viewBox="0 0 141 147" fill="none" xmlns="http://www.w3.org/2000/svg">
<g clip-path="url(#clip0_240_13983)">
<path d="M10.3781 115.399C8.94662 105.102 8.23088 94.8044 7.51515 84.5073C7.15728 79.1812 6.79941 73.8551 6.44154 68.529C6.08367 65.6885 5.36794 63.2029 5.01007 60.3624C3.5786 53.616 2.50499 46.5145 2.50499 39.4131C2.50499 33.3769 2.50499 26.2754 6.79941 21.6595C9.66235 18.4638 15.0304 13.8479 19.6827 14.203C23.2613 14.558 25.4085 18.4638 26.4821 21.6595C29.703 30.5363 29.703 40.4783 30.0608 49.7102C30.0608 59.2972 28.9872 68.8841 28.6294 78.4711C27.5558 90.8986 26.84 102.971 26.84 115.399C27.1979 115.044 27.1979 114.688 27.5558 114.333C21.472 115.399 15.3882 115.399 9.30449 114.333C7.87301 113.978 7.51515 116.109 8.58875 116.464C15.0304 117.529 21.472 117.529 27.9136 116.464C28.2715 116.464 28.6294 115.754 28.6294 115.399C28.6294 104.036 29.3451 92.3189 30.0608 80.9566C31.1344 71.0145 32.208 60.7174 32.208 51.1305C32.208 41.5435 32.208 30.8914 28.9872 21.6595C27.5558 18.1088 25.7664 14.203 22.1877 12.7827C17.8933 11.0073 13.5989 13.4928 10.3781 15.9783C7.87301 17.7537 5.36794 19.8841 3.5786 22.3696C1.78926 24.8551 1.07352 27.6957 0.715654 30.8914C-0.35795 37.9928 0.357786 45.4493 1.43139 52.5508C2.14713 56.4566 2.50499 60.0073 3.22073 63.9131C4.29433 68.8841 4.29433 73.5001 4.6522 78.4711C5.36794 90.8986 6.44154 102.971 8.23088 115.399C8.23088 116.464 10.3781 116.464 10.3781 115.399Z" fill="black"/>
<path d="M8.23091 131.732C7.87305 134.927 7.51518 138.123 8.58878 141.319C9.66239 143.804 11.8096 145.58 14.3147 146.29C17.5355 147.355 21.472 147 24.6928 145.935C27.1979 145.225 29.703 144.159 31.1345 142.384C33.9974 139.188 33.6395 134.927 31.8502 131.377C29.703 127.826 26.1243 124.63 21.8299 123.92C19.6827 123.565 17.5355 123.565 15.3883 124.275C12.8832 125.341 10.736 127.116 9.30452 129.246C9.30452 130.312 8.58878 130.667 8.23091 131.732C7.51518 132.797 9.30452 133.507 10.0203 132.442C11.0939 130.312 12.8832 128.536 15.0304 127.116C16.8197 126.051 18.2512 125.696 20.3984 125.696C21.1142 125.696 21.1142 125.696 21.8299 125.696C22.1878 125.696 22.9035 126.051 23.2614 126.051C23.9771 126.406 24.6928 126.761 25.7664 127.116C26.4822 127.826 27.1979 128.181 27.9137 128.891C28.2715 129.246 28.6294 129.601 28.9873 129.956C29.3451 130.312 29.703 130.667 29.703 131.022C30.0609 131.732 30.7766 132.442 31.1345 133.507C31.1345 133.507 31.1345 133.862 31.4923 133.862C31.4923 134.217 31.4923 134.217 31.8502 134.572C31.8502 134.927 32.2081 135.283 32.2081 135.638V135.993C32.2081 136.348 32.2081 136.348 32.2081 136.703C32.2081 137.058 32.2081 137.058 32.2081 137.413V137.768C32.2081 138.123 32.2081 138.478 31.8502 138.833V139.188C31.8502 139.543 31.4923 139.543 31.4923 139.899C31.4923 140.254 31.1345 140.254 31.1345 140.609C31.1345 140.964 31.1345 140.609 30.7766 140.964C30.4187 141.319 30.0609 141.674 29.703 142.029C28.9873 142.384 27.9137 143.094 27.1979 143.449C24.335 144.514 21.1142 144.87 18.2512 144.87C17.1776 144.87 15.7461 144.514 14.6725 144.159C13.5989 143.804 12.8832 143.094 12.1675 142.384C10.736 140.254 10.3781 137.768 10.736 135.283C10.736 134.572 10.736 133.507 11.0939 132.797C11.0939 132.087 11.0939 131.732 10.3781 131.377C8.94665 131.022 8.23091 131.022 8.23091 131.732Z" fill="black"/>
<path d="M61.9113 50.4203C57.9747 37.9928 60.4798 24.8551 69.7844 15.2681C78.0153 6.74639 90.1828 2.13045 101.992 2.13045C113.802 2.13045 125.254 7.45654 132.411 17.3986C138.853 26.6304 141 38.3478 137.779 49C135.99 54.6812 132.769 60.0073 127.759 63.2029C122.033 67.1087 115.234 68.1739 108.434 67.8189C108.076 67.8189 107.361 68.1739 107.361 68.8841C108.434 83.087 106.287 97.2899 106.287 111.138C106.645 110.783 106.645 110.428 107.003 110.072C100.919 111.138 94.8351 110.072 88.7514 109.007C89.1092 109.362 89.1092 109.717 89.4671 110.072C91.2565 91.2536 88.3935 72.0797 89.4671 53.2609C89.1092 53.616 88.7514 53.971 88.3935 54.3261C98.7717 55.0362 119.528 50.7754 117.739 36.5725C117.023 30.1812 111.297 22.7246 104.498 21.3044C98.056 19.8841 92.3301 24.1449 88.0356 28.4058C82.6676 34.087 78.7311 42.2536 78.7311 50.0652C79.0889 49.7102 79.4468 49.3551 79.8047 49C73.3631 49 66.9214 50.4203 60.8377 49.7102C59.4062 49.7102 59.4062 51.4855 60.8377 51.8406C67.2793 52.5507 73.7209 51.1304 79.8047 51.1304C80.5204 51.1304 80.8783 50.7754 80.8783 50.0652C80.8783 43.6739 83.7412 37.6377 87.3199 32.6667C90.5407 28.0507 95.5509 23.0797 101.635 22.7247C108.434 22.3696 113.802 29.116 115.234 34.7971C116.665 40.4783 113.086 45.0942 108.434 47.5797C102.35 51.1304 95.193 52.1957 88.3935 51.8406C87.6778 51.8406 87.3199 52.1957 87.3199 52.9058C86.2463 71.7246 89.1092 90.8986 87.3199 109.717C87.3199 110.072 87.6778 110.783 88.0356 110.783C94.4773 111.848 100.919 112.913 107.361 111.848C107.718 111.848 108.076 111.138 108.076 110.783C108.076 96.5797 110.223 82.3768 109.15 68.529C108.792 68.8841 108.434 69.2391 108.076 69.5942C120.602 70.6594 132.053 65.3333 137.421 53.616C142.432 42.9638 141.358 29.8261 135.99 19.529C129.906 8.52175 118.812 1.4203 106.645 1.37091e-05C94.1194 -1.42028 80.8783 2.48552 71.2158 10.6522C65.8478 15.2681 61.5534 20.9493 59.4062 27.6957C56.9011 35.1522 57.259 43.3189 59.7641 50.7754C60.4798 52.1957 62.2691 51.8406 61.9113 50.4203Z" fill="black"/>
<path d="M90.1824 121.79C86.2458 124.631 83.7408 129.602 85.5301 134.218C86.2458 136.348 87.6773 138.123 89.4666 139.189C91.6139 140.254 94.1189 140.609 96.624 139.899C99.4869 139.189 102.35 137.413 104.497 135.638C105.929 134.218 107.002 132.087 107.36 129.957C107.718 126.051 104.497 122.855 101.276 121.08C97.6976 118.949 92.6875 118.594 89.8245 122.145C89.4666 122.5 89.8245 123.21 90.1824 123.565C90.5403 123.92 91.256 123.565 91.6139 123.21C92.3296 122.145 93.7611 121.79 94.8347 121.435C96.2661 121.435 97.6976 121.435 99.1291 122.145C101.992 123.21 104.497 125.696 105.213 128.536C105.571 129.957 104.855 131.377 104.139 132.797C102.708 134.573 100.561 135.993 98.4133 137.058C96.2661 138.123 94.1189 138.478 91.9717 137.768C90.1824 137.413 89.1088 135.993 88.0352 134.573C85.888 130.667 87.6773 125.696 91.256 123.21C92.3296 122.855 91.256 120.725 90.1824 121.79Z" fill="black"/>
<path d="M4.29439 25.5652C7.15734 25.2101 9.66241 23.7898 12.5254 22.7246C13.2411 22.3695 12.8832 21.3043 12.1675 21.6594C9.66241 22.7246 7.15734 24.1449 4.29439 24.4999C3.93652 24.4999 3.93652 24.4999 3.93652 24.855C3.93652 25.2101 3.93652 25.5652 4.29439 25.5652Z" fill="black"/>
<path d="M2.50473 28.7611C5.72554 28.7611 8.58849 27.6959 11.4514 26.6306C12.1672 26.2756 11.8093 25.5654 11.0936 25.5654C8.58848 26.9857 5.72554 27.6959 2.50473 28.0509C2.14686 28.0509 2.14686 28.7611 2.50473 28.7611Z" fill="black"/>
<path d="M2.50484 32.3115C5.72565 31.6013 8.5886 30.8912 11.4515 29.826C12.1673 29.4709 11.8094 28.7607 11.0937 28.7607C8.23073 29.826 5.36778 30.5361 2.14697 31.2462C1.43124 31.6013 1.7891 32.3115 2.50484 32.3115Z" fill="black"/>
<path d="M3.93648 34.7971C7.15729 33.3768 10.736 32.3116 13.9568 31.2464C14.6725 31.2464 14.3147 30.1812 13.5989 30.1812C10.3781 31.2464 6.79943 32.3116 3.57861 33.7319C2.86288 34.0869 3.22075 35.1522 3.93648 34.7971Z" fill="black"/>
<path d="M2.50484 37.2827C5.00992 36.2174 7.87286 35.5073 10.7358 34.7972C11.4515 34.7972 11.0937 33.7319 10.3779 33.7319C7.51499 34.4421 4.65205 35.1522 2.14697 36.2174C1.43124 36.5725 1.7891 37.2827 2.50484 37.2827Z" fill="black"/>
<path d="M1.07358 39.4132C2.14718 37.9929 3.93652 37.6379 5.36799 37.2828C7.15733 36.9277 8.94667 36.5726 10.736 36.2176C11.4517 36.2176 11.0939 35.1523 10.3781 35.1523C8.58881 35.5074 6.4416 35.8625 4.65226 36.2176C2.86292 36.5726 1.07358 37.2828 -2.68444e-05 38.7031C-0.357895 39.0581 0.357841 40.1234 1.07358 39.4132Z" fill="black"/>
<path d="M1.78934 40.1234C4.29442 38.348 7.15736 37.6379 10.0203 36.5726C10.736 36.5726 10.3782 35.5074 9.66244 35.8625C6.7995 36.9277 3.57868 37.6379 1.07361 39.4132C0.71574 39.7683 1.43148 40.4784 1.78934 40.1234Z" fill="black"/>
<path d="M1.07348 43.6741C6.08364 42.6089 10.7359 41.1886 15.3882 39.4133C15.7461 39.4133 15.7461 38.7031 15.0303 38.7031C10.3781 40.1234 5.3679 41.5437 0.715617 42.964C0.357749 42.964 0.715617 43.6741 1.07348 43.6741Z" fill="black"/>
<path d="M-0.000122018 45.8045C-0.35799 46.5147 0.357746 46.8698 0.715614 46.8698C1.43135 46.8698 2.14709 46.5147 2.86282 46.5147C5.01003 46.1596 7.15724 45.4495 9.66231 44.7393C10.378 44.3843 11.4517 44.3842 12.1674 44.0292C13.241 43.6741 12.8831 42.6089 12.1674 42.6089C8.94658 43.6741 5.3679 44.7393 1.78922 45.4495C1.43135 45.4495 1.07348 45.4495 0.715614 45.4495C0.715614 45.4495 1.07348 45.8045 0.715614 46.1596C1.43135 45.8045 0.357746 45.0944 -0.000122018 45.8045Z" fill="black"/>
<path d="M3.22088 49.355C5.72595 47.9347 8.23103 47.2246 10.7361 46.5144C11.4518 46.1594 11.094 45.4492 10.3782 45.4492C7.87316 46.1594 5.01022 46.8695 2.50514 48.2898C2.14727 48.6449 2.50514 49.355 3.22088 49.355Z" fill="black"/>
<path d="M3.22066 51.4854C5.72574 51.1303 8.58868 49.71 10.7359 48.6448C11.4516 48.2897 10.7359 47.5796 10.378 47.5796C7.87295 48.9999 5.36787 50.0651 2.86279 50.7752C2.14706 50.7752 2.50493 51.8405 3.22066 51.4854Z" fill="black"/>
<path d="M5.36785 52.906C7.87292 51.4857 10.378 50.4205 12.8831 49.3553C13.5988 49.0002 13.2409 48.29 12.5252 48.29C9.66226 49.0002 7.15719 50.4205 4.65211 51.8408C4.29424 52.5509 4.65211 53.2611 5.36785 52.906Z" fill="black"/>
<path d="M5.72592 53.6158C8.231 52.9056 10.3782 51.8404 12.5254 50.7752C13.2412 50.4201 12.5254 49.71 12.1675 49.71C10.0203 50.7752 7.87313 51.8404 5.72592 52.5505C4.65232 52.9056 5.01019 53.9708 5.72592 53.6158Z" fill="black"/>
<path d="M3.93658 59.2971C8.23099 57.1667 12.5254 55.3913 16.462 52.5507C16.8198 52.1957 16.462 51.1305 16.1041 51.4855C12.1675 54.3261 7.87312 56.1015 3.57871 58.2319C2.86297 58.587 3.57871 59.2971 3.93658 59.2971Z" fill="black"/>
<path d="M6.44136 57.1665C8.58857 56.1013 10.7358 55.3912 12.5251 54.326C13.2409 53.9709 12.5251 53.2607 12.1673 53.2607C10.02 54.326 7.87284 55.0361 6.0835 56.1013C5.36776 56.4564 5.72563 57.5216 6.44136 57.1665Z" fill="black"/>
<path d="M7.1571 59.6523C8.58857 58.5871 10.3779 57.8769 11.8094 57.1668C12.1673 57.1668 12.1673 56.8117 12.1673 56.4566C12.1673 56.1016 11.8094 56.1016 11.4515 56.1016C9.66218 56.8117 7.87284 57.5219 6.44136 58.5871C6.0835 58.5871 6.0835 58.9421 6.0835 59.2972C6.44136 59.6523 6.79923 59.6523 7.1571 59.6523Z" fill="black"/>
<path d="M6.44136 65.3333C7.87284 64.9782 8.94644 64.268 10.02 63.5579C10.3779 63.5579 10.3779 63.2028 10.3779 62.8477C10.3779 62.4927 10.02 62.4927 9.66218 62.4927C8.94644 62.8477 8.58857 63.2028 7.87284 63.5579C7.51497 63.913 7.51497 63.913 7.1571 64.268C7.1571 64.268 7.1571 64.268 6.79923 64.268H6.44136C6.0835 64.268 6.0835 64.6231 6.0835 64.9782C6.0835 65.3333 6.44136 65.6883 6.44136 65.3333Z" fill="black"/>
<path d="M5.36812 68.174C9.30467 67.4638 12.8834 66.0435 16.462 64.9783C17.1778 64.6232 16.8199 63.9131 16.1042 63.9131C12.5255 64.9783 8.9468 66.3986 5.01025 67.1087C4.29452 67.4638 4.65239 68.174 5.36812 68.174Z" fill="black"/>
<path d="M5.01021 69.9491C7.15742 69.2389 8.94676 68.5288 11.094 67.8186C11.8097 67.4636 11.4518 66.7534 10.7361 66.7534C8.58889 67.4636 6.79955 68.1737 4.65234 68.8839C3.93661 69.2389 4.29448 70.3041 5.01021 69.9491Z" fill="black"/>
<path d="M6.08345 71.3695C8.58853 70.6593 11.0936 69.9492 13.2408 69.239C13.9566 68.884 13.5987 68.1738 12.8829 68.1738C10.3779 68.884 7.87279 69.5941 5.72559 70.3043C5.00985 70.6593 5.36772 71.3695 6.08345 71.3695Z" fill="black"/>
<path d="M6.44165 73.1448C8.58886 72.4346 10.7361 71.7245 12.5254 71.3694C12.8833 71.3694 12.8833 71.0143 12.8833 70.6593C12.8833 70.3042 12.5254 70.3042 12.1675 70.3042C10.0203 70.6593 7.87312 71.3694 6.08378 72.0796C5.72591 72.0796 6.08378 73.1448 6.44165 73.1448Z" fill="black"/>
<path d="M6.44136 75.2755C10.3779 74.2103 14.3145 73.1451 18.251 72.0799C18.9667 72.0799 18.6089 71.0146 17.8931 71.0146C13.9566 72.0799 10.02 73.1451 6.0835 74.2103C5.36776 74.5654 5.72563 75.6306 6.44136 75.2755Z" fill="black"/>
<path d="M9.30456 76.3407C11.4518 75.2755 13.599 74.5653 16.1041 74.2102C16.4619 74.2102 16.4619 73.8552 16.4619 73.5001C16.4619 73.145 16.1041 73.145 15.7462 73.145C13.2411 73.5001 11.0939 74.2102 8.58883 75.2755C8.23096 75.2755 8.23096 75.6305 8.23096 75.9856C8.58883 76.3407 8.94669 76.6957 9.30456 76.3407Z" fill="black"/>
<path d="M10.0204 78.1158C11.4519 77.7607 12.5255 77.0506 13.957 76.6955C14.3148 76.6955 14.3148 76.3404 14.3148 76.3404C14.3148 75.9854 13.957 75.9854 13.5991 75.9854C12.1676 76.3404 11.094 77.0506 9.66256 77.4056C9.30469 77.4056 9.30469 77.7607 9.30469 78.1158C9.66256 78.1158 9.66256 78.1158 10.0204 78.1158Z" fill="black"/>
<path d="M7.87301 79.8912C10.7359 78.826 13.9568 78.1159 16.8197 76.6956C17.5354 76.3405 16.8197 75.6304 16.4618 75.6304C13.5989 77.0507 10.3781 77.7608 7.51514 78.826C6.7994 79.1811 7.15727 80.2463 7.87301 79.8912Z" fill="black"/>
<path d="M8.94646 80.9563C10.0201 80.6012 11.0937 80.2462 12.1673 80.2462C13.2409 79.8911 14.6723 79.8911 15.746 79.536C16.4617 79.1809 16.1038 78.1157 15.3881 78.1157C14.3145 78.4708 12.883 78.8259 11.4515 78.8259C10.3779 79.1809 9.30433 79.1809 8.23073 79.8911C7.87286 80.2462 8.23073 81.3114 8.94646 80.9563Z" fill="black"/>
<path d="M5.72575 83.797C8.58869 82.7318 11.4516 81.6666 13.9567 80.6014C14.6724 80.2463 14.3146 79.5361 13.5988 79.5361C10.7359 80.6014 7.87296 81.6666 5.36788 82.7318C5.01001 83.0869 5.01001 83.797 5.72575 83.797Z" fill="black"/>
<path d="M9.30465 83.7969C10.7361 83.0868 12.1676 83.0868 13.9569 82.3766C15.7463 82.0216 17.5356 81.3114 19.6828 80.9563C20.3986 80.6013 20.0407 79.8911 19.325 79.8911C17.5356 80.6013 15.7463 80.9563 13.5991 81.3114C12.1676 81.6665 10.3782 82.0215 8.94678 82.7317C8.23104 83.0868 8.58891 83.7969 9.30465 83.7969Z" fill="black"/>
<path d="M8.94646 87.3477C11.8094 85.9274 14.6723 85.2173 17.8932 84.5071C18.6089 84.5071 18.251 83.4419 17.5353 83.4419C14.3145 84.152 11.0937 84.8622 8.23073 86.2825C7.87286 86.9926 8.23073 87.7028 8.94646 87.3477Z" fill="black"/>
<path d="M7.51532 86.6377C9.30466 86.2826 11.094 85.9276 12.8833 85.2174C13.5991 84.8623 14.6727 84.5073 15.3884 84.1522C16.1042 83.7971 16.462 83.442 16.8199 82.7319C17.1778 82.0218 16.1041 81.6667 15.7463 82.3768C15.3884 82.7319 15.0305 83.087 14.6727 83.4421C13.9569 83.7971 13.2412 84.1522 12.5255 84.5073C10.7361 84.8623 9.30466 85.2174 7.51532 85.5725C6.79958 85.5725 6.79958 86.6377 7.51532 86.6377Z" fill="black"/>
<path d="M8.23075 89.1234C9.30435 87.7031 11.4516 87.348 13.2409 86.9929C15.0302 86.6378 17.1775 86.2828 18.9668 85.2176C19.6825 84.8625 18.9668 84.1523 18.6089 84.1523C16.8196 84.8625 14.6724 85.2176 12.5252 85.9277C10.7358 86.2828 8.94649 86.9929 7.51501 88.0581C7.15715 89.1234 7.87288 89.8335 8.23075 89.1234Z" fill="black"/>
<path d="M8.94673 91.6089C11.0939 89.8336 13.599 89.1234 16.1041 88.7683C16.8198 88.7683 16.462 87.7031 15.7462 87.7031C12.8833 88.4133 10.3782 89.1234 8.231 90.8988C7.51526 91.2538 8.58887 91.964 8.94673 91.6089Z" fill="black"/>
<path d="M8.23075 93.0292C7.87289 93.3842 8.23075 94.0944 8.58862 94.0944C8.94649 94.0944 9.66223 94.0944 10.378 93.7393C11.8094 93.3842 13.5988 92.6741 15.0302 91.9639C15.746 91.6089 16.4617 91.2538 16.8196 90.8987C17.5353 90.5436 16.8196 89.8335 16.4617 89.8335C15.3881 90.5436 14.3145 90.8987 13.2409 91.2538C12.1673 91.6089 10.7358 92.319 9.66223 92.319V92.6741C9.30436 93.0292 8.23075 92.319 8.23075 93.0292Z" fill="black"/>
<path d="M8.58854 97.6449C11.0936 96.9347 13.5987 96.2246 16.1038 95.5144C16.8195 95.1594 16.4616 94.4492 15.7459 94.4492C13.2408 95.1594 10.7357 95.8695 8.23067 96.5797C7.8728 96.5797 7.8728 97.6449 8.58854 97.6449Z" fill="black"/>
<path d="M7.87289 98.3551C8.23076 98.3551 8.58863 98.3551 8.9465 98.3551C9.66223 98.3551 10.0201 98.0001 10.7358 98.0001C11.8094 97.645 13.2409 97.2899 14.3145 96.9348C14.6724 96.9348 14.6724 96.5798 14.6724 96.2247C14.6724 95.8696 14.3145 95.8696 13.9567 95.8696C12.883 96.2247 11.8094 96.5798 10.7358 96.9348C10.378 96.9348 9.66223 97.2899 9.30436 97.2899H8.9465C8.9465 97.2899 8.9465 97.2899 8.58863 97.2899C8.23076 97.2899 7.87289 97.2899 7.87289 97.645C7.51503 98.0001 7.51503 98.3551 7.87289 98.3551Z" fill="black"/>
<path d="M8.94669 101.551C11.4518 100.486 13.9568 99.4205 16.4619 98.3553C16.8198 98.3553 16.8198 98.0002 16.8198 97.6451C16.8198 97.29 16.4619 97.29 16.1041 97.29C13.599 98.3553 11.0939 99.4205 8.58883 100.486C8.23096 100.486 8.23096 100.841 8.23096 101.196C8.23096 101.551 8.58883 101.551 8.94669 101.551Z" fill="black"/>
<path d="M8.23065 103.326C9.66212 103.326 10.7357 102.616 11.8093 102.261C13.2408 101.551 14.6723 100.841 16.1037 100.486C16.8195 100.486 16.4616 99.4204 15.7459 99.4204C14.3144 99.7755 12.8829 100.486 11.4515 101.196C10.7357 101.551 10.02 101.906 9.66212 101.906C9.30425 101.906 8.58852 102.261 8.23065 102.261C7.51491 102.261 7.51491 103.326 8.23065 103.326Z" fill="black"/>
<path d="M9.66244 102.971C9.30458 103.326 9.30458 104.036 9.66244 104.391C10.0203 104.746 10.3782 104.746 10.736 104.746C11.8097 104.746 12.8833 104.036 13.9569 104.036C14.3147 104.036 14.3147 104.036 14.6726 103.681H15.0305C15.7462 103.681 15.7462 102.616 15.0305 102.616C14.6726 102.616 14.3147 102.616 13.9569 102.971C13.599 102.971 12.8833 103.326 12.5254 103.326C12.1675 103.326 11.4518 103.681 11.0939 103.681H10.736C10.736 103.681 10.736 103.681 10.3782 103.681C10.3782 103.681 10.3782 103.681 10.3782 104.036C10.3782 103.681 10.3782 103.326 10.0203 103.326C10.0203 102.616 9.66244 102.616 9.66244 102.971Z" fill="black"/>
<path d="M7.51534 107.232C7.15747 107.587 7.15747 108.297 7.87321 108.297C8.58894 108.297 8.94681 108.297 9.66255 107.942C11.094 107.587 12.8834 106.522 14.3148 105.812C15.0306 105.457 15.7463 105.101 16.462 104.746C17.1778 104.391 16.462 103.681 16.1042 103.681C15.0306 104.391 13.5991 105.101 12.5255 105.457C11.4519 106.167 10.0204 106.877 8.58895 107.232C8.58895 107.232 8.58894 107.232 8.23108 107.232C8.23108 107.232 8.23108 107.232 8.58895 107.587C8.58895 106.877 7.87321 106.522 7.51534 107.232Z" fill="black"/>
<path d="M9.30444 108.297C8.94657 108.652 8.58871 109.007 8.94657 109.717C9.30444 110.072 9.66231 110.072 10.0202 110.072C11.0938 110.072 11.8095 109.717 12.8831 109.362C13.241 109.362 13.5989 109.007 13.9567 109.007C14.3146 108.652 14.3146 108.297 14.3146 108.297C14.3146 107.942 13.9567 107.942 13.5989 107.942H13.241C12.8831 107.942 12.5253 108.297 12.1674 108.297C11.8095 108.297 11.4516 108.652 10.7359 108.652C10.7359 108.652 10.7359 108.652 10.378 108.652C10.378 108.297 10.7359 108.297 10.378 107.942C9.66231 108.297 9.30444 108.297 9.30444 108.297Z" fill="black"/>
<path d="M9.66231 112.558C10.378 112.913 11.4517 112.558 12.1674 112.558C13.241 112.203 13.9567 111.848 15.0303 111.493C15.3882 111.493 15.3882 111.138 15.3882 110.783C15.3882 110.428 15.0303 110.428 14.6725 110.428C13.9567 110.783 13.241 111.138 12.1674 111.138C11.8095 111.138 11.8095 111.138 11.4517 111.138H11.0938H10.7359C10.378 111.138 10.0202 111.138 10.0202 111.493C9.30445 112.203 9.30445 112.558 9.66231 112.558Z" fill="black"/>
<path d="M11.0937 113.978C13.2409 113.623 15.0303 112.558 17.1775 112.203C17.5353 112.203 17.5353 111.848 17.5353 111.493C17.5353 111.138 17.1775 111.138 16.8196 111.138C14.6724 111.493 12.5252 112.558 10.7358 112.913C10.0201 113.268 10.378 114.333 11.0937 113.978Z" fill="black"/>
<path d="M11.4514 114.688C12.8829 114.333 14.3144 113.623 15.388 112.913C15.7458 112.913 15.7458 112.558 15.7458 112.203C15.7458 111.848 15.388 111.848 15.0301 111.848C13.9565 112.558 12.525 113.268 11.4514 113.623C11.0935 113.623 11.0935 113.978 11.0935 114.333C10.7357 114.688 11.0935 114.688 11.4514 114.688Z" fill="black"/>
<path d="M6.44128 63.2029C8.23062 62.8478 9.66209 62.1377 11.4514 61.4275C11.8093 61.4275 11.8093 61.0725 11.8093 60.7174C11.4514 60.3623 11.0936 60.3623 10.7357 60.3623C9.30422 61.0724 7.51488 61.7826 5.72554 62.1377C5.36768 62.1377 5.36768 62.4927 5.36768 62.8478C5.72554 62.8478 6.08341 63.2029 6.44128 63.2029Z" fill="black"/>
<path d="M6.08345 64.6233C6.44132 64.6233 6.79919 64.6233 7.15706 64.2683H7.51493H7.87279C8.23066 64.2683 8.23066 63.9132 8.23066 63.9132C8.23066 63.5581 7.87279 63.5581 7.87279 63.5581C7.51493 63.5581 7.15706 63.5581 6.79919 63.9132H6.44132H6.08345C5.72559 63.9132 5.72559 64.2683 5.72559 64.2683C5.72559 64.6233 5.72559 64.6233 6.08345 64.6233Z" fill="black"/>
<path d="M10.3779 131.377C12.883 130.667 15.388 130.311 17.8931 129.601C18.6089 129.601 18.251 128.536 17.5352 128.536C15.0302 129.246 12.5251 129.601 10.02 130.311C9.30428 130.311 9.66215 131.377 10.3779 131.377Z" fill="black"/>
<path d="M9.66228 133.862C12.1674 132.442 15.0303 132.087 17.8932 131.377C18.609 131.377 18.2511 130.312 17.5354 130.312C14.6724 131.022 11.8095 131.732 8.94655 133.152C8.58868 133.152 8.94655 134.217 9.66228 133.862Z" fill="black"/>
<path d="M8.58883 135.638C11.4518 134.217 14.6726 133.507 17.8934 132.797C18.6091 132.797 18.2513 131.732 17.5355 131.732C14.3147 132.797 11.0939 133.152 8.23096 134.928C7.51522 135.283 7.87309 135.993 8.58883 135.638Z" fill="black"/>
<path d="M8.58883 137.768C12.1675 136.703 15.7462 135.283 19.3249 134.573C20.0406 134.573 19.6827 133.507 18.967 133.507C15.3883 134.573 11.8096 135.993 8.23096 136.703C7.51522 137.058 7.87309 138.123 8.58883 137.768Z" fill="black"/>
<path d="M10.02 139.188C12.5251 138.833 15.0301 137.768 17.5352 136.703C18.2509 136.348 17.8931 135.638 17.1773 135.638C14.6723 136.348 12.1672 137.413 9.66211 138.123C8.94637 138.478 9.30424 139.188 10.02 139.188Z" fill="black"/>
<path d="M11.8097 140.254C15.0306 138.833 18.6092 138.123 21.83 137.058C22.5458 136.703 21.83 135.993 21.4722 135.993C17.8935 137.413 14.3148 138.123 11.094 139.543C10.7361 139.543 11.094 140.609 11.8097 140.254Z" fill="black"/>
<path d="M12.5254 139.899C12.1675 139.899 12.1675 139.899 11.8097 139.899C11.8097 140.254 11.8097 140.609 11.8097 140.964C15.3884 140.254 18.967 138.833 22.1878 137.413C22.9036 137.058 22.5457 135.993 21.83 136.348C18.6092 137.768 15.0305 139.188 11.4518 139.899C10.7361 139.899 11.0939 140.964 11.4518 140.964C11.8097 140.964 11.8097 140.964 12.1675 140.964C12.8833 140.964 12.8833 139.899 12.5254 139.899Z" fill="black"/>
<path d="M12.883 142.739C14.3144 142.739 15.7459 142.384 17.1774 141.674C18.6089 141.319 20.0403 140.609 21.4718 139.899C22.1875 139.544 21.8297 138.833 21.1139 138.833C19.6825 139.189 18.251 139.899 16.8195 140.254C15.388 140.609 13.9566 141.319 12.5251 141.319C12.1672 141.674 12.1672 142.739 12.883 142.739Z" fill="black"/>
<path d="M14.6725 144.159C17.8933 142.739 21.472 142.384 24.335 140.609C25.0507 140.254 24.335 139.543 23.9771 139.543C21.1141 141.319 17.5355 141.674 14.3147 143.094C13.9568 143.449 13.9568 144.514 14.6725 144.159Z" fill="black"/>
<path d="M15.3884 144.515C17.5356 143.804 19.6828 143.094 21.83 142.384C22.5458 142.029 22.1879 141.319 21.4722 141.319C19.325 142.029 17.1778 142.739 15.0306 143.449C14.6727 143.804 15.0306 144.87 15.3884 144.515Z" fill="black"/>
<path d="M17.5353 144.515C18.9668 144.515 20.0404 144.159 21.4719 143.804C22.9034 143.449 23.977 142.739 25.4084 142.384C26.1242 142.029 25.7663 141.319 25.0506 141.319C23.6191 141.674 22.5455 142.384 21.114 142.739C20.0404 143.094 18.6089 143.449 17.5353 143.449C16.8196 143.804 16.8196 144.515 17.5353 144.515Z" fill="black"/>
<path d="M10.7359 140.964C13.241 139.189 16.4618 138.834 19.3247 137.768C20.0405 137.413 19.3247 136.703 18.9669 136.703C16.1039 137.768 12.8831 138.123 10.378 139.899C9.66229 140.254 10.378 141.319 10.7359 140.964Z" fill="black"/>
<path d="M10.02 138.123C10.7358 137.413 11.8094 136.703 12.883 136.348C13.9566 135.993 15.0302 135.638 16.4616 135.282C16.8195 135.282 16.8195 134.927 16.8195 134.572C16.8195 134.217 16.4616 134.217 16.1038 134.217C15.0302 134.572 13.5987 134.927 12.5251 135.282C11.4515 135.638 10.02 136.348 9.30428 137.058C8.58854 138.123 9.30428 138.833 10.02 138.123Z" fill="black"/>
<path d="M9.66256 135.993C11.8098 135.283 14.3148 134.573 16.462 134.218C17.1778 133.862 16.8199 133.152 16.1042 133.152C13.957 133.862 11.4519 134.573 9.30469 134.928C8.58895 135.283 8.94682 135.993 9.66256 135.993Z" fill="black"/>
<path d="M11.4516 133.862C13.241 133.507 15.0303 132.797 16.8196 132.442C17.5354 132.087 17.1775 131.377 16.4618 131.377C14.6724 131.732 12.8831 132.442 11.0938 132.797C10.378 133.152 10.7359 134.218 11.4516 133.862Z" fill="black"/>
<path d="M11.4514 131.377C12.8829 131.377 13.9565 131.022 15.388 131.022C15.7458 131.022 15.7458 130.667 15.7458 130.667C15.7458 130.312 15.388 129.957 15.388 130.312C13.9565 130.312 12.8829 130.667 11.4514 130.667C11.0935 130.667 11.0935 131.022 11.0935 131.022C10.7357 131.377 11.0935 131.377 11.4514 131.377Z" fill="black"/>
<path d="M10.7358 140.254C12.883 139.899 14.6723 139.189 16.8196 138.123C17.5353 137.768 16.8196 137.058 16.4617 137.058C14.6723 138.123 12.883 138.833 10.7358 138.833C10.3779 138.833 10.3779 139.189 10.3779 139.544C10.3779 140.254 10.3779 140.254 10.7358 140.254Z" fill="black"/>
<path d="M11.4516 142.384C12.1673 142.029 13.2409 141.674 14.3145 141.319C15.3881 140.964 16.4617 140.964 17.5353 140.609C18.2511 140.254 17.8932 139.543 17.1775 139.543C15.0303 140.254 12.883 140.254 11.0937 141.674C10.7358 141.674 10.7358 142.029 10.7358 142.384C10.7358 142.384 11.0937 142.739 11.4516 142.384Z" fill="black"/>
<path d="M76.2258 8.87674C79.8044 9.23181 83.3831 9.23181 86.9618 9.23181C87.6775 9.23181 87.6775 8.1666 86.9618 8.1666C83.3831 8.1666 79.8044 8.1666 76.2258 7.81152C75.51 7.81152 75.51 8.87674 76.2258 8.87674Z" fill="black"/>
<path d="M73.0051 12.0724C77.2995 10.6521 81.594 11.7173 85.8884 11.3623C86.6041 11.3623 86.6041 10.297 85.8884 10.297C81.594 10.6521 76.9417 9.5869 72.6473 11.0072C72.2894 11.3623 72.6473 12.4275 73.0051 12.0724Z" fill="black"/>
<path d="M70.1418 14.5581C74.4362 14.203 78.7306 13.8479 83.025 13.8479C83.7407 13.8479 83.7407 12.7827 83.025 12.7827C78.7306 12.7827 74.0783 13.1378 69.7839 13.8479C69.426 13.8479 69.426 14.9131 70.1418 14.5581Z" fill="black"/>
<path d="M67.9946 16.6882C73.7205 15.9781 79.0885 15.2679 84.8144 14.9129C85.5301 14.9129 85.5301 13.8477 84.8144 13.8477C79.0885 14.2027 73.3626 14.9129 67.6367 15.623C66.921 15.623 67.2789 16.6882 67.9946 16.6882Z" fill="black"/>
<path d="M65.4899 18.8191C70.5001 18.8191 75.1524 17.7539 80.1625 17.0437C80.8783 17.0437 80.5204 15.9785 79.8046 15.9785C75.1524 17.0437 70.1422 17.7539 65.4899 17.7539C64.7742 18.109 64.7742 18.8191 65.4899 18.8191Z" fill="black"/>
<path d="M64.4162 21.6596C70.1421 20.5944 76.2258 20.2393 82.3096 19.1741C83.0253 19.1741 82.6674 18.1089 81.9517 18.1089C76.2258 19.1741 70.1421 19.8842 64.0583 20.5944C63.7004 20.5944 63.7004 21.6596 64.4162 21.6596Z" fill="black"/>
<path d="M63.7005 23.7899C68.7107 22.7247 74.0787 22.0145 79.4467 21.6595C80.1625 21.6595 80.1625 20.5942 79.4467 20.5942C74.0787 20.9493 68.7107 21.6595 63.7005 22.7247C62.6269 23.0797 62.9848 23.7899 63.7005 23.7899Z" fill="black"/>
<path d="M62.9845 25.5655C68.3526 24.1452 73.7206 23.7901 79.0886 22.7249C79.8043 22.7249 79.4465 21.6597 78.7307 21.6597C73.3627 22.7249 67.9947 23.08 62.6267 24.5002C62.2688 24.8553 62.2688 25.9205 62.9845 25.5655Z" fill="black"/>
<path d="M63.3427 26.9857C67.995 25.9205 72.6473 25.5654 77.2996 24.8553C78.0153 24.8553 77.6574 23.79 76.9417 23.79C72.2894 24.5002 67.6371 24.8553 62.9849 25.5654C62.2691 25.9205 62.627 26.9857 63.3427 26.9857Z" fill="black"/>
<path d="M62.6266 28.761C67.6368 28.4059 72.647 27.6958 77.6571 26.9856C78.3728 26.9856 78.3728 25.9204 77.6571 25.9204C72.647 26.6306 67.6368 27.3407 62.6266 27.6958C61.9109 28.0508 61.9109 29.1161 62.6266 28.761Z" fill="black"/>
<path d="M62.2689 29.1159C61.911 29.1159 61.5531 29.471 60.8374 29.471C60.1217 29.826 60.4795 30.5362 61.1953 30.5362C67.9948 29.471 74.7943 28.7608 81.2359 27.6956C81.9516 27.6956 81.5938 26.6304 80.878 26.6304C74.4364 28.0507 67.6369 28.4057 60.8374 29.471C60.8374 29.826 61.1953 30.1811 61.1953 30.5362C61.5531 30.5362 61.911 30.1811 62.6267 30.1811C62.9846 30.1811 62.9846 29.1159 62.2689 29.1159Z" fill="black"/>
<path d="M62.9845 31.2463C67.279 30.8913 71.5734 30.1811 75.8678 29.471C76.5835 29.471 76.2257 28.4058 75.5099 28.4058C71.2155 29.1159 66.9211 29.8261 62.6267 30.1811C62.2688 30.5362 62.2688 31.2463 62.9845 31.2463Z" fill="black"/>
<path d="M59.7638 33.732C65.1319 33.0218 70.4999 31.6015 76.2258 30.8914C76.9415 30.8914 76.9415 29.8262 76.2258 29.8262C70.4999 30.1812 65.1319 31.6015 59.406 32.6668C59.0481 32.6668 59.0481 33.732 59.7638 33.732Z" fill="black"/>
<path d="M61.5532 35.5073C66.2055 33.7319 71.2156 33.3768 75.8679 33.0218C76.5836 33.0218 76.5836 31.9565 75.8679 31.9565C70.8577 32.3116 65.8476 32.6667 61.1953 34.442C60.4796 34.442 60.8374 35.5073 61.5532 35.5073Z" fill="black"/>
<path d="M60.4795 37.2828C65.8476 34.7973 71.5735 35.1524 77.2993 34.0872C78.0151 34.0872 77.6572 33.022 76.9415 33.022C71.2156 34.0872 65.4897 34.0872 60.1217 36.5727C59.4059 36.5727 60.1217 37.6379 60.4795 37.2828Z" fill="black"/>
<path d="M61.9108 37.9927C65.1316 36.5724 69.0682 35.8623 72.6469 35.1521C73.3626 35.1521 73.0047 34.0869 72.289 34.0869C68.7103 34.7971 64.7738 35.5072 61.1951 36.9275C60.8372 37.2826 61.1951 38.3478 61.9108 37.9927Z" fill="black"/>
<path d="M59.406 40.1233C64.774 39.058 69.7842 37.2827 74.7943 36.5725C75.5101 36.5725 75.1522 35.5073 74.4365 35.5073C69.0684 36.2175 64.0583 37.9928 59.0481 39.058C58.6903 39.058 59.0481 40.1233 59.406 40.1233Z" fill="black"/>
<path d="M60.8374 41.1884C65.4896 39.7681 70.4998 39.058 75.1521 38.7029C75.8678 38.7029 75.8678 37.6377 75.1521 37.6377C70.1419 37.9928 65.1318 38.7029 60.4795 40.1232C59.7638 40.4783 60.1216 41.5435 60.8374 41.1884Z" fill="black"/>
<path d="M60.4795 43.674C65.4896 42.2537 70.8576 41.5435 75.8678 40.4783C76.5835 40.4783 76.2256 39.4131 75.5099 39.4131C70.4998 40.4783 65.1317 41.1884 60.1216 42.6087C59.4058 42.9638 59.7637 44.029 60.4795 43.674Z" fill="black"/>
<path d="M59.4059 45.0943C64.0582 43.674 69.0684 43.3189 73.7206 42.2537C74.4364 42.2537 74.0785 41.1885 73.3628 41.1885C68.7105 42.2537 63.7003 42.6088 59.0481 44.0291C58.6902 44.3841 58.6902 45.0943 59.4059 45.0943Z" fill="black"/>
<path d="M60.8374 46.8694C63.7003 46.5143 66.5632 45.8042 69.4262 45.094C70.1419 45.094 69.7841 44.0288 69.0683 44.0288C66.2054 44.3839 63.3424 45.4491 60.4795 45.8042C59.7638 45.8042 60.1216 46.8694 60.8374 46.8694Z" fill="black"/>
<path d="M60.1218 49.0002C63.3426 48.6452 66.2055 47.58 69.4263 47.2249C70.1421 47.2249 69.7842 46.1597 69.0685 46.1597C66.2055 46.5147 62.9847 47.58 60.1218 47.935C59.406 47.935 59.406 49.0002 60.1218 49.0002Z" fill="black"/>
<path d="M62.6266 49.7102C65.8475 49.3551 68.7104 48.645 71.9312 47.9348C72.647 47.9348 72.2891 46.8696 71.5733 46.8696C68.7104 47.2247 65.4896 48.2899 62.6266 48.645C61.9109 48.645 61.9109 49.7102 62.6266 49.7102Z" fill="black"/>
<path d="M88.7509 61.0722C90.8981 60.7172 93.0454 60.3621 95.1926 60.3621C95.9083 60.3621 95.9083 59.2969 95.1926 59.2969C93.0454 59.2969 90.5403 59.6519 88.3931 60.3621C87.6773 60.3621 88.0352 61.4273 88.7509 61.0722Z" fill="black"/>
<path d="M88.7509 64.6232C93.0453 63.9131 97.3398 63.558 101.992 63.2029C102.708 63.2029 102.708 62.1377 101.992 62.1377C97.3398 62.1377 93.0454 62.8478 88.3931 63.558C87.6773 63.558 88.0352 64.6232 88.7509 64.6232Z" fill="black"/>
<path d="M88.3931 66.0433C89.1089 66.3984 89.8246 66.3984 90.5404 66.3984C91.614 66.3984 92.3297 66.3984 93.4033 66.3984C95.1926 66.0433 96.982 66.0433 98.7713 65.6883C99.4871 65.6883 99.4871 64.623 98.7713 64.623C96.982 64.623 95.1926 64.9781 93.7612 65.3332C92.6876 65.3332 91.9718 65.3332 90.8982 65.3332C90.1825 65.3332 89.4667 65.3332 89.1089 64.9781C88.3931 64.9781 87.6774 65.6883 88.3931 66.0433Z" fill="black"/>
<path d="M91.2563 68.529H91.6142H91.972C91.972 68.529 91.972 68.529 91.972 68.1739V67.8188H91.6142H91.2563H90.8984C90.8984 67.8188 90.8984 67.8188 90.8984 68.1739V68.529C91.2563 68.1739 91.2563 68.529 91.2563 68.529Z" fill="black"/>
<path d="M95.5507 68.1738C96.9822 67.8187 98.4136 67.8187 99.8451 67.4637C100.203 67.4637 100.203 67.1086 100.203 66.7535C100.203 66.3984 99.8451 66.3984 99.4872 66.3984C98.0558 66.7535 96.6243 66.7535 95.1928 67.1086C94.835 67.1086 94.835 67.4637 94.835 67.8187C94.835 68.1738 95.1928 68.1738 95.5507 68.1738Z" fill="black"/>
<path d="M88.7509 69.9495C92.6875 68.8843 96.9819 68.5292 100.918 68.1741C101.634 68.1741 101.634 67.1089 100.918 67.1089C96.624 67.464 92.6875 68.1741 88.3931 68.8842C87.6773 69.2393 88.0352 70.3045 88.7509 69.9495Z" fill="black"/>
<path d="M91.256 69.5943C91.6139 69.5943 92.3296 69.5943 92.6875 69.5943C93.7611 69.5943 94.4768 69.2392 95.5504 69.2392C97.3398 68.8842 99.1291 68.8842 100.561 68.5291C101.276 68.5291 100.918 67.4639 100.203 67.4639C98.4134 67.8189 96.9819 67.8189 95.1926 68.174C94.4768 68.174 93.4032 68.5291 92.6875 68.5291C92.3296 68.5291 91.9717 68.5291 91.6139 68.5291H91.256C90.8981 68.5291 90.5403 69.5943 91.256 69.5943Z" fill="black"/>
<path d="M88.3932 68.5289C91.2562 68.1738 94.1191 68.1738 96.9821 67.4637C97.6978 67.4637 97.3399 66.3984 96.6242 66.3984C93.7613 66.7535 90.8983 67.1086 88.3932 67.4637C87.6775 67.4637 87.6775 68.5289 88.3932 68.5289Z" fill="black"/>
<path d="M89.8247 67.8189C91.2561 67.4638 92.6876 67.1088 94.1191 67.1088C95.5505 67.1088 96.982 66.7537 98.7714 66.7537C99.4871 66.7537 99.1292 65.6885 98.4135 65.6885C96.982 66.0435 95.5506 66.0436 93.7612 66.0436C92.3297 66.0436 90.8983 66.3986 89.4668 66.7537C88.7511 67.1088 89.1089 67.8189 89.8247 67.8189Z" fill="black"/>
<path d="M89.8249 64.623C92.6878 64.2679 95.5507 64.2679 98.4137 63.9129C99.1294 63.9129 99.1294 62.8477 98.4137 62.8477C95.5507 62.8477 92.6878 62.8477 89.8249 63.5578C89.1091 63.9129 89.467 64.9781 89.8249 64.623Z" fill="black"/>
<path d="M88.7512 62.1376C90.8984 61.7825 93.0456 62.1376 95.1928 61.7825C95.9086 61.7825 95.9086 60.7173 95.1928 60.7173C93.0456 60.7173 90.8984 60.7173 88.7512 61.0724C88.3933 61.0724 88.3934 61.4274 88.3934 61.4274C88.0355 61.7825 88.3933 62.1376 88.7512 62.1376Z" fill="black"/>
<path d="M89.467 61.7825C92.3299 61.7825 95.1929 62.1376 98.0558 62.1376C98.7715 62.1376 98.7715 61.0724 98.0558 61.0724C95.1929 61.0724 92.3299 60.7173 89.467 60.7173C88.7512 60.7173 88.7512 61.7825 89.467 61.7825Z" fill="black"/>
<path d="M89.8249 71.0147C93.7614 71.0147 98.0559 70.3046 101.992 69.9495C102.708 69.9495 102.708 68.8843 101.992 68.8843C98.0559 69.2393 93.7614 69.9495 89.8249 69.9495C89.1092 69.9495 89.1092 71.0147 89.8249 71.0147Z" fill="black"/>
<path d="M89.8249 72.79C91.6142 72.0799 93.4036 72.0799 94.835 72.0799C96.6244 72.0799 98.4137 72.0799 100.203 72.0799C100.919 72.0799 100.919 71.0146 100.203 71.0146C98.4137 71.0146 96.2665 71.0146 94.4772 71.0146C92.6878 71.0146 90.8985 71.0147 89.1091 71.7248C88.7513 72.0799 89.1091 72.79 89.8249 72.79Z" fill="black"/>
<path d="M89.1091 74.2099C91.972 73.8549 95.1928 73.4998 98.0558 73.4998C98.7715 73.4998 98.7715 72.4346 98.0558 72.4346C95.1928 72.4346 91.972 72.7896 89.1091 73.1447C88.3933 73.1447 88.3933 74.2099 89.1091 74.2099Z" fill="black"/>
<path d="M88.7513 75.6306C91.9721 75.6306 95.1929 75.6306 98.4137 75.6306C99.1295 75.6306 99.1295 74.5654 98.4137 74.5654C95.1929 74.9205 91.9721 74.5654 88.7513 74.5654C88.3934 74.5654 88.3934 75.6306 88.7513 75.6306Z" fill="black"/>
<path d="M89.467 80.6014C91.9721 80.9565 94.835 80.6014 97.3401 80.2464C98.0558 80.2464 98.0558 79.1812 97.3401 79.1812C94.835 79.1812 91.9721 79.5362 89.467 79.5362C88.7512 79.5362 88.7512 80.6014 89.467 80.6014Z" fill="black"/>
<path d="M90.1828 79.1811C93.0457 79.1811 95.5508 78.8261 98.4138 78.471C99.1295 78.471 99.1295 77.4058 98.4138 77.4058C95.5508 77.4058 93.0457 78.1159 90.1828 78.1159C89.4671 78.1159 89.4671 79.1811 90.1828 79.1811Z" fill="black"/>
<path d="M90.1825 73.8552C92.6876 73.5001 95.1927 73.8552 97.3399 73.8552C98.0556 73.8552 98.0556 72.79 97.3399 72.79C94.8348 73.1451 92.3297 72.4349 89.8247 72.79C89.4668 72.79 89.4668 73.1451 89.4668 73.5001C89.4668 73.5001 89.8247 73.8552 90.1825 73.8552Z" fill="black"/>
<path d="M90.1824 77.0508C91.256 76.3406 92.6875 76.3406 94.119 76.3406C95.5504 76.3406 96.9819 76.3406 98.4134 76.3406C99.1291 76.3406 99.1291 75.2754 98.4134 75.2754C96.9819 75.2754 95.1926 75.2754 93.7611 75.2754C92.3296 75.2754 90.8981 75.2754 89.4667 75.9855C89.1088 76.6957 89.8245 77.4058 90.1824 77.0508Z" fill="black"/>
<path d="M89.1091 83.0869C91.972 83.0869 94.835 82.7318 97.6979 82.3767C98.4136 82.3767 98.4136 81.3115 97.6979 81.3115C94.835 81.6666 91.972 81.6666 89.1091 82.0217C88.3933 82.0217 88.3933 83.0869 89.1091 83.0869Z" fill="black"/>
<path d="M89.467 84.5072C92.3299 84.5072 95.5507 84.5072 98.4137 84.1521C99.1294 84.1521 99.1294 83.0869 98.4137 83.0869C95.5507 83.442 92.3299 83.442 89.467 83.442C88.7512 83.442 88.7512 84.5072 89.467 84.5072Z" fill="black"/>
<path d="M89.8247 85.9275C91.9719 86.2826 94.4769 85.9275 96.6242 85.9275C97.3399 85.9275 97.3399 84.8623 96.6242 84.8623C94.4769 84.8623 91.9719 85.2174 89.8247 84.8623C89.4668 84.8623 89.4668 85.2174 89.4668 85.2174C89.4668 85.5725 89.8247 85.9275 89.8247 85.9275Z" fill="black"/>
<path d="M90.8984 86.9926C92.3299 87.3477 94.1193 87.3477 95.5507 87.3477C97.3401 87.3477 98.7715 86.9926 100.561 86.9926C101.277 86.9926 101.277 85.9274 100.561 85.9274C99.1294 85.9274 97.3401 86.2825 95.9086 86.2825C94.4771 86.2825 92.6878 86.2825 91.2563 85.9274C90.5406 85.5723 90.1827 86.6376 90.8984 86.9926Z" fill="black"/>
<path d="M90.5407 88.7679C93.0458 88.7679 95.193 88.7679 97.6981 88.4129C98.4138 88.4129 98.0559 87.3477 97.3402 87.3477C95.193 87.7027 92.6879 87.7027 90.5407 87.7027C89.825 87.7027 89.825 88.7679 90.5407 88.7679Z" fill="black"/>
<path d="M91.9719 88.4131C91.614 88.4131 91.2561 88.4131 91.2561 88.7682C90.8983 89.1232 91.2561 89.4783 91.614 89.4783C93.4034 89.8334 95.5506 89.4783 97.3399 89.4783C97.6978 89.4783 97.6978 89.1232 97.6978 89.1232C97.6978 88.7682 97.3399 88.4131 97.3399 88.7682C95.5506 88.7682 93.4034 89.1232 91.614 88.7682C91.614 89.1232 91.614 89.4783 91.9719 89.4783C92.6876 89.4783 92.6876 88.4131 91.9719 88.4131Z" fill="black"/>
<path d="M92.3298 91.6088C94.1191 91.6088 95.9085 91.2537 97.6978 91.2537C98.4135 91.2537 98.4135 90.1885 97.6978 90.1885C95.9085 90.1885 94.1191 90.5436 92.3298 90.5436C91.614 90.5436 91.614 91.6088 92.3298 91.6088Z" fill="black"/>
<path d="M90.1826 93.0291C92.6877 93.3842 95.1927 93.3842 97.3399 93.0291C98.0557 93.0291 98.0557 91.9639 97.3399 91.9639C94.8349 91.9639 92.3298 91.9639 90.1826 91.9639C89.8247 91.9639 89.8247 92.3189 89.8247 92.3189C89.8247 92.674 90.1826 93.0291 90.1826 93.0291Z" fill="black"/>
<path d="M90.8981 95.1596C93.7611 95.1596 96.2662 94.8046 99.1291 94.4495C99.487 94.4495 99.487 94.0944 99.487 93.7394C99.487 93.3843 99.1291 93.3843 98.7712 93.3843C96.2662 93.7393 93.4032 94.0944 90.8981 94.0944C90.1824 94.0944 90.1824 95.1596 90.8981 95.1596Z" fill="black"/>
<path d="M91.6141 96.5795C93.7613 96.5795 95.5506 96.5795 97.6979 96.2244C98.0557 96.2244 98.0557 95.8693 98.0557 95.8693C98.0557 95.5143 97.6979 95.1592 97.6979 95.5143C95.5506 95.8693 93.7613 95.8693 91.6141 95.8693C91.2562 95.5143 91.2562 96.5795 91.6141 96.5795Z" fill="black"/>
<path d="M90.5405 97.2899C93.0456 97.645 95.9085 96.9348 98.4136 96.9348C99.1293 96.9348 99.1293 95.8696 98.4136 95.8696C95.9085 95.8696 93.4034 96.5798 90.8983 96.2247C90.5405 96.2247 90.1826 96.2247 90.1826 96.5798C90.1826 96.9348 90.1826 97.2899 90.5405 97.2899Z" fill="black"/>
<path d="M89.8249 99.0652C92.33 99.0652 94.4772 99.0652 96.9822 99.0652C97.698 99.0652 97.698 98 96.9822 98C94.4772 98 92.33 98 89.8249 98C89.1092 98 89.1092 99.0652 89.8249 99.0652Z" fill="black"/>
<path d="M88.3933 100.841C89.4669 101.551 90.5405 101.551 91.972 101.551C93.0456 101.551 94.4771 101.196 95.5507 101.196C95.9086 101.196 95.9085 100.841 95.9085 100.486C95.9085 100.131 95.5507 100.131 95.1928 100.131C94.1192 100.131 93.0456 100.486 91.972 100.486C90.8984 100.486 89.8248 100.486 89.1091 100.131C88.3933 99.7755 88.0355 100.841 88.3933 100.841Z" fill="black"/>
<path d="M88.7509 102.971C91.6139 103.326 94.4768 102.616 97.3398 102.616C98.0555 102.616 98.0555 101.551 97.3398 101.551C94.4768 101.551 91.6139 102.616 89.1088 102.261C88.7509 102.261 88.3931 102.261 88.3931 102.616C88.3931 102.616 88.3931 102.971 88.7509 102.971Z" fill="black"/>
<path d="M88.7509 104.391C91.256 104.746 93.7611 104.391 96.2662 104.391C96.9819 104.391 96.9819 103.326 96.2662 103.326C93.7611 103.326 91.256 103.681 88.7509 103.326C88.3931 103.326 88.3931 103.681 88.3931 103.681C88.3931 104.036 88.7509 104.391 88.7509 104.391Z" fill="black"/>
<path d="M89.4669 106.522C90.5405 106.877 91.6141 106.877 92.3299 106.522C93.4035 106.522 94.4771 106.167 95.5507 106.167C96.2664 106.167 96.2664 105.102 95.5507 105.102C94.4771 105.102 93.4035 105.457 92.3299 105.457C91.2563 105.457 90.5405 105.457 89.4669 105.457C89.1091 105.457 88.7512 106.167 89.4669 106.522Z" fill="black"/>
<path d="M90.1828 107.232C93.4036 107.232 96.2666 106.877 99.1295 106.877C99.8452 106.877 99.8452 105.812 99.1295 105.812C96.2666 106.167 93.0457 106.167 90.1828 106.167C89.4671 106.167 89.4671 107.232 90.1828 107.232Z" fill="black"/>
<path d="M90.5407 108.652C93.0457 109.362 95.5508 109.007 97.698 108.652C98.4138 108.652 98.4138 107.587 97.698 107.587C95.5508 107.587 93.0457 108.297 90.5407 107.587C90.1828 107.587 89.8249 108.297 90.5407 108.652Z" fill="black"/>
<path d="M88.7513 127.116C89.467 126.051 90.8985 126.051 91.9721 125.696C93.0457 125.341 94.4771 125.341 95.5508 124.986C95.9086 124.986 95.9086 124.631 95.9086 124.275C95.9086 123.92 95.5508 123.92 95.1929 123.92C94.1193 124.275 93.0457 124.275 91.6142 124.631C90.1827 124.986 89.1091 125.341 88.0355 126.406C87.6777 126.761 88.3934 127.471 88.7513 127.116Z" fill="black"/>
<path d="M86.9617 128.891C89.8246 128.181 92.6876 127.826 95.5505 127.116C96.2662 127.116 95.9084 126.051 95.1926 126.051C92.3297 126.761 89.4667 127.116 86.6038 127.826C86.2459 128.181 86.6038 129.246 86.9617 128.891Z" fill="black"/>
<path d="M86.2461 130.666C89.4669 129.956 93.0455 128.891 96.2664 128.181C96.9821 128.181 96.6242 127.116 95.9085 127.116C92.6877 127.826 89.4669 128.891 85.8882 129.601C85.1724 129.601 85.5303 130.666 86.2461 130.666Z" fill="black"/>
<path d="M86.2461 132.442C89.8247 131.732 93.4034 131.022 96.6242 129.956C97.34 129.601 96.9821 128.891 96.2664 128.891C93.0455 129.956 89.4669 130.666 85.8882 131.377C85.1724 131.377 85.5303 132.442 86.2461 132.442Z" fill="black"/>
<path d="M86.9619 134.573C89.8248 133.862 93.0456 132.797 96.2664 132.442C96.9822 132.442 96.6243 131.377 95.9086 131.377C92.6878 131.732 89.8248 132.797 86.604 133.507C85.8883 133.862 86.2461 134.928 86.9619 134.573Z" fill="black"/>
<path d="M88.0353 135.993C90.8983 135.282 94.1191 134.572 96.982 133.862C97.6978 133.862 97.3399 132.797 96.6241 132.797C93.7612 133.507 90.5404 133.862 87.6774 134.927C87.3196 135.282 87.3196 135.993 88.0353 135.993Z" fill="black"/>
<path d="M89.1091 138.123C91.972 137.058 95.1928 136.703 98.0558 135.282C98.7715 134.927 98.0558 134.217 97.6979 134.217C94.835 135.283 91.972 135.993 89.1091 137.058C88.3933 137.413 88.3933 138.123 89.1091 138.123Z" fill="black"/>
<path d="M91.614 138.123C94.8348 137.768 97.6977 137.058 100.561 135.993C101.276 135.638 100.919 134.928 100.203 134.928C97.3398 135.993 94.4769 136.703 91.614 137.058C90.8982 137.413 90.8982 138.478 91.614 138.123Z" fill="black"/>
<path d="M89.8249 123.92C92.33 123.92 94.4772 122.855 96.6244 122.5C97.3401 122.145 96.9822 121.435 96.2665 121.435C94.1193 122.145 91.9721 122.855 89.8249 122.855C89.1092 122.855 89.1092 123.92 89.8249 123.92Z" fill="black"/>
</g>
<defs>
<clipPath id="clip0_240_13983">
<rect width="141" height="147" fill="white"/>
</clipPath>
</defs>
</svg>
