<svg width="119" height="154" viewBox="0 0 119 154" fill="none" xmlns="http://www.w3.org/2000/svg">
<g clip-path="url(#clip0_240_11013)">
<path d="M0 20.6166C1.86423 54.6653 0.62141 88.714 1.86423 122.45C2.17493 132.134 2.79634 141.505 3.72846 151.189C3.72846 151.501 4.03916 151.813 4.34987 151.813C20.5065 154.937 36.9739 153.688 53.4413 152.75C57.4804 152.438 61.5196 152.438 65.8695 152.126C69.2872 152.126 73.0157 152.126 76.4334 152.438C83.2689 152.438 90.1044 152.126 96.6292 150.564C100.358 149.627 103.775 148.377 107.193 147.128C109.057 146.191 110.922 145.566 112.475 144.629C113.407 144.316 115.272 143.379 115.893 142.755C116.204 142.13 116.514 141.505 116.514 140.88C118.068 132.759 119 124.325 119.311 115.89C119.621 99.3347 118.068 82.7789 118.379 66.2231C119 45.6065 119.932 24.3651 117.446 3.74846C117.136 3.12372 116.825 3.12372 116.204 3.12372C102.843 1.56185 89.1723 2.49897 75.812 3.12372C68.9765 3.43609 61.8303 4.06084 54.6841 4.06084C49.4021 4.37321 43.8094 4.68558 38.2167 3.74846C30.4491 2.49897 22.6815 1.24948 14.6031 0.312358C11.4961 -1.55233e-05 8.07833 -0.312389 4.97128 0.312358C3.10705 0.624731 2.17493 0.937104 1.86423 2.81134C1.24282 8.74644 0.62141 14.6815 0 20.6166C0 21.5537 1.24282 21.5537 1.24282 20.6166C1.86423 15.3063 2.48564 10.3083 3.10705 4.99796C3.10705 4.06084 3.10705 3.12372 3.41775 2.1866C3.10705 2.1866 3.41775 1.56185 3.41775 2.1866C4.03916 1.87422 4.34987 1.87422 4.66057 1.56185C7.76762 0.937104 10.8747 1.24948 13.9817 1.56185C21.7493 2.1866 29.8277 3.74846 37.5953 4.99796C42.2559 5.6227 47.2272 5.6227 51.8877 5.6227C58.4125 5.6227 65.248 4.99796 71.7729 4.68558C86.6867 3.74846 101.29 2.81134 116.204 4.37321C115.893 4.06084 115.893 4.06084 115.582 3.74846C117.757 21.8661 116.825 39.9838 116.514 57.789C116.514 66.2231 116.204 74.9696 116.514 83.4036C116.825 91.213 117.136 98.7099 117.446 106.519C117.446 114.641 117.446 122.45 116.204 130.572C115.893 132.759 115.582 135.258 115.272 137.444C114.961 138.694 114.961 139.631 114.65 140.568C114.339 142.13 113.407 142.442 112.164 143.067C108.436 144.941 104.708 146.815 100.668 148.065C86.9974 152.438 73.0157 150.564 59.0339 151.189C41.0131 152.126 22.6815 154 4.66057 150.564C4.97128 150.876 4.97128 150.876 5.28198 151.189C2.17493 117.452 3.10705 83.4036 2.48564 49.355C2.48564 39.6714 2.17493 29.9878 1.55352 20.6166C1.24282 19.6795 0 19.6795 0 20.6166Z" fill="black"/>
<path d="M13.3605 53.1036C32.9349 56.5397 53.4415 57.4768 73.3266 55.6025C78.2979 54.9778 83.2691 54.353 88.2404 53.1036C89.4832 52.7912 88.8618 50.9169 87.619 51.2293C75.8122 54.0407 63.384 54.6654 51.2665 54.6654C38.8383 54.6654 26.0994 53.4159 13.6712 51.2293C12.7391 51.2293 12.1177 53.1036 13.3605 53.1036Z" fill="black"/>
<path d="M18.9528 68.7221C21.4384 70.9087 24.8562 71.8458 28.2739 72.1582C32.9345 72.7829 37.9058 72.4706 42.5664 71.8458C51.5768 71.2211 60.2765 69.3468 69.287 69.6592C75.5011 69.9716 82.6473 70.9087 88.8614 68.4097C89.7935 68.0973 89.4828 66.2231 88.24 66.5355C82.958 68.4097 76.7439 67.785 71.1512 67.785C67.1121 67.785 63.0729 67.785 59.0337 68.0973C50.0233 69.0345 41.0128 70.5963 31.6917 70.2839C27.9632 70.2839 22.992 69.9716 20.1956 67.1602C19.5742 66.5355 18.0207 67.785 18.9528 68.7221Z" fill="black"/>
<path d="M19.5746 86.8396C40.0811 89.0262 61.209 88.089 81.7156 85.5901C82.9584 85.5901 82.9584 83.7158 81.7156 83.7158C61.209 86.2148 40.0811 87.1519 19.5746 84.9653C18.6425 84.6529 18.6425 86.5272 19.5746 86.8396Z" fill="black"/>
<path d="M18.953 99.0222C37.906 99.0222 56.859 99.0222 75.812 100.584C77.6762 100.584 79.2298 100.896 81.094 101.209C81.7154 101.209 82.3368 101.521 82.6475 101.521C83.2689 101.834 83.2689 101.834 82.9582 101.209C83.2689 102.146 85.1331 101.834 84.8224 100.584C84.201 99.0222 80.4726 99.0222 79.2298 99.0222C74.8799 98.7098 70.2193 98.3974 65.8694 98.0851C54.6841 97.4603 43.188 97.4603 32.0026 97.1479C27.6527 97.1479 23.3029 97.1479 18.953 97.1479C18.0209 97.1479 18.0209 99.0222 18.953 99.0222Z" fill="black"/>
<path d="M16.4672 112.142C38.8379 121.825 64.005 112.767 87.3079 114.953C88.5507 114.953 88.5507 113.391 87.3079 113.079C75.5011 111.829 64.005 113.391 52.1982 114.016C40.3915 114.641 28.274 114.953 17.0886 110.268C16.1565 110.268 15.2244 111.829 16.4672 112.142Z" fill="black"/>
<path d="M24.8565 133.071C24.235 136.507 24.8565 140.256 27.3421 142.755C27.6528 143.067 28.2742 143.067 28.5849 142.755C31.3813 139.943 32.9348 136.195 34.799 132.446C34.1776 132.446 33.8669 132.446 33.2455 132.446C35.1097 134.945 37.5954 138.381 41.0131 138.694C44.4309 138.694 46.9165 135.258 48.7807 132.446C48.1593 132.446 47.8486 132.446 47.2272 132.446C48.7807 134.945 51.5771 137.757 54.6841 138.069C58.1019 138.694 59.6554 134.945 59.9661 132.134C59.3447 132.134 59.034 132.446 58.4126 132.446C59.9661 134.633 62.141 136.82 64.9374 136.82C68.0444 137.132 69.9087 134.633 70.8408 132.134C70.2194 132.134 69.9087 132.134 69.2873 132.134C70.8408 134.321 73.6371 135.258 74.88 137.757C75.1907 138.381 76.1228 138.069 76.4335 137.444C77.0549 135.882 78.2977 134.945 79.2298 133.696C78.9191 133.696 78.6084 134.008 78.2977 134.008C80.1619 134.008 81.7155 135.258 83.269 136.507C84.2011 137.444 85.4439 135.882 84.5118 135.258C82.6476 133.696 80.7834 132.446 78.2977 132.134C77.987 132.134 77.6763 132.446 77.3656 132.446C76.4335 134.008 75.1907 134.945 74.5692 136.507C75.1907 136.507 75.8121 136.507 76.1228 136.195C74.88 133.696 72.0836 132.759 70.5301 130.572C70.2194 129.947 69.2873 129.947 68.9766 130.572C68.0444 132.446 66.4909 134.945 64.0053 134.321C62.1411 133.696 60.2768 132.134 59.3447 130.572C59.034 129.947 57.7912 130.26 57.7912 130.884C57.4805 133.071 56.5484 136.195 53.752 135.258C51.5771 134.633 49.7129 132.446 48.47 130.572C48.1593 129.947 47.2272 129.947 46.9165 130.572C45.6737 132.446 43.4988 135.882 40.7024 135.882C37.9061 135.882 36.0418 132.759 34.4883 130.572C34.1776 129.947 33.2455 129.947 32.9348 130.572C31.3813 134.008 29.517 137.757 27.0314 140.568C27.3421 140.568 27.9635 140.568 28.2742 140.568C26.0993 138.381 25.7886 135.57 26.41 132.446C26.7207 132.446 25.1672 131.822 24.8565 133.071Z" fill="black"/>
<path d="M89.483 18.1175C87.3081 20.6165 85.7546 23.1155 83.8903 25.6145C82.3368 27.8011 80.7833 30.3001 79.5405 32.7991C78.9191 33.7362 80.4726 34.6733 81.094 33.7362C82.3368 31.2372 83.8903 29.0506 85.1332 26.864C86.6867 24.365 88.5509 21.866 90.4151 19.367C91.3473 18.4299 90.4151 17.1804 89.483 18.1175Z" fill="black"/>
<path d="M89.1722 17.1806C90.1043 23.1156 91.3471 29.0507 92.9007 34.9858C93.2114 35.9229 94.7649 35.6106 94.4542 34.6735C92.9007 28.7384 91.6578 22.8033 90.7257 16.8682C90.415 15.6187 88.8615 15.9311 89.1722 17.1806Z" fill="black"/>
<path d="M84.2009 28.4262C86.6865 29.0509 89.1721 29.0509 91.6578 29.0509C92.5899 29.0509 92.5899 27.4891 91.6578 27.4891C89.1721 27.4891 86.9972 27.4891 84.5116 26.8643C83.5795 26.5519 82.958 28.1138 84.2009 28.4262Z" fill="black"/>
<path d="M100.047 17.8054C99.4258 20.9291 99.4258 24.0529 99.4258 26.8642C99.4258 27.8014 100.979 27.8014 100.979 26.8642C100.979 24.0529 100.979 20.9291 101.601 18.1178C101.601 17.8054 101.601 17.1807 100.979 17.1807C100.669 17.1807 100.358 17.493 100.047 17.8054Z" fill="black"/>
<path d="M96.6294 22.1786C99.4257 22.1786 102.222 22.1786 105.018 22.1786C105.951 22.1786 105.951 20.6167 105.018 20.6167C102.222 20.6167 99.4257 20.6167 96.6294 20.6167C95.3866 20.6167 95.3866 22.1786 96.6294 22.1786Z" fill="black"/>
<path d="M97.2507 10.9329C89.483 10.6205 79.2298 12.4948 74.2585 18.7423C71.7729 21.866 70.8407 25.9268 72.3943 29.6753C73.6371 33.4238 76.7441 36.2352 80.1619 37.797C87.9295 41.5455 97.5614 41.5455 105.329 37.4846C109.057 35.6104 112.165 32.1743 112.165 27.4887C111.854 23.1155 109.057 19.367 105.95 16.868C101.601 13.7443 96.3186 11.5577 91.3473 9.9958C86.376 8.43394 81.4047 7.49682 76.4334 6.87207C75.5013 6.87207 75.5013 8.12156 76.4334 8.43394C84.5118 9.37106 92.5901 11.5577 100.047 14.9938C103.154 16.5556 106.572 18.7423 108.747 22.1784C111.232 26.2392 111.232 30.9248 107.504 34.0485C101.29 39.3589 91.658 39.9836 84.2011 37.797C80.7833 36.8599 77.0548 34.9857 74.8799 31.5496C72.705 28.4258 72.3943 24.0526 74.5692 20.9289C76.7441 17.1804 81.094 15.3061 85.1332 14.0567C89.1723 12.8072 93.2115 12.1824 97.5614 12.4948C98.1828 12.4948 98.1828 10.9329 97.2507 10.9329Z" fill="black"/>
<path d="M18.3314 27.4886C17.7099 29.3628 18.3314 31.2371 18.3314 33.4237C18.3314 33.7361 18.6421 34.3608 18.9528 34.3608C23.6133 34.0484 27.0311 29.9876 29.206 26.2391C28.5846 26.2391 27.9632 26.2391 27.6525 25.9267C28.8953 29.0505 30.1381 32.1742 32.3131 34.9856C32.6238 35.6103 33.2452 35.6103 33.8666 35.2979C36.663 32.7989 37.9058 29.6752 38.5272 25.9267C37.9058 25.9267 37.2844 25.9267 36.9737 26.2391C38.5272 29.0505 39.77 32.1742 40.7021 35.6103C41.0128 36.235 41.9449 36.5474 42.2556 35.9227C43.4985 33.4237 45.052 31.2371 46.2948 28.7381C45.9841 28.7381 45.3627 29.0505 45.052 29.0505C48.159 30.3 49.7126 33.7361 51.5768 36.235C52.1982 36.8598 53.1303 36.235 53.1303 35.6103C53.1303 32.7989 54.0624 29.9876 55.9267 27.801C55.616 27.801 54.9945 28.1133 54.6838 28.1133C57.1695 29.3628 58.1016 32.1742 58.723 34.6732C58.723 35.2979 59.9658 35.6103 60.2765 34.9856C61.5193 32.4866 63.0729 30.3 63.6943 27.4886C63.0729 27.4886 62.4515 27.4886 61.8301 27.4886C63.0729 30.3 64.005 33.4237 65.2478 36.5474C65.5585 37.4845 67.4227 37.1722 67.112 35.9227C65.8692 33.1113 64.9371 29.9876 63.6943 26.8638C63.3836 26.2391 62.1408 25.9267 61.8301 26.8638C61.2086 29.3628 59.6551 31.5494 58.723 34.0484C59.3444 34.0484 59.9658 34.0484 60.2765 34.3608C59.6551 31.2371 58.4123 28.1133 55.3052 26.5515C54.9945 26.2391 54.3731 26.5515 54.0624 26.8638C52.1982 29.3628 51.2661 32.4866 51.2661 35.6103C51.8875 35.2979 52.1982 35.2979 52.8196 34.9856C50.6447 32.4866 49.0912 29.0505 45.9841 27.4886C45.6734 27.1762 45.052 27.4886 44.7413 27.801C43.4985 30.3 41.9449 32.4866 40.7021 34.9856C41.3235 34.9856 41.9449 34.9856 42.2556 35.2979C41.0128 31.5494 40.0807 28.1133 38.2165 24.9896C37.9058 24.3649 36.663 24.3649 36.663 25.302C36.0415 28.7381 35.1094 31.5494 32.3131 33.7361C32.9345 33.7361 33.2452 33.7361 33.8666 34.0484C32.0024 31.5494 30.7596 28.4257 29.5167 25.302C29.206 24.6772 28.2739 24.3649 27.6525 24.9896C26.099 28.1133 22.9919 32.1742 18.9528 32.4866C19.2635 32.7989 19.5742 33.1113 19.8849 33.4237C19.8849 31.5494 19.2635 29.9876 19.8849 28.1133C20.1956 26.8638 18.6421 26.5515 18.3314 27.4886Z" fill="black"/>
<path d="M88.5509 151.501C94.765 151.813 101.29 150.876 106.883 148.69C109.679 147.753 112.164 146.191 114.339 144.004C115.272 143.067 115.893 141.817 116.514 140.88C116.825 140.256 117.136 139.631 117.136 139.006C116.825 138.381 115.893 137.444 115.272 137.132C111.543 133.071 107.815 129.01 104.708 124.325C104.397 124.012 103.775 123.7 103.465 124.325C100.979 129.323 98.1828 134.008 95.3864 138.694C92.9008 143.067 90.1044 147.753 86.0653 150.876C85.4439 151.501 86.376 152.438 86.9974 151.813C91.0366 148.69 93.8329 144.004 96.3185 139.631C99.1149 134.945 101.911 129.947 104.708 124.637C104.397 124.637 103.775 124.637 103.465 124.637C106.883 129.947 111.543 134.633 115.582 139.318C115.582 139.006 115.582 139.006 115.272 138.694C113.718 144.004 108.436 146.503 103.775 148.065C98.8042 149.627 93.5222 150.252 88.2402 149.939C87.6188 149.939 87.6188 151.501 88.5509 151.501Z" fill="black"/>
</g>
<defs>
<clipPath id="clip0_240_11013">
<rect width="119" height="154" fill="white"/>
</clipPath>
</defs>
</svg>
