<svg width="168" height="48" viewBox="0 0 168 48" fill="none" xmlns="http://www.w3.org/2000/svg">
<path d="M67.3441 10.128C67.3441 6.23998 68.9761 2.92798 73.6321 2.92798C78.2881 2.92798 79.9201 6.23998 79.9201 10.128C79.9201 14.016 78.3361 17.328 73.6321 17.328C68.9281 17.328 67.3441 14.016 67.3441 10.128ZM70.2721 10.128C70.2721 12.384 70.7521 14.544 73.6321 14.544C76.5121 14.544 76.9921 12.384 76.9921 10.128C76.9921 7.87198 76.5121 5.71198 73.6321 5.71198C70.7521 5.66398 70.2721 7.82398 70.2721 10.128ZM141.168 3.26398L143.712 7.53598L146.256 3.26398H149.712L145.536 9.83998L150.048 16.992H146.592L143.664 12.144L140.736 16.992H137.28L141.792 9.83998L137.616 3.26398H141.168ZM128.496 8.68798H133.92V11.376H128.496V14.256H134.88V17.04H125.568V3.26398H134.88V6.04798H128.496V8.68798ZM116.064 16.992V5.99998H112.272V3.26398H122.784V6.04798H118.992V17.04H116.064V16.992ZM100.896 16.992H98.1121V3.26398H101.04V11.712L106.464 3.26398H109.248V16.992H106.32V8.54398L100.896 16.992ZM81.6001 14.304C82.8001 14.352 83.6161 13.824 83.9041 12.72C84.7201 9.74398 84.8161 6.38398 85.2001 3.26398H94.0801V16.992H91.1521V5.99998H87.8401C87.6481 7.91998 87.3121 11.28 86.7361 13.344C86.1121 15.696 84.1921 17.184 81.5521 17.04V14.304H81.6001ZM53.3281 16.992V3.26398H64.0801V16.992H61.1521V5.99998H56.3041V16.992H53.3281Z" fill="white"/>
<path d="M81.7441 34.4641H80.9761L80.0161 32.9281L79.0561 34.4641H78.2881L79.6801 32.4481L78.2881 30.5281H79.0561L80.0161 31.9681L80.9761 30.5281H81.7441L80.3521 32.4481L81.7441 34.4641ZM106.32 21.6961L104.592 26.4961C104.352 27.1201 103.968 27.5041 103.344 27.5521C103.152 27.5521 103.008 27.5521 102.816 27.5041V26.8801C103.008 26.9281 103.248 26.9761 103.392 26.9761C103.728 26.9281 103.92 26.6881 104.016 26.3521L104.256 25.7281L102.624 21.7441H103.296L104.544 24.9121L105.696 21.7441L106.32 21.6961ZM97.8721 43.2481H97.0561L95.6641 41.4721H95.2801V43.2481H94.6561V39.2641H95.2801V40.9441H95.6641L96.9601 39.2641H97.7281L96.1441 41.1841L97.8721 43.2481ZM107.04 34.4641H106.224L104.832 32.6881H104.448V34.4641H103.824V30.4801H104.448V32.1601H104.832L106.128 30.4801H106.896L105.312 32.4001L107.04 34.4641ZM70.1281 25.6801H69.3121L67.9201 23.9041H67.5361V25.6801H66.9121V21.6961H67.5361V23.3761H67.9201L69.2161 21.6961H69.9841L68.4001 23.6161L70.1281 25.6801ZM99.1201 23.6641C99.1201 23.1361 99.5041 22.3681 100.416 22.3681C101.328 22.3681 101.568 22.8961 101.568 23.7601C101.568 24.6241 101.184 25.2001 100.32 25.2001C99.4081 25.2001 99.1201 24.4801 99.1201 23.6641ZM99.0721 22.4161C99.1681 21.7921 99.4081 21.2641 99.8401 20.9761C100.224 20.7361 100.704 20.6401 101.184 20.4961C101.664 20.3521 101.856 20.0641 101.904 19.6321H101.28C101.28 19.7281 101.232 19.9681 100.944 20.0641C100.464 20.2081 99.9841 20.2561 99.6001 20.5441C98.5921 21.1681 98.4481 22.3681 98.4961 23.4721C98.5441 24.6721 99.0721 25.7761 100.368 25.7761C101.568 25.7761 102.288 25.0081 102.288 23.7601C102.288 22.5121 101.712 21.7921 100.512 21.7921C99.9361 21.7921 99.3601 22.0801 99.0721 22.4161ZM53.8081 22.8961C53.8081 21.5521 54.3841 20.6881 55.7761 20.6881C56.2561 20.6881 56.7841 20.7841 57.1681 20.8801L57.2161 20.2081C56.7841 20.1121 56.3041 20.0161 55.8241 20.0161C54.0481 20.0161 53.0881 21.1201 53.0881 22.8961C53.0881 24.6721 54.0481 25.7761 55.8241 25.7761C56.3041 25.7761 56.7841 25.7281 57.2161 25.5841L57.1681 24.9121C56.7841 25.0561 56.2561 25.1041 55.7761 25.1041C54.3841 25.1041 53.8081 24.2401 53.8081 22.8961ZM113.28 29.2321C113.472 29.4721 113.76 29.6161 114.048 29.6161C114.336 29.6161 114.624 29.4721 114.816 29.2321L115.152 29.5201C114.864 29.9041 114.48 30.0481 114 30.0481C113.568 30.0481 113.136 29.9041 112.848 29.5201L113.28 29.2321ZM113.04 34.4641H112.368V30.4801H112.944V33.6481C113.04 33.4081 113.232 33.1681 113.376 32.9281L115.056 30.4801H115.728V34.4641H115.152V31.2961C115.056 31.5361 114.864 31.7761 114.72 32.0161L113.04 34.4641ZM108.432 34.4641H107.76V30.4801H108.336V33.6481C108.432 33.4081 108.624 33.1681 108.768 32.9281L110.448 30.4801H111.12V34.4641H110.544V31.2961C110.448 31.5361 110.256 31.7761 110.112 32.0161L108.432 34.4641ZM87.6481 34.4641H86.9761V30.4801H87.5521V33.6481C87.6481 33.4081 87.8401 33.1681 87.9841 32.9281L89.6641 30.4801H90.3361V34.4641H89.7601V31.2961C89.6641 31.5361 89.4721 31.7761 89.3281 32.0161L87.6481 34.4641ZM149.904 34.4641H149.28V30.4801H149.856V33.6481C149.952 33.4081 150.144 33.1681 150.288 32.9281L151.968 30.4801H152.64V34.4641H152.064V31.2961C151.968 31.5361 151.776 31.7761 151.632 32.0161L149.904 34.4641ZM145.44 32.4961C145.44 31.0561 146.304 30.4321 147.456 30.3841C147.744 30.3841 148.128 30.4321 148.416 30.5281L148.368 31.1041C148.08 31.0081 147.648 30.9601 147.36 30.9601C146.64 31.0081 146.112 31.4401 146.112 32.4961C146.112 33.5521 146.64 33.9841 147.36 34.0321C147.648 34.0321 148.032 34.0321 148.368 33.9361L148.416 34.5121C148.128 34.6081 147.696 34.6081 147.456 34.6081C146.256 34.5601 145.44 33.9361 145.44 32.4961ZM99.9841 32.4961C99.9841 31.0561 100.848 30.4321 102 30.3841C102.288 30.3841 102.672 30.4321 102.96 30.5281L102.912 31.1041C102.624 31.0081 102.192 30.9601 101.904 30.9601C101.184 31.0081 100.656 31.4401 100.656 32.4961C100.656 33.5521 101.184 33.9841 101.904 34.0321C102.192 34.0321 102.576 34.0321 102.912 33.9361L102.96 34.5121C102.672 34.6081 102.24 34.6081 102 34.6081C100.848 34.5601 99.9841 33.9361 99.9841 32.4961ZM114.336 23.7121C114.336 22.2721 115.2 21.6481 116.352 21.6001C116.64 21.6001 117.024 21.6481 117.312 21.7441L117.264 22.3201C116.976 22.2241 116.544 22.1761 116.256 22.1761C115.536 22.2241 115.008 22.6561 115.008 23.7121C115.008 24.7681 115.536 25.2001 116.256 25.2481C116.544 25.2481 116.928 25.2481 117.264 25.1521L117.312 25.7281C117.024 25.8241 116.592 25.8241 116.352 25.8241C115.2 25.7761 114.336 25.1521 114.336 23.7121ZM88.8481 43.2481H88.2241V39.8401H87.0721C86.9761 41.1361 86.8321 42.0481 86.5921 42.5761C86.3521 43.1041 86.0161 43.3441 85.3441 43.2481V42.6721C85.6321 42.7201 85.9201 42.6241 86.0641 42.2401C86.3041 41.7121 86.4001 40.7041 86.4961 39.2641H88.8481V43.2481ZM58.5121 32.4961C58.5121 31.6321 58.8001 31.0081 59.7601 31.0081C60.6721 31.0081 61.0081 31.6801 61.0081 32.4961C61.0081 33.3601 60.7201 33.9841 59.7601 33.9841C58.8481 33.9841 58.5121 33.3601 58.5121 32.4961ZM61.6321 32.4961C61.6321 31.2481 61.0081 30.4321 59.7601 30.4321C58.5121 30.4321 57.8881 31.2481 57.8881 32.4961C57.8881 33.7441 58.5121 34.5601 59.7601 34.5601C61.0081 34.5601 61.6321 33.7441 61.6321 32.4961ZM106.224 41.2801C106.224 40.4161 106.512 39.7921 107.472 39.7921C108.384 39.7921 108.72 40.4641 108.72 41.2801C108.72 42.1441 108.432 42.7681 107.472 42.7681C106.512 42.8161 106.224 42.1441 106.224 41.2801ZM109.296 41.2801C109.296 40.0321 108.672 39.2161 107.424 39.2161C106.176 39.2161 105.552 40.0321 105.552 41.2801C105.552 42.5281 106.176 43.3441 107.424 43.3441C108.672 43.3441 109.296 42.5281 109.296 41.2801ZM98.8321 41.2801C98.8321 40.4161 99.1201 39.7921 100.08 39.7921C100.992 39.7921 101.328 40.4641 101.328 41.2801C101.328 42.1441 101.04 42.7681 100.08 42.7681C99.1201 42.8161 98.8321 42.1441 98.8321 41.2801ZM101.904 41.2801C101.904 40.0321 101.28 39.2161 100.032 39.2161C98.7841 39.2161 98.1601 40.0321 98.1601 41.2801C98.1601 42.5281 98.7841 43.3441 100.032 43.3441C101.28 43.3441 101.904 42.5281 101.904 41.2801ZM65.6161 25.6801H64.9921V23.8561H62.9761V25.6801H62.3521V21.6961H62.9761V23.3281H64.9921V21.6961H65.6161V25.6801ZM73.3441 22.2241H72.1441V25.6321H71.5201V22.2241H70.3201V21.6961H73.3441V22.2241ZM75.6961 23.9521H73.5841V23.3761H75.6961V23.9521ZM81.2161 25.6801H80.5441V20.7361H77.6641V25.6801H76.9921V20.1121H81.2161V25.6801ZM89.1841 22.2241H87.9841V25.6321H87.3601V22.2241H86.1601V21.6961H89.1841V22.2241ZM114.096 22.2241H112.368V25.6321H111.744V21.6481H114.096V22.2241ZM121.44 25.6801H120.624L119.232 23.9041H118.848V25.6801H118.224V21.6961H118.848V23.3761H119.232L120.528 21.6961H121.296L119.712 23.6161L121.44 25.6801ZM65.5681 34.4641H64.9441V31.0561H63.7921C63.6961 32.3521 63.5521 33.2641 63.3121 33.7921C63.0721 34.3201 62.7361 34.5601 62.0641 34.4641V33.8881C62.3521 33.9361 62.6401 33.8401 62.8321 33.4561C63.0721 32.9281 63.1681 31.9201 63.2641 30.4801H65.6161V34.4641H65.5681ZM74.0161 31.0561H72.8161V34.4641H72.1921V31.0561H70.9921V30.5281H74.0161V31.0561ZM85.7281 34.4641H85.1041V32.6401H83.0401V34.4641H82.4161V30.4801H83.0401V32.1121H85.0561V30.4801H85.6801V34.4641H85.7281ZM94.7041 34.4641H94.0801V32.9281C93.7921 33.0721 93.3601 33.1201 92.9281 33.1201C92.2081 33.0721 91.5841 32.7361 91.5841 31.7281V30.5281H92.2081V31.6801C92.2081 32.3521 92.5921 32.5441 93.1201 32.5441C93.4561 32.5441 93.8401 32.4481 94.0801 32.3521V30.4801H94.7041V34.4641ZM126.768 34.4641H126.144V32.6401H124.128V34.4641H123.504V30.4801H124.128V32.1121H126.144V30.4801H126.768V34.4641ZM132.672 34.4641V30.4801H134.4C135.024 30.4801 135.6 30.7681 135.6 31.4401C135.6 31.9681 135.36 32.2561 134.928 32.4001C135.504 32.4961 135.744 32.7841 135.744 33.3121C135.744 34.0321 135.168 34.4641 134.496 34.4641H132.672ZM133.296 31.0561V32.1601H134.256C134.784 32.1601 134.976 31.9681 134.976 31.5841C134.976 31.2481 134.784 31.0561 134.304 31.0561H133.296ZM133.296 32.6881V33.9361H134.4C134.928 33.9361 135.12 33.7441 135.12 33.3121C135.12 32.9281 134.88 32.6881 134.304 32.6881H133.296ZM156.384 31.0561H155.184V34.4641H154.56V31.0561H153.36V30.5281H156.384V31.0561ZM163.632 31.0561H162.432V34.4641H161.808V31.0561H160.608V30.5281H163.632V31.0561ZM57.6481 43.2481H56.9761V38.3041H54.0961V43.2481H53.4241V37.7281H57.6481V43.2481ZM65.6161 39.8401H64.4161V43.2481H63.7921V39.8401H62.5921V39.3121H65.6161V39.8401ZM77.0881 43.2481V37.7281H79.0561C79.9681 37.7281 80.5921 38.2081 80.5921 39.1681C80.5921 39.6961 80.3041 40.1281 79.8241 40.3201C80.4481 40.4641 80.8321 41.0401 80.8321 41.6641C80.8321 42.6721 80.0641 43.2481 79.1041 43.2481H77.0881ZM77.7121 38.3041V40.0801H78.7681C79.3921 40.0801 79.8721 39.7921 79.8721 39.0721C79.8721 38.5441 79.5841 38.2561 78.8641 38.2561H77.7121V38.3041ZM77.7121 40.7041V42.7201H78.9601C79.6321 42.7201 80.1121 42.4321 80.1121 41.7121C80.1121 41.0401 79.7281 40.7041 78.8161 40.7041H77.7121ZM105.312 39.8401H103.728V43.2481H103.104V39.2641H105.312V39.8401ZM85.7761 23.9041H82.8481C82.8481 24.8641 83.4241 25.2481 84.1921 25.2481C84.6241 25.2481 85.1041 25.1521 85.4881 24.9601V25.5841C85.1041 25.7761 84.5281 25.8241 84.1441 25.8241C83.0881 25.8241 82.2241 25.1521 82.2241 23.7601C82.2241 22.6081 82.8481 21.6481 84.0481 21.6481C85.3441 21.6001 85.8241 22.4641 85.7761 23.9041ZM85.1521 23.3281C85.1521 22.5601 84.7201 22.1281 84.0961 22.1281C83.3281 22.1281 82.9441 22.6081 82.8961 23.3281H85.1521ZM93.0721 23.9041H90.1441C90.1441 24.8641 90.7201 25.2481 91.4881 25.2481C91.9201 25.2481 92.4001 25.1521 92.7841 24.9601V25.5841C92.4001 25.7761 91.8241 25.8241 91.4401 25.8241C90.3841 25.8241 89.5201 25.1521 89.5201 23.7601C89.5201 22.6081 90.1441 21.6481 91.3441 21.6481C92.6401 21.6001 93.1201 22.4641 93.0721 23.9041ZM92.4001 23.3281C92.4001 22.5601 91.9681 22.1281 91.3441 22.1281C90.5761 22.1281 90.1921 22.6081 90.1441 23.3281H92.4001ZM160.224 32.6881H157.296C157.296 33.6481 157.872 34.0321 158.64 34.0321C159.072 34.0321 159.552 33.9361 159.936 33.7441V34.3681C159.552 34.5601 158.976 34.6081 158.592 34.6081C157.536 34.6081 156.672 33.9361 156.672 32.5441C156.672 31.3921 157.296 30.4321 158.496 30.4321C159.792 30.3841 160.272 31.2961 160.224 32.6881ZM159.552 32.1601C159.552 31.3921 159.12 30.9601 158.496 30.9601C157.728 30.9601 157.344 31.4401 157.296 32.1601H159.552ZM140.112 32.6881H137.184C137.184 33.6481 137.76 34.0321 138.528 34.0321C138.96 34.0321 139.44 33.9361 139.824 33.7441V34.3681C139.44 34.5601 138.864 34.6081 138.48 34.6081C137.424 34.6081 136.56 33.9361 136.56 32.5441C136.56 31.3921 137.184 30.4321 138.384 30.4321C139.68 30.3841 140.16 31.2961 140.112 32.6881ZM139.44 32.1601C139.44 31.3921 139.008 30.9601 138.384 30.9601C137.616 30.9601 137.232 31.4401 137.184 32.1601H139.44ZM99.3601 32.6881H96.4321C96.4321 33.6481 97.0081 34.0321 97.7761 34.0321C98.2081 34.0321 98.6881 33.9361 99.0721 33.7441V34.3681C98.6881 34.5601 98.1121 34.6081 97.7281 34.6081C96.6721 34.6081 95.8081 33.9361 95.8081 32.5441C95.8081 31.3921 96.4321 30.4321 97.6321 30.4321C98.8801 30.3841 99.3601 31.2961 99.3601 32.6881ZM98.6881 32.1601C98.6881 31.3921 98.2561 30.9601 97.6321 30.9601C96.8641 30.9601 96.4801 31.4401 96.4321 32.1601H98.6881ZM77.8561 32.6881H74.9281C74.9281 33.6481 75.5041 34.0321 76.2721 34.0321C76.7041 34.0321 77.1841 33.9361 77.5681 33.7441V34.3681C77.1841 34.5601 76.6081 34.6081 76.2241 34.6081C75.1681 34.6081 74.3041 33.9361 74.3041 32.5441C74.3041 31.3921 74.9281 30.4321 76.1281 30.4321C77.4241 30.3841 77.9041 31.2961 77.8561 32.6881ZM77.2321 32.1601C77.2321 31.3921 76.8001 30.9601 76.1761 30.9601C75.4081 30.9601 75.0241 31.4401 74.9761 32.1601H77.2321ZM62.2081 41.4721H59.2801C59.2801 42.4321 59.8561 42.8161 60.6241 42.8161C61.0561 42.8161 61.5361 42.7201 61.9201 42.5281V43.1521C61.5361 43.3441 60.9601 43.3921 60.5761 43.3921C59.5201 43.3921 58.6561 42.7201 58.6561 41.3281C58.6561 40.1761 59.2801 39.2161 60.4801 39.2161C61.7761 39.2161 62.2561 40.0801 62.2081 41.4721ZM61.5841 40.9441C61.5841 40.1761 61.1521 39.7441 60.5281 39.7441C59.7601 39.7441 59.3761 40.2241 59.3281 40.9441H61.5841ZM85.0081 41.4721H82.0801C82.0801 42.4321 82.6561 42.8161 83.4241 42.8161C83.8561 42.8161 84.2881 42.7201 84.6241 42.5281V43.1521C84.2401 43.3441 83.7601 43.3921 83.3761 43.3921C82.3201 43.3921 81.4561 42.7201 81.4561 41.3281C81.4561 40.1761 82.0801 39.2161 83.2801 39.2161C84.5761 39.2161 85.0561 40.0801 85.0081 41.4721ZM84.3361 40.9441C84.3361 40.1761 83.9041 39.7441 83.2801 39.7441C82.5121 39.7441 82.1281 40.2241 82.0801 40.9441H84.3361ZM128.736 34.4641H128.064V30.4801H128.64V33.6001C128.736 33.3601 128.88 33.1681 129.024 32.9281L130.704 30.4321H131.376V34.4161H130.8V31.2961C130.704 31.5361 130.56 31.7281 130.416 31.9681L128.736 34.4641ZM127.632 20.4001C127.824 20.6401 128.112 20.7841 128.4 20.7841C128.688 20.7841 128.976 20.6401 129.168 20.4001L129.504 20.6881C129.216 21.0721 128.832 21.2161 128.352 21.2161C127.92 21.2161 127.488 21.0721 127.2 20.6881L127.632 20.4001ZM127.44 25.6801H126.768V21.6961H127.344V24.8641C127.44 24.6241 127.584 24.3841 127.776 24.1441L129.456 21.6961H130.128V25.6801H129.552V22.5121C129.456 22.7521 129.264 22.9921 129.12 23.2321L127.44 25.6801ZM122.832 25.6801H122.16V21.6961H122.736V24.8641C122.832 24.6241 123.024 24.3841 123.168 24.1441L124.848 21.6961H125.52V25.6801H124.944V22.5121C124.848 22.7521 124.656 22.9921 124.512 23.2321L122.832 25.6801ZM67.5841 34.4641H66.9121V30.4801H67.4881V33.6481C67.5841 33.4081 67.7761 33.1681 67.9201 32.9281L69.6001 30.4801H70.2721V34.4641H69.6961V31.2961C69.6001 31.5361 69.4081 31.7761 69.2641 32.0161L67.5841 34.4641ZM90.7201 43.2481H90.0481V39.2641H90.6241V42.4321C90.7201 42.1921 90.9121 41.9521 91.0561 41.7121L92.7361 39.2641H93.4081V43.2481H92.8321V40.0801C92.7361 40.3201 92.5441 40.5601 92.4001 40.8001L90.7201 43.2481ZM66.8641 42.8161V45.1201H66.2401V39.3121H66.8161L66.8641 39.8401C67.2481 39.3601 67.7761 39.2641 68.2561 39.2641C69.4561 39.3121 69.8881 40.2721 69.8401 41.3281C69.7921 42.4321 69.2641 43.3921 68.0161 43.3921C67.3921 43.3441 67.0081 43.0081 66.8641 42.8161ZM66.8641 41.3281C66.8641 42.0961 67.1041 42.8161 68.0161 42.8161C68.8801 42.8161 69.2161 42.0481 69.2641 41.2801C69.3121 40.5121 69.0241 39.7441 68.1121 39.7441C67.1521 39.7441 66.8641 40.5121 66.8641 41.3281ZM141.648 34.0321V36.2881H141.024V30.4801H141.6L141.648 31.0081C142.032 30.5281 142.56 30.4321 143.04 30.4321C144.24 30.4801 144.672 31.4401 144.624 32.4961C144.576 33.6001 144.048 34.5601 142.8 34.5601C142.176 34.5601 141.792 34.2241 141.648 34.0321ZM141.648 32.5441C141.648 33.3121 141.888 34.0321 142.8 34.0321C143.664 34.0321 144 33.2641 144.048 32.4961C144.096 31.7281 143.808 30.9601 142.896 30.9601C141.936 30.9601 141.648 31.7281 141.648 32.5441ZM107.712 25.2001V27.4561H107.088V21.6961H107.664L107.712 22.2241C108.096 21.7441 108.624 21.6481 109.104 21.6481C110.304 21.6961 110.736 22.6561 110.688 23.7121C110.64 24.8161 110.112 25.7761 108.864 25.7761C108.192 25.7761 107.856 25.3921 107.712 25.2001ZM107.712 23.7601C107.712 24.5281 107.952 25.2481 108.864 25.2481C109.728 25.2481 110.064 24.4801 110.112 23.7121C110.16 22.9441 109.872 22.1761 108.96 22.1761C107.952 22.1281 107.712 22.9441 107.712 23.7601ZM94.6081 25.2001V27.4561H93.9841V21.6961H94.5601L94.6081 22.2241C94.9921 21.7441 95.5201 21.6481 96.0001 21.6481C97.2001 21.6961 97.6321 22.6561 97.5841 23.7121C97.5361 24.8161 97.0081 25.7761 95.7601 25.7761C95.0881 25.7761 94.7521 25.3921 94.6081 25.2001ZM94.6081 23.7601C94.6081 24.5281 94.8481 25.2481 95.7601 25.2481C96.6241 25.2481 96.9601 24.4801 97.0081 23.7121C97.0561 22.9441 96.7681 22.1761 95.8561 22.1761C94.8481 22.1281 94.6081 22.9441 94.6081 23.7601ZM72.8641 41.3281V41.6641C72.8641 42.2881 72.4321 42.8161 71.7601 42.8161C71.3761 42.8161 71.0401 42.6241 70.9921 42.1921C70.9921 41.2321 71.9041 41.3281 72.8641 41.3281ZM70.6561 39.4081L70.7041 40.0321C71.0401 39.8881 71.5201 39.7921 72.0001 39.7921C72.4801 39.8401 72.9121 39.9841 72.9121 40.6561V40.8481C71.4721 40.7521 70.3681 40.8961 70.4161 42.1441C70.4161 42.9121 70.9921 43.3441 71.7121 43.3441C72.2401 43.3441 72.6721 43.1041 72.9601 42.8161L73.0561 43.2961H73.5841V40.7041C73.5841 39.6481 72.9121 39.3121 72.0961 39.2641C71.6161 39.2161 70.9921 39.3121 70.6561 39.4081ZM60.4801 23.7601V24.0961C60.4801 24.7201 60.0481 25.2481 59.3761 25.2481C58.9921 25.2481 58.6561 25.0561 58.6081 24.6241C58.6081 23.6161 59.5201 23.7121 60.4801 23.7601ZM58.2721 21.8401L58.3201 22.4641C58.6561 22.3201 59.1361 22.2241 59.6161 22.2241C60.0961 22.2721 60.5281 22.4161 60.5281 23.0881V23.2801C59.0881 23.1841 57.9841 23.3281 58.0321 24.5761C58.0321 25.3441 58.6081 25.7761 59.3281 25.7761C59.8561 25.7761 60.2881 25.5361 60.5761 25.2481L60.6721 25.7281H61.2001V23.1361C61.2001 22.0801 60.5281 21.7441 59.7121 21.6961C59.2321 21.6001 58.6081 21.6961 58.2721 21.8401Z" fill="white"/>
<path d="M56.7361 34.4641H56.1121V31.1521H54.0481V34.4641H53.4241V30.5281H56.7361V34.4641Z" fill="white"/>
<path d="M122.736 30.5281L121.008 35.3281C120.768 35.9521 120.384 36.3361 119.76 36.3841C119.568 36.3841 119.424 36.3841 119.232 36.3361V35.7121C119.424 35.7601 119.664 35.8081 119.808 35.8081C120.144 35.7601 120.336 35.5201 120.432 35.1841L120.672 34.5601L119.04 30.5761H119.712L120.96 33.7441L122.112 30.5761L122.736 30.5281Z" fill="white"/>
<path d="M24.6721 3.35986C21.1681 3.35986 15.3601 3.50386 12.0001 3.93586C7.34407 4.51186 5.52007 6.91186 4.99207 11.2799C4.60807 14.6399 4.32007 19.4879 4.32007 23.9999C4.32007 28.5119 4.41607 33.4079 4.99207 36.7679C5.76007 41.0879 7.82407 43.3919 12.0001 44.0639C15.3601 44.6399 21.5041 44.6399 24.6721 44.6399C27.8401 44.6399 33.9841 44.6399 37.3441 44.0639C41.5681 43.3919 43.5361 41.0879 44.3521 36.7199C44.9281 33.4079 45.0241 28.2719 45.0241 23.9519C45.0241 19.6319 44.6401 13.8719 44.3521 11.2319C43.8721 6.71986 41.9521 4.51186 37.3441 3.88786C33.9841 3.45586 28.2241 3.35986 24.6721 3.35986ZM38.9281 8.01586C39.8401 8.39986 41.4241 10.7519 41.0401 13.2959C39.2641 14.6879 37.1521 15.7439 35.1361 16.0319V32.3519H41.1841C41.1841 34.8479 40.8001 36.8639 40.3681 37.5839H29.2801V16.3199H21.5521V29.0399C21.5521 35.4239 17.9521 38.5919 13.3441 38.5919C12.0481 38.5919 10.5121 38.4479 9.16807 38.0639C8.54407 37.2479 8.25607 34.7519 8.20807 31.6799C11.2801 33.1679 15.4081 33.8399 15.7441 29.0399V17.0879C11.0881 17.6159 9.36007 20.8799 7.77607 23.0399C7.82407 20.1119 7.96807 17.4719 8.11207 15.6959C11.2801 12.2879 14.8801 10.6559 21.8881 10.6559H31.9201C34.3681 10.7039 36.7201 9.79186 38.9281 8.01586Z" fill="white"/>
</svg>
