<svg width="77" height="96" viewBox="0 0 77 96" fill="none" xmlns="http://www.w3.org/2000/svg">
<g clip-path="url(#clip0_299_238)">
<path d="M38.4003 0.112291C38.1109 0.337099 37.6562 1.13798 37.6562 1.44709C37.6562 1.6438 37.7526 1.8686 37.8629 1.96696C38.0007 2.09341 38.0696 2.41657 38.0696 3.03479V3.93403H37.4632C37.1049 3.93403 36.8018 3.84972 36.6915 3.72327C36.4986 3.48441 35.6442 3.44226 35.5201 3.66707C35.465 3.73732 35.2721 3.86377 35.0929 3.93403C34.8862 4.01833 34.7622 4.18693 34.7622 4.35554C34.7622 4.52415 34.8862 4.69275 35.0929 4.77706C35.2721 4.84731 35.465 4.97376 35.5201 5.04401C35.6442 5.26882 36.4986 5.22667 36.6915 4.98781C36.8018 4.86136 37.1049 4.77706 37.4632 4.77706C38.042 4.77706 38.0696 4.80516 38.0696 5.17047C38.0696 5.47958 37.9456 5.64819 37.5597 5.91514C36.8293 6.39286 36.595 7.12349 36.8844 8.00867C37.036 8.48639 37.0498 8.65499 36.9258 8.69714C36.3194 8.9079 35.7269 10.046 35.7269 10.9874C35.7269 12.3081 36.6226 14.5281 37.5735 15.5257C38.4968 16.5092 39.0756 16.3406 40.054 14.8232C40.8533 13.6008 41.2805 12.3362 41.2805 11.0998C41.2943 9.87739 41.0462 9.24511 40.3985 8.8798C40.0816 8.69714 40.0127 8.57069 40.0816 8.35993C40.1367 8.20538 40.2056 7.78386 40.2332 7.4326C40.2883 6.85653 40.247 6.73007 39.8611 6.28046C39.6268 5.99945 39.3099 5.73249 39.1583 5.69034C38.9791 5.63414 38.8964 5.47958 38.8964 5.18452C38.8964 4.79111 38.9102 4.77706 39.5717 4.77706C39.9989 4.77706 40.3021 4.84731 40.4123 4.98781C40.5088 5.10022 40.7568 5.19857 40.9773 5.19857C41.184 5.19857 41.4459 5.10022 41.5699 4.98781C41.6801 4.87541 41.8317 4.77706 41.9006 4.77706C41.9695 4.77706 42.1211 4.6787 42.2176 4.55225C42.3692 4.35554 42.3278 4.27124 41.9282 3.91998C41.3908 3.47036 40.6879 3.38606 40.4123 3.72327C40.2883 3.87782 40.0402 3.93403 39.5993 3.90592L38.9653 3.86377L38.924 3.13315C38.8964 2.55708 38.9516 2.30417 39.1721 1.99506C39.489 1.55949 39.4477 0.885069 39.0894 0.744564C38.9791 0.702412 38.8964 0.561907 38.8964 0.421402C38.8964 0.154443 38.607 -0.0282135 38.4003 0.112291Z" fill="white"/>
<path d="M32.874 9.47012C31.055 10.0602 29.7871 12.0414 29.9801 13.9944C30.0628 14.8796 30.6967 16.2987 31.3444 17.0574L31.7991 17.5913L32.2815 17.2962C32.9843 16.8747 33.8662 16.5797 34.9687 16.383C35.5062 16.2846 35.9196 16.1722 35.892 16.116C35.8645 16.0598 35.6302 15.554 35.3821 14.9779C34.762 13.6431 34.5139 12.505 34.4037 10.7066L34.3072 9.27342L33.88 9.28747C33.6458 9.28747 33.191 9.37177 32.874 9.47012Z" fill="white"/>
<path d="M42.6998 10.6784C42.5895 12.3364 42.245 13.7836 41.6662 15.0903C41.4457 15.5961 41.2528 16.0738 41.239 16.116C41.239 16.1722 41.6524 16.2986 42.1623 16.3829C43.127 16.5515 44.3672 17.0011 44.9323 17.3665C45.3319 17.6334 45.4559 17.5351 46.145 16.4813C47.5919 14.2613 47.4128 11.9992 45.6902 10.3974C44.946 9.69488 43.9814 9.27337 43.1683 9.27337H42.7962L42.6998 10.6784Z" fill="white"/>
<path d="M27.5961 17.2822C27.5961 17.8161 27.5685 17.8442 27.1827 17.8442C26.8382 17.8442 26.7693 17.9004 26.7693 18.1955C26.7693 18.4906 26.8382 18.5468 27.1827 18.5468C27.4996 18.5468 27.5961 18.603 27.5961 18.8278C27.5961 18.9823 27.541 19.1088 27.4583 19.1088C26.9208 19.1088 26.5625 20.289 26.9071 20.9353C27.0173 21.1321 26.976 21.2304 26.7004 21.4131C26.0251 21.8627 25.9424 23.2677 26.5074 24.7992C26.7555 25.4737 27.4721 26.415 27.7477 26.415C28.0509 26.415 28.8364 25.4877 29.1947 24.7009C29.5116 23.9984 29.5943 23.619 29.5943 22.8603C29.5943 21.961 29.5668 21.8767 29.1671 21.5114C28.795 21.1602 28.7675 21.0899 28.9328 20.8651C29.2636 20.3874 29.1533 19.8113 28.6297 19.3055C28.3678 19.0526 28.1473 18.7856 28.1473 18.7013C28.1473 18.617 28.3678 18.5468 28.6297 18.5468C29.0569 18.5468 29.112 18.5046 29.112 18.1955C29.112 17.8864 29.0569 17.8442 28.6297 17.8442C28.1611 17.8442 28.1473 17.8302 28.1473 17.2822C28.1473 16.8186 28.106 16.7202 27.8717 16.7202C27.6374 16.7202 27.5961 16.8186 27.5961 17.2822Z" fill="white"/>
<path d="M48.6807 17.2822C48.6807 17.8161 48.6531 17.8442 48.2673 17.8442C47.9227 17.8442 47.8538 17.9004 47.8538 18.1955C47.8538 18.4905 47.9227 18.5467 48.2673 18.5467C48.7909 18.5467 48.8047 18.8277 48.281 19.2212C47.7849 19.6005 47.6196 20.2187 47.8952 20.7527C48.1019 21.132 48.0881 21.1601 47.7022 21.4973C47.1786 21.961 47.0408 22.8321 47.3439 23.9C47.6058 24.8133 48.2535 25.8951 48.7358 26.2183C49.0528 26.4291 49.1217 26.4291 49.4111 26.2324C50.1552 25.7406 50.8994 23.5347 50.6927 22.4247C50.6238 22.1015 50.4308 21.7221 50.1966 21.4973C49.8383 21.1601 49.8245 21.118 50.0174 20.7386C50.293 20.2187 50.1277 19.5865 49.6315 19.2212C49.1079 18.8277 49.1217 18.5467 49.6453 18.5467C49.9898 18.5467 50.0588 18.4905 50.0588 18.1955C50.0588 17.9004 49.9898 17.8442 49.6453 17.8442C49.2595 17.8442 49.2319 17.8161 49.2319 17.2822C49.2319 16.8185 49.1906 16.7202 48.9563 16.7202C48.722 16.7202 48.6807 16.8185 48.6807 17.2822Z" fill="white"/>
<path d="M35.7957 17.9845C34.5417 18.1953 33.4806 18.5325 33.1498 18.8697C32.7364 19.2491 32.6951 20.4855 33.0809 20.8368C33.3427 21.0756 34.7622 21.6798 34.8586 21.5815C34.8862 21.5534 34.9413 21.1881 34.9551 20.7665C34.9827 20.1343 35.0516 19.9938 35.3272 19.8533C36.2643 19.3615 36.4159 19.6565 36.4159 21.9046C36.4021 24.2651 36.0162 26.2884 35.2721 27.848L34.8311 28.7753L35.1756 29.1828C35.3685 29.3935 35.6855 29.787 35.8784 30.0539L36.2367 30.5176L36.6777 29.2952C37.3254 27.4546 37.5321 26.0074 37.6148 22.5088L37.6975 19.3896H38.5519H39.4063L39.489 22.6493C39.5579 25.2065 39.6268 26.2322 39.861 27.3C40.1642 28.7472 40.7844 30.5316 40.9635 30.4614C41.0186 30.4333 41.3494 30.068 41.6939 29.6464L42.314 28.8737L41.8455 27.9182C41.5836 27.3984 41.2529 26.457 41.0875 25.8107C40.7844 24.5461 40.5914 21.3988 40.743 20.331C40.8257 19.769 40.8946 19.6706 41.1427 19.6706C41.308 19.6846 41.5974 19.769 41.7766 19.8673C42.0522 20.0219 42.1211 20.1764 42.1349 20.7806C42.1487 21.174 42.19 21.5393 42.2313 21.5815C42.2727 21.6236 42.7274 21.4691 43.2236 21.2302L44.1331 20.8087V19.8814C44.1331 18.9962 44.1193 18.954 43.6921 18.6871C42.8928 18.1953 41.4596 17.9564 38.9653 17.9002C37.6837 17.8862 36.2505 17.9143 35.7957 17.9845Z" fill="white"/>
<path d="M13.3053 18.898C11.9272 19.6146 11.2795 20.7948 11.2795 22.5511C11.2795 24.0264 11.5414 24.5463 13.0573 26.2323C14.3113 27.6374 14.518 28.1151 14.2424 28.9862C13.9806 29.7871 12.8505 30.7847 11.9272 31.0376L11.6103 31.1219L12.0926 32.0774C12.8505 33.5808 13.6361 34.6767 14.9039 35.9974C15.5378 36.6859 16.1166 37.2339 16.1717 37.2339C16.2268 37.2339 16.1993 36.9669 16.1304 36.6297C15.9374 35.7586 16.0615 33.6089 16.4335 31.698C16.7092 30.2367 16.7367 29.9276 16.5989 29.2392C16.3922 28.2837 15.6618 26.696 14.3664 24.4339C13.829 23.4925 13.4156 22.6495 13.4569 22.5511C13.5671 22.2561 14.9452 21.6378 15.4551 21.6378C16.0477 21.6378 16.9572 22.0453 17.3017 22.4528C17.5222 22.6916 17.536 22.8181 17.412 23.2817C17.1915 24.0826 17.219 26.6679 17.4671 27.4828C17.66 28.1713 18.418 29.5342 18.9968 30.2648L19.2999 30.6302L19.9339 30.3351C20.4024 30.1243 20.5816 29.9557 20.6505 29.6747C20.6918 29.464 20.7883 29.1549 20.8572 28.9722C20.9261 28.7895 20.9812 28.6209 20.9812 28.5928C20.9812 28.5647 20.678 28.4383 20.3197 28.3259C19.6445 28.087 19.0932 27.6233 18.7763 26.977C18.4869 26.4291 18.5833 25.0662 18.9968 23.6752C19.2035 22.9726 19.4102 22.0594 19.4378 21.6238C19.4929 20.851 19.4791 20.837 18.8176 20.1625C17.8392 19.1509 16.654 18.6451 15.1933 18.5748C14.1459 18.5327 13.953 18.5608 13.3053 18.898Z" fill="white"/>
<path d="M60.2978 18.7575C59.4296 19.0245 58.589 19.5724 57.9413 20.289C57.2109 21.0899 57.1971 21.5676 57.7897 23.4504C58.3409 25.1926 58.396 26.5274 57.9551 27.2581C57.6519 27.7639 56.9077 28.2697 56.2462 28.4383L55.8879 28.5226L56.0947 29.2813C56.2738 29.9698 56.3565 30.0541 56.9353 30.3351L57.5692 30.6302L57.8172 30.307C58.4925 29.464 59.1815 28.2416 59.3883 27.5391C59.6501 26.6398 59.7052 24.1107 59.4709 23.2958C59.3469 22.8884 59.3607 22.7198 59.5261 22.4809C59.8017 22.0734 60.7525 21.6379 61.3589 21.6379C61.9239 21.6379 63.2606 22.228 63.3709 22.5371C63.4122 22.6495 62.9575 23.6049 62.3373 24.7009C61.0006 27.0473 60.4356 28.2978 60.2289 29.2813C60.1186 29.8996 60.1462 30.2649 60.408 31.5575C60.6699 32.7659 60.7388 33.5246 60.7388 35.1404V37.2058L61.3727 36.6578C62.5027 35.7024 63.991 33.6651 64.8592 31.9369C65.2864 31.0657 65.2864 31.0517 64.9695 31.0517C64.6249 31.0517 63.5638 30.3351 63.1228 29.8153C62.9299 29.5764 62.6819 29.1549 62.5992 28.8739C62.3511 28.1151 62.6267 27.525 63.867 26.1481C65.314 24.5604 65.562 24.0264 65.5483 22.4809C65.5483 21.4693 65.4931 21.1742 65.19 20.5841C64.4734 19.1931 63.4122 18.5468 61.8412 18.5608C61.3176 18.5608 60.6147 18.6451 60.2978 18.7575Z" fill="white"/>
<path d="M24.0407 21.7784C23.5308 21.9048 22.7315 22.4949 22.3043 23.0851C21.8771 23.6611 21.8358 24.9257 22.2216 25.8109C22.387 26.2183 22.6351 26.6398 22.7591 26.7522C22.9796 26.963 23.0623 26.963 23.6135 26.7663C23.9442 26.6398 24.6057 26.4993 25.088 26.4572C25.5566 26.415 25.9424 26.3448 25.9424 26.3167C25.9424 26.2886 25.8597 26.12 25.7495 25.9514C25.3774 25.3612 24.9916 23.9281 24.8951 22.7759C24.84 22.0875 24.7435 21.6379 24.647 21.6519C24.5644 21.666 24.2887 21.7222 24.0407 21.7784Z" fill="white"/>
<path d="M52.0846 21.7221C52.0294 21.7783 51.9881 22.0874 51.9881 22.4106C51.9881 23.3098 51.7263 24.5462 51.3542 25.4033C51.175 25.8248 51.0234 26.2182 51.0234 26.2885C51.0234 26.3587 51.2577 26.415 51.5471 26.429C51.8227 26.429 52.4842 26.5414 53.0216 26.6819C54.1103 26.977 54.0828 26.991 54.6064 25.9091C54.9785 25.1504 54.9647 24.0264 54.5927 23.2395C54.3033 22.6213 53.2697 21.7783 52.8012 21.7783C52.6633 21.7783 52.4704 21.7502 52.374 21.708C52.2637 21.6659 52.1397 21.6799 52.0846 21.7221Z" fill="white"/>
<path d="M30.7657 22.284C30.7657 23.3097 30.4763 24.6586 30.0766 25.5297L29.677 26.4149L30.0491 26.4992C30.7795 26.6678 30.9862 26.738 31.7028 27.0753L32.4194 27.4265L32.695 27.0893C33.26 26.4149 33.6596 25.3892 33.6596 24.6586C33.6596 23.2816 32.6399 22.0452 31.3583 21.8344L30.7657 21.7361V22.284Z" fill="white"/>
<path d="M44.8911 22.0453C43.8024 22.5652 43.1685 23.5487 43.1685 24.743C43.1685 25.291 43.8437 26.7944 44.2571 27.1737C44.5052 27.4126 44.5465 27.3986 45.1253 27.1035C45.4423 26.9349 46.0349 26.7101 46.4069 26.6258C46.7928 26.5274 47.0822 26.401 47.0684 26.3307C47.0546 26.2605 46.8755 25.8108 46.6826 25.3191C46.338 24.4761 45.966 22.1858 46.1313 21.9048C46.2691 21.68 45.4698 21.7784 44.8911 22.0453Z" fill="white"/>
<path d="M24.9088 27.2018C23.517 27.553 22.7866 27.8621 22.4696 28.1993C21.9873 28.7192 21.6704 29.506 21.6704 30.1945C21.6704 30.6722 21.7255 30.7706 21.9873 30.8268C22.1527 30.8689 23.1311 31.0797 24.1509 31.3045C25.3498 31.5715 26.094 31.6839 26.2318 31.5996C26.5625 31.4169 26.7968 30.6722 26.6177 30.335C26.4385 29.9978 25.5979 29.9697 25.4187 30.2929C25.3223 30.4755 25.2258 30.4896 25.0466 30.3772C24.8124 30.2507 24.8262 30.2086 25.212 29.8151C25.9562 29.0564 26.9622 29.0564 27.8028 29.8011C28.671 30.5879 28.5194 31.712 27.4996 32.0351C27.2102 32.1335 26.9346 32.2459 26.8795 32.3021C26.8244 32.3442 27.1551 32.7095 27.6099 33.0889C29.6908 34.8312 31.0413 37.7115 31.0413 40.3671C31.0413 42.0812 29.9802 45.0037 28.8364 46.4931C27.7477 47.8981 25.336 49.3453 23.3654 49.7949C22.1389 50.076 20.3061 50.09 19.6859 49.8231C19.3965 49.6966 19.176 49.4718 19.052 49.1767C18.8866 48.7693 18.9004 48.6569 19.1347 48.2072C19.4654 47.5609 20.1131 47.3361 20.6368 47.6874C20.8435 47.8279 20.9813 48.0527 20.9813 48.2494C20.9813 48.6569 21.3534 48.7833 21.9873 48.6007C23.1862 48.2634 23.9442 46.465 23.4067 45.2004C23.1173 44.4979 22.5799 44.0905 20.3612 42.854C16.0616 40.4514 14.2425 38.8356 12.2581 35.6461C11.5553 34.5221 10.0945 31.5293 9.47438 29.9276C9.19877 29.1969 8.86803 28.4803 8.744 28.3398C8.46839 28.0307 7.86203 28.0307 7.57264 28.3539C7.2419 28.7192 7.28324 29.2531 7.75179 31.1218C8.45461 33.9179 9.48816 36.1379 11.5966 39.4116C12.8507 41.3506 12.7818 41.2241 12.5613 41.0977C12.451 41.0274 11.7069 40.4233 10.9076 39.7348C9.28145 38.3578 7.94472 36.8685 6.13944 34.4518C5.05076 33.0046 4.91295 32.8782 4.49953 32.8782C4.03098 32.8782 3.61756 33.2716 3.61756 33.7212C3.61756 34.0865 4.72002 36.2222 5.60199 37.5851C6.5253 38.9901 9.65353 42.3482 11.4037 43.8094C12.9885 45.1302 13.016 45.1723 12.3683 44.8913C11.5966 44.5682 8.79913 43.0507 7.8896 42.4606C6.8147 41.7581 5.24369 40.5497 3.96208 39.4257C2.54266 38.1752 2.30839 38.0347 1.97765 38.1471C1.0819 38.4281 1.0819 39.0323 1.95009 40.1985C3.81049 42.6854 7.22812 45.3971 11.2659 47.6031C12.8231 48.4461 12.6715 48.4461 10.0256 47.6733C7.62776 46.9708 6.19456 46.3666 3.45219 44.9335C0.833846 43.5565 0.461765 43.4722 0.144808 44.1888C-0.0894651 44.7087 0.158589 45.1021 1.27483 46.0435C3.38329 47.8279 6.4564 49.4015 10.7836 50.933L12.644 51.5934L11.2659 51.5091C8.92315 51.3827 6.40127 50.9892 4.16879 50.4132C0.957873 49.5701 0.737381 49.5139 0.489327 49.6825C0.0896848 49.9355 -0.034342 50.2586 0.103466 50.6801C0.213712 51.0033 0.54445 51.2281 1.77094 51.8463C2.59778 52.2819 3.71403 52.7737 4.25147 52.9423C5.43662 53.3357 9.32279 54.1647 11.6104 54.5019C12.6991 54.6705 13.209 54.7829 12.9885 54.8391C11.8722 55.106 8.99206 55.2746 5.60199 55.2887C1.46776 55.2887 1.27483 55.3168 1.27483 55.9772C1.27483 56.6375 1.61935 56.8624 3.21792 57.2558C5.13344 57.7194 7.173 57.888 10.6457 57.874C12.7818 57.874 13.333 57.9021 13.333 58.0566C13.333 58.3096 9.97049 59.3071 6.78713 59.9675C5.0921 60.3328 4.05854 60.6138 3.87939 60.7824C3.53488 61.1056 3.54866 61.6114 3.90696 61.9767C4.19635 62.2718 4.29282 62.2718 6.42883 62.2015C8.33058 62.1453 9.0334 62.047 11.3348 61.5552C12.8782 61.2321 14.0634 61.0353 14.1323 61.1056C14.2563 61.2321 12.8645 62.0189 8.99206 64.0141L7.13165 64.9835V65.5456C7.13165 65.9952 7.20056 66.1357 7.50373 66.3043C7.83447 66.501 7.98606 66.4869 9.48816 66.0654C10.3839 65.8125 11.9687 65.2364 13.0023 64.7728C14.0496 64.3091 14.9316 63.9297 14.9729 63.9297C15.0005 63.9297 15.0556 64.0843 15.0832 64.281C15.1383 64.5761 15.0142 64.7447 14.2425 65.391C13.0436 66.3886 11.5415 67.9903 11.4175 68.3978C11.2934 68.7772 11.6104 69.3392 12.01 69.4797C12.327 69.5781 13.016 69.2408 14.5181 68.2714C15.0969 67.892 15.6206 67.5829 15.7033 67.5829C15.9789 67.5829 16.3785 71.2641 16.6955 76.6033C16.7644 77.8959 16.8747 78.753 16.9849 78.8935C17.0814 79.0059 17.3708 79.1043 17.6602 79.1043H18.1563V77.6571C18.1563 76.4909 18.2114 76.0975 18.4594 75.5636C18.7351 74.9594 18.7351 74.8048 18.6248 73.2452C18.3354 69.3673 18.0047 67.2176 16.0754 56.8483C15.6895 54.7688 15.5104 53.434 15.5793 53.3638C15.6619 53.2795 16.2821 53.3216 17.2054 53.4762C20.0167 53.9539 24.8537 53.7993 26.3834 53.1811C26.5763 53.1109 26.535 53.3357 26.1491 54.4878C25.3223 56.9748 25.0604 58.717 25.0604 61.7519C25.0604 63.9579 25.1155 64.7025 25.3636 65.9952C26.1078 69.8029 27.7063 73.1469 29.8975 75.4652C30.7657 76.3785 30.8346 76.5752 30.3109 76.5752C29.9664 76.5752 28.0784 77.5025 27.8579 77.7835C27.7339 77.9381 27.7477 78.1208 27.9268 78.5985C28.0508 78.9497 28.23 79.2869 28.3265 79.3572C28.4229 79.4274 29.2911 79.568 30.2558 79.6523C33.5218 79.9473 35.4511 80.5234 36.4985 81.5491C37.1599 82.2094 37.4493 83.0244 37.2977 83.8393C37.0635 85.1179 34.0317 87.4081 31.6063 88.1528C31.2066 88.2652 29.9388 88.5322 28.795 88.7429C26.4523 89.1644 26.0802 89.2628 26.0802 89.5579C26.0802 89.8529 27.0862 90.6116 27.8717 90.9208C29.3462 91.4968 30.9999 91.3985 32.9017 90.6397C34.266 90.1058 35.3409 89.3471 36.5949 88.0545L37.656 86.9585L37.3253 87.8577C36.8016 89.3049 36.5674 89.6562 35.52 90.724C34.4038 91.8621 33.4254 92.4101 31.7303 92.8597C30.4487 93.1829 30.366 93.4498 31.3858 93.9838C31.9508 94.2648 32.2815 94.335 33.1773 94.3491C34.4589 94.3491 35.2858 94.0821 36.2228 93.3515L36.843 92.8597L37.3666 94.0259C37.656 94.6722 37.9592 95.3607 38.0419 95.5715C38.3589 96.3302 38.662 96.0773 39.42 94.4193L40.1228 92.8597L40.7429 93.3515C41.68 94.0821 42.5069 94.3491 43.7885 94.3491C44.6842 94.335 45.015 94.2648 45.58 93.9838C46.5998 93.4498 46.5171 93.1829 45.2355 92.8597C43.5404 92.4101 42.562 91.8621 41.4458 90.724C40.3984 89.6562 40.1641 89.3049 39.6405 87.8577L39.3097 86.9585L40.3709 88.0545C41.6249 89.3471 42.6998 90.1058 44.0641 90.6397C45.9658 91.3985 47.6195 91.4968 49.0941 90.9208C49.8796 90.6116 50.8856 89.8529 50.8856 89.5579C50.8856 89.2628 50.5135 89.1644 48.1708 88.7429C47.027 88.5322 45.7591 88.2652 45.3595 88.1528C42.9341 87.4081 39.9023 85.1179 39.668 83.8393C39.5164 83.0244 39.8058 82.2094 40.4673 81.5491C41.5147 80.5234 43.444 79.9473 46.71 79.6523C47.6747 79.568 48.5428 79.4274 48.6393 79.3572C48.7358 79.2869 48.9149 78.9497 49.039 78.5985C49.2181 78.1208 49.2319 77.9381 49.1079 77.7835C48.846 77.4744 46.9718 76.5752 46.5722 76.5752C46.3655 76.5752 46.2001 76.5611 46.2001 76.533C46.2001 76.519 46.5722 76.0834 47.0407 75.5917C49.2319 73.2031 50.8167 69.9434 51.6022 66.2762C51.864 65.0397 51.9053 64.4075 51.9053 61.7519C51.9053 58.3377 51.74 57.1715 50.8856 54.6002C50.6651 53.8977 50.4721 53.2935 50.4721 53.2233C50.4721 53.1671 50.61 53.1671 50.7891 53.2373C50.9683 53.3076 51.7538 53.4762 52.5393 53.6026C54.2481 53.8977 57.707 53.8274 59.8982 53.4621C60.7388 53.3076 61.3038 53.2795 61.3865 53.3638C61.4692 53.4481 61.2763 54.7548 60.8904 56.8483C58.9611 67.2176 58.6304 69.3673 58.341 73.2452C58.2307 74.8048 58.2307 74.9594 58.5063 75.5636C58.7544 76.0975 58.8095 76.4909 58.8095 77.6571V79.1043H59.3056C59.595 79.1043 59.8844 79.0059 59.9809 78.8935C60.0911 78.753 60.2014 77.8959 60.2703 76.6033C60.5872 71.2641 60.9869 67.5829 61.2625 67.5829C61.3452 67.5829 61.8688 67.892 62.4476 68.2714C63.9497 69.2408 64.6388 69.5781 64.9557 69.4797C65.3554 69.3392 65.6723 68.7772 65.5483 68.3978C65.4243 67.9903 63.9222 66.3886 62.7232 65.391C61.9515 64.7447 61.8275 64.5761 61.8826 64.281C61.9102 64.0843 61.9653 63.9297 61.9929 63.9297C62.0342 63.9297 62.9162 64.3091 63.9635 64.7728C64.9971 65.2364 66.5819 65.8125 67.4776 66.0654C68.9797 66.4869 69.1313 66.501 69.462 66.3043C69.7652 66.1357 69.8341 65.9952 69.8341 65.5456V64.9835L67.9737 64.0141C64.1013 62.0189 62.7095 61.2321 62.8335 61.1056C62.9024 61.0353 64.0875 61.2321 65.631 61.5552C67.9324 62.047 68.6352 62.1453 70.5369 62.2015C72.673 62.2718 72.7694 62.2718 73.0588 61.9767C73.4171 61.6114 73.4309 61.1056 73.0864 60.7824C72.9072 60.6138 71.8737 60.3328 70.1786 59.9675C66.9953 59.3071 63.6328 58.3096 63.6328 58.0566C63.6328 57.9021 64.184 57.874 66.32 57.874C69.7928 57.888 71.8323 57.7194 73.7479 57.2558C75.3464 56.8624 75.6909 56.6375 75.6909 55.9772C75.6909 55.3168 75.498 55.2887 71.3638 55.2887C67.9737 55.2746 65.0935 55.106 63.9773 54.8391C63.7568 54.7829 64.2667 54.6705 65.3554 54.5019C67.643 54.1647 71.5292 53.3357 72.7143 52.9423C73.2517 52.7737 74.368 52.2819 75.1948 51.8463C76.4213 51.2281 76.7521 51.0033 76.8623 50.6801C77.0001 50.2586 76.8761 49.9355 76.4764 49.6825C76.2284 49.5139 76.0079 49.5701 72.797 50.4132C70.5645 50.9892 68.0426 51.3827 65.6999 51.5091L64.3218 51.5934L66.1822 50.933C70.5094 49.4015 73.5825 47.8279 75.6909 46.0435C76.8072 45.1021 77.0552 44.7087 76.821 44.1888C76.504 43.4722 76.1319 43.5565 73.5136 44.9335C70.7712 46.3666 69.338 46.9708 66.9402 47.6733C64.2805 48.4602 64.1427 48.4461 65.7688 47.5609C68.2631 46.198 71.4878 43.9218 72.9899 42.4465C74.5609 40.8869 75.6909 39.4397 75.6909 38.9761C75.6909 38.3438 74.9192 37.9082 74.4093 38.2595C74.244 38.3719 73.61 38.8918 73.0037 39.4257C71.7221 40.5497 70.1511 41.7581 69.0762 42.4606C68.1666 43.0507 65.3691 44.5682 64.5974 44.8913C63.9497 45.1723 63.9773 45.1302 65.5621 43.8094C67.3122 42.3482 70.4405 38.9901 71.3638 37.5851C72.2458 36.2222 73.3482 34.0865 73.3482 33.7212C73.3482 33.2716 72.9348 32.8782 72.4662 32.8782C72.0528 32.8782 71.915 33.0046 70.8263 34.4518C69.021 36.8685 67.6843 38.3578 66.0582 39.7348C65.2589 40.4233 64.5147 41.0274 64.4045 41.0977C64.184 41.2241 64.1151 41.3506 65.3691 39.4116C67.4776 36.1379 68.5112 33.9179 69.214 31.1218C69.6963 29.225 69.7239 28.663 69.3793 28.3398C69.0486 28.0307 68.4836 28.0307 68.2218 28.3398C68.0977 28.4803 67.767 29.1969 67.4914 29.9276C66.9126 31.4029 65.3967 34.5642 64.8317 35.4634C62.6681 38.8918 60.9455 40.4233 56.6046 42.854C54.3859 44.0905 53.8484 44.4979 53.559 45.2004C53.0216 46.465 53.7795 48.2634 54.9785 48.6007C55.6537 48.7974 55.9845 48.6569 55.9845 48.1932C55.9845 47.8981 56.0809 47.7717 56.3841 47.6312C56.9629 47.3923 57.5141 47.6031 57.8311 48.2213C58.0653 48.6569 58.0791 48.7693 57.9138 49.1767C57.6657 49.7949 57.0731 50.0198 55.7088 50.0198C54.1792 50.0198 52.8424 49.6966 51.3679 48.9519C48.7358 47.6452 47.1096 45.7625 46.2415 43.0648C45.7867 41.6457 45.7316 39.51 46.1036 38.0768C46.5722 36.3065 47.2337 35.1824 48.6944 33.679C50.0036 32.3302 50.0312 32.3021 49.6866 32.1616C49.5075 32.0913 49.3008 32.0351 49.2457 32.0351C49.1905 32.0351 49.0114 31.8946 48.846 31.712C48.0054 30.7987 48.9976 29.225 50.417 29.225C51.2025 29.225 52.2774 30.0821 51.8364 30.3631C51.7262 30.4334 51.5608 30.3912 51.423 30.2648C51.2025 30.054 50.7753 30.0119 50.417 30.1524C50.0587 30.2929 50.1414 31.1218 50.5411 31.445C50.8305 31.6839 50.9683 31.6979 51.4092 31.5996C51.8916 31.4731 55.0474 30.7706 55.13 30.7706C55.2265 30.7706 55.13 29.4639 55.006 29.1267C54.758 28.4382 54.0689 27.8481 53.1043 27.5109C52.3188 27.2299 51.9329 27.1877 50.1965 27.1877C47.9916 27.2018 47.0545 27.3844 45.5524 28.115C43.6093 29.0564 42.121 30.7987 40.6878 33.8195C39.8747 35.5337 38.8963 38.2314 38.6896 39.3835C38.5518 40.1282 38.3864 40.1563 38.2073 39.4538C37.532 36.6999 36.1402 33.3418 34.8172 31.3186C33.5907 29.4358 31.8819 28.1431 29.801 27.539C28.795 27.2439 25.5979 27.0191 24.9088 27.2018ZM40.6051 46.0856C45.1252 47.2659 48.6531 51.7901 49.8796 57.9723C50.2379 59.8551 50.2103 63.9438 49.8107 65.7844C48.8185 70.407 46.6273 74.018 43.6507 76.0132C40.4811 78.1067 36.967 78.2051 33.7561 76.2801C32.1575 75.3107 30.1042 73.1047 29.1947 71.3625L28.9328 70.8566L30.2144 68.5524C31.937 65.4472 31.8819 65.5315 32.0059 65.7704C32.0611 65.8828 32.378 67.1333 32.695 68.5524L33.2875 71.1377L32.8466 71.4749C32.6123 71.6575 32.4194 71.9104 32.4194 72.0228C32.4194 72.346 33.0946 72.5287 34.0041 72.4725C34.7759 72.4163 34.8585 72.4303 35.52 72.9502C35.8921 73.2452 36.526 73.6105 36.8981 73.751C37.5045 73.9759 37.6009 74.0742 37.6698 74.4957C37.849 75.6057 38.3451 75.6198 39.2546 74.5379C39.6267 74.1023 40.0539 73.737 40.2744 73.6948C40.4811 73.6527 40.8532 73.4419 41.1012 73.2171L41.556 72.8378L40.9359 72.4584C39.6543 71.6997 38.8274 70.3789 38.4002 68.44C38.0419 66.8382 38.1935 63.5785 38.6896 61.8924C39.1581 60.2485 40.2744 58.0847 41.1701 57.0731C41.8592 56.3003 41.873 56.2582 41.7489 55.7383C41.556 54.9374 40.8532 54.2911 39.8472 54.0101C38.9101 53.7431 38.7309 53.5183 39.1306 53.0687C39.5991 52.5488 39.7232 52.1835 39.7232 51.3405C39.7232 50.5115 39.3786 49.7106 38.9514 49.542C38.7723 49.4718 38.7861 49.4015 39.0341 49.0222L39.3373 48.6007L39.0203 48.2213C38.8412 48.0105 38.6758 47.8138 38.662 47.7857C38.6345 47.7436 37.656 48.2072 37.656 48.2634C37.656 48.2634 37.7112 48.4742 37.7801 48.7271C37.9041 49.1627 37.8765 49.2329 37.284 49.809L36.6638 50.4272L36.719 51.2562C36.7603 51.9025 36.8568 52.1976 37.1599 52.5488C37.6698 53.1811 37.5871 53.5464 36.8568 53.8134C36.5398 53.9398 36.1815 54.1225 36.085 54.2349C35.9748 54.3473 35.396 55.5697 34.7896 56.9326C33.5218 59.813 33.0533 60.6279 32.2126 61.3304C31.5236 61.8924 31.3169 62.5247 31.5649 63.2975C31.689 63.7471 31.6063 63.9438 30.1042 66.7539C28.2851 70.1822 28.4091 70.112 27.7339 67.8639C26.4798 63.733 26.535 59.0121 27.8855 55.106C30.2006 48.4461 35.4236 44.7368 40.6051 46.0856ZM36.5122 58.2815C36.719 58.5063 36.967 58.717 37.0497 58.7451C37.1324 58.7732 37.2288 59.1666 37.2702 59.6022L37.3391 60.4171L35.7267 61.0494C34.8585 61.4007 34.1006 61.6817 34.0455 61.6817C33.9766 61.6817 36.0161 57.9021 36.0988 57.888C36.1126 57.888 36.2917 58.0707 36.5122 58.2815Z" fill="white"/>
<path d="M40.9633 47.8278C40.4672 48.0666 40.3018 48.2352 40.1502 48.6989C39.9711 49.2328 39.9711 49.3171 40.2191 49.7246L40.4948 50.1602L41.0873 49.5419C41.6386 48.9799 41.6661 48.8956 41.6248 48.2352L41.5834 47.5327L40.9633 47.8278Z" fill="white"/>
<path d="M43.5817 56.3003C42.6721 56.6376 41.2941 58.0988 40.5912 59.5039C39.5301 61.6395 39.1167 63.4239 39.1167 65.8968C39.1167 68.4681 39.599 70.0839 40.7015 71.2079C41.5697 72.0931 42.6721 72.2477 43.8711 71.6435C44.5601 71.2922 45.9106 69.7748 46.4481 68.735C47.4403 66.8382 47.9915 64.4918 47.9915 62.1875C47.9777 59.1666 47.1095 57.031 45.5799 56.3284C44.9184 56.0193 44.4085 56.0053 43.5817 56.3003ZM45.3732 57.874C46.2551 58.3517 46.6961 59.546 46.8201 61.8924C46.9028 63.2272 46.889 63.2834 46.6686 62.9743C46.5445 62.8057 46.3516 62.6652 46.2551 62.6652C46.1173 62.6652 46.076 62.5669 46.1311 62.3421C46.2276 61.9767 45.8555 61.4288 45.511 61.3866C44.9046 61.3164 44.7117 61.4147 44.5601 61.8362C44.3534 62.4404 44.3672 62.5107 44.629 62.1313C44.7392 61.9627 44.9184 61.8222 45.0286 61.8222C45.1802 61.8222 45.1665 61.9346 44.946 62.314C44.6428 62.8338 44.7117 62.9322 45.1527 62.595C45.2905 62.4966 45.3594 62.3421 45.318 62.2718C45.2216 62.1173 45.5799 61.9346 45.7039 62.061C45.9382 62.314 45.7039 62.7355 44.8908 63.4661C44.3947 63.9157 43.9951 64.3934 43.9951 64.5199C43.9951 64.6604 44.0364 64.7728 44.0778 64.7728C44.1191 64.7728 44.5463 64.4215 45.0011 64C45.8555 63.2272 46.2 63.0586 46.2 63.4239C46.2 63.7893 46.0484 64.0562 45.8693 63.986C45.7728 63.9438 45.5799 64.0703 45.4558 64.267C45.2216 64.6604 45.3456 64.7306 45.8004 64.4918C46.1449 64.2951 46.1311 64.5058 45.7728 64.9695C45.5799 65.2224 45.5523 65.3348 45.6763 65.3348C45.9795 65.3348 46.4756 64.9273 46.3929 64.7306C46.3654 64.6323 46.4205 64.4356 46.5307 64.281C46.7375 64 46.7375 64 46.7512 64.281C46.7512 64.6744 46.2689 66.4027 45.9382 67.1895C45.6763 67.8218 45.6488 67.8358 45.318 67.6812C44.9322 67.4986 44.8771 67.3721 45.0975 67.2316C45.3456 67.0771 45.2491 66.8523 44.9735 66.9506C44.7668 67.0068 44.6014 66.8804 44.2431 66.3605C43.8848 65.8125 43.7884 65.7423 43.747 65.9671C43.7057 66.1076 43.8297 66.5151 44.0089 66.8663C44.2569 67.3159 44.2983 67.4986 44.1742 67.5407C43.8297 67.6672 43.9951 67.892 44.3534 67.8077C44.6566 67.7234 44.6979 67.7515 44.6152 67.9904C44.5601 68.173 44.629 68.3697 44.8219 68.5664L45.1113 68.8615L44.6979 69.3954C44.0916 70.1682 42.9615 70.7443 42.3001 70.6178C41.6524 70.4913 40.9082 69.7326 40.6326 68.8755C40.3707 68.1028 40.357 67.9623 40.5912 68.0466C40.8117 68.1309 41.2389 67.892 41.2389 67.6953C41.2389 67.611 41.5559 67.2035 41.928 66.7961C42.5343 66.1357 42.7962 65.6158 42.5205 65.6158C42.4654 65.6158 42.1071 65.9249 41.7213 66.3043C41.3492 66.6837 40.8669 67.0209 40.6601 67.0771L40.2743 67.1614V66.3464C40.2743 65.2786 40.5361 63.1991 40.7015 63.0165C40.8117 62.9041 40.8393 62.9462 40.8806 63.5364C40.8944 63.7331 41.1838 63.9017 41.5283 63.9157C41.6937 63.9298 41.735 63.8314 41.6799 63.5785C41.6524 63.3818 41.5697 63.2694 41.5008 63.3115C41.2941 63.438 41.0322 62.6793 41.2114 62.4966C41.3216 62.3842 41.5283 62.609 41.9969 63.3396C42.3414 63.8876 42.6859 64.3794 42.7548 64.4215C43.0856 64.6323 42.8375 63.7752 42.3414 63.0165C41.9831 62.4545 41.8453 62.1313 41.9418 62.0329C42.1071 61.8643 42.5481 62.1173 42.5481 62.3983C42.5481 62.5809 43.0029 63.0305 43.0856 62.9322C43.182 62.8057 43.3198 62.047 43.2234 62.1454C43.1682 62.2016 42.9478 62.0751 42.741 61.8784C42.4241 61.5693 42.2725 61.5131 41.8591 61.5833C41.5835 61.6255 41.2389 61.8081 41.0873 61.9908L40.8117 62.314L40.8944 61.9627C40.9495 61.766 41.2252 61.1056 41.5146 60.4874C42.6446 58.0988 44.0364 57.1434 45.3732 57.874ZM40.9633 67.5829C40.9633 67.6531 40.8669 67.7234 40.7566 67.7234C40.6464 67.7234 40.5499 67.6531 40.5499 67.5829C40.5499 67.4986 40.6464 67.4424 40.7566 67.4424C40.8669 67.4424 40.9633 67.4986 40.9633 67.5829ZM45.2354 68.0747C45.2354 68.1871 45.1802 68.2854 45.1113 68.2854C44.9322 68.2854 44.8082 68.0606 44.9184 67.9482C45.07 67.7937 45.2354 67.8639 45.2354 68.0747Z" fill="white"/>
<path d="M43.1685 58.7732C43.1685 58.9418 43.32 59.3212 43.513 59.6163C43.7059 59.8973 43.8575 60.2485 43.8299 60.389C43.8024 60.5717 43.8988 60.6419 44.2296 60.67C44.6017 60.7122 44.6568 60.67 44.5879 60.4452C44.5465 60.2485 44.6292 60.1361 44.96 59.9956C45.4423 59.7989 45.7868 59.3633 45.7868 58.9699C45.7868 58.7311 45.7592 58.7311 45.3872 58.998C44.9048 59.3493 44.767 59.3633 44.8773 59.0683C44.9186 58.9559 44.8635 58.7592 44.7532 58.6468C44.5052 58.3939 43.9953 58.6187 43.9953 58.984C43.9815 59.1666 43.9126 59.1245 43.7059 58.8294C43.3614 58.3658 43.1685 58.3377 43.1685 58.7732Z" fill="white"/>
<path d="M43.8573 61.0775C43.8573 61.204 42.2449 69.1144 42.1071 69.6764C42.0658 69.8731 42.0933 70.0417 42.2036 70.112C42.493 70.2946 42.7548 70.112 42.7548 69.7186C42.7548 69.5219 43.0718 67.6531 43.4438 65.5596C43.8297 63.4661 44.1604 61.5833 44.2018 61.3585C44.2431 61.0916 44.2018 60.9792 44.064 60.9792C43.9537 60.9792 43.8573 61.0213 43.8573 61.0775Z" fill="white"/>
<path d="M20.3473 31.4871C19.7685 31.6558 19.1071 32.4426 18.9004 33.1873C18.6936 34.0022 18.8177 35.4353 19.1898 36.4329L19.4929 37.2478L20.1682 36.6015C20.5403 36.2362 21.2707 35.7444 21.7805 35.5056C22.6212 35.0981 22.8141 35.056 24.0819 35.056C25.2257 35.056 25.5702 35.1122 26.1353 35.3791C27.5822 36.0536 28.8363 37.3181 28.8363 38.0909C28.8363 38.9761 27.6236 40.0439 26.2731 40.3249C25.6943 40.4514 25.3773 40.4373 24.771 40.2828C23.8477 40.0439 23.7787 40.2406 24.6607 40.634C25.46 40.9993 26.8794 41.0274 27.6374 40.6902C28.2713 40.4092 29.1946 39.5802 29.4702 39.0463C29.7596 38.4562 29.7183 37.3884 29.3737 36.8123C28.9465 36.1098 27.6236 34.8593 26.7003 34.2972C25.3911 33.4964 24.5505 33.2575 22.6763 33.1873C20.6367 33.117 20.43 32.9905 21.2017 32.2599C22.0148 31.5012 21.6014 31.1078 20.3473 31.4871Z" fill="white"/>
<path d="M55.3368 31.4309C55.0336 31.5433 55.1439 31.8103 55.6675 32.2599C56.1223 32.6393 56.1636 32.7376 55.9983 32.9343C55.8467 33.117 55.5435 33.1592 54.4824 33.1592C52.3326 33.1592 50.8856 33.6369 49.4248 34.8031C47.909 36.0395 47.1648 37.0652 47.1648 37.9785C47.1648 40.1001 50.0036 41.6176 52.1534 40.634C52.7598 40.3671 53.311 39.8612 52.7322 40.1141C52.5944 40.1704 52.2086 40.2828 51.8916 40.353C50.1552 40.7464 47.7987 39.229 48.0468 37.8661C48.1708 37.2478 49.48 35.9974 50.5686 35.4634C52.0294 34.7609 54.1516 34.8733 55.5711 35.7163C55.8329 35.8849 56.3428 36.2924 56.7011 36.6437L57.3488 37.2759L57.5141 36.8685C58.0929 35.3651 58.217 33.8476 57.8311 32.9062C57.3763 31.7822 56.1774 31.0797 55.3368 31.4309Z" fill="white"/>
<path d="M23.9442 36.8686C23.5721 37.0653 22.8279 37.6133 22.2905 38.077C21.2294 39.0184 20.4576 39.3415 19.2174 39.3415C18.6937 39.3415 18.487 39.3977 18.5283 39.5101C18.6248 39.8333 19.6583 40.2407 20.5128 40.2969C21.4774 40.3672 22.0149 40.1424 23.1173 39.187C24.0544 38.3861 25.0328 37.9505 26.4936 37.6836C27.224 37.5571 27.7339 37.4025 27.7339 37.3042C27.7339 37.0232 26.6176 36.6438 25.5979 36.5736C24.7572 36.5174 24.5505 36.5595 23.9442 36.8686Z" fill="white"/>
<path d="M49.8933 36.8544C49.4523 37.0089 49.094 37.2197 49.094 37.318C49.094 37.4164 49.4247 37.5288 49.8933 37.585C51.4367 37.7817 52.6632 38.2875 53.7795 39.2008C54.3445 39.6645 55.0197 40.1141 55.2678 40.1984C55.9017 40.4092 57.0455 40.2967 57.707 39.9595C58.5476 39.538 58.4649 39.3835 57.3349 39.3132C56.1084 39.2289 55.5847 38.9901 54.4409 37.9784C52.8148 36.5312 51.5608 36.2221 49.8933 36.8544Z" fill="white"/>
<path d="M20.8434 74.5097C20.5816 74.594 20.1406 74.9031 19.865 75.1841C18.4869 76.5892 19.0381 79.0901 20.8848 79.877C21.753 80.2423 23.3929 80.3828 24.895 80.2282C26.3006 80.0877 27.4582 79.8348 27.4582 79.6803C27.4582 79.6381 27.1826 79.4274 26.8656 79.2307C26.5073 79.0058 26.1766 78.6546 26.025 78.3595C25.8045 77.8537 25.8045 77.8116 26.0663 77.2074L26.3419 76.5751H26.0388C25.708 76.5751 25.1568 76.9123 24.8812 77.2776C24.6331 77.5867 24.6607 78.5 24.9225 78.9075C25.1981 79.329 25.1706 79.3712 24.6056 79.2166C23.5445 78.9215 23.131 77.2495 23.7925 75.8445C23.9854 75.423 24.1508 75.0296 24.1508 74.9874C24.1508 74.9453 23.8614 74.9874 23.5031 75.0998C21.9321 75.5775 21.1879 77.6008 22.1664 78.6967C22.4696 79.0339 22.3869 79.1183 21.877 78.9777C21.5738 78.9075 21.3671 78.6827 21.0915 78.1347C20.5678 77.1231 20.5816 76.3082 21.119 75.2263C21.3395 74.7766 21.5325 74.3832 21.5325 74.3551C21.5325 74.313 21.3671 74.3411 20.8434 74.5097Z" fill="white"/>
<path d="M55.5986 74.4115C56.3978 76.0976 56.4254 76.1959 56.3703 76.8703C56.2738 77.8398 55.7364 78.8514 55.2265 78.992C54.7166 79.1184 54.6752 79.0622 54.9509 78.6407C55.5848 77.6431 55.4607 76.5472 54.6063 75.7182C54.124 75.2405 52.9526 74.7628 52.9526 75.0438C52.9526 75.114 53.0905 75.4231 53.2558 75.7463C54.0413 77.2918 53.5866 78.8514 52.236 79.3011C51.9329 79.3994 51.9191 79.2449 52.1947 78.8796C52.305 78.739 52.4014 78.3597 52.4014 78.0365C52.4014 77.3621 51.8915 76.772 51.1749 76.6315L50.7202 76.5331L50.9407 76.9687C51.4092 77.882 51.0922 78.7952 50.1414 79.3151C49.8658 79.4697 49.6453 79.6242 49.6453 79.6804C49.6453 79.835 50.7891 80.0738 52.2085 80.2284C55.5296 80.5797 57.5141 79.7366 57.9137 77.7836C58.2445 76.1678 57.4727 74.8892 55.8604 74.3974C55.6812 74.3412 55.571 74.3553 55.5986 74.4115Z" fill="white"/>
<path d="M28.4092 80.5094C27.1276 80.7342 26.1354 81.507 25.8047 82.5607C25.5566 83.2914 25.7909 83.46 26.4937 83.0525C27.2654 82.6169 28.106 82.5607 30.0491 82.8136C31.3583 82.9823 31.9647 83.0104 32.7364 82.898C33.9353 82.7153 34.9689 82.2376 34.9689 81.8582C34.9689 81.6194 34.7208 81.521 33.3841 81.1838C31.6753 80.7623 29.6219 80.3548 29.2636 80.3829C29.1396 80.397 28.7537 80.4532 28.4092 80.5094Z" fill="white"/>
<path d="M46.3379 80.5796C45.7729 80.692 44.5877 80.9589 43.7196 81.1838C42.3828 81.521 42.1348 81.6193 42.1348 81.8582C42.1348 82.2375 43.2234 82.7574 44.3672 82.912C45.0425 82.9963 45.7867 82.9682 47.0269 82.8136C48.9976 82.5607 49.8382 82.6169 50.6099 83.0525C51.299 83.4459 51.4919 83.3054 51.2852 82.5888C50.8442 80.9449 48.7771 80.1159 46.3379 80.5796Z" fill="white"/>
<path d="M35.5199 83.179C34.9411 83.8253 32.75 84.2047 28.285 84.4435C26.838 84.5138 25.46 84.6543 25.0879 84.7667C23.7374 85.2023 23.0483 86.0312 23.0483 87.2677C23.0483 88.0686 23.4342 88.9397 23.7787 88.9397C23.8752 88.9397 24.1921 88.6868 24.4815 88.3917C25.143 87.7033 26.0112 87.3098 27.1826 87.1834C30.4624 86.8321 32.3779 86.3685 34.0729 85.4973C35.0376 84.9915 35.9058 84.1906 36.1263 83.5584C36.3743 82.8839 35.9885 82.6451 35.5199 83.179Z" fill="white"/>
<path d="M40.9083 83.0244C40.7705 83.2492 41.1012 83.9377 41.6249 84.4857C42.9065 85.8486 45.6351 86.7338 49.9209 87.1834C51.0923 87.3098 51.9605 87.7033 52.6219 88.3917C52.9113 88.6868 53.2283 88.9397 53.311 88.9397C53.6279 88.9397 54.0551 88.0264 54.0551 87.3239C54.0551 86.0734 53.3523 85.1882 52.0294 84.7808C51.6435 84.6543 50.3068 84.5138 48.8184 84.4435C44.3535 84.2047 42.1623 83.8253 41.5835 83.179C41.3217 82.8839 41.0323 82.8137 40.9083 83.0244Z" fill="white"/>
</g>
<defs>
<clipPath id="clip0_299_238">
<rect width="77" height="96" fill="white"/>
</clipPath>
</defs>
</svg>
