<svg width="148" height="71" viewBox="0 0 148 71" fill="none" xmlns="http://www.w3.org/2000/svg">
<g clip-path="url(#clip0_299_202)">
<path d="M38.4596 35.0923C41.277 29.7588 43.4834 24.1535 44.8073 19.4655C44.2981 19.3976 43.7889 19.3636 43.2458 19.2957C41.9559 23.7119 39.8852 29.0794 37.1018 34.3789C36.5926 35.3641 36.0495 36.3153 35.5063 37.2665C36.2531 37.0287 36.9999 36.7569 37.7467 36.4851C37.9504 36.0095 38.188 35.5339 38.4596 35.0923Z" fill="white"/>
<path d="M18.6697 24.6289C19.0092 23.9835 19.3486 23.372 19.6881 22.7605C18.9413 22.9983 18.2284 23.2361 17.5156 23.4739C17.4477 23.6098 17.3459 23.7457 17.278 23.9155C14.155 29.8265 11.9147 35.6016 10.6248 40.6973C11.1339 40.7313 11.6431 40.7653 12.1862 40.7993C13.4422 36.0433 15.5468 30.506 18.6697 24.6289Z" fill="white"/>
<path d="M15.6489 32.0349C15.4113 32.5785 15.1736 33.122 14.97 33.6655C17.2103 35.6698 19.9938 37.5383 23.1846 39.1009C26.4773 40.6976 29.8379 41.7847 32.9947 42.2942C33.3342 41.8186 33.6397 41.3091 33.9452 40.7995C30.7544 40.3919 27.258 39.3048 23.8635 37.6402C20.6727 36.0775 17.8553 34.1072 15.6489 32.0349Z" fill="white"/>
<path d="M43.9588 28.7396C41.4129 25.3425 37.3395 22.1831 32.5533 19.8731C27.9028 17.597 23.0487 16.3401 18.8735 16.3401C14.257 16.3401 10.9983 17.8348 9.64047 20.5865C7.97716 23.9836 9.70836 28.4339 13.7478 32.5104C13.9854 31.9669 14.1891 31.3894 14.4267 30.8458C11.2698 27.4487 9.84414 23.8477 11.0662 21.2999C12.0845 19.1937 14.9359 17.9707 18.8395 17.9707C22.7772 17.9707 27.3937 19.1597 31.8065 21.3339C36.3551 23.576 40.1909 26.5315 42.601 29.7248C44.8753 32.7482 45.5882 35.5678 44.5698 37.6741C43.5515 39.7803 40.7001 41.0033 36.7964 41.0033C36.423 41.0033 36.0157 40.9693 35.6423 40.9693C35.3029 41.4788 34.9973 42.0224 34.6579 42.532C35.3707 42.5999 36.0836 42.6339 36.7964 42.6339C41.4129 42.6339 44.6717 41.1391 46.0295 38.3875C47.3873 35.7037 46.6405 32.3066 43.9588 28.7396Z" fill="white"/>
<path d="M34.2166 39.3047C27.7671 49.7679 20.0276 57.1736 15.1395 57.1736C14.4946 57.1736 13.9175 57.0378 13.4083 56.766C10.7606 55.3732 10.0478 49.9717 11.779 42.3622C11.2359 42.3282 10.7267 42.2942 10.2175 42.2602C8.45239 50.2435 9.16523 56.2904 12.6955 58.1248C13.4083 58.4985 14.257 58.7023 15.1395 58.7023C20.9441 58.7023 29.4304 50.5832 36.457 38.5574C35.7441 38.8631 34.9973 39.1009 34.2166 39.3047Z" fill="white"/>
<path d="M29.9056 38.3194C28.6496 38.6252 27.3937 38.863 26.1377 39.1008C27.156 39.5084 28.1404 39.8481 29.1248 40.1539C29.4982 40.0859 29.8716 39.984 30.245 39.9161C35.5744 38.6931 40.5304 36.9606 44.6716 34.9223C44.5698 34.4127 44.434 33.9032 44.2304 33.3596C40.1909 35.3639 35.2349 37.0965 29.9056 38.3194Z" fill="white"/>
<path d="M10.4211 24.3573C10.489 24.8669 10.6248 25.4104 10.7945 25.9539C14.7322 23.9156 19.8239 22.0133 25.8322 20.6204C26.5789 20.4506 27.2918 20.2807 28.0386 20.1448C26.9863 19.7712 25.9679 19.4314 24.9496 19.1597C19.3826 20.5185 14.4266 22.319 10.4211 24.3573Z" fill="white"/>
<path d="M23.1843 39.5762C20.4008 39.9499 17.6852 40.1537 15.1733 40.1537C7.56963 40.1537 2.44395 38.3872 1.79899 35.5336C1.25587 33.1216 4.03936 29.8264 9.36872 26.769C9.16505 26.2255 9.02927 25.7159 8.92743 25.1724C2.88523 28.5695 -0.577158 32.4762 0.237521 35.8733C1.12009 39.6102 6.55129 41.7504 15.2073 41.7504C18.5678 41.7504 22.2678 41.4106 26.0357 40.7652C25.0513 40.4255 24.1008 40.0178 23.1843 39.5762Z" fill="white"/>
<path d="M55.5337 23.0662C54.6851 19.3294 49.22 17.1892 40.564 17.1892C36.7282 17.1892 32.4511 17.6308 28.1401 18.4801C29.0906 18.8198 30.0411 19.1935 30.9915 19.6012C34.3181 19.0576 37.5768 18.7859 40.564 18.7859C48.1677 18.7859 53.2933 20.5524 53.9383 23.406C54.4475 25.5801 52.275 28.4337 47.9979 31.1854C47.2511 31.661 46.4704 32.1026 45.6557 32.5442C45.8594 33.0878 46.0291 33.5973 46.1649 34.1069C47.1154 33.5973 48.0319 33.0538 48.8805 32.5442C53.8704 29.3849 56.2126 25.9878 55.5337 23.0662Z" fill="white"/>
<path fill-rule="evenodd" clip-rule="evenodd" d="M31.9761 29.6229C31.9761 32.1028 29.9734 34.1071 27.4954 34.1071C25.0174 34.1071 23.0146 32.1028 23.0146 29.6229C23.0146 27.143 25.0174 25.1387 27.4954 25.1387C29.9734 25.1387 31.9761 27.143 31.9761 29.6229Z" fill="white"/>
<path d="M20.8424 20.7225C21.4195 19.7713 21.9965 18.8201 22.6075 17.9028C22.0305 17.8009 21.4534 17.733 20.8763 17.665C20.1296 18.854 19.3828 20.077 18.6699 21.3679C19.3828 21.1641 20.1296 20.9263 20.8424 20.7225Z" fill="white"/>
<path d="M23.592 16.4421C29.5663 7.71148 36.2195 1.80047 40.5645 1.80047C41.2095 1.80047 41.7865 1.93636 42.2957 2.20813C45.1131 3.70287 45.7241 9.71578 43.5856 18.0727C44.1287 18.1067 44.6379 18.1746 45.1471 18.2426C47.3535 9.51195 46.7764 2.78564 43.0425 0.815304C42.2957 0.44162 41.481 0.237793 40.5984 0.237793C35.5067 0.237793 28.3443 6.48851 21.8948 16.1703C22.4379 16.2383 23.015 16.3402 23.592 16.4421Z" fill="white"/>
<path d="M58.4532 70.8641V53.1651L50.1028 63.6962L41.7183 53.1651V70.8641H37.8826V45.9631H40.1229L50.1028 58.6005L60.0826 45.9631H62.289V70.8641H58.4532Z" fill="white"/>
<path d="M80.8231 70.8641V53.3009L67.6864 70.8641H65.446V45.9631H69.2818V63.5263L82.4185 45.9631H84.6589V70.8641H80.8231Z" fill="white"/>
<path d="M140.464 70.8641V53.3009L127.327 70.8641H125.087V45.9631H128.923V63.5263L142.059 45.9631H144.3V70.8641H140.464Z" fill="white"/>
<path d="M110.016 37.7082V33.2919H105.569V37.7082H103.294V26.8713H105.569V31.2536H110.016V26.8713H112.29V37.7082H110.016Z" fill="white"/>
<path d="M121.658 37.7082V30.9139L116.193 37.7082H114.869V26.8713H117.144V33.6996L122.609 26.8713H123.967V37.7082H121.658Z" fill="white"/>
<path d="M132.691 37.7084V35.0586H131.401C130.281 35.0926 129.975 35.3304 129.092 36.6213L128.346 37.7084H125.8L126.784 36.2816C127.497 35.2285 128.006 34.6849 128.515 34.3792C126.954 33.8017 126.037 32.5787 126.037 30.9821C126.037 28.706 127.803 26.9055 131.027 26.9055H134.931V37.7084H132.691ZM130.824 28.9098C129.33 28.9098 128.176 29.5892 128.176 30.9821C128.176 32.4428 129.33 33.0543 130.824 33.0543H132.691V28.9098H130.824Z" fill="white"/>
<path d="M138.733 37.7082L141.109 33.8015L136.934 26.8713H139.513L142.399 31.5933L145.284 26.8713H147.864L141.312 37.7082H138.733Z" fill="white"/>
<path d="M113.648 46.8464C110.695 46.8464 108.149 48.3751 106.791 50.5493V45.9631H102.955V57.1397C102.955 60.9785 100.104 63.7641 96.5055 63.7641C92.8734 63.7641 90.056 60.9785 90.056 57.1397C90.056 53.3009 92.9074 50.4813 96.5055 50.4813C98.4065 50.4813 100.104 51.2627 101.292 52.5875V48.6808C99.9 47.5598 98.101 46.8464 96.1322 46.8464C90.1918 46.8464 86.1863 51.3985 86.1863 57.1057C86.1863 62.8129 90.1918 67.3311 96.1322 67.3311C99.0854 67.3311 101.631 65.8363 102.989 63.6622V70.7962H106.893V56.5622C107.13 52.9952 109.88 50.4134 113.342 50.4134C116.974 50.4134 119.792 53.233 119.792 57.0718C119.792 60.9105 116.94 63.6962 113.342 63.6962C111.441 63.6962 109.778 62.9148 108.624 61.6579V65.5985C109.982 66.6517 111.747 67.3311 113.716 67.3311C119.622 67.3311 123.628 62.8129 123.628 57.1057C123.56 51.3985 119.52 46.8464 113.648 46.8464Z" fill="white"/>
</g>
<defs>
<clipPath id="clip0_299_202">
<rect width="148" height="71" fill="white"/>
</clipPath>
</defs>
</svg>
