<svg width="90" height="85" viewBox="0 0 90 85" fill="none" xmlns="http://www.w3.org/2000/svg">
<g clip-path="url(#clip0_299_2223)">
<path d="M67.3583 4.92265V6.05789C71.228 7.42208 74.6971 9.12971 77.6482 11.1045C74.5603 12.4973 70.9837 13.6611 67.0651 14.5865C65.9218 12.6976 64.5342 10.9709 62.9511 9.43499L67.3583 6.04835V4.92265L44.6482 22.3519L21.9577 4.90356V4.92265C8.82411 9.49223 0 17.8777 0 27.4558C0 39.7049 14.4332 50.0175 33.8502 52.8604V52.0018V26.2537L21.9283 17.0859V19.9956L31.3778 27.2554H19.0847C19.1238 22.8289 20.355 18.6696 22.4658 15.073C24.7231 15.5977 27.0879 16.0366 29.5407 16.3895L29.2964 15.9221C27.0098 15.5882 24.8013 15.1684 22.6906 14.6914C23.8143 12.8598 25.1629 11.1903 26.7068 9.70211L44.6482 23.4872L62.8925 9.48269L62.5993 9.71164C64.1433 11.1999 65.4919 12.8693 66.6059 14.701C64.456 15.1971 62.2085 15.6168 59.8827 15.9507L59.6482 16.4086C62.1401 16.0556 64.544 15.6073 66.8306 15.0826C68.9414 18.6791 70.1726 22.8289 70.2117 27.2554H57.9186L67.3681 19.9956V17.0859L55.4463 26.2537V51.7633V51.9922V52.8699C74.8632 50.027 89.3062 39.7049 89.3062 27.4558C89.3062 17.8777 80.4821 9.49223 67.3583 4.92265ZM1.12378 27.6847H18.6547C18.6938 31.9586 19.8078 35.9748 21.7622 39.5046C17.6873 40.4872 13.9837 41.7369 10.8274 43.2251C4.83713 38.9608 1.21173 33.5613 1.12378 27.6847ZM31.5831 51.3721C23.5505 49.9125 16.5049 47.146 11.228 43.5018C14.3453 42.0517 17.9805 40.8402 21.987 39.8766C24.2638 43.8166 27.5863 47.1078 31.5831 49.3974V51.3721ZM31.5831 48.9109C27.7818 46.6881 24.6156 43.5399 22.4267 39.7812C25.3094 39.1039 28.3876 38.5697 31.5831 38.169V48.9109ZM31.5831 27.6847V37.7492C28.2997 38.1499 25.1531 38.7128 22.202 39.3996C20.2476 35.9081 19.1336 31.9204 19.0945 27.6847H31.5831ZM18.6547 27.2554H1.12378C1.20195 21.2262 5.00326 15.7027 11.2476 11.3907C14.3746 12.8216 18.0195 14.0237 22.0261 14.9776C19.9153 18.6123 18.6938 22.8003 18.6547 27.2554ZM22.2508 14.596C18.3323 13.6707 14.7459 12.5068 11.658 11.114C14.6091 9.13926 18.0782 7.43162 21.9479 6.06743V6.04835L26.3648 9.44453C24.7818 10.9709 23.3941 12.7072 22.2508 14.596ZM67.2801 14.9776C71.2769 14.0332 74.9218 12.8312 78.0586 11.3907C84.3029 15.6931 88.1042 21.2262 88.1824 27.2554H70.6515C70.6222 22.8003 69.3909 18.6123 67.2801 14.9776ZM57.7231 27.6847H70.2215C70.1824 31.9204 69.0684 35.9081 67.114 39.3996C64.1531 38.7032 61.0065 38.1499 57.7231 37.7492V27.6847ZM57.7231 38.169C60.9283 38.5697 63.9967 39.1039 66.8893 39.7812C64.6906 43.5399 61.5244 46.6881 57.7231 48.9109V38.169ZM57.7231 51.3817V49.3974C61.7199 47.1174 65.0521 43.8261 67.329 39.8766C71.3355 40.8306 74.9707 42.0517 78.088 43.5018C72.8111 47.146 65.7557 49.9221 57.7231 51.3817ZM78.4886 43.2156C75.3323 41.7274 71.6287 40.4776 67.5537 39.495C69.5081 35.9748 70.6222 31.949 70.6612 27.6752H88.1922C88.0945 33.5613 84.4788 38.9608 78.4886 43.2156Z" fill="white"/>
<path d="M67.3584 3.64431V2.50907L44.6483 19.9384L21.9578 2.48999V3.62523L44.6483 21.0736L67.3584 3.64431Z" fill="#0086CD"/>
<path d="M67.3584 1.23076V0.0955143L62.8437 3.55848C57.2835 2.09888 51.1271 1.27845 44.6581 1.27845C38.189 1.27845 32.0425 2.08934 26.4822 3.54894L21.9578 0.0668945V1.20214L44.6581 18.6505L67.3584 1.23076ZM30.5376 6.66847C34.5832 4.03547 39.4398 2.49956 44.6581 2.49956C49.8763 2.49956 54.733 4.03547 58.7786 6.66847L44.6483 17.5153L30.5376 6.66847ZM59.1402 6.40135C56.2965 4.53154 53.062 3.19596 49.5832 2.53771C53.8535 2.81437 57.9382 3.45354 61.7493 4.39798L59.1402 6.40135ZM39.733 2.53771C36.2542 3.19596 33.0196 4.53154 30.176 6.40135L27.5669 4.39798C31.378 3.45354 35.4626 2.81437 39.733 2.53771Z" fill="white"/>
<path d="M15.8112 58.4412L9.18578 69.4979L2.46266 58.4412H0.57666V74.1724H2.78513V62.7723L8.60924 72.2549H9.66461L15.4887 62.7055L15.5083 74.1628H17.7167L17.6972 58.4316H15.8112V58.4412ZM22.0848 58.4412V74.1724H24.3617L24.3421 60.3873H30.4887L30.5083 58.4316H22.0848V58.4412ZM46.0946 58.4412L36.5669 70.5759V58.4412H34.29V74.1724H36.4105L45.9578 62.0663V74.1724H48.2151V58.4412H46.0946Z" fill="white"/>
<path d="M69.5864 74.1628L69.557 58.4412H67.6711L61.0456 69.4883L54.3225 58.4412H52.4365V74.1628H54.645V62.7723L60.4691 72.2549H61.5245L67.3486 62.7055L67.3681 74.1628H69.5864Z" fill="white"/>
<path d="M89.9903 79.6578H85.7004V80.1348H87.5669V84.8475H88.1239V80.1348H89.9903V79.6578ZM79.0262 84.3705V82.4434H81.7721V81.976H79.0262V80.1348H82.1043V79.6578H78.4692V84.8379H82.2216V84.3609H79.0262V84.3705ZM74.4333 79.6578H70.1532V80.1348H72.0197V84.8475H72.5767V80.1348H74.4431V79.6578H74.4333ZM61.6614 84.8475H62.1695L65.5702 80.5641V84.8475H66.1272V79.6578H65.619L62.2184 83.9507V79.6578H61.6614V84.8475ZM55.505 84.8856C55.8959 84.8856 56.2672 84.8188 56.5995 84.6853C56.9317 84.5517 57.2151 84.3609 57.4496 84.1224L57.0978 83.779C56.6874 84.1892 56.1695 84.3991 55.5246 84.3991C55.1044 84.3991 54.7232 84.3037 54.3812 84.1224C54.0392 83.9316 53.7656 83.6741 53.5702 83.3497C53.3747 83.0254 53.277 82.6628 53.277 82.2526C53.277 81.8519 53.3747 81.4799 53.5702 81.1555C53.7656 80.8312 54.0294 80.5736 54.3812 80.3828C54.7232 80.192 55.1044 80.1062 55.5246 80.1062C56.1597 80.1062 56.6776 80.3065 57.0978 80.7167L57.4496 80.3733C57.2151 80.1252 56.9317 79.9344 56.5995 79.8104C56.2672 79.6864 55.9057 79.6196 55.505 79.6196C54.9773 79.6196 54.5083 79.7341 54.0783 79.9631C53.6581 80.192 53.3259 80.5068 53.0816 80.9075C52.8373 81.3082 52.72 81.7566 52.72 82.2622C52.72 82.7582 52.8373 83.2066 53.0816 83.6168C53.3259 84.0175 53.6483 84.3323 54.0783 84.5613C54.4985 84.7711 54.9773 84.8856 55.505 84.8856ZM46.72 82.7296H45.3128V80.1348H46.72C47.2477 80.1348 47.6483 80.2493 47.9219 80.4687C48.1956 80.6976 48.3421 81.0124 48.3421 81.4322C48.3421 81.8424 48.2053 82.1572 47.9219 82.3862C47.6483 82.6151 47.2477 82.7296 46.72 82.7296ZM46.7395 79.6578H44.7558V84.8379H45.3128V83.1971H46.7395C47.4138 83.1971 47.9513 83.0444 48.3324 82.7296C48.7135 82.4148 48.9089 81.9855 48.9089 81.4322C48.9089 80.8789 48.7135 80.4496 48.3324 80.1252C47.9415 79.82 47.4138 79.6578 46.7395 79.6578ZM37.2607 84.3705V82.4434H40.0066V81.976H37.2607V80.1348H40.3389V79.6578H36.6939V84.8379H40.4561V84.3609H37.2607V84.3705ZM30.3226 84.4086H28.5245V82.4339H30.3226C31.2412 82.4339 31.7004 82.7582 31.7004 83.407C31.7004 84.0747 31.2412 84.4086 30.3226 84.4086ZM28.5245 80.0966H30.1467C30.5571 80.0966 30.8698 80.1825 31.0946 80.3447C31.3193 80.5068 31.4268 80.7453 31.4268 81.0506C31.4268 81.3654 31.3193 81.5944 31.0946 81.7661C30.8698 81.9283 30.5571 82.0141 30.1467 82.0141H28.5245V80.0966ZM31.1239 82.1763C31.3975 82.0809 31.6125 81.9283 31.7591 81.7279C31.9154 81.5276 31.9838 81.2796 31.9838 80.9934C31.9838 80.5641 31.8275 80.2397 31.505 80.0108C31.1825 79.7818 30.7428 79.6673 30.176 79.6673H27.9675V84.8475H30.3226C30.9578 84.8475 31.4366 84.7234 31.7591 84.4849C32.0815 84.2465 32.2477 83.8935 32.2477 83.4451C32.2477 83.1017 32.15 82.8155 31.9643 82.6056C31.7688 82.3862 31.4855 82.2431 31.1239 82.1763ZM18.6744 84.8475H19.1825L22.5832 80.5641V84.8475H23.1402V79.6578H22.632L19.2314 83.9507V79.6578H18.6744V84.8475ZM13.2802 79.6578V81.9664H9.95777V79.6578H9.40077V84.8379H9.95777V82.4434H13.2802V84.8379H13.8372V79.6578H13.2802ZM4.91542 79.6578L3.01966 83.1685L1.17275 79.6578H0.57666L2.7265 83.6454L2.57015 83.8935C2.34539 84.2655 2.062 84.4468 1.71021 84.4468C1.55386 84.4468 1.38774 84.4086 1.21184 84.3419L1.05549 84.7902C1.29001 84.8856 1.505 84.9333 1.71021 84.9333C1.98383 84.9333 2.2379 84.857 2.46266 84.7044C2.69718 84.5517 2.89262 84.3228 3.06852 84.008L5.4822 79.6483H4.91542V79.6578Z" fill="white"/>
<path d="M81.4592 72.3313C77.8533 72.3313 75.1856 69.7746 75.1856 66.2926C75.1856 62.8105 77.8533 60.2538 81.4592 60.2538C85.026 60.2538 87.684 62.8105 87.684 66.2926C87.6937 69.7651 85.026 72.3313 81.4592 72.3313ZM89.9901 66.2926C89.9901 61.6657 86.355 58.26 81.4592 58.26C76.5146 58.26 72.8892 61.6944 72.8892 66.2926C72.8892 70.8908 76.5243 74.3251 81.4592 74.3251C86.355 74.3251 89.9901 70.9098 89.9901 66.2926Z" fill="white"/>
<path d="M42.2053 27.2554V53.6235C43.0164 53.6521 43.8275 53.6617 44.6581 53.6617C45.4789 53.6617 46.2998 53.6521 47.1109 53.6235V27.2554H42.2053Z" fill="#213A8F"/>
<path d="M21.9282 8.99609V15.0444L35.5992 25.5573V53.137C37.1921 53.3277 38.8142 53.4708 40.4657 53.5567V23.2391L21.9282 8.99609Z" fill="#C6C6C6"/>
<path d="M67.3778 15.0444V8.99609L48.8403 23.2391V53.5472C50.4918 53.4613 52.1139 53.3182 53.7068 53.1274V25.5477L67.3778 15.0444Z" fill="#CE1F1C"/>
</g>
<defs>
<clipPath id="clip0_299_2223">
<rect width="90" height="85" fill="white"/>
</clipPath>
</defs>
</svg>
