<svg width="93" height="93" viewBox="0 0 93 93" fill="none" xmlns="http://www.w3.org/2000/svg">
<g clip-path="url(#clip0_299_269)">
<path d="M92.0536 55.856C97.2181 30.6986 81.0107 6.11793 55.8533 0.953427C30.696 -4.21107 6.11526 11.9963 0.95076 37.1537C-4.21374 62.311 11.9937 86.8917 37.151 92.0562C62.3084 97.2207 86.8891 81.0133 92.0536 55.856Z" fill="#222532"/>
<path d="M52.0952 43.6182C54.2097 42.7575 55.5009 41.4102 56.3429 40.3997C57.9522 38.5472 58.6071 36.283 58.6071 34.1311C58.6071 32.3909 58.1206 28.9291 55.0892 26.5526C52.9934 24.9434 51.1409 24.1575 46.7248 24.1575H44.4793C44.4045 24.1575 44.3483 24.1575 44.2548 24.1575H35.0296V67.7384H61.3765V59.374C61.3765 51.3651 58.7942 45.976 52.0952 43.6182ZM55.4073 65.3245H50.6544V50.785H45.1717V65.3432H40.9801V26.3281H45.3027C46.9119 26.3281 49.3632 26.6836 51.1035 28.8355C52.0017 29.9209 52.563 31.3804 52.7502 32.8213H45.1904V34.9732H52.825C52.7689 36.3579 52.4882 37.911 51.1222 39.5577C49.9246 41.0547 47.9598 42.4394 45.1904 42.4394C45.1717 42.4394 45.153 42.4394 45.1343 42.4394V44.61C52.5443 44.61 55.426 49.5313 55.426 58.5506L55.4073 65.3245ZM32.4473 11.3209C32.0731 10.1607 32.4661 9.01925 33.4017 8.40174C32.4661 9.01925 32.0918 10.1794 32.4473 11.3209C32.8964 12.6869 34.2624 13.4915 35.6471 13.0424C36.3395 12.8178 36.8447 12.35 37.1254 11.7512C36.8634 12.3313 36.3582 12.8178 35.6471 13.0424C34.2624 13.4915 32.8964 12.6869 32.4473 11.3209ZM35.4974 85.3092C34.6928 85.0846 34.356 84.5981 34.5057 84.0368C34.356 84.5981 34.6928 85.0659 35.4974 85.3092ZM83.3821 55.5941C82.1284 55.3695 81.2302 54.4152 81.1928 53.2176C81.2115 54.4152 82.1284 55.3695 83.3821 55.5941ZM80.2011 31.6237C80.1075 31.7172 80.0139 31.8108 79.9204 31.9231C79.9952 31.8108 80.0888 31.7172 80.2011 31.6237ZM84.4862 32.447C84.9914 33.8317 84.2429 35.2164 82.8956 35.7217C82.7646 35.7591 82.6524 35.7591 82.5214 35.7965C82.6524 35.7591 82.7646 35.7778 82.8956 35.7217C84.2429 35.2164 84.9914 33.8317 84.4862 32.447ZM33.7759 80.4253C33.4952 81.417 33.9256 82.0532 34.6741 82.5772C34.0753 82.6895 33.4391 83.0076 33.1958 83.8683C33.0461 84.3736 33.1023 84.8039 33.3268 85.1969C33.6075 85.7208 34.1689 86.1699 34.9922 86.4132L37.6868 87.1056L39.7451 80.051L36.9757 79.2464C35.3852 78.7786 34.1502 79.1528 33.7759 80.4253ZM36.7886 85.6834L35.4974 85.3092C34.6928 85.0846 34.356 84.5981 34.5057 84.0368C34.6554 83.5315 35.0483 83.3257 35.5723 83.3444C35.7407 83.3444 35.9278 83.3818 36.1337 83.438L37.3312 83.7935L36.7886 85.6834ZM37.6306 82.7456L36.1524 82.3152C35.1606 82.0345 34.8051 81.5293 34.9735 80.9305C35.1232 80.444 35.4974 80.2007 36.0401 80.2382C36.2272 80.2382 36.4143 80.2756 36.6389 80.3504L38.192 80.7995L37.6306 82.7456ZM36.1711 82.3152C35.1793 82.0345 34.8051 81.5293 34.9922 80.9305C35.1419 80.444 35.5162 80.2007 36.0588 80.2382C35.5162 80.2194 35.1419 80.444 34.9922 80.9305C34.8051 81.5293 35.1793 82.0158 36.1711 82.3152ZM26.7775 77.2442C26.029 78.5353 26.5717 79.8078 27.9938 80.6498L29.0043 81.2486L27.657 83.5502L28.761 84.2052L32.5035 77.843L30.389 76.608C28.9294 75.6911 27.526 75.953 26.7775 77.2442ZM29.5656 80.2569L28.5926 79.6955C27.7506 79.1903 27.4699 78.5541 27.8628 77.8991C28.0687 77.5436 28.3493 77.3378 28.6862 77.2816C29.023 77.2255 29.3972 77.3378 29.8089 77.581L30.8007 78.1611L29.5656 80.2569ZM28.7049 77.2816C29.0417 77.2255 29.4159 77.3378 29.8276 77.581C29.4159 77.3378 29.023 77.2442 28.7049 77.2816ZM26.7775 74.4186L22.5298 80.4627L21.4819 79.7142L25.7296 73.6701L26.7775 74.4186ZM7.31675 45.6204C8.58919 45.714 9.28154 44.9655 9.54351 44.3667L10.8347 45.4708C11.1715 45.7701 11.4147 46.3689 11.265 46.7619L12.3878 46.7432C12.6685 46.1444 12.5001 45.2649 11.6393 44.5351L9.89905 43.0756L9.9739 42.1774L12.631 42.4207L12.8182 41.1108L5.50166 40.5307C5.42681 40.9424 5.2584 42.5516 5.23969 42.7762C5.07128 44.7784 6.04432 45.5082 7.31675 45.6204ZM6.56826 41.9154L8.7576 42.1025L8.68275 42.9446C8.62661 43.6931 8.19623 44.3293 7.42903 44.2545C6.84895 44.217 6.38114 43.8428 6.4747 42.7949C6.49341 42.5516 6.53084 42.2522 6.56826 41.9154ZM21.351 74.9613C19.8166 76.3647 17.4588 76.3834 15.9057 74.718C14.9888 73.7263 14.6894 72.4913 14.9139 71.3498L16.2051 71.6305C15.9992 72.4164 16.1864 73.2585 16.7852 73.9321C17.7769 75.0174 19.33 74.9613 20.4153 73.9695C21.4632 72.9965 21.6316 71.4247 20.6399 70.3394C20.0037 69.6657 19.1616 69.4225 18.3383 69.5909L18.1512 68.2997C19.33 68.1313 20.5838 68.5243 21.5381 69.5347C23.0912 71.2001 22.9041 73.5392 21.351 74.9613ZM13.286 54.3591L11.4335 53.91C11.3212 53.3299 11.2276 52.7685 11.1341 52.1885C11.0405 51.6084 10.9656 51.0283 10.8908 50.4482L12.5001 49.4565L12.4065 48.0343L5.48295 52.4691L5.67007 53.6667L13.6415 55.7064L13.286 54.3591ZM10.2172 53.6106L7.11092 52.8434L9.80549 51.1219C9.86162 51.5335 9.91776 51.9639 9.99261 52.3756C10.0487 52.7873 10.1236 53.1989 10.2172 53.6106ZM10.2172 53.6106C10.1423 53.1989 10.0675 52.7873 9.99261 52.3756C9.91776 51.9639 9.86162 51.5522 9.80549 51.1219C9.86162 51.5335 9.91776 51.9639 9.99261 52.3756C10.0487 52.7873 10.1236 53.1989 10.2172 53.6106ZM17.2717 66.3349L11.6954 69.0669C11.4522 68.7114 11.2276 68.3372 11.0031 67.9816L16.5419 65.2309C16.0367 64.4076 15.5502 63.5842 15.1198 62.7235L9.58094 65.4368C9.3751 65.0438 9.18798 64.6695 9.00086 64.2766L14.5397 61.5633C14.128 60.6838 13.7538 59.7856 13.417 58.8687L7.85941 61.6007C7.70971 61.1891 7.56001 60.7961 7.41032 60.3844L12.9866 57.6337L14.0719 57.0911C15.0823 60.1786 16.5045 63.0977 18.3383 65.7923L17.2717 66.3349ZM80.6689 29.7524C78.7041 30.4822 77.6375 32.5593 78.4234 34.6925C79.2093 36.8257 81.3986 37.7239 83.3634 36.9941C85.3282 36.2643 86.3948 34.1873 85.6089 32.0541C84.823 29.9209 82.6149 29.0227 80.6689 29.7524ZM84.4862 32.447C84.9914 33.8317 84.2429 35.2164 82.8956 35.7217C82.7646 35.7591 82.6524 35.7591 82.5214 35.7965C81.2677 36.0772 80.0327 35.5533 79.5648 34.3182C79.2467 33.4575 79.4151 32.5967 79.9204 31.9418C79.9952 31.8295 80.1075 31.7359 80.2011 31.6424C80.2198 31.6237 80.2385 31.605 80.2572 31.5675C80.3133 31.5114 80.3882 31.474 80.4443 31.4178C80.5192 31.3617 80.594 31.3056 80.6689 31.2494C80.6689 31.2494 80.6689 31.2494 80.6876 31.2494C80.8373 31.1559 80.987 31.081 81.1554 31.0249C81.8477 30.7629 82.5401 30.7816 83.1389 31.0249C83.7377 31.2681 84.2242 31.7547 84.4862 32.447ZM80.4443 31.4178C80.5192 31.3617 80.594 31.3056 80.6689 31.2494C80.594 31.2869 80.5192 31.3617 80.4443 31.4178ZM84.4862 49.3255C82.4091 48.9699 80.4443 50.2237 80.0514 52.4504C79.6584 54.6772 81.0993 56.5671 83.1389 56.9227C85.216 57.2782 87.1807 56.0245 87.5737 53.7977C87.9667 51.571 86.5258 49.681 84.4862 49.3255ZM86.3948 53.5732C86.3387 53.9287 86.2077 54.2655 86.0206 54.5275C85.4592 55.3508 84.43 55.7812 83.3821 55.5941C82.1284 55.3695 81.2302 54.4152 81.1928 53.2176C81.1928 53.0492 81.1928 52.8621 81.2302 52.6937C81.2864 52.3382 81.4174 52.0013 81.6045 51.7394C82.1658 50.916 83.195 50.4856 84.2429 50.6728C85.6838 50.916 86.6568 52.1323 86.3948 53.5732ZM83.3821 55.5941C84.4488 55.7812 85.4779 55.3695 86.0206 54.5275C85.4592 55.3508 84.43 55.7812 83.3821 55.5941ZM84.2429 50.6541C83.1763 50.4669 82.1471 50.8786 81.6045 51.7206C82.1658 50.8786 83.195 50.4669 84.2429 50.6541ZM81.1741 53.1989C81.1741 53.0305 81.1741 52.8434 81.2115 52.675C81.1928 52.8621 81.1741 53.0305 81.1741 53.1989ZM73.2401 25.2241L79.3403 21.2197L80.1262 22.2675L77.5626 23.9516L77.9743 24.5879L81.9226 25.037L82.7085 26.3281L78.2176 25.6919L77.4691 28.0683C77.2071 28.9104 77.2071 29.4905 77.6188 29.846L76.6832 30.4635C75.8037 29.7337 75.9159 28.6484 76.3089 27.5444L77.0761 25.3551L76.5896 24.6066L74.026 26.2907L73.2401 25.2241ZM67.0838 73.7824L70.9385 79.9949L69.8719 80.7434L68.2626 78.1237L67.6264 78.5166L67.0838 82.4462L65.7739 83.2134L66.5224 78.7412L64.1459 77.8991C63.3039 77.6184 62.7238 77.5997 62.3683 77.9927L61.7508 77.0571C62.518 76.1963 63.5846 76.3273 64.6886 76.7577L66.8592 77.581L67.6077 77.1132L65.9984 74.5122L67.0838 73.7824ZM73.764 67.0647L79.1719 72.0235L78.3673 73.0152L74.4377 69.4037L75.6353 75.9905L74.7184 76.8699L69.3105 71.9112L70.2461 71.0317L74.2131 74.6806L72.9968 68.0378L73.764 67.0647ZM60.0479 77.843L62.2934 84.8414L61.0958 85.3092L59.4679 80.2382L57.2598 86.5629L56.0248 86.881L53.7793 79.8826L55.0143 79.5832L56.661 84.7104L58.8878 78.3295L60.0479 77.843ZM78.7976 57.5963L85.216 61.3575L84.5049 63.079C84.5049 63.079 79.5087 62.5363 78.6667 62.3492L78.6479 62.3867C79.2842 62.9293 82.7272 66.6718 82.7272 66.6718L81.7916 68.2623L74.9429 65.3993L75.6727 64.2205L78.4608 65.418C79.3403 65.7923 80.3882 66.2601 81.2864 66.7092L81.3051 66.6718C80.6127 66.0355 76.889 61.9563 76.889 61.9563L77.3755 60.9645C77.3755 60.9645 82.7646 61.6194 83.7003 61.8253L83.719 61.8066C82.8582 61.3388 81.829 60.7774 80.9495 60.2909L78.3485 58.8126L78.7976 57.5963ZM80.0327 39.9319L87.3304 39.2396L87.5363 40.5307L84.4487 40.8114H84.43C84.5236 41.5037 84.6172 42.2148 84.692 42.9072C84.7481 43.5995 84.8043 44.3106 84.823 45.0217H84.8417L87.8918 44.741L87.9479 46.0321L80.6502 46.7245L80.6127 45.4146L83.6254 45.1339H83.6628C83.6441 44.4229 83.588 43.7305 83.5318 43.0194C83.457 42.3271 83.3821 41.616 83.2699 40.9237H83.2324L80.2198 41.2044L80.0327 39.9319ZM69.3479 21.2384C68.3188 20.3027 67.9071 19.049 68.0755 17.8702L69.3667 18.0573C69.1982 18.8806 69.4415 19.7227 70.1339 20.3589C71.0695 21.2197 72.3793 21.2009 73.3337 20.4899C72.791 19.9285 72.2296 19.3858 71.6496 18.8619C71.425 18.6561 71.1817 18.4315 70.9385 18.2257L71.687 17.3462C71.9302 17.552 72.1735 17.7766 72.4168 18.0011C72.9968 18.5251 73.5582 19.0677 74.1009 19.6291C74.7184 18.5999 74.6061 17.3275 73.6705 16.4854C72.9968 15.8867 72.1548 15.7182 71.3689 15.9241L71.0882 14.6329C72.2296 14.3897 73.4646 14.6891 74.4564 15.5873C76.1405 17.1217 76.1592 19.4794 74.7558 21.0138C73.3524 22.5669 71.0321 22.7728 69.3479 21.2384ZM36.0027 14.1838C38.1733 13.4915 39.1463 11.3396 38.5101 9.35607C37.8552 7.35386 35.8155 6.21241 33.6636 6.90476C31.5117 7.61583 30.52 9.76774 31.1562 11.7325C31.8111 13.7347 33.8508 14.8949 36.0027 14.1838ZM33.4017 8.40174C33.5888 8.27076 33.7759 8.13977 34.0192 8.04621C35.4226 7.59712 36.7699 8.40174 37.219 9.76774C37.4435 10.4601 37.4061 11.1712 37.1254 11.7512C36.8634 12.3313 36.3582 12.8178 35.6471 13.0424C34.2437 13.4915 32.8964 12.6869 32.4473 11.3209C32.0731 10.1794 32.4661 9.01925 33.4017 8.40174ZM34.0192 8.04621C33.7759 8.12106 33.6075 8.27076 33.4017 8.38303C33.5888 8.27076 33.7759 8.12106 34.0192 8.04621C35.4226 7.59712 36.7886 8.40174 37.219 9.76774C37.4435 10.4601 37.4061 11.1712 37.1254 11.7512C37.3874 11.1712 37.4435 10.4601 37.219 9.76774C36.7699 8.40174 35.4039 7.59712 34.0192 8.04621ZM26.1039 19.1052L22.2866 12.874L23.3532 12.1255L24.9624 14.7452L25.5986 14.3522L26.1787 10.4227L27.4886 9.67418L26.7027 14.1277L29.0791 14.9698C29.9212 15.2691 30.5013 15.2879 30.8568 14.8762L31.4369 15.8492C30.6697 16.6913 29.6031 16.5603 28.499 16.1299L26.3284 15.3066L25.5612 15.7744L27.1518 18.3754L26.1039 19.1052ZM16.8974 27.3199L12.2007 23.2593C12.4439 22.9038 12.6872 22.5482 12.9491 22.1927L17.6459 26.2345C18.2073 25.4486 18.7874 24.6814 19.4049 23.9516L14.7455 19.9098C15.0262 19.573 15.3069 19.2549 15.5876 18.918L20.2469 22.9599C20.9019 22.2301 21.5755 21.5378 22.2866 20.8641L17.5898 16.8223C17.8892 16.5229 18.2073 16.2235 18.5254 15.9241L23.2222 19.9846L24.1391 20.7706C21.6878 22.9038 19.5546 25.3551 17.8143 28.1058L16.8974 27.3199ZM51.4029 11.0027C51.983 11.0776 52.563 11.1712 53.1244 11.2834C53.6858 11.3957 54.2658 11.508 54.8272 11.639L55.2202 13.4915L56.5862 13.8844L54.7524 5.87559L53.5735 5.65104L48.9516 12.4623L50.3363 12.5933L51.4029 11.0027ZM53.8729 7.27901L54.584 10.3852C54.1723 10.2917 53.7606 10.2168 53.3489 10.1233C52.9373 10.0484 52.5256 9.97357 52.1139 9.91744L53.8729 7.27901ZM41.2608 12.8366C40.9801 12.8553 40.5685 12.8178 40.3626 12.7991L40.4001 11.7325C40.4936 11.7512 40.662 11.77 40.8304 11.77C41.5789 11.7138 42.2339 11.1899 41.897 6.77377L41.8783 6.47438L41.7848 5.31422C41.8409 5.31422 41.9157 5.29551 41.9719 5.29551L44.76 5.08967C45.4524 5.05225 46.1634 5.05225 46.8558 5.05225L46.9494 6.21241L47.4172 12.3126L46.126 12.4062L45.6582 6.23112C44.9097 6.21241 44.1799 6.24983 43.4502 6.30597C43.3192 6.32468 43.2069 6.32468 43.0759 6.34339L43.132 7.05446C43.4876 11.7325 42.7204 12.7243 41.2608 12.8366ZM47.9972 84.3736C47.9972 85.1969 47.3423 85.8518 46.519 85.8518C45.6956 85.8518 45.0407 85.1969 45.0407 84.3736C45.0407 83.5502 45.6956 82.8953 46.519 82.8953C47.3423 82.8953 47.9972 83.5502 47.9972 84.3736ZM9.95518 32.2973C10.03 31.4927 10.7598 30.8939 11.5832 30.9687C12.3878 31.0436 12.9866 31.7734 12.9117 32.5967C12.8369 33.4013 12.1071 34.0001 11.2838 33.9253C10.4604 33.8317 9.86162 33.1207 9.95518 32.2973ZM62.256 12.1255C62.6302 11.3957 63.5097 11.0963 64.2395 11.4706C64.9693 11.8448 65.2687 12.7243 64.8944 13.4541C64.5202 14.1838 63.6407 14.4832 62.9109 14.109C62.1811 13.7347 61.8817 12.8553 62.256 12.1255Z" fill="white"/>
</g>
<defs>
<clipPath id="clip0_299_269">
<rect width="93" height="93" fill="white"/>
</clipPath>
</defs>
</svg>
