<svg width="40" height="40" viewBox="0 0 40 40" fill="none" xmlns="http://www.w3.org/2000/svg">
<path fill-rule="evenodd" clip-rule="evenodd" d="M20.5 36C30.165 36 38 28.165 38 18.5C38 8.83502 30.165 1 20.5 1C10.835 1 3 8.83502 3 18.5C3 23.7473 5.30949 28.4553 8.96745 31.6628L7.91472 36.9264C7.74912 37.7544 8.62085 38.4022 9.36589 38.0049L14.8639 35.0726C16.6324 35.6739 18.5281 36 20.5 36Z" fill="#FFBC5B"/>
<path fill-rule="evenodd" clip-rule="evenodd" d="M15.4043 7.22656C14.4662 7.22656 13.7058 7.98733 13.7058 8.92541C13.7058 11.2721 15.6082 13.1752 17.9548 13.1752H20.4997H20.4999H23.0448C25.3915 13.1752 27.2939 11.2721 27.2939 8.92541C27.2939 7.98733 26.5334 7.22656 25.5954 7.22656C22.7924 7.22656 20.518 9.48975 20.4998 12.2885C20.4817 9.48975 18.2073 7.22656 15.4043 7.22656ZM15.0101 8.21801C14.8257 8.21801 14.6762 8.36751 14.6762 8.55193C14.6762 10.5976 16.2584 12.2949 18.2991 12.4381L19.5291 12.5245C19.5291 10.1535 17.6071 8.21801 15.2361 8.21801H15.0101ZM25.9894 8.21801C26.1738 8.21801 26.3233 8.36751 26.3233 8.55193C26.3233 10.5976 24.741 12.2949 22.7003 12.4381L21.4703 12.5245C21.4703 10.1535 23.3924 8.21801 25.7633 8.21801H25.9894ZM11.2793 14.652C11.2793 14.0997 11.727 13.652 12.2793 13.652H20.0147V18.505H12.2793C11.727 18.505 11.2793 18.0573 11.2793 17.505V14.652ZM12.2499 19.4756H20.0147V28.2109H13.2499C12.6976 28.2109 12.2499 27.7632 12.2499 27.2109V19.4756ZM28.7206 13.652H20.9852V18.505H28.7206C29.2729 18.505 29.7206 18.0573 29.7206 17.505V14.652C29.7206 14.0997 29.2729 13.652 28.7206 13.652ZM20.9852 19.4756H28.75V27.2109C28.75 27.7632 28.3023 28.2109 27.75 28.2109H20.9852V19.4756Z" fill="white"/>
</svg>
