<svg width="272" height="272" viewBox="0 0 272 272" fill="none" xmlns="http://www.w3.org/2000/svg">
<g clip-path="url(#clip0_171_267)">
<rect width="272" height="272" rx="32" fill="#6C4FE1"/>
<path d="M201.659 93.4486C194.547 89.3472 186.133 89.5473 180.724 90.5476C170.407 92.3482 161.692 96.9498 161.692 96.9498L203.061 166.974C203.061 166.974 213.879 156.27 217.886 153.269C222.493 149.868 225.999 144.066 225.999 135.063C226.099 117.557 216.183 101.851 201.659 93.4486Z" fill="#D3DEFC"/>
<path d="M183.528 97.8505C178.921 95.2496 174.513 93.8491 170.206 93.8491C158.787 93.8491 151.074 103.452 150.974 117.757C150.874 136.464 163.094 158.171 178.72 167.174C183.328 169.775 187.735 171.175 192.043 171.175C203.462 171.175 211.174 161.572 211.275 147.267C211.275 128.561 199.154 106.854 183.528 97.8505Z" fill="#59456F"/>
<path d="M181.224 102.752C167.601 94.8497 156.483 101.852 156.383 118.258C156.383 134.663 167.401 154.37 181.024 162.273C194.646 170.175 205.765 163.173 205.865 146.767C205.865 130.362 194.847 110.655 181.224 102.752Z" fill="black"/>
<path d="M145.364 175.077L145.464 92.4487L199.054 123.359L198.953 205.987L145.364 175.077Z" fill="#EB5352"/>
<path d="M201.557 121.859L199.053 123.359L145.464 92.4488L147.868 91.0483L201.557 121.859Z" fill="#860D04"/>
<path d="M135.448 179.278V104.853L184.73 133.163V207.588L135.448 179.278Z" fill="#ADE8FD"/>
<path d="M196.55 126.36L184.73 133.163L135.448 104.853L147.268 98.0508L196.55 126.36Z" fill="white"/>
<path d="M199.354 125.86C200.256 124.76 200.957 123.459 201.558 121.859V204.487C201.358 204.687 201.257 204.987 201.157 205.387C201.157 205.487 201.157 205.487 201.157 205.487C200.656 206.588 200.055 207.488 199.354 208.388C196.85 211.589 193.144 213.29 189.939 214.09C186.633 214.991 183.728 214.89 183.428 214.89V132.262C183.428 132.262 186.333 132.362 189.939 131.462C193.044 130.662 196.75 129.061 199.354 125.86Z" fill="#860D04"/>
<path d="M129.738 101.452V184.08L183.327 214.99V132.362L129.738 101.452Z" fill="#EB5352"/>
<path d="M185.832 130.862L183.327 132.362L129.738 101.452L132.242 100.051L185.832 130.862Z" fill="#860D04"/>
<path d="M183.327 132.362L182.125 130.262C182.125 130.262 195.247 131.462 199.053 122.659L201.557 121.859C199.554 133.863 183.327 132.362 183.327 132.362Z" fill="#860D04"/>
<path d="M120.925 189.282V106.654L174.514 137.464V220.092L120.925 189.282Z" fill="#B8C9FF"/>
<path d="M177.018 136.064L174.514 137.464L120.925 106.654L123.429 105.153L177.018 136.064Z" fill="#445394"/>
<path d="M110.908 193.383V118.958L160.19 147.268V221.793L110.908 193.383Z" fill="#ADE8FD"/>
<path d="M172.01 140.565L160.19 147.268L110.908 118.958L122.728 112.156L172.01 140.565Z" fill="white"/>
<path d="M174.814 139.965C175.716 138.864 176.417 137.564 177.018 135.963V218.591C176.818 218.792 176.717 219.092 176.617 219.492C176.617 219.592 176.617 219.592 176.617 219.592C176.116 220.692 175.515 221.592 174.814 222.493C172.31 225.694 168.604 227.394 165.399 228.195C162.093 229.095 159.188 228.995 158.888 228.995V146.367C158.888 146.367 161.793 146.467 165.399 145.567C168.504 144.766 172.21 143.166 174.814 139.965Z" fill="#445394"/>
<path d="M105.198 115.657V198.285L158.787 229.095V146.467L105.198 115.657Z" fill="#B8C9FF"/>
<path d="M161.292 145.067L158.787 146.467L105.198 115.657L107.702 114.156L161.292 145.067Z" fill="#445394"/>
<path d="M158.787 146.467L157.585 144.366C157.585 144.366 170.707 145.567 174.513 136.764L177.017 135.963C175.014 148.067 158.787 146.467 158.787 146.467Z" fill="#445394"/>
<path d="M97.5859 203.086V120.458L151.175 151.268V233.997L97.5859 203.086Z" fill="#FFD475"/>
<path d="M153.679 149.869L151.175 151.269L97.5859 120.459L100.09 119.058L153.679 149.869Z" fill="#EB8E41"/>
<path d="M87.5693 207.187V132.762L136.851 161.172V235.597L87.5693 207.187Z" fill="#ADE8FD"/>
<path d="M148.671 154.37L136.851 161.172L87.5693 132.762L99.389 125.96L148.671 154.37Z" fill="white"/>
<path d="M151.475 153.87C152.377 152.769 153.078 151.469 153.679 149.868V232.496C153.479 232.696 153.378 232.996 153.278 233.397C153.278 233.497 153.278 233.497 153.278 233.497C152.777 234.597 152.176 235.497 151.475 236.398C148.971 239.599 145.265 241.299 142.06 242.1C138.754 243 135.849 242.9 135.549 242.9V160.272C135.549 160.272 138.454 160.372 142.06 159.471C145.265 158.671 148.871 157.071 151.475 153.87Z" fill="#EB8E41"/>
<path d="M81.8594 129.461V212.089L135.448 243L135.549 160.372L81.8594 129.461Z" fill="#FFD475"/>
<path d="M138.053 158.871L135.549 160.372L81.8594 129.462L84.3635 128.061L138.053 158.871Z" fill="#EB8E41"/>
<path d="M135.549 160.372L134.347 158.271C134.347 158.271 147.468 159.471 151.275 150.668L153.779 149.868C151.675 161.872 135.549 160.272 135.549 160.372Z" fill="#EB8E41"/>
<path d="M114.313 148.168V191.383L119.322 186.281L125.031 197.785V154.27L127.235 152.67L116.717 146.667L114.313 148.168Z" fill="#445394"/>
<path d="M158.888 35.5298L182.026 48.9343C191.943 54.7363 198.153 70.3416 198.253 100.852C198.253 102.152 198.253 103.653 198.153 105.454C198.153 105.454 187.736 92.8493 175.015 92.049C175.015 92.049 175.115 88.8479 175.115 87.4474C175.115 56.937 168.904 41.2317 158.888 35.5298Z" fill="black"/>
<path d="M93.1788 151.268C88.5711 148.668 84.1638 147.267 79.8566 147.267C68.4376 147.267 60.7248 156.87 60.6246 171.175C60.5245 189.882 72.7448 211.589 88.3708 220.592C92.9784 223.193 97.3858 224.593 101.693 224.593C113.112 224.593 120.825 214.99 120.925 200.685C120.925 181.979 108.805 160.272 93.1788 151.268Z" fill="black"/>
<path d="M85.2648 156.271C78.0528 152.969 71.7423 153.17 67.1346 156.07L53.1113 164.873C57.4185 162.173 63.3283 162.073 70.0395 165.374C84.5636 172.476 96.8841 192.283 96.8841 209.189C96.8841 217.891 93.4784 223.693 88.2698 226.094L104.697 218.692C110.306 216.191 113.912 209.989 114.013 201.086C114.113 183.48 100.791 163.273 85.2648 156.271Z" fill="#D3DEFC"/>
<path d="M70.1401 165.373C84.6643 172.476 96.9848 192.283 96.9848 209.188C96.8846 226.094 84.4639 232.096 69.9398 223.093C56.3171 214.69 46 195.984 46 180.879C46.1002 165.874 56.5175 158.671 70.1401 165.373Z" fill="#6FC5FF"/>
<path d="M70.5417 173.676C80.9591 178.778 89.974 193.082 89.8739 205.287C89.8739 217.491 80.8589 221.792 70.4416 215.39C60.6252 209.288 53.1127 195.883 53.2129 184.98C53.2129 173.976 60.7254 168.874 70.5417 173.676Z" fill="#211659"/>
<path d="M75.0482 209.588C65.9331 203.986 59.0216 191.482 59.0216 181.379C59.0216 177.177 60.2236 173.976 62.3271 171.875C56.8179 172.476 53.2119 177.277 53.2119 184.78C53.2119 195.684 60.6242 209.088 70.4406 215.19C79.2552 220.592 86.968 218.391 89.2719 210.289C85.8662 213.19 80.6576 213.09 75.0482 209.588Z" fill="#445394"/>
<path d="M161.292 31.9281C151.175 26.0261 137.452 29.5273 122.427 38.1302C88.6712 57.6368 66.5344 96.7501 66.7347 149.968C66.7347 151.369 66.9351 156.971 66.9351 156.971C80.5577 158.371 90.0736 168.074 90.0736 168.074C89.9734 166.274 89.8732 164.773 89.8732 163.373C89.6729 110.155 111.81 71.0414 145.566 51.5348C160.591 42.8318 174.314 39.4306 184.43 45.3326L161.292 31.9281Z" fill="black"/>
<path d="M145.566 51.5345C111.81 71.0411 89.6731 110.154 89.8734 163.372C89.8734 164.773 89.9736 166.273 90.0738 168.074L93.4794 165.773C93.3793 164.073 93.3792 162.672 93.2791 161.372C93.0787 107.654 116.618 71.7413 145.566 55.0357C174.514 38.33 198.053 41.1309 198.254 100.851C198.254 102.152 198.254 103.652 198.153 105.453L201.559 103.752C201.659 101.852 201.759 100.251 201.759 98.8505C201.559 38.1299 176.417 33.7284 145.566 51.5345Z" fill="#59456F"/>
</g>
<defs>
<clipPath id="clip0_171_267">
<rect width="272" height="272" fill="white"/>
</clipPath>
</defs>
</svg>
