<svg width="272" height="272" viewBox="0 0 272 272" fill="none" xmlns="http://www.w3.org/2000/svg">
<g clip-path="url(#clip0_171_268)">
<rect width="272" height="272" rx="32" fill="#0064F4"/>
<g clip-path="url(#clip1_171_268)">
<path d="M47.1826 146.542C48.1449 148.746 48.9147 150.375 49.6845 151.813C48.7222 150.088 47.8562 148.267 47.1826 146.542Z" fill="url(#paint0_linear_171_268)"/>
<path d="M67.9678 143.955C67.9678 159.193 89.9074 171.46 116.851 171.46C143.89 171.46 165.734 159.193 165.734 143.955C165.734 128.716 143.794 116.449 116.851 116.449C89.9074 116.449 67.9678 128.716 67.9678 143.955Z" fill="#333C3B"/>
<path d="M238 156.605C237.615 166.86 230.783 177.402 218.755 176.156C203.455 174.814 187 157.755 181.707 138.204C176.415 118.654 184.498 103.991 199.509 105.332C222.7 107.537 239.058 137.629 238 156.605Z" fill="#64D4FC"/>
<path d="M82.1133 84.8229C106.94 77.3476 138.213 82.0436 158.806 96.8026L206.534 125.65L205.572 135.233L197.489 138.875L154.957 108.111C137.54 95.6525 110.693 90.2856 88.8491 95.365C86.6359 91.819 84.3265 88.3689 82.1133 84.8229Z" fill="#DDF2EB"/>
<path d="M79.4189 80.5103C104.919 71.7891 139.464 77.3476 160.923 92.6816L206.534 125.65L198.451 129.291L155.823 98.5277C136.77 84.9188 106.459 79.7436 83.8454 87.5064C82.402 85.1105 80.8623 82.8104 79.4189 80.5103Z" fill="#A9B3B2"/>
<path d="M225.106 132.837C215.387 115.203 199.029 104.182 188.444 108.495C184.787 110.028 181.612 113.382 179.591 117.12L212.693 178.552C220.391 178.839 225.876 176.635 230.013 172.897C234.632 163.505 233.189 147.5 225.106 132.837Z" fill="#281F30"/>
<path d="M183.632 113.574C193.544 108.111 209.998 117.12 219.621 134.658C229.244 152.196 228.474 171.747 218.466 177.114C208.555 182.577 192.678 172.706 182.959 155.167C173.432 137.629 173.625 118.941 183.632 113.574Z" fill="#65586A"/>
<path d="M188.058 121.337C194.89 117.599 206.63 124.691 213.847 137.821C221.064 151.046 221.064 165.326 214.232 169.064C207.4 172.802 196.045 165.135 188.828 151.909C181.611 138.779 181.226 125.075 188.058 121.337Z" fill="#423745"/>
<path d="M213.848 137.917C219.236 147.692 220.584 158.043 218.178 164.272C211.346 164.655 202.204 157.563 196.046 146.255C190.657 136.575 189.118 126.512 191.427 120.474C198.259 119.995 207.689 126.704 213.848 137.917Z" fill="#0C0316"/>
<path d="M57.6714 96.9941C59.6922 100.253 61.8092 103.511 63.8299 106.77C42.6601 121.816 36.2129 145.296 59.211 161.684L91.7356 177.785L90.7733 187.369L82.6903 191.011L53.0525 170.022C26.2054 150.855 32.845 116.162 57.6714 96.9941Z" fill="#A9B3B2"/>
<path d="M55.4581 93.5439C57.0939 96.0357 58.7298 98.6233 60.2694 101.115C42.8524 116.928 38.8109 140.217 60.077 155.359L91.7355 177.785L83.6524 181.427L54.0147 160.438C28.0336 141.942 32.8449 111.945 55.4581 93.5439Z" fill="#DDF2EB"/>
<path d="M127.628 97.4735L129.552 87.5064L129.071 77.9227C129.071 77.9227 96.1618 68.6265 63.3486 89.0398C32.9411 107.92 34.2882 133.604 34.2882 133.604L50.0694 135.042L51.8014 142.325C45.6429 128.333 68.5448 87.7939 127.628 97.4735Z" fill="#281F30"/>
<path d="M61.7131 87.5065C95.1999 68.0515 128.783 76.7727 128.783 76.7727L129.553 86.8356C120.123 85.0147 93.7565 81.9479 67.2943 98.3361C51.7056 108.016 49.0112 122.87 50.0697 135.042L34.2886 133.604C34.2886 133.604 29.3811 106.386 61.7131 87.5065Z" fill="#65586A"/>
<path d="M165.83 87.4107V143.476H67.9678V87.0273L165.83 87.4107Z" fill="#333C3B"/>
<path d="M165.83 90.4771V120.378L116.947 148.555L67.9678 120.378V90.0938L165.83 90.4771Z" fill="#0C0316"/>
<path d="M196.43 82.7144L116.947 128.429V132.262L196.43 86.5478V82.7144Z" fill="#65586A"/>
<path d="M196.43 82.7144L116.947 128.429L37.4639 82.7144L116.947 37L196.43 82.7144Z" fill="#333C3B"/>
<path d="M37.4639 82.7144V86.6437L116.947 132.262V128.429L37.4639 82.7144Z" fill="#423745"/>
<path d="M73.0674 146.638V118.462C73.0674 111.561 76.724 105.14 82.69 101.69L115.118 82.7144L116.177 84.4394L85.3844 102.457C79.1296 106.099 75.1844 112.999 75.1844 120.187V146.542L74.2221 155.167L73.0674 146.638Z" fill="#EDB948"/>
<path d="M109.634 82.7143C109.634 85.0144 112.905 86.8353 116.947 86.8353C120.989 86.8353 124.26 85.0144 124.26 82.7143C124.26 80.4142 120.989 78.5933 116.947 78.5933C112.905 78.5933 109.634 80.4142 109.634 82.7143Z" fill="#65586A"/>
<path d="M34.2891 133.604L35.1551 149.034L37.7532 150.28V138.779L47.1834 139.354C48.8193 143.475 50.0702 145.584 51.8023 147.692C51.8985 147.788 51.706 142.325 51.706 142.325L49.8777 135.042L34.2891 133.604Z" fill="#281F30"/>
<path d="M84.904 172.802C91.5436 160.822 107.517 157.659 118.102 166.381C123.972 171.172 141.1 202.511 141.966 210.082C143.506 223.5 132.632 235.096 119.064 234.425H118.776C118.295 234.425 117.91 234.138 117.621 233.754L84.904 174.143C84.6153 173.664 84.6153 173.185 84.904 172.802Z" fill="#281F30"/>
<path d="M132.921 216.599C132.536 226.279 126.185 236.054 114.83 235C100.492 233.658 85 217.749 80.0925 199.349C75.0887 180.948 82.6906 167.243 96.7397 168.585C118.679 170.597 133.979 198.774 132.921 216.599Z" fill="#47ABC5"/>
<path d="M130.323 215.833C129.938 225.033 123.876 234.329 113.098 233.275C99.5302 232.029 84.7114 216.887 79.9963 199.348C75.2812 181.906 82.4982 168.776 95.8736 170.022C116.659 172.131 131.189 198.869 130.323 215.833Z" fill="#64D4FC"/>
<path d="M88.6562 167.818C109.152 147.788 155.726 201.649 131.477 231.262C168.524 206.44 119.256 139.642 88.6562 167.818Z" fill="#65586A"/>
<path d="M125.223 197.432L112.81 191.49C108.768 185.069 102.898 179.989 95.9701 179.223C87.1173 178.36 82.3059 187.56 85.4814 199.923C88.5607 212.286 98.3757 222.924 107.325 223.787C114.446 224.554 118.487 217.941 118.68 211.424C118.776 208.932 118.487 206.057 117.717 203.182L125.223 197.432Z" fill="#076A93"/>
<path d="M113.387 208.645C113.194 213.149 110.211 217.749 105.015 217.174C98.3754 216.599 91.1584 209.124 88.8489 200.594C86.5395 192.065 90.0037 185.644 96.6433 186.315C106.747 187.273 113.868 200.307 113.387 208.645Z" fill="#00517F"/>
<path d="M97.6055 200.211C97.413 200.786 96.9319 201.169 96.3545 200.978C95.5847 200.69 94.9111 199.636 94.9111 198.486C94.9111 197.432 95.4885 196.761 96.2583 196.953C97.5092 197.432 97.9904 199.253 97.6055 200.211Z" fill="white"/>
<path d="M101.647 202.607C101.455 203.182 100.974 203.565 100.397 203.374C99.6267 203.086 98.9531 202.032 98.9531 200.882C98.9531 199.828 99.5305 199.157 100.3 199.349C101.551 199.828 101.936 201.649 101.647 202.607Z" fill="white"/>
<path d="M105.688 204.907C105.496 205.482 105.015 205.865 104.438 205.674C103.668 205.386 102.994 204.332 102.994 203.182C102.994 202.128 103.572 201.457 104.341 201.648C105.496 202.128 105.977 203.948 105.688 204.907Z" fill="white"/>
</g>
</g>
<defs>
<linearGradient id="paint0_linear_171_268" x1="47.9443" y1="150.011" x2="49.3264" y2="147.75" gradientUnits="userSpaceOnUse">
<stop offset="0.127" stop-color="#A1A1BD"/>
<stop offset="0.8884" stop-color="white"/>
</linearGradient>
<clipPath id="clip0_171_268">
<rect width="272" height="272" fill="white"/>
</clipPath>
<clipPath id="clip1_171_268">
<rect width="204" height="198" fill="white" transform="translate(34 37)"/>
</clipPath>
</defs>
</svg>
