<svg width="272" height="272" viewBox="0 0 272 272" fill="none" xmlns="http://www.w3.org/2000/svg">
<g clip-path="url(#clip0_171_269)">
<rect width="272" height="272" rx="32" fill="#FFBC5B"/>
<path d="M131.411 121.115C132.602 120.417 134.686 120.417 135.877 121.115L210.517 166.686C211.807 167.384 211.807 168.58 210.517 169.278L159.798 199.393L80.6914 152.825L131.411 121.115Z" fill="#FFD475"/>
<path d="M131.411 116.429C132.602 115.731 134.686 115.731 135.877 116.429L210.517 159.706C211.807 160.404 211.807 161.6 210.517 162.298L159.798 191.814L80.6914 145.247L131.411 116.429Z" fill="#FFD475"/>
<path d="M159.7 191.116L80.5938 145.147V153.523L159.7 199.492V191.116Z" fill="#2BB0F7"/>
<path d="M160.293 191.416L160.392 197.598L209.126 168.68V163.096L160.293 191.416Z" fill="white"/>
<path d="M159.7 191.116L80.5938 145.147V153.523L159.7 199.492V191.116Z" fill="#EB8E41"/>
<path d="M142.825 108.651C144.016 107.953 146.1 107.953 147.291 108.651L221.931 154.221C223.221 154.919 223.221 156.116 221.931 156.814L171.212 186.928L92.1055 140.361L142.825 108.651Z" fill="#EB5352"/>
<path d="M142.924 103.964C144.115 103.266 146.199 103.266 147.39 103.964L222.03 147.241C223.32 147.939 223.32 149.135 222.03 149.833L171.212 179.25L92.1055 132.682L142.924 103.964Z" fill="#EB5352"/>
<path d="M171.212 178.552L92.1055 132.683V141.059L171.212 186.928V178.552Z" fill="#2BB0F7"/>
<path d="M171.811 178.951L171.91 185.133L220.644 156.116V150.631L171.811 178.951Z" fill="white"/>
<path d="M171.212 178.552L92.1055 132.683V141.059L171.212 186.928V178.552Z" fill="#860D04"/>
<path d="M141.534 91.899C142.725 91.201 144.81 91.201 146.001 91.899L220.64 137.469C221.931 138.167 221.931 139.364 220.64 140.062L169.822 170.276L90.7158 123.708L141.534 91.899Z" fill="#65586A"/>
<path d="M141.539 87.212C142.73 86.514 144.814 86.514 146.005 87.212L220.645 130.489C221.935 131.187 221.935 132.383 220.645 133.081L169.925 162.498L90.8193 115.93L141.539 87.212Z" fill="#65586A"/>
<path d="M112.854 110.246L137.966 96.0864L156.13 106.357L131.018 121.015L112.854 110.246Z" fill="#FFD475"/>
<path d="M169.822 161.899L90.7158 115.93V124.406L169.822 170.276V161.899Z" fill="#2BB0F7"/>
<path d="M170.519 162.199V168.381L219.253 139.464V133.879L170.519 162.199Z" fill="white"/>
<path d="M169.822 161.899L90.7158 115.93V124.406L169.822 170.276V161.899Z" fill="#423745"/>
<path d="M49.9243 75.0464C50.7183 68.2657 55.1848 61.1858 61.1401 57.9949L111.165 30.4732C114.341 28.6783 117.219 28.5786 119.204 29.8749C119.998 30.3735 122.38 31.9689 122.38 31.9689C120.395 30.6726 117.517 30.872 114.341 32.5672L64.3162 60.0889C57.7654 63.6787 53.1005 71.5563 53.0012 79.035C52.9019 81.5279 52.2071 233.595 52.2071 233.595C52.2071 236.587 52.2071 239.977 54.887 241.971C54.9863 242.071 51.8101 239.977 51.7108 239.877C48.7332 237.584 49.031 233.894 49.031 230.803C48.9318 218.738 49.031 82.4254 49.9243 75.0464Z" fill="#0C0316"/>
<path d="M52.903 78.7357C53.0023 71.8553 57.4688 63.7783 64.2181 59.989L114.243 32.4673C120.496 29.077 125.458 31.8691 125.359 38.8492V194.506C125.26 201.486 122.381 208.467 116.128 211.857L63.1263 241.572C57.0717 244.863 52.2083 242.27 52.0098 235.789C52.109 235.589 52.903 78.7357 52.903 78.7357Z" fill="#333C3B"/>
<path d="M154.44 221.031C154.44 221.031 161.784 221.729 162.678 228.51C163.67 235.69 158.41 239.08 153.646 237.484C148.981 235.789 154.44 221.031 154.44 221.031Z" fill="#D3DEFC"/>
<path d="M148.98 225.219C149.278 223.823 151.164 219.934 155.432 221.43C159.601 222.926 160.692 228.809 159.998 231.801C159.303 234.792 157.219 238.98 152.355 237.185C147.492 235.191 148.186 228.41 148.98 225.219Z" fill="#485067"/>
<path d="M146.697 210.66C147.888 212.455 149.079 213.752 150.668 218.239C152.256 222.726 154.439 223.524 155.531 224.022C156.623 224.521 160.295 231.8 155.531 235.29C155.531 235.29 152.256 232.997 148.98 235.29C145.705 237.584 137.864 236.786 133.993 230.404C130.023 224.122 141.139 202.583 146.697 210.66Z" fill="#93A1DE"/>
<path d="M147.395 212.356C148.288 214.849 149.677 216.943 149.578 223.125C149.479 229.308 150.571 234.493 144.913 235.191C139.256 235.889 134.789 232.798 132.606 228.211C130.521 223.624 130.025 213.153 131.216 209.863C132.407 206.672 144.715 204.578 147.395 212.356Z" fill="#D3DEFC"/>
<path d="M142.924 205.974C144.612 207.769 147.887 209.863 147.986 216.544C148.086 223.225 147.49 221.63 147.986 226.416C148.483 231.103 147.093 232.1 143.321 229.707C139.451 227.313 129.724 220.732 130.518 212.655C131.411 204.777 139.748 202.683 142.924 205.974Z" fill="#93A1DE"/>
<path d="M130.52 212.256C130.52 214.549 131.81 217.341 136.276 221.031C140.743 224.82 143.423 227.313 143.919 227.911C146.301 230.305 147.691 228.41 146.996 225.219C146.301 222.028 145.606 222.926 145.805 218.638C146.003 214.35 147.095 209.165 143.026 205.276C138.956 201.487 130.52 200.19 130.52 212.256Z" fill="white"/>
<path d="M143.92 208.965C145.508 212.755 144.317 216.843 141.24 218.139C138.163 219.436 134.391 217.541 132.704 213.752C131.116 209.962 132.307 205.874 135.384 204.578C138.56 203.281 142.332 205.276 143.92 208.965Z" fill="#423745"/>
<path d="M141.736 218.04C144.515 216.544 145.508 212.655 143.92 209.065C142.332 205.276 138.461 203.381 135.384 204.678C132.307 205.974 131.116 210.162 132.704 213.851C134.292 217.641 138.163 219.535 141.24 218.239C138.659 219.336 135.582 217.74 134.193 214.649C132.903 211.558 133.895 208.168 136.376 207.071C138.957 205.974 142.034 207.569 143.424 210.661C144.714 213.552 143.92 216.743 141.736 218.04Z" fill="#93A1DE"/>
<path d="M141.536 221.53C141.636 221.829 141.636 222.128 141.437 222.228C141.239 222.327 140.941 222.128 140.842 221.829C140.742 221.53 140.742 221.231 140.941 221.131C141.239 221.131 141.437 221.231 141.536 221.53Z" fill="#485067"/>
<path d="M142.628 221.23C142.727 221.53 142.727 221.829 142.529 221.928C142.33 222.028 142.033 221.829 141.933 221.53C141.834 221.23 141.834 220.931 142.033 220.832C142.33 220.832 142.529 221.031 142.628 221.23Z" fill="#485067"/>
<path d="M143.623 220.832C143.723 221.131 143.723 221.43 143.524 221.53C143.325 221.63 143.028 221.43 142.928 221.131C142.829 220.832 142.829 220.533 143.028 220.433C143.226 220.333 143.524 220.533 143.623 220.832Z" fill="#485067"/>
<path d="M144.91 222.029C145.01 222.328 145.01 222.627 144.811 222.727C144.613 222.826 144.315 222.627 144.216 222.328C144.116 222.029 144.116 221.73 144.315 221.63C144.513 221.63 144.811 221.73 144.91 222.029Z" fill="#485067"/>
<path d="M144.018 222.726C144.117 223.025 144.117 223.324 143.919 223.424C143.72 223.524 143.422 223.324 143.323 223.025C143.224 222.726 143.224 222.427 143.422 222.327C143.621 222.327 143.918 222.527 144.018 222.726Z" fill="#485067"/>
<path d="M143.126 223.125C143.225 223.424 143.225 223.723 143.027 223.823C142.828 223.923 142.531 223.723 142.431 223.424C142.332 223.125 142.332 222.826 142.531 222.726C142.729 222.726 143.027 222.926 143.126 223.125Z" fill="#485067"/>
<path d="M142.131 223.425C142.23 223.724 142.23 224.023 142.032 224.123C141.833 224.223 141.536 224.023 141.436 223.724C141.337 223.425 141.337 223.126 141.536 223.026C141.734 222.926 142.032 223.126 142.131 223.425Z" fill="#485067"/>
<path d="M143.623 225.02C143.723 225.319 143.723 225.618 143.524 225.718C143.325 225.818 143.028 225.618 142.928 225.319C142.829 225.02 142.829 224.721 143.028 224.621C143.325 224.621 143.524 224.721 143.623 225.02Z" fill="#485067"/>
<path d="M144.613 224.521C144.712 224.82 144.712 225.119 144.513 225.219C144.315 225.319 144.017 225.119 143.918 224.82C143.818 224.521 143.818 224.222 144.017 224.122C144.215 224.022 144.513 224.222 144.613 224.521Z" fill="#485067"/>
<path d="M145.407 223.823C145.507 224.122 145.507 224.422 145.308 224.521C145.11 224.621 144.812 224.422 144.713 224.122C144.613 223.823 144.613 223.524 144.812 223.424C145.11 223.325 145.308 223.524 145.407 223.823Z" fill="#485067"/>
<path d="M146.002 225.718C146.101 226.017 146.101 226.316 145.903 226.416C145.704 226.515 145.407 226.316 145.307 226.017C145.208 225.718 145.208 225.419 145.407 225.319C145.704 225.219 145.903 225.419 146.002 225.718Z" fill="#485067"/>
<path d="M145.111 226.216C145.21 226.515 145.21 226.815 145.011 226.914C144.813 227.014 144.515 226.815 144.416 226.515C144.317 226.216 144.317 225.917 144.515 225.817C144.714 225.817 145.011 226.017 145.111 226.216Z" fill="#485067"/>
<path d="M188.685 201.886C188.685 201.886 181.34 202.584 180.447 209.364C179.454 216.544 184.715 219.934 189.479 218.339C194.144 216.544 188.685 201.886 188.685 201.886Z" fill="#D3DEFC"/>
<path d="M194.14 205.974C193.842 204.578 191.956 200.689 187.688 202.184C183.52 203.68 182.428 209.563 183.123 212.555C183.818 215.546 185.902 219.735 190.765 217.94C195.629 216.045 194.934 209.264 194.14 205.974Z" fill="#485067"/>
<path d="M196.426 191.515C195.235 193.31 194.044 194.606 192.456 199.093C190.868 203.581 188.684 204.378 187.593 204.877C186.501 205.375 182.828 212.655 187.593 216.145C187.593 216.145 190.868 213.851 194.143 216.145C197.419 218.438 205.26 217.641 209.131 211.259C213.101 204.977 202.084 183.338 196.426 191.515Z" fill="#93A1DE"/>
<path d="M195.727 193.111C194.834 195.604 193.444 197.698 193.543 203.88C193.643 210.062 192.551 215.248 198.208 215.946C203.866 216.644 208.332 213.552 210.516 208.966C212.6 204.379 213.097 193.908 211.906 190.618C210.714 187.427 198.506 185.333 195.727 193.111Z" fill="#D3DEFC"/>
<path d="M200.297 186.828C198.61 188.623 195.335 190.717 195.236 197.398C195.136 204.079 195.732 202.484 195.236 207.27C194.739 212.056 196.129 212.954 199.901 210.561C203.771 208.168 213.498 201.586 212.704 193.509C211.712 185.532 203.374 183.538 200.297 186.828Z" fill="#93A1DE"/>
<path d="M212.602 193.11C212.602 195.404 211.311 198.196 206.845 201.885C202.379 205.575 199.699 208.167 199.202 208.766C196.82 211.159 195.431 209.264 196.125 206.073C196.82 202.882 197.515 203.78 197.316 199.492C197.118 195.204 196.026 190.019 200.096 186.13C204.165 182.241 212.602 180.945 212.602 193.11Z" fill="white"/>
<path d="M199.204 189.82C197.616 193.609 198.807 197.698 201.884 198.994C204.961 200.29 208.732 198.396 210.42 194.606C212.008 190.817 210.817 186.729 207.74 185.432C204.663 184.136 200.792 186.031 199.204 189.82Z" fill="#423745"/>
<path d="M201.484 198.794C198.705 197.299 197.713 193.41 199.301 189.82C200.889 186.031 204.76 184.136 207.837 185.432C210.914 186.729 212.105 190.917 210.517 194.606C208.929 198.396 205.058 200.29 201.981 198.994C204.561 200.091 207.638 198.495 209.028 195.404C210.318 192.313 209.326 188.923 206.844 187.826C204.264 186.729 201.187 188.324 199.797 191.415C198.408 194.307 199.202 197.498 201.484 198.794Z" fill="#93A1DE"/>
<path d="M201.589 202.384C201.489 202.683 201.489 202.982 201.688 203.082C201.886 203.182 202.184 202.982 202.283 202.683C202.383 202.384 202.383 202.085 202.184 201.985C201.986 201.885 201.688 202.085 201.589 202.384Z" fill="#485067"/>
<path d="M200.496 202.085C200.397 202.384 200.397 202.683 200.595 202.783C200.794 202.883 201.091 202.683 201.191 202.384C201.29 202.085 201.29 201.786 201.091 201.686C200.893 201.686 200.595 201.786 200.496 202.085Z" fill="#485067"/>
<path d="M199.501 201.586C199.401 201.886 199.401 202.185 199.6 202.284C199.798 202.384 200.096 202.185 200.196 201.886C200.295 201.586 200.295 201.287 200.096 201.188C199.898 201.188 199.6 201.287 199.501 201.586Z" fill="#485067"/>
<path d="M198.214 202.882C198.114 203.181 198.114 203.481 198.313 203.58C198.511 203.68 198.809 203.481 198.908 203.181C199.008 202.882 199.008 202.583 198.809 202.483C198.611 202.384 198.313 202.583 198.214 202.882Z" fill="#485067"/>
<path d="M199.106 203.58C199.007 203.88 199.007 204.179 199.205 204.279C199.404 204.378 199.702 204.179 199.801 203.88C199.9 203.581 199.9 203.281 199.702 203.182C199.503 203.182 199.205 203.281 199.106 203.58Z" fill="#485067"/>
<path d="M199.999 203.979C199.9 204.279 199.9 204.578 200.098 204.677C200.297 204.777 200.594 204.578 200.694 204.279C200.793 203.979 200.793 203.68 200.594 203.581C200.396 203.581 200.098 203.68 199.999 203.979Z" fill="#485067"/>
<path d="M200.987 204.179C200.888 204.478 200.888 204.777 201.086 204.877C201.285 204.977 201.583 204.777 201.682 204.478C201.781 204.179 201.781 203.88 201.583 203.78C201.384 203.78 201.086 203.98 200.987 204.179Z" fill="#485067"/>
<path d="M199.501 205.874C199.401 206.173 199.401 206.472 199.6 206.572C199.798 206.672 200.096 206.472 200.196 206.173C200.295 205.874 200.295 205.575 200.096 205.475C199.898 205.375 199.6 205.575 199.501 205.874Z" fill="#485067"/>
<path d="M198.511 205.276C198.412 205.575 198.412 205.874 198.611 205.974C198.809 206.074 199.107 205.874 199.206 205.575C199.306 205.276 199.306 204.977 199.107 204.877C198.908 204.877 198.611 204.977 198.511 205.276Z" fill="#485067"/>
<path d="M197.717 204.578C197.617 204.877 197.617 205.176 197.816 205.276C198.014 205.375 198.312 205.176 198.411 204.877C198.511 204.578 198.511 204.278 198.312 204.179C198.114 204.179 197.816 204.378 197.717 204.578Z" fill="#485067"/>
<path d="M197.122 206.472C197.023 206.771 197.023 207.07 197.221 207.17C197.42 207.27 197.717 207.07 197.817 206.771C197.916 206.472 197.916 206.173 197.717 206.073C197.519 206.073 197.221 206.173 197.122 206.472Z" fill="#485067"/>
<path d="M198.013 207.071C197.914 207.37 197.914 207.669 198.113 207.769C198.311 207.868 198.609 207.669 198.708 207.37C198.807 207.071 198.807 206.772 198.609 206.672C198.41 206.672 198.212 206.772 198.013 207.071Z" fill="#485067"/>
<path d="M108.186 33.4648L73.3477 52.7101V62.9809L108.186 42.9379V33.4648Z" fill="#0C0316"/>
<path d="M58.4609 84.9185V156.515C58.4609 158.409 60.446 159.506 62.0341 158.609L119.006 125.403C119.701 125.004 120.197 124.207 120.197 123.309V51.7129C120.197 49.8183 118.212 48.7215 116.624 49.6189L59.6519 82.8244C58.9572 83.2233 58.4609 84.021 58.4609 84.9185Z" fill="#333C3B"/>
<path d="M101.436 118.822L80.0964 131.286C78.8061 131.984 78.1113 133.38 78.1113 134.776V163.195C78.1113 166.287 81.486 168.281 84.1659 166.686L105.506 154.221C106.796 153.523 107.491 152.127 107.491 150.731V122.312C107.59 119.221 104.215 117.226 101.436 118.822Z" fill="#94A3A1"/>
<path d="M92.8009 82.5249L64.4141 99.0778V101.67L92.8009 85.0178V82.5249Z" fill="#FCB54D"/>
<path d="M104.314 75.8438L94.8848 81.3281V83.9208L104.314 78.3367V75.8438Z" fill="#FCB54D"/>
<path d="M107.689 73.8498V76.3427L114.24 72.5535V70.0605L107.689 73.8498Z" fill="#FCB54D"/>
<path d="M85.8545 93.9921L114.241 77.4392V74.9463L85.8545 91.4992V93.9921Z" fill="#FCB54D"/>
<path d="M74.3418 100.673L83.771 95.1887V92.6958L74.3418 98.1802V100.673Z" fill="#FCB54D"/>
<path d="M70.9649 102.667V100.174L64.4141 103.964V106.456L70.9649 102.667Z" fill="#FCB54D"/>
<path d="M100.347 148.936C100.347 151.329 96.9728 153.224 92.8041 153.224C88.6354 153.224 85.2607 151.329 85.2607 148.936V148.836C85.2607 147.341 86.6503 146.044 88.7347 145.247L92.8041 147.64L96.8735 145.247C98.9579 146.044 100.347 147.341 100.347 148.936Z" fill="#0C0316"/>
<path d="M100.347 143.252V148.836H85.2607V143.252L88.7347 145.346L92.8041 147.639L96.8735 145.346L100.347 143.252Z" fill="#0C0316"/>
<path d="M105.11 139.363L92.8021 146.543L80.5938 139.363L92.8021 132.283L105.11 139.363Z" fill="#0C0316"/>
<path d="M107.49 205.476L72.8496 224.422V225.319L107.49 206.273V205.476Z" fill="#94A3A1"/>
</g>
<defs>
<clipPath id="clip0_171_269">
<rect width="272" height="272" fill="white"/>
</clipPath>
</defs>
</svg>
