<svg width="62" height="79" viewBox="0 0 62 79" fill="none" xmlns="http://www.w3.org/2000/svg">
<path d="M9.4763 2.00894C4.95104 8.37692 4.75765 15.1997 4.6803 22.9702C4.60294 29.6414 6.30475 36.2368 7.69714 42.7564C9.05085 49.3139 7.58111 75.5439 1.16064 77.8181C17.0184 77.4391 31.9479 77.6286 47.5349 77.4391C55.2704 77.3254 61.5749 71.109 61.4202 63.566C61.4202 63.5281 61.4202 63.4523 61.4202 63.4144C61.2654 58.3731 59.757 53.5213 58.558 48.6316C54.8837 33.5456 58.6741 17.7394 61.1107 2.42589C46.9161 0.151618 23.6323 -0.56857 9.4763 2.00894Z" fill="white" fill-opacity="0.1"/>
<path d="M8.97326 1.97105C7.00071 4.73808 5.72435 7.84626 5.02816 11.144C4.33196 14.4796 4.21593 17.8531 4.17725 21.2266C4.13858 23.1218 4.13858 25.017 4.29329 26.9123C4.448 28.9212 4.71874 30.8923 5.06684 32.8633C5.41493 34.8343 5.84039 36.8054 6.26584 38.7764C6.61394 40.2926 7.00071 41.8467 7.23278 43.3629C7.50352 44.8791 7.5422 46.4331 7.58087 47.9872C7.61955 50.1099 7.58087 52.2325 7.46484 54.3552C7.23278 59.0175 6.72997 63.7176 5.68568 68.2662C5.26022 70.1614 4.71874 72.0946 3.90651 73.8761C3.36503 75.089 2.63015 76.4536 1.54719 77.1738C1.3538 77.3254 1.23777 77.3633 0.928346 77.477C0.386861 77.6665 0.618926 78.1593 1.12173 78.1214C10.4817 77.894 19.8416 77.894 29.2016 77.856C33.8429 77.856 38.5229 77.8181 43.1642 77.7802C45.2141 77.7802 47.3413 77.894 49.3912 77.5907C51.0157 77.3633 52.6015 76.8705 54.0712 76.1503C56.8947 74.7479 59.254 72.4357 60.6077 69.6308C61.3039 68.2283 61.768 66.7121 61.9227 65.158C62.1548 63.1491 61.9227 61.1022 61.6133 59.1312C60.9171 54.6584 59.4474 50.3752 58.5965 45.9404C57.7456 41.5434 57.5135 37.0328 57.6295 32.5222C57.9003 23.463 59.6408 14.5175 61.1105 5.60989C61.3039 4.51065 61.4586 3.41142 61.652 2.27428C61.6907 2.04686 61.4586 1.97105 61.3039 1.97105C54.7287 0.947622 48.1149 0.416957 41.4623 0.151625C34.307 -0.113707 27.113 -0.113707 19.919 0.416957C16.3993 0.68229 12.8797 1.06134 9.39871 1.66781C9.20533 1.70571 8.85723 1.89524 8.93458 2.16057C9.01194 2.4259 9.39871 2.388 9.5921 2.35009C15.9739 1.17505 22.5491 0.871813 29.0855 0.758099C36.2409 0.644385 43.3962 0.909717 50.5129 1.51619C53.9939 1.81943 57.4748 2.19847 60.9171 2.72914C60.8011 2.61542 60.6851 2.50171 60.569 2.4259C59.1766 11.2577 57.3588 20.0515 56.7399 28.9591C56.4305 33.2802 56.4305 37.6772 56.8947 41.9983C57.1267 44.1968 57.5135 46.3952 58.0163 48.5558C58.5578 50.7543 59.138 52.9148 59.6408 55.1133C60.1436 57.2739 60.569 59.4344 60.7624 61.6329C60.9171 63.4144 60.9558 65.1959 60.5303 66.9395C59.7955 69.934 57.9776 72.6631 55.4249 74.4825C54.1872 75.3923 52.7948 76.0745 51.2864 76.5294C49.5073 77.0221 47.7668 77.0601 45.9489 77.098C41.385 77.1359 36.821 77.1738 32.2571 77.1738C23.0905 77.2117 13.924 77.2117 4.71874 77.3633C3.55841 77.4012 2.39809 77.4012 1.27644 77.4391C1.3538 77.6665 1.39248 77.8561 1.46983 78.0835C2.74619 77.6286 3.67445 76.4536 4.33196 75.3544C5.26022 73.8003 5.84039 72.0566 6.34319 70.313C7.61955 65.8403 8.19971 61.178 8.54781 56.5537C8.85723 52.5358 9.01194 48.4042 8.62516 44.3863C8.35442 41.733 7.61955 39.1176 7.07806 36.5021C6.22716 32.5222 5.53097 28.5043 5.41493 24.4106C5.2989 20.8854 5.41493 17.2845 5.84039 13.7973C6.22716 10.4617 7.11674 7.20188 8.7412 4.24532C9.16665 3.48723 9.63078 2.72914 10.1723 2.00895C10.327 1.78152 10.0176 1.6299 9.86284 1.592C9.39871 1.6299 9.12797 1.74362 8.97326 1.97105Z" fill="#222221"/>
<path d="M11.5645 23.9178C11.5645 23.9178 11.7192 23.9936 11.9899 24.0315C12.1446 24.0694 12.2993 24.0694 12.4927 24.0694C12.6861 24.0694 12.9182 23.9936 13.1889 23.9557C13.4596 23.9178 13.7304 23.9178 14.0398 23.9178C14.3492 23.9178 14.6973 23.9178 15.0454 23.9178C15.2388 23.9178 15.3935 23.9178 15.5869 23.9178C15.7803 23.9178 15.9737 23.9178 16.1671 23.9557C16.3605 23.9936 16.5925 24.0694 16.7859 24.0315C16.9793 23.8799 17.2114 23.9178 17.4434 23.9178C17.6755 23.9178 17.9076 23.9178 18.1396 23.9936C18.3717 24.0315 18.6038 23.9936 18.8358 23.9936C19.2999 23.9557 19.8028 23.9557 20.3056 23.9557C21.3112 23.9557 22.3941 23.9557 23.5158 23.9557C24.6374 23.9557 25.7591 23.9557 26.9194 23.9557C28.0797 23.9557 29.2787 23.9557 30.4391 23.9936C31.0192 23.9936 31.6381 23.9936 32.2182 23.9936C32.3729 23.9936 32.5276 23.9936 32.6437 23.9936C32.7984 23.9936 32.9531 24.0315 33.0691 24.0694C33.3785 24.1452 33.6493 24.1452 33.9587 24.1452C35.119 24.0694 36.2794 23.842 37.3623 24.1073C37.9038 24.0694 38.4453 23.9936 38.9868 23.8799C39.2575 23.842 39.5283 23.8041 39.7603 23.8041C39.8764 23.8041 40.0311 23.7662 40.1471 23.8041C40.2631 23.8041 40.4179 23.842 40.5339 23.8799C40.6499 23.9178 40.8046 23.9557 40.9207 23.9936C41.0367 24.0315 41.1527 24.0315 41.3074 24.0315C41.5395 24.0315 41.8102 24.0694 42.0423 24.0694C42.5064 24.0694 42.9706 24.0694 43.4347 24.0315C43.8601 24.0315 44.2856 23.7662 44.7111 23.8799C45.0978 24.1831 45.4846 24.1073 45.8714 24.1073C46.2195 24.0694 46.5676 24.0315 46.877 24.0694C47.1864 24.0694 47.4572 24.0694 47.7279 24.0694C48.7722 24.0694 49.3523 24.0694 49.3523 24.0694V24.3727C49.3523 24.3727 48.7722 24.3727 47.7279 24.3727C47.4572 24.3727 47.1864 24.3727 46.877 24.3727C46.5676 24.4106 46.2195 24.3348 45.8714 24.3348C45.5233 24.3348 45.1365 24.2589 44.7111 24.5622C44.3243 24.6759 43.8988 24.4106 43.4347 24.4106C43.0092 24.3727 42.5451 24.3727 42.0423 24.3727C41.8102 24.3727 41.5782 24.3727 41.3074 24.4106C41.1914 24.4106 41.0754 24.4106 40.9207 24.4485C40.8046 24.4864 40.6886 24.5243 40.5339 24.5622C40.4179 24.6001 40.2631 24.638 40.1471 24.638C40.0311 24.638 39.8764 24.638 39.7603 24.638C39.4896 24.638 39.2189 24.6001 38.9868 24.5622C38.4453 24.4864 37.9038 24.3727 37.3623 24.3348C36.2407 24.6001 35.119 24.3727 33.9587 24.2969C33.6493 24.2969 33.3785 24.2969 33.0691 24.3727C32.9144 24.4106 32.7597 24.4485 32.6437 24.4485C32.489 24.4485 32.3343 24.4485 32.2182 24.4485C31.6381 24.4485 31.0579 24.4485 30.4391 24.4485C29.2401 24.4485 28.0797 24.4485 26.9194 24.4864C25.7591 24.4864 24.5988 24.4864 23.5158 24.4864C22.3941 24.4864 21.3499 24.4864 20.3056 24.4864C19.8028 24.4864 19.2999 24.4864 18.8358 24.4485C18.6038 24.4485 18.3717 24.4106 18.1396 24.4485C17.9076 24.5243 17.6755 24.5243 17.4434 24.5243C17.2114 24.5243 17.018 24.5622 16.7859 24.4106C16.5925 24.3727 16.3605 24.4485 16.1671 24.4864C15.9737 24.5243 15.7803 24.5243 15.5869 24.5243C15.3935 24.5243 15.2001 24.5243 15.0454 24.5243C14.6973 24.5243 14.3492 24.5243 14.0398 24.5243C13.7304 24.5243 13.4596 24.5243 13.1889 24.4864C12.9182 24.4485 12.6861 24.3727 12.4927 24.3727C12.2993 24.3727 12.1059 24.3727 11.9899 24.4106C11.7192 24.4485 11.5645 24.5243 11.5645 24.5243V23.9178Z" fill="#222221"/>
<path d="M12.2993 32.0294C12.2993 32.0294 12.454 32.1052 12.7248 32.1431C12.8795 32.181 13.0342 32.181 13.2276 32.181C13.421 32.181 13.653 32.1052 13.8851 32.0673C14.1558 32.0294 14.4266 32.0294 14.736 32.0294C15.0454 32.0294 15.3548 32.0294 15.7416 32.0294C15.935 32.0294 16.0897 32.0294 16.2831 32.0294C16.4765 32.0294 16.6699 32.0294 16.8633 32.0673C17.0566 32.1052 17.25 32.181 17.4821 32.1431C17.6755 31.9915 17.9076 32.0294 18.1009 32.0294C18.333 32.0294 18.5264 32.0294 18.7585 32.1052C18.9905 32.1431 19.2226 32.1052 19.4547 32.1052C19.9188 32.0673 20.4216 32.0673 20.8857 32.0673C21.8913 32.0673 22.9356 32.0673 24.0186 32.0673C25.1016 32.0673 26.2232 32.0673 27.3449 32.0673C28.4665 32.0673 29.6268 32.0673 30.7872 32.1052C31.3673 32.1052 31.9475 32.1052 32.5276 32.1052C32.6823 32.1052 32.7984 32.1052 32.9531 32.1052C33.1078 32.1052 33.2238 32.1431 33.3785 32.181C33.6493 32.2568 33.9587 32.2568 34.2294 32.2568C35.3511 32.181 36.4727 31.9536 37.5557 32.2189C38.0972 32.181 38.6387 32.1052 39.1415 31.9915C39.4122 31.9536 39.6443 31.9157 39.915 31.9157C40.0311 31.9157 40.1858 31.8778 40.3018 31.9157C40.4178 31.9157 40.5339 31.9536 40.6886 31.9915C40.8046 32.0294 40.9207 32.0673 41.0754 32.1052C41.1914 32.1431 41.3074 32.1431 41.4235 32.1431C41.6555 32.1431 41.8876 32.181 42.1197 32.181C42.5838 32.181 43.0479 32.181 43.4734 32.1431C43.8988 32.1431 44.3243 31.8778 44.711 31.9915C45.0978 32.2947 45.4846 32.2189 45.8327 32.2189C46.1808 32.181 46.5289 32.1431 46.8383 32.181C47.1477 32.181 47.4185 32.181 47.6892 32.181C48.6948 32.181 49.275 32.181 49.275 32.181V32.4842C49.275 32.4842 48.6948 32.4842 47.6892 32.4842C47.4185 32.4842 47.1477 32.4842 46.8383 32.4842C46.5289 32.5222 46.2195 32.4463 45.8327 32.4463C45.4846 32.4463 45.0978 32.3705 44.711 32.6738C44.3243 32.7875 43.8988 32.5222 43.4734 32.5222C43.0479 32.4843 42.5838 32.4842 42.1197 32.4842C41.8876 32.4842 41.6555 32.4843 41.4235 32.5222C41.3074 32.5222 41.1914 32.5222 41.0754 32.5601C40.9593 32.598 40.8433 32.6359 40.6886 32.6738C40.5726 32.7117 40.4565 32.7496 40.3018 32.7496C40.1858 32.7496 40.0311 32.7496 39.915 32.7496C39.6443 32.7496 39.4122 32.7117 39.1415 32.6738C38.6387 32.598 38.0972 32.4843 37.5557 32.4463C36.4727 32.7117 35.3511 32.4843 34.2294 32.4084C33.9587 32.4084 33.6493 32.4084 33.3785 32.4842C33.2238 32.5222 33.1078 32.5601 32.9531 32.5601C32.7984 32.5601 32.6823 32.5601 32.5276 32.5601C31.9475 32.5601 31.3673 32.5601 30.7872 32.5601C29.6268 32.5601 28.4665 32.5601 27.3449 32.598C26.2232 32.598 25.1016 32.598 24.0186 32.598C22.9356 32.598 21.8913 32.598 20.8857 32.598C20.3829 32.598 19.9188 32.598 19.4547 32.5601C19.2226 32.5601 18.9905 32.5222 18.7585 32.5601C18.5264 32.6359 18.2943 32.6359 18.1009 32.6359C17.8689 32.6359 17.6755 32.6738 17.4821 32.5222C17.2887 32.4843 17.0566 32.5601 16.8633 32.598C16.6699 32.6359 16.4765 32.6359 16.2831 32.6359C16.0897 32.6359 15.8963 32.6359 15.7416 32.6359C15.3935 32.6359 15.0454 32.6359 14.736 32.6359C14.4266 32.6359 14.1558 32.6359 13.8851 32.598C13.6144 32.5601 13.421 32.4842 13.2276 32.4842C13.0342 32.4842 12.8795 32.4843 12.7248 32.5222C12.454 32.5601 12.2993 32.6359 12.2993 32.6359V32.0294Z" fill="#222221"/>
<path d="M13.0732 40.8991C13.0732 40.8991 13.228 40.9749 13.4987 41.0128C13.6534 41.0507 13.8081 41.0507 14.0015 41.0507C14.1949 41.0507 14.427 40.9749 14.659 40.937C14.9298 40.8991 15.2005 40.8991 15.5099 40.8991C15.8193 40.8991 16.1288 40.8991 16.5155 40.8991C16.7089 40.8991 16.8636 40.8991 17.057 40.8991C17.2504 40.8991 17.4438 40.8991 17.6372 40.937C17.8306 40.9749 18.024 41.0507 18.256 41.0128C18.4494 40.8612 18.6815 40.8991 18.8749 40.8991C19.1069 40.8991 19.3003 40.8991 19.5324 40.9749C19.7644 41.0128 19.9965 40.9749 20.2286 40.9749C20.6927 40.937 21.1955 40.937 21.6596 40.937C22.6653 40.937 23.7095 40.937 24.7925 40.937C25.8755 40.937 26.9971 40.937 28.1188 40.937C29.2404 40.937 30.4008 40.937 31.5611 40.9749C32.1412 40.9749 32.7214 40.9749 33.3016 40.9749C33.4563 40.9749 33.5723 40.9749 33.727 40.9749C33.8817 40.9749 33.9978 41.0128 34.1525 41.0507C34.4232 41.1265 34.7326 41.1265 35.0034 41.1265C36.125 41.0507 37.2467 40.8233 38.3296 41.0886C38.8711 41.0507 39.4126 40.9749 39.9154 40.8612C40.1862 40.8233 40.4182 40.7854 40.689 40.7854C40.805 40.7854 40.9597 40.7475 41.0757 40.7854C41.1918 40.7854 41.3078 40.8233 41.4625 40.8612C41.5785 40.8991 41.6946 40.937 41.8493 40.9749C41.9653 41.0128 42.0814 41.0128 42.1974 41.0128C42.4294 41.0128 42.6615 41.0507 42.8936 41.0507C43.3577 41.0507 43.8218 41.0507 44.2473 41.0128C44.6727 41.0128 45.0982 40.7475 45.485 40.8612C45.8717 41.1644 46.2585 41.0886 46.6066 41.0886C46.9547 41.0507 47.3028 41.0128 47.6122 41.0507C47.9216 41.0507 48.1924 41.0507 48.4631 41.0507C49.4688 41.0507 50.0489 41.0507 50.0489 41.0507V41.3539C50.0489 41.3539 49.4688 41.3539 48.4631 41.3539C48.1924 41.3539 47.9216 41.3539 47.6122 41.3539C47.3028 41.3918 46.9934 41.316 46.6066 41.316C46.2585 41.316 45.8717 41.2402 45.485 41.5434C45.0982 41.6572 44.6727 41.3918 44.2473 41.3918C43.8218 41.3539 43.3577 41.3539 42.8936 41.3539C42.6615 41.3539 42.4294 41.3539 42.1974 41.3918C42.0814 41.3918 41.9653 41.3918 41.8493 41.4297C41.7333 41.4676 41.6172 41.5055 41.4625 41.5434C41.3465 41.5814 41.2304 41.6193 41.0757 41.6193C40.9597 41.6193 40.805 41.6193 40.689 41.6193C40.4182 41.6193 40.1862 41.5814 39.9154 41.5434C39.4126 41.4676 38.8711 41.3539 38.3296 41.316C37.2467 41.5814 36.125 41.3539 35.0034 41.2781C34.7326 41.2781 34.4232 41.2781 34.1525 41.3539C33.9978 41.3918 33.8817 41.4297 33.727 41.4297C33.5723 41.4297 33.4563 41.4297 33.3016 41.4297C32.7214 41.4297 32.1412 41.4297 31.5611 41.4297C30.4008 41.4297 29.2404 41.4297 28.1188 41.4676C26.9971 41.4676 25.8755 41.4676 24.7925 41.4676C23.7095 41.4676 22.6653 41.4676 21.6596 41.4676C21.1568 41.4676 20.6927 41.4676 20.2286 41.4297C19.9965 41.4297 19.7644 41.3918 19.5324 41.4297C19.3003 41.5055 19.0683 41.5055 18.8749 41.5055C18.6428 41.5055 18.4494 41.5434 18.256 41.3918C18.0626 41.3539 17.8306 41.4297 17.6372 41.4676C17.4438 41.5055 17.2504 41.5055 17.057 41.5055C16.8636 41.5055 16.6702 41.5055 16.5155 41.5055C16.1674 41.5055 15.8193 41.5055 15.5099 41.5055C15.2005 41.5055 14.9298 41.5055 14.659 41.4676C14.3883 41.4297 14.1949 41.3539 14.0015 41.3539C13.8081 41.3539 13.6534 41.3539 13.4987 41.3918C13.228 41.4297 13.0732 41.5055 13.0732 41.5055V40.8991Z" fill="#222221"/>
<path d="M40.9597 77.2496C44.9822 75.5818 48.3085 72.5494 50.281 68.721C50.0103 68.8348 49.7008 68.9106 49.4301 69.0243C52.9884 70.4267 57.1269 70.1993 60.5305 68.4178C61.1881 68.0767 60.6079 67.546 60.0664 67.8113C56.9722 69.4033 53.3365 69.5928 50.0876 68.3041C49.8169 68.1904 49.3527 68.342 49.2367 68.6073C47.3802 72.2083 44.286 75.0511 40.4956 76.6431C40.3022 76.7189 40.0702 76.9463 40.2249 77.1738C40.3409 77.4012 40.7277 77.3254 40.9597 77.2496Z" fill="#222221"/>
<path d="M12.8797 62.6942C14.6202 59.7756 16.3607 56.819 18.1012 53.9003C17.7531 53.9382 17.3663 53.9761 17.0182 54.0141C18.488 58.79 21.6982 62.6563 25.914 65.3854C26.1848 65.5371 26.7263 65.3854 26.881 65.1201C29.5497 60.1546 32.9533 55.644 35.6221 50.6784C35.274 50.7543 34.9259 50.7922 34.5778 50.868C37.2079 53.9003 40.1087 56.6295 42.7387 59.6618C42.9321 59.8893 43.5123 59.7756 43.7057 59.5481C46.0263 56.819 47.6121 53.5971 49.9328 50.8301C50.3582 50.3373 49.2752 50.2994 49.0045 50.6026C46.6838 53.3318 45.0981 56.5537 42.7774 59.3207C43.0868 59.2828 43.4349 59.2449 43.7444 59.207C41.1143 56.1746 38.2135 53.4455 35.5834 50.4131C35.3513 50.1478 34.6938 50.3373 34.5391 50.6026C31.8704 55.5681 28.4668 60.0788 25.798 65.0443C26.1074 64.9685 26.4555 64.8927 26.7649 64.779C22.6651 62.1256 19.4936 58.3352 18.1012 53.6729C17.9852 53.256 17.1729 53.5213 17.0182 53.7866C15.2777 56.7053 13.5372 59.6618 11.7968 62.5805C11.526 63.1112 12.6477 63.0733 12.8797 62.6942Z" fill="black"/>
<path d="M46.3745 48.5937C47.8829 48.063 49.3914 47.5324 50.9385 47.0017C51.4026 48.7453 51.8667 50.5268 52.3308 52.2704C50.3583 51.3228 48.3857 50.3752 46.4132 49.4276" fill="black"/>
</svg>
