<svg width="110" height="89" viewBox="0 0 110 89" fill="none" xmlns="http://www.w3.org/2000/svg">
<g clip-path="url(#clip0_199_243)">
<path d="M107.463 44.3786C103.888 57.3097 92.6463 65.809 80.3665 67.2053C71.4881 68.0552 62.7826 65.0198 55.9797 59.2524C42.0856 47.0498 40.8749 23.4338 54.7113 10.1385C60.1883 4.67462 67.1065 1.45702 74.3707 0.546383C92.5887 -1.03206 110.922 16.088 109.02 35.6364C108.904 38.5505 108.385 41.5252 107.463 44.3786Z" fill="white" fill-opacity="0.1"/>
<path d="M106.656 44.5C103.082 57.3704 91.2052 66.5375 78.5218 66.9018C71.0846 67.0839 63.6475 64.4734 57.7094 59.7381C52.9819 55.9741 49.4075 50.6316 47.505 44.7428C43.6423 32.9045 46.3519 19.2449 55.115 10.5634C60.3614 5.34242 67.049 1.76057 74.3132 1.03206C80.4243 0.424962 86.766 2.30695 92.0123 5.46384C97.3163 8.62073 101.871 13.2954 104.811 18.9413C106.252 21.734 107.348 24.7694 107.924 27.8656C108.558 31.3261 108.443 34.7865 108.04 38.2469C107.751 40.4325 107.29 42.4966 106.656 44.5C106.483 45.1071 108.155 44.8643 108.328 44.2572C110.576 37.0934 110.749 29.0798 108.097 22.0375C105.733 15.8452 101.525 10.5027 96.3939 6.61732C91.2052 2.73192 84.9788 0.303543 78.6371 -3.60981e-06C71.3729 -0.36426 63.9358 2.30695 57.9976 6.67803C52.636 10.6849 48.3121 16.088 46.0637 22.6446C43.9882 28.5941 43.5846 35.2115 44.853 41.4038C46.1213 47.6569 49.1192 53.5457 53.5008 57.9775C58.7471 63.3806 66.0689 66.8411 73.3907 67.6303C86.6507 69.148 100.66 61.9236 106.598 49.1139C107.348 47.5355 107.924 45.957 108.385 44.2572C108.501 43.6501 106.829 43.8929 106.656 44.5Z" fill="#222221"/>
<path d="M105.445 43.1644C102.332 54.5171 92.4161 61.9843 81.6929 63.1985C73.9098 63.9877 66.2421 61.3165 60.304 56.2169C48.0817 45.5321 47.044 24.7694 59.2086 13.1132C63.9937 8.31719 70.1048 5.46385 76.4465 4.73534C92.4161 3.33902 108.443 18.395 106.829 35.515C106.656 38.0648 106.253 40.6146 105.445 43.1644Z" fill="white" fill-opacity="0.1"/>
<path d="M104.581 43.2251C101.468 54.4563 91.0902 62.3486 80.0786 62.7128C73.6216 62.9557 67.2799 60.6487 62.0912 56.6419C57.825 53.3636 54.7118 48.6282 52.9822 43.4072C49.5807 33.0866 51.9445 21.1269 59.6122 13.5382C64.1667 8.985 70.0472 5.82811 76.3889 5.22101C81.6929 4.67463 87.1698 6.25307 91.7243 8.985C96.3942 11.7776 100.372 15.8452 102.966 20.7626C104.235 23.191 105.157 25.8015 105.676 28.4727C106.253 31.4475 106.195 34.483 105.849 37.4577C105.561 39.5218 105.157 41.4038 104.581 43.2251C104.35 43.8929 106.08 43.7108 106.253 43.043C108.213 36.7292 108.386 29.6869 106.022 23.4945C103.947 18.0307 100.257 13.3561 95.7023 9.95635C91.0902 6.49591 85.6132 4.37108 79.9633 4.12824C73.564 3.8247 66.9916 6.19236 61.803 10.0778C57.1332 13.5989 53.4434 18.3342 51.4256 24.0409C49.5807 29.3834 49.2348 35.2115 50.3879 40.6753C51.5409 46.1999 54.1929 51.3602 58.0556 55.2456C62.7254 59.9809 69.0671 62.895 75.5241 63.6235C87.1698 64.9591 99.5074 58.4632 104.696 47.2319C105.33 45.8963 105.849 44.4393 106.253 42.9823C106.483 42.3752 104.754 42.5573 104.581 43.2251Z" fill="#222221"/>
<path d="M49.9266 47.3533C33.5534 56.9454 17.2379 66.5982 0.864746 76.1903C2.65196 80.9256 5.01569 86.0252 9.16663 88.6357C23.0031 76.1296 36.7819 65.384 52.175 55.0634C55.1729 53.06 53.3857 48.264 49.9266 47.3533Z" fill="white" fill-opacity="0.1"/>
<path d="M49.2923 47.2926C36.5512 54.8206 23.7525 62.2879 11.0114 69.8158C7.37934 71.9407 3.80492 74.0655 0.172841 76.1903C0.115189 76.1903 -0.0577674 76.3724 -0.000115401 76.4331C1.7871 81.1685 4.09318 86.2074 8.35942 88.9393C8.76299 89.1821 9.57012 88.8786 9.91603 88.575C16.8343 82.322 23.9831 76.251 31.3626 70.5443C35.0523 67.691 38.7997 64.8984 42.6047 62.1664C44.5072 60.8308 46.4097 59.4345 48.3123 58.1596C49.2923 57.4918 50.2724 56.824 51.2525 56.1562C52.0596 55.6098 52.9821 55.1241 53.6162 54.4563C56.0953 51.7851 53.3856 47.839 50.6183 46.9891C50.2724 46.8677 49.7536 47.0498 49.4653 47.2319C49.2923 47.2926 48.8888 47.5962 49.2347 47.6569C51.7137 48.3854 54.2504 52.028 52.1749 54.5171C51.5408 55.2456 50.5607 55.7312 49.7536 56.2776C48.8311 56.8847 47.9087 57.5525 46.9286 58.2203C45.0261 59.4952 43.1812 60.8308 41.3364 62.1664C34.0722 67.3874 26.981 72.8513 20.1204 78.558C16.1424 81.8363 12.2798 85.236 8.41708 88.6965C8.93594 88.575 9.45481 88.4536 9.97368 88.3322C5.70743 85.6003 3.459 80.6221 1.67179 75.9475C1.61414 76.0082 1.55649 76.1296 1.49884 76.1903C14.2399 68.6623 26.981 61.1951 39.7221 53.6671C43.3542 51.5423 46.9286 49.4175 50.5607 47.2926C50.8489 47.1105 50.7336 46.9891 50.4454 46.9284C50.0995 46.9284 49.5806 47.1105 49.2923 47.2926Z" fill="#222221"/>
<path d="M10.3198 86.9966C10.3198 86.9966 10.2621 86.8145 10.2045 86.5109C10.1468 86.2074 9.97387 85.7217 9.80091 85.236C9.74326 84.9932 9.5703 84.6896 9.455 84.3861C9.3397 84.0825 9.16674 83.779 9.05144 83.4754C8.87848 83.1719 8.70552 82.8684 8.53257 82.5648C8.35961 82.2613 8.129 81.9577 7.95605 81.6542C7.72544 81.3506 7.55248 81.0471 7.32188 80.8042C7.09127 80.5007 6.86066 80.2579 6.63005 80.015C6.39945 79.7722 6.16884 79.5293 5.93823 79.3472C5.70762 79.1651 5.47701 78.9222 5.30406 78.8008C4.90049 78.4366 4.55458 78.1937 4.26632 78.0116C4.03571 77.7688 3.92041 77.7081 3.92041 77.7081C3.92041 77.7081 4.09337 77.7688 4.38163 77.8902C4.55458 77.9509 4.72754 78.0116 4.90049 78.133C5.07345 78.2544 5.30406 78.3759 5.53467 78.4973C5.76527 78.6187 5.99588 78.8008 6.28414 78.983C6.51475 79.1651 6.80301 79.4079 7.03362 79.6508C7.26423 79.8936 7.55248 80.1364 7.78309 80.44C8.0137 80.7435 8.24431 81.0471 8.47492 81.3506C8.64787 81.6542 8.87848 81.9577 9.05144 82.322C9.22439 82.6255 9.39735 82.9898 9.51265 83.2933C9.62796 83.5969 9.80091 83.9611 9.85856 84.2647C9.97387 84.5682 10.0315 84.8718 10.0892 85.1753C10.1468 85.4789 10.2045 85.7217 10.2045 85.9645C10.2621 86.2074 10.2621 86.3895 10.2621 86.5716C10.3198 86.8145 10.3198 86.9966 10.3198 86.9966Z" fill="#222221"/>
<path d="M16.0273 81.3506C16.0273 81.3506 15.9697 81.2292 15.912 81.0471C15.8544 80.8649 15.7391 80.5614 15.6238 80.2578C15.5661 80.0757 15.4508 79.8936 15.3932 79.7114C15.3355 79.5293 15.2202 79.3472 15.1049 79.1651C14.8743 78.8008 14.7013 78.3758 14.4131 78.0116C14.1825 77.6473 13.8942 77.2831 13.606 76.9188C13.4907 76.7367 13.3177 76.6153 13.2024 76.4331C13.0871 76.3117 12.9718 76.1296 12.7988 76.0082C12.5682 75.7653 12.3376 75.5225 12.2223 75.4011C12.0494 75.2797 11.9917 75.1582 11.9917 75.1582C11.9917 75.1582 12.107 75.2189 12.28 75.2797C12.4529 75.3404 12.7412 75.5225 13.0294 75.7046C13.3177 75.8868 13.6636 76.1903 13.9519 76.4938C14.1248 76.676 14.2978 76.8581 14.4131 77.0402C14.586 77.2224 14.7013 77.4045 14.8166 77.6473C15.0473 78.0723 15.2779 78.4973 15.4508 78.9222C15.6238 79.3472 15.7391 79.7722 15.7967 80.1364C15.8544 80.5007 15.912 80.8042 15.912 81.0471C16.0273 81.2292 16.0273 81.3506 16.0273 81.3506Z" fill="#222221"/>
<path d="M19.6016 77.9509C19.6016 77.9509 19.2557 77.6473 18.8521 77.101C18.3909 76.5546 17.872 75.8261 17.3532 75.0368C16.8343 74.2476 16.3731 73.4584 16.0272 72.8513C15.6813 72.2442 15.5083 71.8192 15.5083 71.8192C15.5083 71.8192 15.8542 72.1228 16.2578 72.6692C16.719 73.2155 17.2379 73.9441 17.7567 74.7333C18.2756 75.5225 18.7368 76.3117 19.0827 76.9188C19.4286 77.5259 19.6016 77.9509 19.6016 77.9509Z" fill="#222221"/>
<path d="M22.196 75.2797C22.196 75.2797 22.196 75.1582 22.1384 75.0368C22.1384 74.8547 22.0807 74.6726 22.0231 74.369C22.0231 74.2476 21.9654 74.1262 21.9078 73.9441C21.8501 73.8226 21.7925 73.6405 21.7348 73.5191C21.6195 73.2155 21.4466 72.912 21.2736 72.6084C21.1007 72.3049 20.87 72.0621 20.6971 71.8192C20.5818 71.6978 20.4665 71.5764 20.4088 71.455C20.2935 71.3335 20.1782 71.2728 20.1206 71.1514C19.9476 70.9693 19.7747 70.8479 19.6017 70.7265C19.4864 70.605 19.3711 70.605 19.3711 70.605C19.3711 70.605 19.4864 70.605 19.6017 70.6657C19.7747 70.7265 20.0053 70.7872 20.2359 70.9086C20.4665 71.03 20.7547 71.2121 21.043 71.455C21.1583 71.5764 21.3313 71.6978 21.4466 71.8799C21.5619 72.0013 21.6772 72.1835 21.7925 72.3656C21.9078 72.5477 21.9654 72.7299 22.0231 72.912C22.0807 73.0941 22.1384 73.2762 22.196 73.4584C22.3113 73.8226 22.3113 74.1869 22.3113 74.4297C22.3113 74.7333 22.2537 74.9761 22.2537 75.0975C22.196 75.2189 22.196 75.2797 22.196 75.2797Z" fill="#222221"/>
<path d="M26.2314 73.8226C26.2314 73.8226 26.2314 73.7012 26.1738 73.5191C26.1738 73.337 26.1161 73.0334 26.0585 72.7299C26.0585 72.5477 26.0008 72.3656 25.9431 72.1835C25.8855 72.0014 25.8278 71.8192 25.7702 71.6371C25.6549 71.2728 25.4819 70.8479 25.2513 70.4836C25.0207 70.1194 24.7901 69.7551 24.5595 69.4516C24.4442 69.3301 24.3289 69.148 24.2136 69.0266C24.0983 68.9052 23.983 68.7838 23.8677 68.6623C23.6371 68.4195 23.4065 68.2374 23.2912 68.1767C23.1182 68.0552 23.0605 67.9945 23.0605 67.9945C23.0605 67.9945 23.1759 67.9945 23.3488 68.0552C23.4641 68.0552 23.5794 68.116 23.6947 68.1767C23.81 68.2374 23.983 68.2981 24.0983 68.4195C24.3865 68.6016 24.7325 68.8445 25.0207 69.148C25.136 69.3301 25.309 69.4516 25.4243 69.6944C25.5396 69.8765 25.6549 70.0587 25.8278 70.3015C25.9431 70.5443 26.0585 70.7265 26.1161 70.9693C26.2314 71.2121 26.2891 71.3943 26.3467 71.6371C26.462 72.0621 26.5197 72.487 26.462 72.8513C26.462 73.0334 26.462 73.2155 26.4044 73.337C26.4044 73.4584 26.3467 73.5798 26.3467 73.7012C26.2314 73.7012 26.2314 73.8226 26.2314 73.8226Z" fill="#222221"/>
<path d="M29.114 69.0873C29.114 69.0873 29.114 69.0266 29.114 68.8445C29.114 68.7231 29.114 68.5409 29.114 68.2981C29.114 68.1767 29.0564 68.0552 29.0564 67.9945C29.0564 67.8731 28.9987 67.7517 28.9411 67.6303C28.8834 67.3874 28.7681 67.1446 28.5951 66.9018C28.4798 66.6589 28.3069 66.4768 28.1339 66.2947C28.0186 66.234 27.961 66.1126 27.9033 66.0518C27.788 65.9911 27.7304 65.9304 27.6727 65.8697C27.4998 65.7483 27.3845 65.6269 27.2691 65.6269C27.1538 65.5662 27.0962 65.5055 27.0962 65.5055C27.0962 65.5055 27.1538 65.5055 27.3268 65.5055C27.3845 65.5055 27.4998 65.5055 27.5574 65.5055C27.6727 65.5055 27.7304 65.5055 27.8457 65.5662C28.0763 65.6269 28.3069 65.7483 28.5375 65.9304C28.6528 66.0518 28.7681 66.1125 28.8834 66.234C28.9987 66.3554 29.0564 66.4768 29.1717 66.5982C29.2293 66.7196 29.3446 66.9018 29.3446 67.0232C29.4023 67.1446 29.4023 67.3267 29.4599 67.5089C29.5176 67.8124 29.5176 68.116 29.4599 68.3588C29.4023 68.6016 29.3446 68.7838 29.287 68.9052C29.1717 69.0266 29.114 69.0873 29.114 69.0873Z" fill="#222221"/>
<path d="M65.6079 18.1521C62.1488 22.9482 61.8029 30.3547 65.6079 34.9079C67.7987 37.4577 71.0272 38.9147 74.3134 39.0362C77.5995 39.1576 80.828 38.1255 83.5953 36.3042C88.4381 33.2081 92.0702 27.4407 91.7243 21.4911C90.9171 6.31378 72.0649 9.22783 65.6079 18.1521Z" stroke="#222221" stroke-width="2" stroke-miterlimit="10"/>
<path d="M86.1317 45.5928C84.4022 43.043 80.5972 42.4966 78.2911 44.3786C75.9273 46.2606 75.5238 50.3281 77.4263 52.6958C79.3288 55.1241 83.1338 55.4884 85.3823 53.485C87.6307 51.4816 87.9766 47.4748 86.0741 45.1071" stroke="#222221" stroke-width="2" stroke-miterlimit="10"/>
</g>
<defs>
<clipPath id="clip0_199_243">
<rect width="110" height="89" fill="white"/>
</clipPath>
</defs>
</svg>
