<svg width="85" height="93" viewBox="0 0 85 93" fill="none" xmlns="http://www.w3.org/2000/svg">
<g clip-path="url(#clip0_199_351)">
<path d="M60.2134 83.9405C61.0489 86.0655 61.9401 88.1347 62.7756 90.2598C63.2212 91.3782 64.1682 92.7763 65.3379 92.3289C66.3405 91.9934 66.3962 90.5953 66.1734 89.5887C65.5607 86.9603 63.9454 84.6115 61.7173 83.1575" fill="white" fill-opacity="0.1"/>
<path d="M60.2134 83.9405C61.0489 86.0655 61.9401 88.1347 62.7756 90.2598C63.2212 91.3782 64.1682 92.7763 65.3379 92.3289C66.3405 91.9934 66.3962 90.5953 66.1734 89.5887C65.5607 86.9603 63.9454 84.6115 61.7173 83.1575" stroke="#222221" stroke-miterlimit="10"/>
<path d="M60.2693 86.457C66.5635 84.3878 72.5792 80.7528 76.4783 75.3283C80.6002 69.5682 81.9927 62.1864 82.2155 55.0842C82.4384 47.3109 81.38 39.3698 78.2608 32.2676C75.1415 25.1653 69.8499 18.846 62.9429 15.3229C55.1448 11.3524 45.8427 11.1287 37.3761 13.2537C23.8964 16.665 11.7536 26.5075 7.01896 39.6494C2.78567 51.3932 5.23653 64.0319 12.3663 73.9862C18.5491 82.5983 29.9678 87.1281 40.1612 88.3584C46.901 89.1972 53.8079 88.5821 60.2693 86.457Z" fill="white" fill-opacity="0.1"/>
<path d="M60.3805 86.9603C67.9558 84.4438 75.0299 79.8581 78.929 72.5881C82.9395 65.0385 83.4965 55.8112 82.8281 47.4227C82.1039 38.8665 79.4303 30.3662 74.083 23.5995C71.6878 20.5237 68.7357 17.8394 65.4493 15.8262C61.8844 13.6452 57.8182 12.2471 53.6963 11.632C45.564 10.4017 37.0974 11.9116 29.6334 15.267C22.8379 18.3427 16.7665 22.9844 12.199 28.8563C7.40867 35.0078 4.40081 42.4456 4.1223 50.2748C3.78809 58.4955 6.40605 66.6602 11.0292 73.4828C15.3182 79.8021 21.891 83.9405 28.965 86.4011C36.8746 89.1972 45.5083 90.092 53.752 88.6939C55.9801 88.2465 58.2081 87.6873 60.3805 86.9603C60.659 86.8484 61.1603 86.6248 61.0489 86.2333C60.9375 85.8418 60.3805 85.8418 60.102 85.8978C51.9696 88.5821 43.2245 88.7498 34.925 86.7366C27.9624 85.0589 21.0555 81.9831 15.9309 76.8941C13.2573 74.2098 11.1406 70.9104 9.46961 67.4991C7.74288 63.92 6.57315 60.1172 6.01614 56.1467C4.95782 48.4293 6.57315 40.6001 10.4165 33.8334C13.9257 27.626 19.2173 22.537 25.233 18.7901C31.6387 14.8755 39.1026 12.5827 46.678 12.359C54.8104 12.1353 62.8313 14.7077 68.9028 20.2441C74.8071 25.6687 78.4834 32.9946 80.1544 40.7679C81.1013 45.1299 81.4912 49.5478 81.3798 54.0216C81.3241 58.104 80.8785 62.1864 79.8202 66.101C78.7619 69.9597 76.9794 73.6506 74.3615 76.7264C71.8549 79.6344 68.7357 81.9272 65.2822 83.6049C63.6111 84.4438 61.8287 85.1708 60.0463 85.7859C59.7678 85.8978 59.2665 86.1215 59.3779 86.5129C59.545 87.0162 60.102 87.0721 60.3805 86.9603Z" fill="#222221"/>
<path d="M11.8088 45.2417C10.1934 51.3933 9.91491 58.0481 12.2544 63.9759C14.7052 70.2952 19.8297 75.2165 25.3441 79.0752C31.4156 83.3253 38.2111 86.5688 45.508 87.7992C52.8048 89.0295 60.5473 88.0229 66.9529 84.3319C74.1384 80.1936 79.1515 72.8677 81.8808 64.9826C86.1698 52.3999 84.6659 37.6362 76.7006 26.9549C69.6266 17.448 58.2635 12.8623 46.6777 13.4215C36.6515 13.8689 27.1266 20.6915 20.7766 28.1852C16.5991 33.1624 13.4798 38.9783 11.8088 45.2417Z" fill="white" fill-opacity="0.1"/>
<path d="M10.9732 45.3536C9.91485 49.4359 9.41354 53.742 9.91485 57.9362C10.3605 61.9627 11.753 65.7655 13.981 69.1768C16.0977 72.3085 18.7713 74.9928 21.7235 77.3975C24.8985 79.9699 28.3519 82.1509 31.9725 83.9964C39.2694 87.6873 47.4574 89.6446 55.5898 88.638C63.388 87.6314 70.4063 83.8845 75.4751 77.8448C80.2654 72.1407 83.2176 64.9826 84.3873 57.6566C85.557 50.2748 84.8886 42.5015 82.215 35.5111C79.5413 28.6326 74.9181 22.5929 68.7353 18.6224C62.7196 14.7077 55.5341 12.8623 48.4044 12.8623C40.5505 12.9182 33.3093 16.2177 27.2379 21.0271C21.0551 25.9483 15.9306 32.3794 12.867 39.7613C12.1429 41.5508 11.4745 43.4522 10.9732 45.3536C10.8061 46.0806 12.4214 45.8569 12.5885 45.1858C14.5937 37.6362 18.7156 30.8136 24.2301 25.2772C29.4103 20.0764 36.0387 15.6025 43.3913 14.3163C46.8447 13.7011 50.4653 13.8689 53.9188 14.3722C57.2609 14.8755 60.5472 15.8821 63.6108 17.3361C70.0164 20.356 75.1966 25.389 78.5944 31.5965C85.5014 44.2351 84.7215 60.6206 77.369 72.8677C73.5813 79.187 67.9555 84.276 60.8814 86.4011C53.2504 88.7498 45.118 87.8551 37.7654 85.0589C34.0335 83.6049 30.4686 81.7035 27.1265 79.4666C24.1186 77.4534 21.2222 75.1605 18.7156 72.5322C16.2091 69.8479 14.0924 66.7721 12.867 63.3049C11.4745 59.3902 11.1403 55.196 11.5302 51.1136C11.753 49.1004 12.0872 47.1431 12.5885 45.1858C12.8113 44.4588 11.1403 44.6825 10.9732 45.3536Z" fill="#222221"/>
<path d="M80.544 50.6663C79.5414 68.2261 64.6692 85.3945 46.065 82.4305C33.4208 80.1936 23.7288 71.9729 19.2727 60.0054C14.8166 47.3109 19.9968 33.8334 29.6888 25.6127C34.9247 20.356 42.333 19.629 49.0171 18.902C60.9372 18.902 74.3055 26.3957 78.1489 38.4191C79.7085 42.2219 80.544 46.3602 80.544 50.6663Z" fill="white" fill-opacity="0.1" stroke="#222221" stroke-miterlimit="10"/>
<path d="M51.0782 30.4221C51.301 31.261 52.1365 31.8761 52.972 31.932C53.8075 31.988 54.6988 31.4847 55.033 30.7017C55.5343 29.5274 54.8659 28.1293 53.8632 27.4023C52.8606 26.6753 51.8023 25.8924 50.5769 25.6687C48.8501 26.6753 47.1791 27.6819 45.4524 28.6326C44.5054 29.1918 43.4471 29.9747 43.6142 31.0373C43.7813 31.988 44.8953 32.4913 45.8423 32.3235C46.7892 32.1557 47.9032 31.6524 48.6273 31.0373C46.0094 37.021 46.5664 44.4029 50.1313 49.8833C50.9668 50.163 51.5795 49.6596 52.0251 48.8767C52.5264 48.0938 52.5821 47.199 52.6935 46.2483C53.1948 40.7679 52.5264 35.7348 51.0782 30.4221Z" fill="#222221"/>
<path d="M60.4917 71.0782C60.0461 70.5749 59.2105 70.4071 58.5978 70.6308C57.9851 70.9104 57.5395 71.5815 57.5395 72.2525C57.5952 73.2592 58.5421 74.0421 59.5448 74.2658C60.5474 74.4335 62.1627 75.8875 63.1653 75.6079C64.0566 74.2658 66.2289 68.7294 65.7276 68.0024C65.282 67.3872 64.2794 67.3872 63.6666 67.8346C63.0539 68.282 62.3855 69.009 62.107 69.736C61.9399 64.4233 54.8659 51.0018 50.2984 48.2616C49.5742 48.3734 49.2957 48.9326 49.24 49.6596C49.1843 50.3866 49.4071 51.1136 49.6856 51.7847C51.2453 55.9789 57.5395 67.6669 60.4917 71.0782Z" fill="#222221"/>
<path d="M48.1817 21.4744C49.0729 21.2508 50.0755 22.1455 49.9084 23.0962C49.797 24.0469 48.5716 24.6061 47.7918 24.1587C46.9563 23.7114 46.8449 22.3692 47.5133 21.7541" fill="#222221"/>
<path d="M29.9119 28.8563C28.6308 28.9681 28.1295 30.9814 29.1321 31.7643C30.1347 32.5472 31.9172 31.5406 31.8058 30.2544C31.6944 28.9681 29.8562 28.2411 28.9093 29.08" fill="#222221"/>
<path d="M23.5617 46.8076C24.5643 46.8076 25.3998 47.926 25.0656 48.8767C24.7314 49.8274 23.3946 50.2189 22.6147 49.5478C21.8349 48.8767 21.9463 47.5346 22.8376 47.0312" fill="#222221"/>
<path d="M30.2462 65.374C29.5221 64.9826 28.5751 65.1503 28.0181 65.7096C27.4611 66.2688 27.3497 67.2195 27.7396 67.9465C28.5751 68.5057 29.8563 67.9465 30.0791 66.9958C30.2462 66.0451 29.2993 65.0385 28.2966 65.2062" fill="#222221"/>
<path d="M51.1337 74.8809C52.192 75.0487 52.8047 76.3349 52.3591 77.2856C51.8578 78.2363 50.4096 78.4041 49.6855 77.6212C48.9614 76.8382 49.3513 75.3842 50.2982 74.9928" fill="#222221"/>
<path d="M70.9635 61.1798C71.9104 60.9561 72.9687 61.8509 72.8016 62.8575C72.6902 63.8082 71.4091 64.4792 70.5736 63.9759C69.7381 63.4726 69.571 62.1305 70.3508 61.5153" fill="#222221"/>
<path d="M73.8042 45.3536C73.1358 46.1365 73.0244 47.2549 73.47 48.1497C74.3612 48.8767 75.9766 48.1497 76.0323 47.0313C76.088 45.8569 74.6397 44.9621 73.6371 45.5213" fill="#222221"/>
<path d="M65.5048 30.1984C66.1732 29.5833 67.4544 29.807 67.8443 30.7017C68.2342 31.5406 67.5658 32.659 66.6188 32.7709C65.6719 32.8268 64.8364 31.8202 65.1149 30.9254" fill="#222221"/>
<path d="M26.2356 12.9741C23.2835 22.3692 13.4801 29.1359 3.67665 28.4089C1.1144 24.1587 -0.278132 19.6849 1.94992 15.267C4.17796 10.8491 8.80116 7.71737 13.7586 7.26999C18.716 6.87853 23.2835 8.94768 26.2356 12.9741Z" fill="white" fill-opacity="0.1"/>
<path d="M25.4556 13.086C23.2276 20.0764 17.1562 25.6127 10.0821 27.4023C8.07688 27.9056 6.01594 28.0734 3.95499 27.9615C4.1221 28.0174 4.2335 28.0734 4.4006 28.1293C2.84097 25.5568 1.50414 22.5929 1.61555 19.5171C1.72695 16.721 3.06378 14.1485 4.95762 12.1353C8.46679 8.44437 13.7584 6.8226 18.6601 8.38845C21.4452 9.22729 23.7846 11.0728 25.5113 13.3656C25.8456 13.813 27.4052 13.2538 27.0153 12.6945C24.0074 8.66806 19.2171 6.48707 14.204 6.8226C9.30231 7.10222 4.56771 9.84245 1.89405 13.9808C0.39012 16.3295 -0.278294 19.0138 0.111614 21.81C0.334419 23.264 0.780028 24.662 1.44844 26.0042C1.72695 26.6194 2.06116 27.2345 2.39536 27.8497C2.56247 28.1293 2.72957 28.5767 2.95237 28.7444C3.17518 28.9681 3.50939 28.9122 3.78789 28.9122C8.57819 29.1359 13.3685 27.7378 17.379 25.1654C21.8908 22.3133 25.4556 17.9513 27.071 12.8623C27.2381 12.3031 25.6228 12.4708 25.4556 13.086Z" fill="#222221"/>
<path d="M81.4349 19.629C73.9152 19.9645 62.7193 14.8755 55.311 11.5761C56.9821 6.87853 59.6 3.01984 64.446 2.01323C69.292 1.00661 74.6393 2.6843 78.0371 6.26338C81.4906 9.89837 82.716 14.8196 81.4349 19.629Z" fill="white" fill-opacity="0.1"/>
<path d="M81.7693 19.2934C78.3716 19.4612 75.0295 18.5664 71.7988 17.6157C68.1782 16.4973 64.7248 15.0992 61.2713 13.6452C59.4889 12.8623 57.7064 12.0794 55.924 11.2964C55.9797 11.3524 56.0354 11.4642 56.0911 11.5201C56.9266 9.17137 58.0406 6.87852 59.7674 5.03306C61.5498 3.1876 63.7778 2.29284 66.2844 2.18099C71.9102 1.90138 77.4803 5.25676 79.8198 10.4576C81.1566 13.4215 81.3794 16.721 80.5996 19.8527C80.4882 20.3001 82.1035 20.0764 82.2149 19.5731C82.9948 16.5532 82.8277 13.3097 81.6579 10.4017C80.4882 7.5496 78.3159 5.14491 75.6422 3.57907C70.7962 0.726992 63.8335 0.447376 59.3218 4.19422C56.9266 6.15153 55.5341 8.94768 54.4758 11.7998C54.4201 11.9116 54.5315 11.9675 54.6429 12.0234C61.3827 14.9874 68.2896 18.2309 75.5865 19.629C77.4246 19.9645 79.2628 20.1882 81.1566 20.1323C81.4351 20.1323 82.0478 20.0204 82.2149 19.7408C82.3263 19.2934 82.0478 19.2375 81.7693 19.2934Z" fill="#222221"/>
<path d="M5.40321 6.37522C7.18565 4.58569 10.6948 5.31269 11.6417 7.66145C12.5887 10.0102 10.5277 12.9741 8.02117 12.8623C5.51461 12.8064 3.62077 9.73061 4.6791 7.43776" fill="white" fill-opacity="0.1"/>
<path d="M5.40321 6.37522C7.18565 4.58569 10.6948 5.31269 11.6417 7.66145C12.5887 10.0102 10.5277 12.9741 8.02117 12.8623C5.51461 12.8064 3.62077 9.73061 4.6791 7.43776" stroke="#222221" stroke-miterlimit="10"/>
<path d="M73.3585 0.335531C71.3533 0.615146 70.1835 3.35537 71.409 5.03307C72.5787 6.65483 75.5866 6.43114 76.4778 4.58568C77.369 2.74022 75.7537 0.279608 73.7484 0.335531" fill="white" fill-opacity="0.1"/>
<path d="M73.3585 0.335531C71.3533 0.615146 70.1835 3.35537 71.409 5.03307C72.5787 6.65483 75.5866 6.43114 76.4778 4.58568C77.369 2.74022 75.7537 0.279608 73.7484 0.335531" stroke="#222221" stroke-miterlimit="10"/>
<path d="M42.4445 13.0301C41.7203 13.2538 40.9962 13.2538 40.2164 13.4774C39.6594 11.4642 39.1581 9.39506 38.6011 7.38184C39.7708 7.15814 40.3278 5.5923 41.4975 5.36861C41.9431 8.2766 41.9431 10.178 42.4445 13.0301Z" fill="white" fill-opacity="0.1" stroke="#222221" stroke-miterlimit="10"/>
<path d="M44.7284 3.74684C41.6091 4.19423 38.4898 4.69753 35.4263 5.14492C35.7048 6.20745 35.6491 8.16476 35.9276 9.28322C39.214 9.28322 42.0547 8.27661 45.3968 8.27661C45.4525 6.48707 44.617 5.5923 44.7284 3.74684Z" fill="white" fill-opacity="0.1" stroke="#222221" stroke-miterlimit="10"/>
<path d="M25.9568 82.8779C25.3441 85.0589 24.7314 87.2399 24.1187 89.4768C23.7845 90.6512 23.6731 92.3289 24.8428 92.7204C25.8454 93.0559 26.7366 92.0493 27.1822 91.0986C28.2963 88.638 28.4634 85.7859 27.6278 83.2694" fill="white" fill-opacity="0.1"/>
<path d="M25.9568 82.8779C25.3441 85.0589 24.7314 87.2399 24.1187 89.4768C23.7845 90.6512 23.6731 92.3289 24.8428 92.7204C25.8454 93.0559 26.7366 92.0493 27.1822 91.0986C28.2963 88.638 28.4634 85.7859 27.6278 83.2694" stroke="#222221" stroke-miterlimit="10"/>
</g>
<defs>
<clipPath id="clip0_199_351">
<rect width="85" height="93" fill="white"/>
</clipPath>
</defs>
</svg>
