<svg width="84" height="89" viewBox="0 0 84 89" fill="none" xmlns="http://www.w3.org/2000/svg">
<g clip-path="url(#clip0_199_272)">
<path d="M37.757 74.2932V72.1109C37.6617 68.0309 35.0874 64.4254 31.3689 62.9073C26.2202 60.6301 21.9296 56.2655 19.832 51.2367C16.7809 44.3102 20.4994 35.6759 25.5527 30.0778C30.6061 24.4798 39.0919 22.2026 46.3382 24.4798C51.4869 26.0928 56.9216 29.7932 60.3541 33.8731C64.0726 38.3326 63.6912 43.8358 63.4052 49.5288C63.1191 55.3166 59.0193 60.5352 53.7752 62.8124C50.3427 64.3305 47.8637 67.3667 47.5777 71.0672C47.4824 71.9211 47.4824 73.8188 47.4824 74.6727C42.6197 74.3881 42.6197 74.5778 37.757 74.2932Z" fill="white" fill-opacity="0.1"/>
<path d="M39.0919 74.1034C39.0919 72.8699 39.1873 71.6365 38.9966 70.403C38.7106 68.3156 37.6617 66.2281 36.2316 64.71C34.706 63.0021 32.7037 62.338 30.7968 61.1994C28.6992 60.0608 26.7923 58.5426 25.1714 56.7399C21.9296 53.2292 19.7367 48.8646 20.2134 43.9307C20.6901 39.1866 22.9784 34.6322 26.0295 31.0267C28.8899 27.6109 32.7991 25.2388 37.2804 24.5746C42.143 23.8156 46.815 25.1439 51.1056 27.6109C55.3008 29.9829 59.7821 33.5885 61.403 38.2377C62.1657 40.5149 62.3564 42.887 62.2611 45.2591C62.2611 47.6311 62.2611 50.0981 61.5936 52.3753C60.9262 54.8422 59.5914 57.0245 57.7798 58.8273C56.9217 59.7761 55.8729 60.5352 54.7287 61.1994C53.6799 61.7687 52.5358 62.2431 51.4869 62.9073C49.4847 64.1407 47.7684 66.0384 46.9103 68.2207C46.0522 70.3081 46.0522 72.4904 46.0522 74.6727C46.7196 74.2932 47.2917 74.0085 47.9591 73.629C44.7174 73.4392 41.4756 73.4392 38.2338 73.2495C37.6617 73.2495 36.7083 73.4392 36.4222 74.0085C36.1362 74.5778 36.7083 74.9574 37.185 75.0522C40.4268 75.242 43.6686 75.242 46.9103 75.4318C47.3871 75.4318 48.8173 75.1471 48.8173 74.3881C48.7219 72.3006 48.7219 70.0235 49.58 68.1258C50.5335 66.0384 52.2497 64.4254 54.3473 63.4766C58.6379 61.484 62.1657 58.0682 63.882 53.6087C64.7401 51.3316 64.8354 49.0544 64.9308 46.5874C65.0261 44.1205 65.0261 41.5586 64.454 39.0917C63.3099 33.968 59.4007 30.2676 55.2054 27.4211C51.0102 24.5746 46.1476 22.4872 40.9989 22.4872C36.2316 22.4872 31.3689 24.0053 27.4597 26.7569C20.2134 32.0704 14.4926 43.3614 18.6879 51.9957C21.1669 57.2143 25.3621 61.0096 30.5108 63.3817C32.8944 64.5203 34.8967 66.5128 35.7548 69.0746C36.3269 70.6876 36.3269 72.3955 36.3269 74.1034C36.3269 75.7164 39.0919 75.242 39.0919 74.1034Z" fill="#222221"/>
<path d="M39.1875 53.7036C39.4735 48.58 36.9945 43.2665 32.7993 40.2303C33.1807 42.7921 34.3249 45.1642 36.2318 46.967C38.234 48.8646 40.9991 50.0032 43.6688 49.5288C46.3385 49.1493 48.8175 46.967 49.1035 44.2154C49.1989 42.9819 48.7221 41.4638 47.4826 41.1791C46.0524 40.8945 44.9083 42.5075 44.4316 43.8358C43.192 47.6311 43.5734 51.9957 45.385 55.5064" fill="white" fill-opacity="0.1"/>
<path d="M39.1875 53.7036C39.4735 48.58 36.9945 43.2665 32.7993 40.2303C33.1807 42.7921 34.3249 45.1642 36.2318 46.967C38.234 48.8646 40.9991 50.0032 43.6688 49.5288C46.3385 49.1493 48.8175 46.967 49.1035 44.2154C49.1989 42.9819 48.7221 41.4638 47.4826 41.1791C46.0524 40.8945 44.9083 42.5075 44.4316 43.8358C43.1921 47.6311 43.5734 51.9957 45.385 55.5064" stroke="#222221" stroke-miterlimit="10"/>
<path d="M36.8994 78.9424C40.5226 80.3657 44.6225 80.4606 48.2456 79.1322L36.8994 78.9424Z" fill="white" fill-opacity="0.1"/>
<path d="M36.2318 81.2196C40.2363 82.7377 44.813 82.8326 48.8175 81.4094C49.9616 81.0299 50.9151 79.7964 50.4384 78.468C50.057 77.3294 48.7221 76.3806 47.4826 76.855C46.6245 77.1397 45.6711 77.4243 44.8129 77.5192C44.7176 77.5192 44.5269 77.5192 44.4316 77.6141C44.7176 77.6141 44.7176 77.6141 44.4316 77.6141C44.2409 77.6141 44.0502 77.6141 43.8595 77.709C43.3828 77.709 42.906 77.709 42.4293 77.709C41.9526 77.709 41.4758 77.709 40.9991 77.6141C40.3317 77.5192 41.4758 77.709 40.8084 77.6141C40.5224 77.6141 40.2363 77.5192 40.0456 77.5192C39.0922 77.3294 38.2341 77.0448 37.3759 76.7601C36.2318 76.2857 34.7063 77.2345 34.4202 78.3731C34.2295 79.6066 34.9923 80.7452 36.2318 81.2196Z" fill="#222221"/>
<path d="M38.043 85.8689C40.808 87.0075 44.0498 86.9126 46.7195 85.6791L38.043 85.8689Z" fill="white" fill-opacity="0.1"/>
<path d="M37.4709 88.1461C40.9033 89.4744 44.7172 89.1898 47.9589 87.6716C48.4357 87.387 48.9124 86.8177 49.0078 86.2484C49.1984 85.6791 49.1031 84.92 48.7217 84.4456C47.9589 83.307 46.7194 83.0224 45.4799 83.5917C45.3846 83.5917 45.2893 83.6866 45.1939 83.6866C45.5753 83.4968 45.5753 83.4968 45.3846 83.5917C45.1939 83.6866 45.0986 83.6866 44.9079 83.7815C44.5265 83.8763 44.2404 83.9712 43.8591 84.0661C43.7637 84.0661 43.573 84.161 43.3823 84.161C43.287 84.161 43.1916 84.161 43.0963 84.2559C43.4777 84.161 43.573 84.161 43.287 84.2559C42.9056 84.2559 42.6196 84.3507 42.2382 84.3507C41.8568 84.3507 41.5707 84.3507 41.1894 84.3507C40.9987 84.3507 40.808 84.2559 40.6173 84.2559C40.7126 84.2559 40.808 84.2559 40.9987 84.2559C40.9033 84.2559 40.808 84.2559 40.7126 84.161C39.9499 84.0661 39.2824 83.7815 38.615 83.5917C38.0429 83.4019 37.2802 83.5917 36.8034 83.8763C36.3267 84.161 35.85 84.7303 35.7546 85.2996C35.6593 85.8689 35.6593 86.6279 36.0407 87.1024C36.3267 87.5768 36.8034 87.8614 37.4709 88.1461Z" fill="#222221"/>
<path d="M44.4317 17.2687C44.1457 11.4808 43.955 5.78785 43.6689 0L44.4317 17.2687Z" fill="white" fill-opacity="0.1"/>
<path d="M43.478 17.2687L43.6687 0L45.385 17.1738L43.478 17.2687Z" fill="#222221"/>
<path d="M55.8726 21.823C59.2097 17.5533 62.6421 13.2836 65.9793 9.01385L55.8726 21.823Z" fill="white" fill-opacity="0.1"/>
<path d="M55.1099 21.2537L66.0747 9.10873L56.6354 22.4872L55.1099 21.2537Z" fill="#222221"/>
<path d="M68.6494 35.8657C73.7981 34.5373 78.9468 33.209 84.0002 31.8806L68.6494 35.8657Z" fill="white" fill-opacity="0.1"/>
<path d="M68.3633 35.0117L84.0001 31.8806L68.9354 36.8145L68.3633 35.0117Z" fill="#222221"/>
<path d="M69.2217 50.3827C73.4169 51.4264 77.7075 52.4701 81.9027 53.5139L69.2217 50.3827Z" fill="white" fill-opacity="0.1"/>
<path d="M69.4121 49.5288L81.9025 53.5139L69.0308 51.3315L69.4121 49.5288Z" fill="#222221"/>
<path d="M61.0215 63.7612C63.3098 65.9435 65.5028 68.0309 67.7911 70.2132L61.0215 63.7612Z" fill="white" fill-opacity="0.1"/>
<path d="M61.6888 63.097L67.791 70.2132L60.354 64.5203L61.6888 63.097Z" fill="#222221"/>
<path d="M14.3971 59.4915C10.5833 61.484 6.76941 63.4765 2.95557 65.4691L14.3971 59.4915Z" fill="white" fill-opacity="0.1"/>
<path d="M14.7785 60.3454L2.95557 65.4691L13.9204 58.6375L14.7785 60.3454Z" fill="#222221"/>
<path d="M12.8717 43.9307C7.81839 42.2228 0 40.9893 0 40.9893L12.8717 43.9307Z" fill="white" fill-opacity="0.1"/>
<path d="M12.5857 44.8795C12.5857 44.8795 11.8229 44.5 10.6788 44.1205C9.53462 43.646 7.91373 43.1716 6.3882 42.6972C3.24177 41.7484 0 40.9893 0 40.9893C0 40.9893 3.33712 41.274 6.57889 41.8433C8.19977 42.1279 9.82066 42.4126 11.0602 42.6972C12.2997 42.9819 13.0624 43.1716 13.0624 43.1716L12.5857 44.8795Z" fill="#222221"/>
<path d="M18.116 25.4286C15.2556 23.1514 12.2998 20.9691 9.43945 18.6919L18.116 25.4286Z" fill="white" fill-opacity="0.1"/>
<path d="M17.5439 26.1876L9.43945 18.6919L18.688 24.6695L17.5439 26.1876Z" fill="#222221"/>
<path d="M31.1782 18.1226C28.3178 13.758 25.5528 9.39338 22.6924 5.12366L31.1782 18.1226Z" fill="white" fill-opacity="0.1"/>
<path d="M30.3201 18.597L22.6924 5.02878L31.941 17.5533L30.3201 18.597Z" fill="#222221"/>
</g>
<defs>
<clipPath id="clip0_199_272">
<rect width="84" height="89" fill="white"/>
</clipPath>
</defs>
</svg>
