<svg width="194" height="238" viewBox="0 0 194 238" fill="none" xmlns="http://www.w3.org/2000/svg">
<g clip-path="url(#clip0_240_11540)">
<path d="M99.9235 150.256C96.5451 152.588 93.1991 154.953 89.8207 157.285C89.3659 157.609 86.0524 159.066 86.2149 157.576C86.7671 152.75 87.3193 147.924 87.8716 143.098C84.7206 141.219 81.5695 139.341 78.4185 137.494C75.0076 139.859 71.5966 142.256 68.1857 144.62C67.6335 145.009 64.1251 145.462 64.2551 144.199C64.8073 139.47 65.3595 134.741 65.8793 130.012C65.8468 129.98 65.8143 129.98 65.7818 129.948C65.4895 129.786 65.5544 129.527 65.7818 129.267C69.8425 122.466 73.9031 115.664 77.9637 108.894C78.5159 107.955 80.7249 107.307 81.667 107.858C84.3307 109.445 86.9945 111.032 89.6583 112.619C91.5099 93.4444 96.9999 74.7231 106.81 58.1071C105.998 57.6861 105.186 57.2326 104.439 56.7144C104.082 56.4553 104.439 55.8399 104.796 56.099C105.543 56.6172 106.356 57.0707 107.168 57.4594C107.59 56.7468 108.045 56.0342 108.467 55.3216C108.857 54.7062 109.247 54.0908 109.636 53.4754C108.532 52.9896 107.395 52.5361 106.291 52.0179C105.868 51.8235 106.226 51.2081 106.648 51.4025C107.752 51.9207 108.889 52.4065 110.026 52.8924C118.505 40.0984 129.517 29.1507 142.089 20.3083C151.282 13.8303 161.353 8.45363 171.91 4.50208C174.931 3.36844 178.017 2.2348 181.168 1.48983C182.078 1.29549 184.547 1.29549 184.709 2.5263C187.925 24.94 187.438 48.0663 180.714 69.7999C176.003 85.0554 168.142 99.3393 157.584 111.356C150.632 119.259 142.511 126.255 133.545 131.794C131.629 132.992 129.647 134.158 127.601 135.162C131.531 137.494 135.43 139.827 139.36 142.159C139.653 142.321 139.49 142.644 139.36 142.839C135.3 149.641 131.239 156.442 127.178 163.212C126.789 163.827 125.684 164.346 124.677 164.443C121.104 166.937 117.53 169.431 113.957 171.925C113.372 172.346 109.896 172.573 110.059 171.309C110.611 166.613 111.131 161.916 111.683 157.22C107.752 154.92 103.854 152.588 99.9235 150.256ZM90.5029 154.37C91.7048 153.527 92.9068 152.685 94.1087 151.843C93.2966 151.487 92.452 151.195 91.5424 151.066C91.0876 151.001 91.0876 150.321 91.5424 150.353C92.6794 150.515 93.7514 150.904 94.7584 151.357C95.1807 151.066 95.603 150.774 96.0253 150.483C95.668 149.9 94.2386 149.608 93.7514 149.479C92.9392 149.252 92.0621 149.09 91.2175 148.928C91.1851 148.928 91.1526 148.896 91.1201 148.896C90.9252 150.742 90.6978 152.556 90.5029 154.37ZM91.1851 148.313C91.25 148.28 91.315 148.28 91.4125 148.28C92.6469 148.475 93.8813 148.734 95.0833 149.187C95.6355 149.382 96.2527 149.673 96.61 150.126C97.0973 149.803 97.5521 149.446 98.0394 149.122C96.9024 148.442 95.7979 147.794 94.6609 147.114C93.6214 146.499 92.6144 145.883 91.5749 145.268C91.4449 146.272 91.315 147.309 91.1851 148.313ZM68.8679 140.766C70.2972 139.762 71.7591 138.758 73.1884 137.754C72.4737 137.397 71.7266 137.106 71.0119 136.782C70.5896 136.588 70.9469 136.005 71.3693 136.166C72.1814 136.555 73.0585 136.847 73.8381 137.3C73.9031 137.268 73.968 137.235 74.0005 137.171C73.9031 137.073 73.8381 136.911 73.9031 136.75C74.2929 135.94 70.6871 134.936 70.1348 134.709C69.7125 134.547 69.9074 133.867 70.3297 134.029C71.3043 134.417 74.8127 135.195 74.6177 136.75C75.0076 136.49 75.3974 136.199 75.7872 135.94C73.8056 134.741 71.7916 133.575 69.81 132.377C69.5176 135.162 69.1928 137.948 68.8679 140.766ZM111.066 99.4041C111.326 99.7928 111.586 100.149 111.878 100.505C112.853 99.9871 113.665 99.145 114.347 98.1733C114.347 98.1733 114.347 98.1733 114.347 98.1409C113.73 97.7198 113.047 97.4607 112.3 97.3312C111.845 97.2664 112.04 96.5862 112.495 96.651C113.307 96.7805 114.054 97.072 114.737 97.5255C115.126 96.8777 115.484 96.2299 115.841 95.5821C116.426 94.4809 117.563 93.1529 117.335 91.8249C116.978 89.8167 113.21 89.7843 111.748 89.6548C111.033 89.59 110.351 89.5252 109.669 89.4281C109.214 89.8491 108.824 90.173 108.629 90.2702C108.24 90.4645 107.882 89.8815 108.272 89.6548C108.467 89.5576 108.629 89.4281 108.792 89.2985C108.175 89.2013 107.525 89.1042 106.908 88.9746C106.778 88.9422 106.648 88.9098 106.518 88.8774C106.031 89.5252 105.511 90.173 105.024 90.8532C104.764 91.2095 104.147 90.8532 104.406 90.4969C104.829 89.8815 105.316 89.2985 105.771 88.7155C103.464 88.1648 101.028 87.3875 99.1764 85.8976C98.1043 89.5252 97.1623 93.2177 96.3826 96.9101C98.0069 97.7846 100.053 98.0437 101.71 98.6915C104.147 99.5984 106.518 100.667 109.117 100.991C109.896 101.088 110.611 100.991 111.228 100.764C110.968 100.408 110.709 100.084 110.481 99.728C110.189 99.3717 110.806 99.0478 111.066 99.4041ZM139.62 26.1384C142.966 29.1183 146.669 31.7743 150.373 34.3331C159.891 40.9082 170.123 46.4144 180.811 50.8518C181.071 49.1028 181.331 47.3214 181.526 45.5723C180.876 45.1512 179.804 44.7626 179.512 44.633C177.855 43.888 176.133 43.2402 174.411 42.6248C171.618 41.6208 168.759 40.7786 165.965 39.7421C165.543 39.5802 165.738 38.9 166.16 39.062C169.279 40.228 172.495 41.1673 175.646 42.3333C177.4 42.9811 179.154 43.6289 180.811 44.4711C181.038 44.5682 181.331 44.7302 181.623 44.8921C181.786 43.2726 181.948 41.6855 182.078 40.066C181.98 40.0337 181.85 40.0013 181.753 39.9689C180.616 39.5802 179.479 39.1591 178.342 38.8028C176.068 38.0255 173.729 37.3777 171.358 36.989C170.903 36.9242 171.098 36.2441 171.553 36.3088C174.087 36.7299 176.523 37.4749 178.959 38.2846C180.031 38.6409 181.071 38.9972 182.143 39.3859C182.208 38.3494 182.273 37.3129 182.338 36.2441C181.298 35.661 180.259 35.0456 179.252 34.3654C178.862 34.1063 179.219 33.5233 179.609 33.75C180.519 34.3331 181.428 34.8837 182.37 35.4343C182.598 30.7054 182.598 25.9765 182.403 21.2476C181.493 21.6039 180.616 21.9926 179.771 22.2841C177.66 22.9642 175.483 23.5797 173.339 24.1627C169.019 25.3287 164.666 26.3004 160.345 27.4016C159.891 27.4988 159.728 26.851 160.151 26.7215C164.471 25.6202 168.824 24.6161 173.145 23.4825C175.289 22.8995 177.465 22.2841 179.577 21.6039C180.486 21.3124 181.428 20.8913 182.37 20.535C182.338 19.9196 182.305 19.3042 182.273 18.6888C181.721 18.8184 181.168 18.9479 180.616 19.0775C178.732 19.5309 176.88 19.9844 174.996 20.4378C171.975 21.1828 168.954 21.8954 165.965 22.7051C165.543 22.8347 165.348 22.1545 165.77 22.0249C168.921 21.1504 172.138 20.4055 175.321 19.6281C177.205 19.1746 179.089 18.6888 180.973 18.2677C181.136 18.1382 181.656 17.9438 182.143 17.8143C182.078 16.6159 181.98 15.4174 181.883 14.219C181.006 14.3162 180.129 14.381 179.252 14.4133C177.92 14.7372 176.62 15.0935 175.321 15.3203C172.138 15.9033 168.921 16.4215 165.705 16.9721C162.522 17.5228 159.306 18.0734 156.155 18.7536C153.036 19.4338 150.048 20.5026 146.897 20.9885C146.767 21.0209 146.669 20.9561 146.604 20.8913C144.233 22.5756 141.894 24.3246 139.62 26.1384ZM181.396 8.84231C181.363 8.58319 181.331 8.29168 181.298 8.03256C180.259 8.29168 179.219 8.45363 178.18 8.58319C174.509 9.16621 170.838 9.65205 167.297 10.6885C171.943 9.814 176.685 9.32816 181.396 8.84231ZM168.694 11.142C172.462 11.0772 176.296 10.6237 179.934 9.68444C176.166 10.0731 172.397 10.4942 168.694 11.142ZM167.46 9.10143C167.232 9.1986 167.005 9.32816 166.745 9.42532C167.557 9.32816 168.369 9.1986 169.181 9.06904C168.597 9.10143 168.044 9.10143 167.46 9.10143ZM180.584 4.14579C180.584 4.17818 180.584 4.17818 180.584 4.21057C180.681 4.21057 180.778 4.21057 180.843 4.21057C180.843 4.17818 180.843 4.17818 180.843 4.14579C180.746 4.14579 180.649 4.14579 180.584 4.14579ZM181.818 13.2473C181.721 12.1461 181.623 11.0772 181.526 10.0083C176.328 11.5307 170.708 12.0489 165.316 11.8222C164.146 12.0813 162.977 12.3728 161.807 12.6967C168.142 12.9234 174.379 11.2068 180.714 11.2068C181.103 11.2068 181.201 11.8222 180.811 11.8869C172.43 13.4417 163.399 13.1178 155.44 16.4863C157.422 16.5187 159.403 16.1624 161.353 15.8061C163.821 15.3527 166.29 14.9964 168.792 14.7696C171.553 14.5105 174.346 14.1542 177.108 13.8951C177.757 13.8303 178.44 13.7979 179.122 13.7656C180.031 13.5388 180.908 13.3445 181.818 13.2473ZM169.279 15.4174C166.518 15.7089 163.821 16.0652 161.093 16.5511C158.754 16.9721 156.35 17.3284 153.946 17.1017C153.621 17.0693 153.426 16.6159 153.784 16.4539C157 14.8992 160.41 14.0247 163.886 13.4093C162.554 13.4417 161.19 13.4093 159.858 13.2797C159.696 13.2473 159.598 13.1501 159.533 13.053C155.473 15.2231 151.542 17.5875 147.741 20.1787C150.535 19.6605 153.231 18.7536 155.992 18.1382C159.144 17.4256 162.36 16.875 165.543 16.3567C168.337 15.8385 171.13 15.385 173.892 14.8992C172.365 15.0611 170.806 15.2555 169.279 15.4174ZM163.789 11.4335C163.789 11.3039 163.854 11.142 164.016 11.0772C164.893 10.7209 165.77 10.4294 166.648 10.1379C166.095 10.2027 165.511 10.2351 164.958 10.2675C163.724 10.8505 162.489 11.4659 161.255 12.1137C162.132 11.8546 162.944 11.6602 163.789 11.4335ZM160.605 101.671C170.838 87.3875 177.303 70.8039 180.356 53.5726C180.421 53.1515 180.486 52.7628 180.551 52.3418C169.474 47.872 158.851 42.2038 148.976 35.4991C145.272 32.9727 141.537 30.3167 138.158 27.3369C137.768 27.6608 137.379 27.9847 136.989 28.3086C127.958 35.9202 120.032 44.795 113.6 54.6414C114.802 55.354 116.166 56.4229 116.036 57.7832C116.004 58.2367 115.289 58.2367 115.321 57.7832C115.419 56.682 114.314 55.8399 113.21 55.1921C112.365 56.52 111.553 57.848 110.741 59.176C111.683 59.6942 112.593 60.2773 113.34 61.0546C113.665 61.3785 113.177 61.8644 112.853 61.5405C112.17 60.8603 111.261 60.3097 110.351 59.8562C108.564 62.9332 106.908 66.075 105.413 69.2816C103.01 74.464 100.996 79.7759 99.3388 85.2174C100.703 86.351 102.457 87.0312 104.114 87.5818C104.796 87.8086 105.478 87.9705 106.161 88.1649C106.68 87.4847 107.168 86.8369 107.622 86.1243C107.882 85.7356 108.467 86.0919 108.24 86.4806C107.817 87.1284 107.363 87.7438 106.908 88.3592C107.72 88.5211 108.532 88.6831 109.312 88.7803C109.442 88.6507 109.539 88.4887 109.669 88.3592C109.961 88.0353 110.221 87.7114 110.449 87.3551C110.546 87.2256 110.611 87.096 110.676 86.9664C110.773 86.7721 110.676 86.7721 110.806 86.8369C110.384 86.6425 110.741 86.0271 111.163 86.2215C111.943 86.5778 111.131 87.841 110.189 88.8774C110.221 88.8774 110.254 88.8774 110.286 88.8774C112.723 89.1365 119.837 89.2337 117.725 93.6063C117.076 94.9667 116.296 96.6186 115.354 98.0437C115.549 98.2381 115.744 98.4324 115.939 98.6267C116.231 98.983 115.744 99.4689 115.451 99.1126C115.289 98.9183 115.126 98.7563 114.964 98.5944C114.217 99.5984 113.372 100.473 112.333 101.024C112.82 101.639 113.34 102.222 113.86 102.805C114.152 103.129 113.665 103.647 113.372 103.291C112.788 102.643 112.235 101.995 111.716 101.315C111.066 101.574 110.351 101.704 109.572 101.704C106.778 101.639 104.082 100.343 101.548 99.3717C99.8585 98.7239 97.9094 98.4324 96.2527 97.6227C95.7329 100.246 95.2457 102.902 94.8559 105.558C105.186 111.68 115.484 117.834 125.814 123.956C128.315 125.445 130.817 126.935 133.35 128.425C134 127.972 134.682 127.518 135.332 127.065C145.013 120.166 153.621 111.421 160.605 101.671ZM131.856 129.429C121.558 123.308 111.261 117.186 100.963 111.064C98.8515 109.801 96.7075 108.538 94.596 107.275C94.531 107.728 94.466 108.214 94.4335 108.668C98.1693 110.417 101.385 113.04 104.894 115.178C105.284 115.405 104.926 116.02 104.536 115.793C101.093 113.72 97.9744 111.162 94.3361 109.413C94.2062 110.384 94.1087 111.356 94.0113 112.328C94.0437 112.36 94.0762 112.36 94.1087 112.392C94.2711 112.457 94.3036 112.587 94.2711 112.716C94.6285 112.943 95.0508 113.137 95.3106 113.299C95.8304 113.623 96.3502 113.915 96.8699 114.206C97.9419 114.789 99.0139 115.34 100.118 115.89C102.295 116.959 104.504 117.931 106.713 118.935C107.135 119.129 106.778 119.712 106.356 119.551C104.017 118.482 101.645 117.445 99.3388 116.312C98.1043 115.696 96.9024 115.081 95.7005 114.401C95.1807 114.109 94.4336 113.785 93.8488 113.364C93.7839 113.915 93.7514 114.498 93.6864 115.048C99.3063 118.385 104.894 121.721 110.514 125.057C115.289 127.907 120.064 130.725 124.839 133.575C127.276 132.344 129.615 130.919 131.856 129.429ZM128.9 154.499C128.185 153.981 127.308 153.592 126.659 153.204C125.424 152.491 124.125 151.876 122.825 151.293C120.259 150.159 117.595 149.252 114.899 148.507C114.477 148.377 114.639 147.697 115.094 147.827C117.855 148.604 120.551 149.543 123.183 150.677C124.482 151.26 125.782 151.908 127.016 152.588C127.698 152.977 128.543 153.398 129.29 153.884C129.745 153.139 130.199 152.394 130.622 151.649C124.742 148.734 118.667 146.272 112.333 144.523C111.91 144.393 112.073 143.713 112.528 143.843C118.927 145.624 125.067 148.086 131.012 151.066C131.856 149.673 132.668 148.28 133.513 146.887C132.863 146.661 132.214 146.402 131.564 146.207C130.005 145.689 128.445 145.171 126.886 144.685C123.93 143.713 120.941 142.742 117.985 141.738C117.563 141.608 117.725 140.928 118.18 141.057C121.136 142.061 124.125 143.033 127.081 144.005C128.478 144.458 129.907 144.912 131.304 145.398C132.149 145.689 133.026 146.045 133.87 146.304C134.39 145.43 134.91 144.588 135.43 143.713C125.911 138.045 116.426 132.409 106.908 126.741C98.0719 121.494 89.2035 116.214 80.3676 110.967C76.8917 116.797 73.3833 122.628 69.9074 128.458C79.4255 134.126 88.9111 139.762 98.4292 145.43C107.265 150.677 116.133 155.957 124.969 161.204C126.236 158.969 127.568 156.734 128.9 154.499ZM114.672 167.908C115.646 167.228 116.621 166.548 117.563 165.9C116.881 165.609 116.166 165.414 115.549 165.317C115.094 165.253 115.289 164.572 115.744 164.637C116.523 164.734 117.4 165.026 118.245 165.447C118.635 165.188 119.025 164.896 119.414 164.637C118.407 163.892 116.718 163.536 115.809 163.212C115.386 163.05 115.581 162.402 116.004 162.532C117.141 162.92 118.895 163.309 119.999 164.216C120.519 163.86 121.039 163.471 121.558 163.115C119.577 161.949 117.628 160.783 115.646 159.584C115.321 162.37 114.997 165.123 114.672 167.908Z" fill="white"/>
<path d="M121.039 67.9538C120.227 62.7067 121.364 57.2976 124.027 52.7306C124.06 52.6982 124.092 52.6335 124.125 52.6011C124.157 52.5687 124.157 52.5363 124.19 52.4715C130.297 42.4307 143.453 37.8961 154.563 41.5238C165.608 45.1514 172.203 56.6498 170.124 67.9538C167.947 79.7437 156.545 87.6468 144.883 87.7763C133.156 87.9383 122.858 79.5493 121.039 67.9538ZM128.12 75.0796C128.12 75.0472 128.12 75.0472 128.12 75.0796V75.0796ZM160.93 51.1435C161.06 51.0787 161.223 51.014 161.353 50.9816C161.255 50.8844 161.255 50.7225 161.32 50.5929C161.353 50.5605 161.353 50.5281 161.385 50.4957C161.255 50.3338 161.093 50.1394 160.963 49.9775C160.833 49.9775 160.703 49.9451 160.605 49.9451C160.346 49.9451 160.151 49.6536 160.313 49.4269C160.346 49.3945 160.378 49.3297 160.378 49.2973C160.248 49.1677 160.118 49.0058 159.988 48.8762C159.728 48.8762 159.501 48.9086 159.241 48.941C158.916 49.0058 158.591 48.5847 158.884 48.358C158.884 48.358 158.916 48.358 158.916 48.3256C158.624 48.358 158.331 48.3904 158.039 48.4552C159.079 49.2325 160.053 50.1394 160.93 51.1435ZM162.197 52.7306C162.295 52.4391 162.36 52.18 162.425 51.9209C162.262 51.6618 162.067 51.4026 161.872 51.1435C161.905 51.3055 161.872 51.5322 161.645 51.597C161.547 51.6294 161.483 51.6618 161.385 51.6942C161.677 52.018 161.937 52.3743 162.197 52.7306ZM162.522 53.2165C162.684 53.4756 162.847 53.7347 163.009 53.9938C163.139 53.7995 163.237 53.5728 163.334 53.3784C163.302 53.3136 163.269 53.2812 163.237 53.2165C163.009 53.1841 162.782 53.1841 162.522 53.2165ZM164.601 57.2328C164.731 57.1032 164.861 56.9413 164.991 56.8117V56.7793C164.796 56.7146 164.601 56.6822 164.374 56.6498C164.439 56.8441 164.536 57.0385 164.601 57.2328ZM166.323 62.4799C166.03 62.4475 165.868 62.156 166.063 61.8969C166.128 61.8321 166.16 61.7674 166.225 61.7026C166.193 61.5082 166.16 61.3139 166.128 61.1196C165.933 61.0548 165.836 60.7957 165.965 60.6337C165.998 60.6013 165.998 60.5689 166.03 60.5366C165.998 60.4394 165.998 60.3746 165.965 60.2774C165.803 60.2774 165.641 60.3098 165.478 60.3422C165.511 60.5689 165.576 60.7957 165.608 61.0224C165.738 61.8645 165.803 62.7067 165.836 63.5488C166.03 63.3869 166.193 63.1925 166.355 63.0306C166.355 62.8362 166.323 62.6743 166.323 62.4799ZM166.225 65.395C166.063 65.4598 165.9 65.5246 165.738 65.5894C165.738 65.6865 165.706 65.7837 165.706 65.8809C165.9 65.7189 166.063 65.557 166.225 65.395ZM166.03 64.1642C165.965 64.1642 165.9 64.1318 165.868 64.067C165.868 64.1642 165.868 64.229 165.868 64.3262C165.9 64.2614 165.965 64.1966 166.03 64.1642ZM165.771 59.4677C165.738 59.5001 165.706 59.5325 165.673 59.5973C165.706 59.5973 165.738 59.5973 165.803 59.5973C165.803 59.5325 165.803 59.5001 165.771 59.4677ZM165.056 58.6256C165.186 58.496 165.316 58.3341 165.446 58.2045C165.446 58.1721 165.413 58.1073 165.413 58.0749C165.251 58.1073 165.088 58.1073 164.926 58.1397C164.958 58.3017 165.023 58.4636 165.056 58.6256ZM164.114 56.0668C164.244 55.9048 164.374 55.7753 164.471 55.6133C164.406 55.4838 164.374 55.3866 164.309 55.257C164.211 55.257 164.114 55.257 164.016 55.257C163.789 55.257 163.594 55.0303 163.691 54.8036C163.691 54.7712 163.724 54.7064 163.724 54.674C163.627 54.674 163.497 54.674 163.399 54.674C163.659 55.1275 163.919 55.5809 164.114 56.0668ZM163.691 62.6095C163.529 60.6013 163.042 58.658 162.262 56.8765C161.71 57.1356 161.093 57.33 160.768 57.4919C158.526 58.5932 156.35 59.7268 154.076 60.7633C148.911 63.063 143.583 65.0063 138.353 67.2088C137.931 67.3708 137.574 66.7878 137.996 66.5934C142.771 64.5529 147.644 62.7391 152.419 60.6985C154.888 59.6296 157.292 58.496 159.663 57.2652C160.183 57.0061 160.67 56.747 161.19 56.4878C161.32 56.4231 161.645 56.2935 161.97 56.1315C161.32 54.8036 160.54 53.5404 159.631 52.4067C152.224 55.419 144.785 58.4312 137.444 61.573C137.021 61.735 136.664 61.152 137.086 60.9576C144.428 57.8158 151.802 54.836 159.176 51.8561C158.267 50.8196 157.259 49.8803 156.187 49.0706C155.83 49.5564 154.986 49.8803 154.531 50.107C152.907 50.9492 151.25 51.6618 149.593 52.3419C146.637 53.6051 143.616 54.7712 140.66 56.002C140.237 56.1639 140.075 55.4838 140.465 55.3218C143.064 54.2529 145.727 53.2165 148.326 52.1152C149.95 51.435 151.542 50.7548 153.101 50.0099C153.654 49.7508 154.238 49.4593 154.758 49.1677C154.953 49.0706 155.148 48.941 155.343 48.8115C155.408 48.7467 155.505 48.6495 155.57 48.6171C153.881 47.4511 152.029 46.5766 150.015 45.9935C142.316 43.8234 134.358 47.5483 130.265 54.2205C127.341 59.2086 126.821 65.1683 128.803 70.5774C130.849 76.1484 135.657 80.4239 141.342 82.011C147.027 83.5981 153.036 82.011 157.454 78.189C161.872 74.367 164.114 68.4397 163.691 62.6095ZM125.879 69.9296C126.041 69.8 126.171 69.6381 126.301 69.4761C126.269 69.379 126.236 69.2818 126.236 69.1522C126.009 69.1198 125.879 68.8283 125.976 68.634C126.009 68.6016 126.041 68.5368 126.074 68.5044C126.041 68.4397 126.041 68.3425 126.041 68.2777C125.976 68.2777 125.912 68.2777 125.847 68.2777C125.619 68.3101 125.489 68.0834 125.489 67.889C125.457 67.889 125.424 67.889 125.392 67.9214C125.522 68.5692 125.684 69.2494 125.879 69.9296ZM127.763 74.4318C127.893 74.2698 128.023 74.0755 128.185 73.9459C128.12 73.8164 128.023 73.6868 127.958 73.5572C127.926 73.5896 127.861 73.622 127.828 73.6544C127.796 73.6868 127.763 73.6868 127.763 73.6868C127.698 73.784 127.633 73.8811 127.536 73.9783C127.601 74.1079 127.666 74.2698 127.763 74.4318ZM126.529 56.5526C126.919 56.585 127.016 57.0061 126.724 57.2004C126.366 57.4271 126.009 57.6863 125.652 57.913C125.912 57.9454 126.139 57.9454 126.399 57.9454C126.464 57.9454 126.496 57.9454 126.561 57.9778C126.789 57.2652 127.081 56.5526 127.406 55.8724C127.081 56.0668 126.789 56.2935 126.529 56.5526ZM125.229 66.5934C125.522 66.5611 125.684 66.9497 125.489 67.1441C125.587 67.1117 125.684 67.0793 125.782 67.0469C125.717 66.6906 125.684 66.3343 125.652 65.978C125.652 65.978 125.652 65.978 125.652 66.0104C125.489 66.1724 125.327 66.3343 125.164 66.4963C125.164 66.5287 125.164 66.5611 125.164 66.5611C125.197 66.5934 125.197 66.5934 125.229 66.5934ZM124.969 62.7067C125.164 62.4476 125.359 62.2208 125.554 61.9941C125.294 61.9293 125.164 61.6054 125.359 61.4111C125.554 61.2167 125.684 61.0224 125.847 60.8281C125.847 60.7957 125.847 60.7633 125.879 60.7309C125.814 60.7309 125.717 60.7633 125.652 60.7633C125.424 60.7957 125.132 60.6013 125.229 60.3422C125.327 60.0507 125.457 59.824 125.587 59.5973C125.522 59.5649 125.424 59.5325 125.359 59.5001C125.132 60.5689 125.002 61.6378 124.969 62.7067ZM125.554 64.067C125.522 64.0994 125.489 64.1318 125.489 64.1642C125.522 64.1642 125.554 64.1966 125.587 64.1966C125.554 64.1642 125.554 64.0994 125.554 64.067ZM125.587 65.2007C125.522 65.2655 125.457 65.3626 125.392 65.4274C125.489 65.4274 125.554 65.4598 125.619 65.5246C125.619 65.395 125.587 65.2979 125.587 65.2007ZM125.164 63.4516C125.132 63.4516 125.132 63.4516 125.099 63.4516C125.034 63.4516 125.002 63.4192 124.937 63.4192C124.937 63.5164 124.937 63.6136 124.937 63.7431C125.034 63.6136 125.099 63.5488 125.164 63.4516ZM126.009 59.0142C126.074 59.0142 126.106 59.0466 126.171 59.0466L126.204 59.079C126.236 58.9818 126.269 58.8847 126.269 58.7875C126.204 58.8523 126.106 58.9495 126.009 59.0142ZM125.034 64.7472H125.002C125.002 64.7796 125.002 64.7796 125.002 64.812C125.002 64.7796 125.034 64.7796 125.034 64.7472ZM126.854 54.836C126.789 54.836 126.756 54.8036 126.724 54.7388C126.691 54.8036 126.659 54.8683 126.626 54.9655C126.691 54.9331 126.789 54.8683 126.854 54.836ZM128.218 54.091C128.25 54.091 128.315 54.091 128.348 54.091C128.445 53.9614 128.51 53.8319 128.608 53.7023C128.445 53.8319 128.283 53.9614 128.153 54.091C128.153 54.091 128.185 54.091 128.218 54.091ZM127.568 55.2246C127.601 55.257 127.633 55.2894 127.666 55.3542C127.698 55.257 127.763 55.1922 127.796 55.0951C127.698 55.1275 127.633 55.1922 127.568 55.2246ZM128.608 75.8569C128.64 75.7921 128.673 75.7274 128.705 75.695C128.64 75.7274 128.608 75.7597 128.543 75.7597C128.575 75.7921 128.608 75.8245 128.608 75.8569ZM126.691 72.1969C126.789 72.0025 126.919 71.8082 127.016 71.6139C126.919 71.6462 126.854 71.6786 126.756 71.7434C126.691 71.7758 126.594 71.7758 126.529 71.7758C126.561 71.9054 126.626 72.0673 126.691 72.1969ZM126.301 71.1928C126.464 71.0308 126.561 70.8689 126.691 70.6745C126.691 70.6422 126.659 70.5774 126.659 70.545C126.496 70.5774 126.301 70.5774 126.139 70.6422C126.171 70.8365 126.236 71.0308 126.301 71.1928ZM127.438 53.2165C127.308 53.4756 127.178 53.7347 127.048 53.9938C127.503 53.7023 127.926 53.3784 128.315 53.0221C128.056 53.0545 127.763 53.1193 127.471 53.2165H127.438ZM140.725 42.7222C135.397 43.791 130.947 47.5159 128.12 52.018C128.088 52.0504 128.056 52.1152 128.023 52.1476C127.991 52.2124 127.926 52.3096 127.893 52.3743C128.315 52.2772 128.705 52.2772 129.16 52.3096C129.29 52.3419 129.387 52.4067 129.452 52.5039C135.819 44.3093 148.001 42.042 156.935 47.7102C157.032 47.775 157.13 47.8398 157.227 47.9045C157.259 47.9045 157.259 47.8722 157.292 47.8722C157.779 47.775 158.234 47.6778 158.721 47.6454C158.072 47.0948 157.422 46.5442 156.707 46.0583C152.029 42.8517 146.215 41.6209 140.725 42.7222ZM134.65 82.0757C139.263 85.2823 145.078 86.5131 150.6 85.4119C155.928 84.343 160.378 80.6182 163.204 76.116C164.861 73.4925 165.836 70.6098 166.225 67.6623C165.933 67.5975 165.836 67.2088 166.095 67.0145C166.16 66.9497 166.225 66.9173 166.29 66.8526C166.29 66.7554 166.29 66.6582 166.323 66.5611C166.095 66.6582 165.836 66.723 165.608 66.8202H165.576C165.023 70.3183 163.464 73.6544 161.158 76.4075C154.726 84.1487 142.739 85.6386 134.358 80.3267C133.221 79.6141 132.181 78.772 131.272 77.8651C131.077 77.9299 130.784 77.8327 130.752 77.5412C130.752 77.444 130.752 77.3792 130.719 77.3145C130.687 77.2821 130.654 77.2497 130.654 77.2173C130.427 77.3792 130.2 77.5088 129.972 77.6707C131.337 79.3874 132.863 80.8449 134.65 82.0757Z" fill="white"/>
<path d="M151.12 70.0267C145.305 72.3911 139.068 73.7515 133.643 76.9905C133.253 77.2172 132.896 76.6018 133.286 76.3751C138.743 73.1037 145.078 71.711 150.925 69.3465C151.347 69.1846 151.542 69.8647 151.12 70.0267Z" fill="white"/>
<path d="M136.177 78.9338C140.432 78.0917 144.233 75.792 148.034 73.8486C148.424 73.6543 148.781 74.2373 148.391 74.464C144.525 76.4398 140.692 78.7718 136.372 79.6464C135.917 79.7111 135.754 79.031 136.177 78.9338Z" fill="white"/>
<path d="M174.964 108.603C176.134 106.919 177.206 105.17 178.18 103.388C178.667 102.481 179.09 101.574 179.512 100.635C179.967 99.6309 180.616 98.4649 180.422 97.3313C180.357 96.8778 181.039 96.7158 181.104 97.1369C181.364 98.7564 180.422 100.344 179.772 101.736C178.862 103.744 177.758 105.623 176.556 107.469C174.087 111.291 171.196 114.789 168.435 118.385C168.175 118.741 167.557 118.385 167.817 118.028C170.221 114.951 172.723 111.874 174.964 108.603Z" fill="white"/>
<path d="M172.755 104.068C172.982 103.68 173.567 104.036 173.372 104.425C170.156 110.287 166.323 115.826 161.125 120.134C160.768 120.425 160.281 119.939 160.638 119.648C165.771 115.372 169.571 109.899 172.755 104.068Z" fill="white"/>
<path d="M192.603 2.36449C193.058 2.23493 193.253 2.91512 192.798 3.01229C192.116 3.20662 194 11.8223 194 12.9559C194 13.4094 193.285 13.4094 193.285 12.9559C193.318 10.7858 192.636 8.55094 192.311 6.41321C192.213 5.70064 191.434 2.656 192.603 2.36449Z" fill="white"/>
<path d="M189.777 4.08102C189.679 7.67629 190.394 11.2068 190.946 14.7373C191.011 15.1907 190.329 15.385 190.264 14.9316C189.712 11.3363 188.997 7.74107 189.095 4.11341C189.095 3.62756 189.809 3.62756 189.777 4.08102Z" fill="white"/>
<path d="M175.938 1.16599C171.196 2.46158 166.778 4.69648 162.132 6.31597C161.71 6.47791 161.515 5.79773 161.937 5.63578C166.583 4.01629 171.001 1.7814 175.744 0.485807C176.198 0.356248 176.393 1.03643 175.938 1.16599Z" fill="white"/>
<path d="M169.019 0.647752C164.309 3.49805 158.981 5.05276 154.044 7.41721C153.621 7.61155 153.297 6.99615 153.686 6.80181C158.624 4.46974 163.919 2.88265 168.662 0.0647357C169.052 -0.194382 169.377 0.421023 169.019 0.647752Z" fill="white"/>
<path d="M60.2919 139.276C60.3243 134.677 60.974 130.11 61.0065 125.51C61.0065 125.057 61.7212 125.057 61.7212 125.51C61.6887 130.11 61.039 134.677 61.0065 139.276C61.0065 139.729 60.2919 139.729 60.2919 139.276Z" fill="white"/>
<path d="M57.953 137.171C58.0504 133.899 58.0179 130.628 58.4077 127.356C58.4727 126.903 59.1549 126.903 59.1224 127.356C58.7326 130.628 58.7326 133.899 58.6676 137.171C58.6351 137.624 57.953 137.624 57.953 137.171Z" fill="white"/>
<path d="M131.077 166.192C128.121 168.038 125.164 169.917 122.403 172.022C122.046 172.314 121.689 171.698 122.046 171.407C124.807 169.301 127.763 167.423 130.719 165.576C131.109 165.35 131.466 165.965 131.077 166.192Z" fill="white"/>
<path d="M122.955 175.65C122.696 175.974 122.176 175.553 122.403 175.229C122.631 174.905 122.89 174.581 123.15 174.289C123.215 174.225 123.28 174.192 123.345 174.192C125.489 172.022 128.186 170.532 130.719 168.88C131.109 168.621 131.466 169.237 131.077 169.496C128.218 171.309 125.132 172.994 122.955 175.65Z" fill="white"/>
<path d="M22.9016 159.52C26.0202 158.289 29.2687 157.447 32.4847 156.475C36.7077 155.212 40.9632 153.949 45.1538 152.556C46.3557 152.167 47.5252 151.746 48.6947 151.325C49.2144 151.131 49.7342 150.936 50.2539 150.742C50.3189 150.71 50.6762 150.58 50.7412 150.548C50.9036 150.483 51.0985 150.386 51.261 150.321C51.8782 150.062 52.4629 149.738 53.0476 149.414C53.4375 147.665 56.4585 147.244 57.2057 149.382C58.1802 152.264 53.8273 153.787 51.9107 154.596C48.2074 156.151 44.3417 157.317 40.5084 158.483C36.4803 159.714 32.4197 160.912 28.3916 162.143C26.9947 162.564 25.6303 163.018 24.266 163.504C24.201 163.536 24.0061 163.601 23.8762 163.665C23.6813 163.763 23.4864 163.86 23.2914 163.957C22.2844 164.475 21.2774 165.058 20.5952 165.706C20.5302 165.771 20.4652 165.868 20.4003 165.933C20.4003 165.933 20.4328 165.965 20.4652 165.965C21.7971 166.904 23.1615 167.228 24.9807 167.714C28.6515 168.718 32.4522 169.334 36.1555 170.273C40.8008 171.407 45.5761 172.022 50.059 173.771C54.1846 175.358 58.8949 178.468 57.2382 183.52C56.6859 185.205 55.8738 186.759 55.1592 188.346C54.9967 188.703 55.1592 188.314 54.9967 188.768C54.8018 189.383 54.6069 189.998 54.4445 190.614C54.0222 192.007 53.6324 193.399 53.275 194.792C52.2355 198.614 51.1635 202.436 50.059 206.258C58.1153 200.784 65.4894 192.395 75.8196 193.82C79.0031 194.241 81.1146 196.962 83.2911 199.035C85.9224 201.561 88.5212 204.12 91.12 206.711C93.6213 209.27 96.2201 211.829 99.1437 213.999C99.761 214.453 100.346 214.906 100.865 215.457C101.06 215.651 101.288 215.975 101.548 216.169C101.58 216.072 101.743 215.716 101.743 215.651C103.009 211.667 102.295 206.906 102.295 202.663C102.295 199.294 102.36 195.893 102.23 192.525C102.1 189.415 101.84 185.982 100.541 183.099C100.053 182.063 100.216 180.832 101.288 180.217C102.197 179.698 103.692 179.925 104.179 180.962C106.68 186.5 106.583 192.913 106.55 198.873C106.518 203.149 106.778 207.424 106.55 211.699C106.42 213.902 106.193 216.169 105.251 218.177C104.016 220.833 100.833 220.898 98.7539 219.246C98.2667 218.858 97.8768 218.372 97.4221 217.918C96.8698 217.368 96.1876 216.947 95.5704 216.461C94.0761 215.295 92.6792 214.032 91.2824 212.736C88.5537 210.177 85.9874 207.489 83.3561 204.898C81.8942 203.472 80.3675 202.08 78.9381 200.622C77.6712 199.327 76.5018 198.161 74.6501 197.804C71.5965 197.221 68.1856 198.841 65.6193 200.266C59.2523 203.764 54.1846 209.367 47.6226 212.477C46.0309 213.222 43.9843 211.991 44.5366 210.112C45.6411 206.161 46.8105 202.242 47.915 198.29C48.922 194.63 49.6692 190.808 51.0336 187.278C51.4559 186.209 51.9756 185.14 52.4629 184.103C52.6903 183.618 52.8852 183.132 53.0801 182.613C53.1776 182.354 53.2425 182.095 53.34 181.836C53.3725 181.707 53.405 181.577 53.4374 181.447C53.4374 181.383 53.405 181.188 53.405 181.091C53.405 181.059 53.3725 181.026 53.3725 180.994C53.34 180.962 53.34 180.929 53.3075 180.832C53.0476 180.346 53.0801 180.411 52.7553 180.055C52.1056 179.342 51.3909 178.921 50.4488 178.435C46.2908 176.233 41.2556 175.617 36.7077 174.646C33.0044 173.868 29.2687 173.026 25.5654 172.152C22.2844 171.374 17.6715 170.435 16.2422 167.002C14.6504 163.342 20.3353 160.556 22.9016 159.52ZM101.385 216.461C101.418 216.396 101.45 216.364 101.483 216.299C101.45 216.331 101.418 216.396 101.385 216.461ZM101.548 216.202C101.58 216.169 101.58 216.137 101.613 216.105C101.58 216.137 101.548 216.169 101.548 216.202ZM20.2054 165.738C20.2054 165.674 20.2054 165.706 20.2054 165.738V165.738Z" fill="white"/>
<path d="M46.7785 165.317C46.4537 165.285 46.2588 164.831 46.6161 164.67C53.6653 160.88 61.1694 156.637 69.2256 155.536C69.6804 155.471 69.8753 156.151 69.4205 156.216C61.8515 157.252 54.7698 161.107 48.0779 164.702C51.3914 164.831 54.7049 164.605 58.0183 164.67C61.2018 164.734 64.8402 164.734 67.9587 165.803C73.3187 164.184 78.4513 161.754 84.1362 161.366C84.591 161.333 84.591 162.046 84.1362 162.078C78.8412 162.402 74.0009 164.605 68.9982 166.192C69.1931 166.257 69.3556 166.354 69.5505 166.451C70.655 167.002 71.2397 167.876 71.5321 168.848C76.0475 167.066 80.6278 165.155 85.4681 165.188C85.9229 165.188 85.9229 165.9 85.4681 165.9C80.6928 165.868 76.1449 167.811 71.6945 169.56C71.8569 170.759 71.6295 172.119 71.3371 173.35C73.4487 172.54 75.5277 171.73 77.6392 171.018C81.1801 169.819 85.1757 168.653 88.944 169.301C89.3988 169.366 89.2039 170.046 88.7491 169.981C84.9808 169.301 80.9852 170.629 77.4443 171.795C75.3003 172.508 73.1888 173.35 71.0773 174.16C71.0123 174.386 70.9473 174.581 70.9148 174.808C70.7199 175.488 70.4925 176.168 70.2327 176.848C70.2651 176.945 70.2327 177.075 70.1027 177.172C70.0702 177.237 70.0377 177.334 70.0053 177.399C78.4189 175.617 87.0923 175.002 95.246 172.216C95.6684 172.054 95.8633 172.735 95.441 172.896C87.1248 175.747 78.2564 176.297 69.7129 178.176C68.6734 180.8 67.5364 183.423 66.9842 186.176C69.4205 184.816 71.3696 182.84 73.6436 181.285C74.1308 180.962 74.6506 180.67 75.1379 180.476C74.2608 180.605 73.3837 180.735 72.4741 180.832C72.0193 180.897 72.0193 180.184 72.4741 180.119C80.8227 179.018 89.1714 177.593 97.3576 175.585C97.1627 174.484 96.8053 173.415 96.318 172.508C96.0907 172.119 96.7079 171.763 96.9353 172.152C97.4875 173.123 97.8124 174.257 98.0398 175.423C98.0722 175.423 98.1047 175.423 98.1047 175.391C98.5595 175.293 98.7219 175.941 98.2996 176.071C98.2347 176.071 98.2022 176.103 98.1372 176.103C98.4621 178.273 98.3971 180.573 98.2996 182.581C98.2671 183.585 98.1697 184.589 98.0073 185.561C98.8519 185.367 99.5341 185.205 99.7615 185.172C100.216 185.075 100.379 185.755 99.9564 185.852C99.2742 185.982 98.592 186.144 97.8773 186.273C97.7474 186.954 97.6175 187.634 97.4225 188.314C97.0652 189.545 96.513 190.938 95.376 191.683C95.246 191.747 95.0511 191.747 94.9537 191.618C93.6218 190.095 92.16 188.703 90.6332 187.407C90.1134 187.31 89.6911 187.116 89.6262 186.63C89.6262 186.597 89.6262 186.597 89.6262 186.565C89.3988 186.403 89.2039 186.209 88.9765 186.047C88.5866 185.723 88.1968 185.431 87.807 185.14C86.6375 185.269 85.4681 185.302 84.2986 185.172C83.8438 185.14 83.8438 184.427 84.2986 184.46C85.2082 184.557 86.0853 184.524 86.9624 184.492C85.8579 183.682 84.6885 182.905 83.454 182.225C83.3241 182.257 83.1941 182.257 83.0642 182.29C82.0247 182.484 80.6928 183.067 79.6208 182.84C79.4584 182.808 79.3934 182.646 79.3609 182.516C79.3609 182.484 79.3609 182.484 79.3609 182.451C79.3284 182.322 79.4259 182.225 79.5233 182.16C79.7832 181.998 80.0431 181.901 80.3355 181.771C80.5953 181.674 80.7578 181.868 80.7578 182.095C81.1801 181.998 81.6024 181.868 81.9272 181.804C82.0897 181.771 82.2846 181.739 82.447 181.707C82.0247 181.512 81.6024 181.285 81.1476 181.124C78.3539 179.99 75.8201 180.54 73.4162 182.225C71.1097 183.844 69.1606 185.852 66.5943 187.116C66.302 187.245 66.0421 187.018 66.0746 186.727C66.4969 183.877 67.7313 181.091 68.8033 178.37C68.7059 178.403 68.5759 178.435 68.4785 178.435C68.1861 178.5 67.9262 178.208 68.0886 177.917C68.446 177.334 68.9008 177.042 69.453 176.718C69.5505 176.395 69.6804 176.103 69.7779 175.779C69.9078 175.358 70.0377 174.937 70.1677 174.484C68.9008 174.969 67.6014 175.423 66.302 175.844C65.8797 175.974 65.6848 175.293 66.1071 175.164C67.5364 174.71 68.9657 174.192 70.3951 173.674C70.6874 172.508 70.9148 171.309 70.8824 170.111C70.8824 170.014 70.8824 169.917 70.8499 169.819C69.9403 170.176 68.9982 170.532 68.0886 170.856C67.6663 171.018 67.4714 170.338 67.8937 170.176C68.8358 169.852 69.7779 169.496 70.7199 169.139C70.4276 168.038 69.583 167.293 68.4135 166.807C68.2186 166.71 67.9912 166.645 67.7963 166.58C66.172 167.066 64.5478 167.487 62.8586 167.747C62.4038 167.811 62.2414 167.131 62.6637 167.066C63.9956 166.872 65.2625 166.581 66.5619 166.224C63.4758 165.414 60.0649 165.447 56.9788 165.414C53.6653 165.317 50.1895 165.576 46.7785 165.317ZM95.311 190.873C96.2531 190.095 96.6429 188.735 96.9353 187.634C97.0327 187.245 97.1302 186.824 97.1951 186.403C95.9282 186.695 94.6613 186.954 93.3944 187.148C93.102 187.18 92.4523 187.31 91.8026 187.375C93.0371 188.476 94.2065 189.642 95.311 190.873ZM88.879 185.01C89.5937 185.561 90.2759 186.112 90.9905 186.695C92.2574 186.792 95.1811 186.209 97.3251 185.723C97.4875 184.686 97.585 183.618 97.6499 182.581C94.7588 183.52 91.8351 184.524 88.8465 184.978C88.8465 184.978 88.8465 185.01 88.879 185.01ZM83.6489 181.48C83.7139 181.48 83.8114 181.447 83.8763 181.447C85.1432 181.221 86.4102 180.962 87.6446 180.735C90.3408 180.217 93.0046 179.634 95.6683 178.856C96.0907 178.727 96.2856 179.407 95.8633 179.536C93.0696 180.346 90.2434 180.929 87.3847 181.512C86.4426 181.707 85.5006 181.868 84.5585 182.063C85.7605 182.775 86.8974 183.618 88.0019 184.427C91.2504 184.039 94.4014 182.905 97.52 181.901C97.5525 181.901 97.585 181.901 97.6174 181.901C97.6824 180.152 97.7149 178.208 97.455 176.33C91.4128 177.82 85.3057 178.986 79.166 179.925C79.8157 179.99 80.4654 180.152 81.1476 180.411C82.0247 180.638 82.8693 181.026 83.6489 181.48Z" fill="white"/>
<path d="M52.2684 164.151C51.8136 164.216 51.6512 163.536 52.0735 163.471C60.8769 162.078 69.0956 158.451 77.7365 156.41C78.1913 156.313 78.3538 156.993 77.9315 157.09C69.2905 159.131 61.0718 162.791 52.2684 164.151Z" fill="white"/>
<path d="M3.60604 161.398C15.9828 155.471 28.7819 150.515 40.9962 144.296C41.386 144.102 41.7433 144.685 41.3535 144.912C29.1392 151.131 16.3401 156.086 3.96337 162.014C3.54107 162.176 3.18374 161.592 3.60604 161.398Z" fill="white"/>
<path d="M0.227551 158.936C11.0125 154.531 21.1478 148.734 31.8679 144.167C32.2902 144.005 32.6475 144.588 32.2252 144.782C21.4402 149.382 11.2724 155.179 0.422453 159.617C0.000148773 159.779 -0.16227 159.098 0.227551 158.936Z" fill="white"/>
<path d="M117.985 204.736C122.501 215.133 124.287 226.502 126.334 237.579C126.431 238.032 125.749 238.194 125.652 237.773C123.605 226.793 121.851 215.424 117.368 205.092C117.206 204.671 117.823 204.315 117.985 204.736Z" fill="white"/>
<path d="M124.84 205.578C126.724 208.493 127.438 212.088 127.958 215.489C128.51 219.149 128.738 222.809 129.095 226.502C129.128 226.955 128.445 226.955 128.38 226.502C128.023 223.004 127.828 219.538 127.308 216.04C126.821 212.606 126.106 208.914 124.19 205.934C123.995 205.545 124.612 205.189 124.84 205.578Z" fill="white"/>
<path d="M85.2405 217.335C84.8831 217.044 85.4029 216.558 85.7277 216.849C89.4635 219.959 92.4521 223.813 95.3433 227.668C95.6031 228.024 95.0184 228.38 94.7261 228.024C91.8999 224.234 88.9437 220.412 85.2405 217.335Z" fill="white"/>
<path d="M85.0131 224.332C88.9762 227.862 91.575 232.559 94.5961 236.834C94.856 237.19 94.2388 237.547 93.9789 237.19C90.9903 232.947 88.424 228.283 84.4933 224.817C84.2009 224.526 84.6882 224.04 85.0131 224.332Z" fill="white"/>
<path d="M24.9808 183.196C30.7631 183.067 36.8703 183.715 42.4577 181.901C42.88 181.771 43.0749 182.451 42.6526 182.581C37.0002 184.427 30.8281 183.779 24.9808 183.909C24.526 183.909 24.526 183.196 24.9808 183.196Z" fill="white"/>
<path d="M21.0177 181.512C28.7166 180.735 36.4805 180.994 44.1145 179.569C44.5693 179.472 44.7317 180.152 44.3094 180.249C36.6105 181.674 28.7816 181.447 21.0177 182.192C20.5629 182.257 20.5629 181.545 21.0177 181.512Z" fill="white"/>
<path d="M45.3489 222.259C52.7554 219.376 59.5123 215.068 66.1067 210.695C66.4966 210.436 66.8214 211.052 66.4641 211.311C59.8047 215.716 52.9828 220.024 45.5113 222.939C45.1215 223.101 44.959 222.421 45.3489 222.259Z" fill="white"/>
<path d="M39.0794 221.319C45.7388 218.307 52.6581 215.165 58.278 210.372C58.6353 210.08 59.1226 210.566 58.7653 210.857C53.0804 215.684 46.1611 218.858 39.4042 221.902C39.0144 222.129 38.6571 221.514 39.0794 221.319Z" fill="white"/>
<path d="M42.3279 194.08C42.5878 193.691 43.1725 194.047 42.9451 194.436C39.6642 199.391 39.1444 205.675 37.8125 211.311C37.7151 211.764 37.0329 211.57 37.1303 211.117C38.4622 205.416 39.0145 199.1 42.3279 194.08Z" fill="white"/>
<path d="M35.311 192.687C35.376 192.233 36.0582 192.428 35.9932 192.881C35.3435 197.74 33.8817 202.436 32.7447 207.165C32.6473 207.618 31.9651 207.424 32.0625 206.971C33.1995 202.209 34.6288 197.545 35.311 192.687Z" fill="white"/>
</g>
<defs>
<clipPath id="clip0_240_11540">
<rect width="194" height="238" fill="white" transform="matrix(-1 0 0 1 194 0)"/>
</clipPath>
</defs>
</svg>
