<svg width="24" height="24" viewBox="0 0 24 24" fill="none" xmlns="http://www.w3.org/2000/svg">
<mask id="path-1-inside-1_240_10407" fill="white">
<path fill-rule="evenodd" clip-rule="evenodd" d="M1 4.5C1 4.22386 1.22386 4 1.5 4H2.99002C4.23266 4 5.29558 4.83701 5.61409 6H20.6398C21.6518 6 22.3734 6.98152 22.0715 7.94741L20.1965 13.9474C20.0008 14.5736 19.4209 15 18.7648 15H6.5V16.4413C6.5 16.7174 6.72386 16.9413 7 16.9413H8.29599C8.3543 16.9362 8.41334 16.9336 8.47298 16.9336C8.53263 16.9336 8.59166 16.9362 8.64998 16.9413H18.296C18.3543 16.9362 18.4133 16.9336 18.473 16.9336C18.533 16.9336 18.5924 16.9362 18.651 16.9414C18.6826 16.942 18.7134 16.9455 18.7432 16.9517C19.72 17.0836 20.473 17.9207 20.473 18.9336C20.473 20.0382 19.5776 20.9336 18.473 20.9336C17.3684 20.9336 16.473 20.0382 16.473 18.9336C16.473 18.5725 16.5687 18.2337 16.7361 17.9413H10.2099C10.3773 18.2337 10.473 18.5725 10.473 18.9336C10.473 20.0382 9.57755 20.9336 8.47298 20.9336C7.36841 20.9336 6.47298 20.0382 6.47298 18.9336C6.47298 18.5638 6.57334 18.2174 6.74831 17.9203C6.03971 17.8006 5.5 17.184 5.5 16.4413V14.5249L4.70248 6.54975C4.6145 5.66997 3.87419 5 2.99002 5H1.5C1.22386 5 1 4.77614 1 4.5ZM8.34808 17.9413C7.85474 18.0028 7.47298 18.4236 7.47298 18.9336C7.47298 19.4859 7.9207 19.9336 8.47298 19.9336C9.02527 19.9336 9.47298 19.4859 9.47298 18.9336C9.47298 18.4236 9.09122 18.0028 8.59789 17.9413H8.34808ZM19.473 18.9336C19.473 18.4236 19.0912 18.0028 18.5979 17.9413H18.3481C17.8547 18.0028 17.473 18.4236 17.473 18.9336C17.473 19.4859 17.9207 19.9336 18.473 19.9336C19.0253 19.9336 19.473 19.4859 19.473 18.9336ZM6.45249 14H18.7648C18.9835 14 19.1768 13.8579 19.242 13.6491L21.1171 7.64914C21.2177 7.32717 20.9771 7 20.6398 7H5.75249L6.45249 14Z"/>
</mask>
<path fill-rule="evenodd" clip-rule="evenodd" d="M1 4.5C1 4.22386 1.22386 4 1.5 4H2.99002C4.23266 4 5.29558 4.83701 5.61409 6H20.6398C21.6518 6 22.3734 6.98152 22.0715 7.94741L20.1965 13.9474C20.0008 14.5736 19.4209 15 18.7648 15H6.5V16.4413C6.5 16.7174 6.72386 16.9413 7 16.9413H8.29599C8.3543 16.9362 8.41334 16.9336 8.47298 16.9336C8.53263 16.9336 8.59166 16.9362 8.64998 16.9413H18.296C18.3543 16.9362 18.4133 16.9336 18.473 16.9336C18.533 16.9336 18.5924 16.9362 18.651 16.9414C18.6826 16.942 18.7134 16.9455 18.7432 16.9517C19.72 17.0836 20.473 17.9207 20.473 18.9336C20.473 20.0382 19.5776 20.9336 18.473 20.9336C17.3684 20.9336 16.473 20.0382 16.473 18.9336C16.473 18.5725 16.5687 18.2337 16.7361 17.9413H10.2099C10.3773 18.2337 10.473 18.5725 10.473 18.9336C10.473 20.0382 9.57755 20.9336 8.47298 20.9336C7.36841 20.9336 6.47298 20.0382 6.47298 18.9336C6.47298 18.5638 6.57334 18.2174 6.74831 17.9203C6.03971 17.8006 5.5 17.184 5.5 16.4413V14.5249L4.70248 6.54975C4.6145 5.66997 3.87419 5 2.99002 5H1.5C1.22386 5 1 4.77614 1 4.5ZM8.34808 17.9413C7.85474 18.0028 7.47298 18.4236 7.47298 18.9336C7.47298 19.4859 7.9207 19.9336 8.47298 19.9336C9.02527 19.9336 9.47298 19.4859 9.47298 18.9336C9.47298 18.4236 9.09122 18.0028 8.59789 17.9413H8.34808ZM19.473 18.9336C19.473 18.4236 19.0912 18.0028 18.5979 17.9413H18.3481C17.8547 18.0028 17.473 18.4236 17.473 18.9336C17.473 19.4859 17.9207 19.9336 18.473 19.9336C19.0253 19.9336 19.473 19.4859 19.473 18.9336ZM6.45249 14H18.7648C18.9835 14 19.1768 13.8579 19.242 13.6491L21.1171 7.64914C21.2177 7.32717 20.9771 7 20.6398 7H5.75249L6.45249 14Z" fill="#D9D9D9"/>
<path d="M5.61409 6L4.64961 6.26414L4.85114 7H5.61409V6ZM22.0715 7.94741L23.026 8.24569L23.026 8.24569L22.0715 7.94741ZM20.1965 13.9474L21.151 14.2457V14.2457L20.1965 13.9474ZM6.5 15V14H5.5V15H6.5ZM8.29599 16.9413V17.9413H8.33974L8.38334 17.9375L8.29599 16.9413ZM8.64998 16.9413L8.56263 17.9375L8.60622 17.9413H8.64998V16.9413ZM18.296 16.9413V17.9413H18.3397L18.3833 17.9375L18.296 16.9413ZM18.651 16.9414L18.5631 17.9375L18.5976 17.9406L18.6321 17.9412L18.651 16.9414ZM18.7432 16.9517L18.5406 17.9309L18.5748 17.938L18.6094 17.9427L18.7432 16.9517ZM16.7361 17.9413L17.6039 18.4382L18.4609 16.9413H16.7361V17.9413ZM10.2099 17.9413V16.9413H8.48504L9.34203 18.4382L10.2099 17.9413ZM6.74831 17.9203L7.61003 18.4277L8.3469 17.1762L6.9149 16.9343L6.74831 17.9203ZM5.5 14.5249H6.5V14.4751L6.49504 14.4254L5.5 14.5249ZM4.70248 6.54975L3.70744 6.64926L4.70248 6.54975ZM8.34808 17.9413V16.9413H8.28602L8.22443 16.949L8.34808 17.9413ZM8.59789 17.9413L8.72153 16.949L8.65995 16.9413H8.59789V17.9413ZM18.5979 17.9413L18.7215 16.949L18.66 16.9413H18.5979V17.9413ZM18.3481 17.9413V16.9413H18.286L18.2244 16.949L18.3481 17.9413ZM6.45249 14L5.45746 14.0995L5.54751 15H6.45249V14ZM19.242 13.6491L18.2876 13.3509L18.2876 13.3509L19.242 13.6491ZM21.1171 7.64914L22.0715 7.94741L22.0715 7.94741L21.1171 7.64914ZM5.75249 7V6H4.64751L4.75746 7.0995L5.75249 7ZM1.5 3C0.671573 3 0 3.67157 0 4.5H2C2 4.77614 1.77614 5 1.5 5V3ZM2.99002 3H1.5V5H2.99002V3ZM6.57857 5.73586C6.14288 4.14497 4.69008 3 2.99002 3V5C3.77524 5 4.44829 5.52906 4.64961 6.26414L6.57857 5.73586ZM20.6398 5H5.61409V7H20.6398V5ZM23.026 8.24569C23.5291 6.63586 22.3264 5 20.6398 5V7C20.9771 7 21.2177 7.32717 21.117 7.64914L23.026 8.24569ZM21.151 14.2457L23.026 8.24569L21.1171 7.64914L19.2421 13.6491L21.151 14.2457ZM18.7648 16C19.8583 16 20.8249 15.2894 21.151 14.2457L19.2421 13.6491C19.1768 13.8579 18.9835 14 18.7648 14V16ZM6.5 16H18.7648V14H6.5V16ZM7.5 16.4413V15H5.5V16.4413H7.5ZM7 15.9413C7.27614 15.9413 7.5 16.1652 7.5 16.4413H5.5C5.5 17.2697 6.17157 17.9413 7 17.9413V15.9413ZM8.29599 15.9413H7V17.9413H8.29599V15.9413ZM8.47298 15.9336C8.38414 15.9336 8.29596 15.9375 8.20864 15.9451L8.38334 17.9375C8.41265 17.9349 8.44254 17.9336 8.47298 17.9336V15.9336ZM8.73733 15.9451C8.65001 15.9375 8.56183 15.9336 8.47298 15.9336V17.9336C8.50343 17.9336 8.53332 17.9349 8.56263 17.9375L8.73733 15.9451ZM18.296 15.9413H8.64998V17.9413H18.296V15.9413ZM18.473 15.9336C18.3841 15.9336 18.296 15.9375 18.2086 15.9451L18.3833 17.9375C18.4126 17.9349 18.4425 17.9336 18.473 17.9336V15.9336ZM18.7389 15.9453C18.651 15.9375 18.5623 15.9336 18.473 15.9336V17.9336C18.5036 17.9336 18.5337 17.9349 18.5631 17.9375L18.7389 15.9453ZM18.9459 15.9724C18.8559 15.9538 18.7635 15.9433 18.6699 15.9416L18.6321 17.9412C18.6016 17.9406 18.5709 17.9372 18.5406 17.9309L18.9459 15.9724ZM21.473 18.9336C21.473 17.4134 20.3432 16.1587 18.8771 15.9607L18.6094 17.9427C19.0968 18.0085 19.473 18.4279 19.473 18.9336H21.473ZM18.473 21.9336C20.1298 21.9336 21.473 20.5904 21.473 18.9336H19.473C19.473 19.4859 19.0253 19.9336 18.473 19.9336V21.9336ZM15.473 18.9336C15.473 20.5904 16.8161 21.9336 18.473 21.9336V19.9336C17.9207 19.9336 17.473 19.4859 17.473 18.9336H15.473ZM15.8683 17.4444C15.6165 17.8841 15.473 18.3936 15.473 18.9336H17.473C17.473 18.7514 17.5208 18.5833 17.6039 18.4382L15.8683 17.4444ZM10.2099 18.9413H16.7361V16.9413H10.2099V18.9413ZM11.473 18.9336C11.473 18.3936 11.3294 17.8841 11.0777 17.4444L9.34203 18.4382C9.42515 18.5833 9.47298 18.7514 9.47298 18.9336H11.473ZM8.47298 21.9336C10.1298 21.9336 11.473 20.5904 11.473 18.9336H9.47298C9.47298 19.4859 9.02527 19.9336 8.47298 19.9336V21.9336ZM5.47298 18.9336C5.47298 20.5904 6.81613 21.9336 8.47298 21.9336V19.9336C7.9207 19.9336 7.47298 19.4859 7.47298 18.9336H5.47298ZM5.88659 17.4129C5.62357 17.8596 5.47298 18.3805 5.47298 18.9336H7.47298C7.47298 18.747 7.52312 18.5753 7.61003 18.4277L5.88659 17.4129ZM4.5 16.4413C4.5 17.6801 5.39998 18.7067 6.58172 18.9063L6.9149 16.9343C6.67945 16.8945 6.5 16.6879 6.5 16.4413H4.5ZM4.5 14.5249V16.4413H6.5V14.5249H4.5ZM3.70744 6.64926L4.50496 14.6244L6.49504 14.4254L5.69752 6.45025L3.70744 6.64926ZM2.99002 6C3.36044 6 3.67059 6.28068 3.70744 6.64926L5.69752 6.45025C5.55842 5.05927 4.38794 4 2.99002 4V6ZM1.5 6H2.99002V4H1.5V6ZM0 4.5C0 5.32843 0.671573 6 1.5 6V4C1.77614 4 2 4.22386 2 4.5H0ZM8.22443 16.949C7.23674 17.072 6.47298 17.9129 6.47298 18.9336H8.47298C8.47298 18.9318 8.47318 18.9323 8.47265 18.9337C8.47232 18.9345 8.47219 18.9345 8.47274 18.9338C8.47334 18.9332 8.47382 18.9329 8.47365 18.933C8.4735 18.9331 8.47316 18.9332 8.47267 18.9334C8.47243 18.9335 8.4722 18.9335 8.47201 18.9336C8.47181 18.9336 8.47171 18.9336 8.47172 18.9336L8.22443 16.949ZM6.47298 18.9336C6.47298 20.0382 7.36841 20.9336 8.47298 20.9336V18.9336H6.47298ZM8.47298 20.9336C9.57755 20.9336 10.473 20.0382 10.473 18.9336H8.47298H8.47298V20.9336ZM10.473 18.9336C10.473 17.9129 9.70923 17.072 8.72153 16.949L8.47424 18.9336C8.47426 18.9336 8.47416 18.9336 8.47396 18.9336C8.47376 18.9335 8.47354 18.9335 8.4733 18.9334C8.47281 18.9332 8.47247 18.9331 8.47231 18.933C8.47215 18.9329 8.47263 18.9332 8.47323 18.9338C8.47378 18.9345 8.47365 18.9345 8.47332 18.9337C8.47279 18.9323 8.47298 18.9318 8.47298 18.9336H10.473ZM8.34808 18.9413H8.59789V16.9413H8.34808V18.9413ZM18.4742 18.9336C18.4743 18.9336 18.4742 18.9336 18.474 18.9336C18.4738 18.9335 18.4735 18.9335 18.4733 18.9334C18.4728 18.9332 18.4725 18.9331 18.4723 18.933C18.4721 18.9329 18.4726 18.9332 18.4732 18.9338C18.4738 18.9345 18.4736 18.9345 18.4733 18.9337C18.4728 18.9323 18.473 18.9318 18.473 18.9336H20.473C20.473 17.9129 19.7092 17.072 18.7215 16.949L18.4742 18.9336ZM18.3481 18.9413H18.5979V16.9413H18.3481V18.9413ZM18.473 18.9336C18.473 18.9318 18.4732 18.9323 18.4726 18.9337C18.4723 18.9345 18.4722 18.9345 18.4727 18.9338C18.4733 18.9332 18.4738 18.9329 18.4737 18.933C18.4735 18.9331 18.4732 18.9332 18.4727 18.9334C18.4724 18.9335 18.4722 18.9335 18.472 18.9336C18.4718 18.9336 18.4717 18.9336 18.4717 18.9336L18.2244 16.949C17.2367 17.072 16.473 17.9129 16.473 18.9336H18.473ZM18.473 18.9336H16.473C16.473 20.0382 17.3684 20.9336 18.473 20.9336V18.9336ZM18.473 18.9336V20.9336C19.5776 20.9336 20.473 20.0382 20.473 18.9336H18.473ZM18.7648 13H6.45249V15H18.7648V13ZM18.2876 13.3509C18.3528 13.1421 18.5461 13 18.7648 13V15C19.4209 15 20.0008 14.5736 20.1965 13.9474L18.2876 13.3509ZM20.1626 7.35086L18.2876 13.3509L20.1965 13.9474L22.0715 7.94741L20.1626 7.35086ZM20.6398 8C20.3025 8 20.062 7.67283 20.1626 7.35087L22.0715 7.94741C22.3734 6.98152 21.6518 6 20.6398 6V8ZM5.75249 8H20.6398V6H5.75249V8ZM7.44753 13.9005L6.74753 6.9005L4.75746 7.0995L5.45746 14.0995L7.44753 13.9005Z" fill="white" mask="url(#path-1-inside-1_240_10407)"/>
<circle cx="21" cy="6" r="3" fill="#FFBC5B"/>
<path d="M21.3965 4.78516V7.21525H20.9472V5.18963L20.1104 5.57853V5.18963L20.9472 4.78516H21.3965Z" fill="white"/>
</svg>
