<svg width="193" height="111" viewBox="0 0 193 111" fill="none" xmlns="http://www.w3.org/2000/svg">
<g clip-path="url(#clip0_240_15778)">
<path d="M0 60.3261C8.39942 61.4398 16.4255 61.6254 24.4516 61.2542C17.1721 59.398 9.706 59.398 2.61315 56.7994C12.3191 56.2425 21.8385 57.7274 31.3578 59.0268C22.7718 53.4582 12.5058 54.0151 2.98646 51.602C6.71954 49.9315 10.4526 50.6739 14.3723 50.3027C11.7592 48.8177 8.58607 49.5602 6.15957 47.8897C8.77273 46.5903 11.3859 46.7759 13.999 47.3328C21.4652 49.189 28.7447 51.4164 34.3443 56.985C35.0909 57.7274 35.8375 57.9131 36.7708 57.7274C48.1567 55.8713 59.1692 52.7157 70.1818 47.704C67.5687 45.6622 65.3288 43.9917 63.2756 42.1355C60.4758 39.5368 60.2892 37.495 63.4623 35.4532C81.381 23.5736 98.3665 10.0234 118.152 0.928115C122.818 -1.11369 127.111 -0.185597 131.218 1.85621C143.35 7.98163 155.856 13.5502 167.802 20.0468C175.268 24.1305 182.547 28.0285 189.267 33.2258C194.307 37.1238 194.307 39.3512 189.267 43.2492C186.094 45.6622 182.921 48.0753 179.374 49.9315C177.881 50.6739 177.321 51.602 177.508 53.4582C178.068 63.6672 177.508 74.0619 176.015 84.2709C175.268 89.097 171.908 92.4381 168.548 95.5937C164.255 99.6773 159.029 102.09 153.616 104.318C145.777 107.473 137.937 110.258 129.351 110.629C119.458 111.186 110.499 108.216 101.726 104.132C92.7669 100.049 84.7408 94.48 77.4613 87.9833C75.5948 86.3127 74.8482 84.4565 74.8482 82.0435C75.0348 72.0201 74.1015 62.1823 75.4081 52.1589C75.7814 49.3746 74.4749 48.4465 71.675 49.7458C65.7021 52.3445 59.7292 54.5719 53.383 56.2425C49.2766 57.3562 45.1702 58.0987 41.0638 58.8412C38.4507 59.2124 35.8375 59.2124 33.5977 61.4398C31.5445 63.4816 28.1847 63.1104 25.3849 63.1104C17.3588 63.1104 9.33269 62.9248 1.30658 61.4398C0.746615 61.8111 0.186654 61.6254 0 60.3261ZM76.7147 47.704C80.8211 51.0452 84.9275 52.9014 88.8472 55.3144C99.1132 61.4398 109.006 68.1221 120.018 72.5769C122.818 73.6907 125.431 73.8763 128.231 72.5769C145.217 64.2241 162.202 56.0569 178.628 47.1472C182.734 44.9198 186.467 42.3211 190.014 39.3512C189.267 37.1238 187.587 36.5669 186.28 35.6388C167.428 23.388 146.523 14.6639 126.551 4.08363C123.191 2.22745 120.018 2.96992 116.845 4.64049C106.206 10.2091 95.94 16.1489 86.4207 23.2024C80.8211 27.286 75.2215 31.3696 69.2485 34.8963C62.9023 38.6087 62.9023 38.98 69.0619 43.6204C71.8617 45.6622 74.2882 46.0335 77.648 44.5485C89.5938 39.5368 101.913 35.4532 114.419 32.1121C115.352 31.9264 115.912 31.3696 116.659 30.6271C118.898 28.0285 123.938 27.286 127.111 28.7709C128.418 29.5134 129.538 30.2559 129.538 32.1121C129.538 33.597 128.604 34.7107 127.298 35.2676C124.125 36.7525 120.765 37.3094 117.592 35.2676C116.659 34.7107 115.912 34.3395 114.792 34.7107C102.286 38.98 89.7805 43.2492 76.7147 47.704ZM175.081 52.7157C173.775 53.2726 172.655 53.8295 171.721 54.2007C158.282 60.883 144.657 67.5652 131.218 74.4331C126.551 76.8462 122.445 77.0318 117.592 74.8044C110.872 71.6488 104.153 68.1221 97.8066 64.2241C91.2737 60.3261 84.7408 56.4281 78.0213 52.3445C77.088 58.6555 77.4613 64.5953 77.088 70.7208C76.9014 72.0201 77.8346 72.7626 78.5812 73.505C83.0609 78.3311 88.6605 81.6723 93.8868 85.199C119.645 102.276 151.563 93.7375 170.415 76.2893C172.095 74.8044 174.148 73.505 174.335 70.9064C174.708 65.1522 175.641 59.2124 175.081 52.7157ZM77.088 76.1037C76.3414 81.6723 76.9014 86.1271 82.1277 89.6539C90.5271 95.2224 98.9265 100.234 108.446 103.761C130.098 111.743 156.229 104.689 170.975 87.4264C173.775 84.0853 173.588 80.7442 174.335 76.6606C142.977 103.204 111.432 105.803 77.088 76.1037ZM126.551 31.7408C123.378 31.3696 121.138 30.4415 118.525 32.8545C121.698 33.7826 123.938 33.9683 126.551 31.7408Z" fill="#1F222E"/>
<path d="M165.189 41.0218C165.002 42.5067 163.882 42.878 162.575 43.0636C161.642 43.2492 160.522 43.2492 160.522 42.1355C160.336 40.4649 161.829 40.0937 163.322 39.7225C164.069 39.5368 164.815 39.9081 165.189 41.0218Z" fill="#1F222E"/>
<path d="M156.416 45.6622C157.536 45.6622 158.656 45.6622 158.469 47.1472C158.282 48.4465 157.349 49.0034 156.042 49.189C154.923 49.3746 153.989 48.8177 153.989 47.5184C154.176 46.0335 155.296 45.6622 156.416 45.6622Z" fill="#1F222E"/>
<path d="M165.562 48.6321C165.188 50.1171 164.068 50.4883 162.762 50.4883C161.829 50.4883 161.082 50.1171 161.082 49.189C161.082 47.5184 162.575 47.3328 163.695 47.1472C164.815 46.9616 165.375 47.3328 165.562 48.6321Z" fill="#1F222E"/>
</g>
<defs>
<clipPath id="clip0_240_15778">
<rect width="193" height="111" fill="white"/>
</clipPath>
</defs>
</svg>
